<?xml version="1.0" encoding="utf-8"?>
<!-- Generator: Adobe Illustrator 25.2.0, SVG Export Plug-In . SVG Version: 6.00 Build 0)  -->
<svg version="1.1" id="Layer_1" xmlns="http://www.w3.org/2000/svg" xmlns:xlink="http://www.w3.org/1999/xlink" x="0px" y="0px"
	 viewBox="0 0 300 300" style="enable-background:new 0 0 300 300;" xml:space="preserve">
<style type="text/css">
	.st0{fill:#0B7A71;}
</style>
<g>
	<path class="st0" d="M149.9,279c-40.3,0-80.6,0-121,0c-13.2,0-23.7-7.3-27.4-19.1c-1-3.1-1.4-6.5-1.4-9.7C0,194.4,0,138.7,0,82.9
		C0.1,65.8,12,54.1,29.2,54c15.7,0,31.4-0.1,47.2,0c2.6,0,3.7-0.8,4.5-3.2c2.1-5.9,4.1-11.8,6.6-17.4c4.5-10.2,12.6-16.2,23.8-16.7
		c10.7-0.5,21.4-0.2,32.1-0.2c15.1,0,30.2-0.3,45.2,0.3c11.3,0.4,19.4,6.6,23.9,16.9c2.6,5.8,4.7,11.9,6.9,17.9
		c0.7,1.9,1.6,2.5,3.6,2.5c16.4-0.1,32.7-0.1,49.1,0c13.6,0.1,24.7,9.3,27.3,22.5c0.4,2,0.5,4.2,0.5,6.3c0,55.8,0.1,111.5,0,167.3
		c0,15-9.2,26.1-23.4,28.5c-2.3,0.4-4.7,0.4-7.1,0.4C229.6,279,189.8,279,149.9,279z M149.9,236.9c38.7,0.2,70.3-31.4,70.4-70.2
		c0.1-38.7-31.1-70.2-69.9-70.4c-39-0.2-70.5,31-70.7,70.1C79.5,205.1,111,236.7,149.9,236.9z"/>
	<path class="st0" d="M149.6,218c-28.3,0-51.2-23.2-51.2-51.7c0-28.5,23.2-51.5,51.8-51.5c28.4,0,51.4,23.4,51.3,52.2
		C201.5,195.4,178.4,218.1,149.6,218z"/>
</g>
</svg>
