<?xml version="1.0" encoding="utf-8"?>
<!-- Generator: Adobe Illustrator 25.2.0, SVG Export Plug-In . SVG Version: 6.00 Build 0)  -->
<svg version="1.1" id="Layer_1" xmlns="http://www.w3.org/2000/svg" xmlns:xlink="http://www.w3.org/1999/xlink" x="0px" y="0px"
	 viewBox="0 0 300 300" style="enable-background:new 0 0 300 300;" xml:space="preserve">
<style type="text/css">
	.st0{fill:#0B7A71;}
</style>
<g>
	<path class="st0" d="M0,196.88c0.47-2.48,0.82-4.99,1.42-7.44c6.44-26.47,22.93-43.23,49.1-50.52c7.42-2.07,14.89-3.94,22.34-5.87
		c6.28-1.63,11.02-5.26,14.21-10.9c2.69-4.75,5.23-9.59,8.03-14.28c17.16-28.68,55.34-34.61,80.44-12.55
		c0.73,0.64,1.46,1.27,2.28,1.99c12.92-12.92,25.76-25.74,38.56-38.62c0.71-0.72,1.13-1.8,1.48-2.78c1.2-3.4,2.15-6.89,3.49-10.23
		c1.41-3.53,3.14-6.92,5.06-11.07c-1.32-1.97-6.44-4.57-1.82-8.61c3.85-3.36,6.18,0.93,8.81,3.11c1.97-2.1,3.89-4.14,5.9-6.29
		c-1.82-2.49-6.52-4.93-2.62-8.94c3.96-4.06,6.4,0.74,9.26,2.75c1.92-2.05,3.78-4.03,5.7-6.08c-1.14-1.54-2.85-3.13-3.66-5.1
		c-1.01-2.48,0.74-4.2,2.79-5.45c0.98,0,1.95,0,2.93,0c1.54,1.4,3.08,2.81,4.61,4.19c1.72-1.51,3.24-2.85,4.76-4.19
		c0.98,0,1.95,0,2.93,0c3.07,3.14,6.82,4.4,11.19,4.91c10.08,1.18,16.69,7.78,17.88,17.89c0.52,4.36,1.78,8.11,4.91,11.19
		c0,0.98,0,1.95,0,2.93c-1.39,1.59-2.77,3.18-4.2,4.81c1.47,1.6,2.83,3.08,4.2,4.57c0,0.98,0,1.95,0,2.93
		c-3.07,4.23-4.35,4.12-10.38-0.86c-2.04,1.92-4.06,3.82-6.17,5.81c1.94,2.76,6.73,5.21,2.67,9.16c-3.99,3.89-6.44-0.8-9.26-2.85
		c-2,2-3.92,3.93-5.95,5.97c2,2.87,6.89,5.39,2.69,9.41c-3.93,3.75-6.29-0.82-9.07-2.92c-5.31,5.97-13.22,6.13-19.9,9.07
		c-1.31,0.58-2.77,1.1-3.75,2.06c-12.48,12.37-24.88,24.82-37.3,37.25c-0.27,0.27-0.5,0.58-0.85,0.99
		c6.04,6.32,10.5,13.55,13.02,21.94c6.97,23.15-2.47,47.9-23.16,60.36c-4.76,2.87-9.67,5.48-14.52,8.2
		c-5.75,3.22-9.46,7.98-11.13,14.38c-2.21,8.49-4.11,17.08-6.82,25.41c-8.76,26.95-27.28,42.63-55.35,46.92
		c-0.56,0.09-1.09,0.33-1.64,0.51c-4.1,0-8.2,0-12.3,0c-0.55-0.17-1.08-0.43-1.64-0.5c-14.62-1.75-27.34-7.66-37.87-17.91
		C40.07,270.63,29,259.5,18.03,248.27C10.25,240.32,5.02,230.81,2.27,220c-0.91-3.57-1.52-7.21-2.27-10.82
		C0,205.08,0,200.98,0,196.88z M171.75,103.8c-1.41-1.29-2.25-2.11-3.14-2.86c-20.39-17.11-51.58-12.07-65.46,10.65
		c-3,4.91-5.65,10.03-8.51,15.02c-4.28,7.47-10.54,12.46-18.87,14.72c-8,2.17-16.03,4.21-24.03,6.36
		c-43.05,11.58-57.39,63.87-26.21,95.73c10.52,10.75,21.07,21.48,31.94,31.86c31.18,29.77,82.17,16.03,94.32-25.35
		c2.33-7.95,4.38-15.98,6.38-24.02c2.37-9.57,7.82-16.63,16.5-21.27c4.38-2.35,8.75-4.74,13.02-7.29
		c16.84-10.08,24.9-29.31,20.27-48.36c-1.9-7.81-5.67-14.61-11.65-20.5c-4.94,4.96-9.72,9.69-14.36,14.55
		c-0.53,0.55-0.38,1.88-0.32,2.84c0.33,5.61,1.6,11.33,0.92,16.81c-2.01,16.4-15.07,29.6-31.5,32.86
		c-15.93,3.16-32.48-4.1-41.1-18.03c-8.7-14.05-7.68-32.39,2.55-45.27c5.06-6.36,11.46-10.83,19.24-13.24
		c2.71-0.84,5.02,0.24,5.83,2.46c0.89,2.44-0.27,4.68-3,5.79c-0.72,0.29-1.47,0.53-2.19,0.81c-13.51,5.3-21.52,19.38-19.16,33.66
		c2.34,14.15,14.31,24.88,28.66,25.7c14.26,0.82,27.47-8.59,31.32-22.38c1.23-4.39,1.63-8.86,0.46-13.81
		c-3.92,4.27-8.06,7.4-9.75,13.17c-2.83,9.65-13.37,15.56-23.04,14.09c-10.85-1.65-18.54-9.87-19.14-20.47
		c-0.6-10.55,6.12-19.82,16.24-22.62c1.41-0.39,2.88-1.2,3.92-2.22c6.91-6.76,13.69-13.65,20.56-20.46
		C165.41,109.77,168.47,106.93,171.75,103.8z M289.55,35.08c-0.24-0.48-0.48-0.81-0.58-1.17c-0.84-3.18-1.95-6.33-2.41-9.56
		c-0.92-6.44-4.53-10.06-11.02-10.91c-2.96-0.39-5.95-1.1-8.72-2.18c-1.69-0.66-2.54-0.46-3.73,0.74
		c-10.17,10.25-20.41,20.44-30.59,30.69c-0.79,0.8-1.49,1.82-1.87,2.87c-1.41,3.94-2.77,7.91-3.92,11.93
		c-0.25,0.86,0.11,2.29,0.73,2.94c3.97,4.17,8.04,8.25,12.21,12.21c0.64,0.61,2.08,0.87,2.98,0.62c3.29-0.89,6.53-1.98,9.73-3.14
		c1.61-0.59,3.43-1.17,4.6-2.31c10.51-10.33,20.89-20.79,31.3-31.22C288.73,36.12,289.12,35.59,289.55,35.08z M163.92,147.74
		c18.85-18.83,37.73-37.69,56.34-56.28c-3.88-3.87-7.92-7.9-11.42-11.4c-18.71,18.71-37.63,37.64-56.44,56.46
		C158.02,139.53,158.32,139.81,163.92,147.74z M143.51,143.54c-7.33,0.02-13.14,5.93-13.06,13.28c0.08,7.23,5.85,13.01,13.04,13.06
		c7.28,0.05,13.22-5.87,13.23-13.18C156.72,149.37,150.85,143.52,143.51,143.54z M226.98,84.53c2.14-1.92,4.2-3.77,5.8-5.2
		c-4.14-4.12-8.16-8.13-11.85-11.81c-1.79,1.61-3.84,3.46-5.78,5.2C219.26,76.82,223.24,80.8,226.98,84.53z"/>
	<path class="st0" d="M97.04,251.64c-1.36-0.81-2.7-1.29-3.61-2.2c-14.26-14.17-28.48-28.39-42.67-42.63
		c-2.37-2.38-2.28-4.67,0.15-7.15c3.55-3.63,7.16-7.2,10.75-10.78c3.22-3.2,5.22-3.23,8.41-0.05c10.5,10.48,20.98,20.98,31.47,31.47
		c3.38,3.38,6.78,6.74,10.14,10.15c2.82,2.87,2.85,4.96,0.06,7.8c-3.63,3.69-7.26,7.37-10.99,10.95
		C99.75,250.16,98.39,250.76,97.04,251.64z M84.18,227.45c2.14-1.92,4.21-3.79,6-5.4c-4.06-4.07-8.04-8.07-11.96-12.01
		c-1.87,1.79-3.89,3.72-5.85,5.58C76.49,219.75,80.48,223.74,84.18,227.45z M66.21,197.72c-2.2,1.94-4.27,3.78-6.15,5.44
		c2.02,2.19,3.87,4.19,5.57,6.04c2.16-2.08,4.17-4.02,6.12-5.88C69.78,201.34,67.88,199.41,66.21,197.72z M96.9,240.25
		c1.99-2.07,3.91-4.07,5.74-5.96c-1.79-1.9-3.69-3.91-5.53-5.85c-2.06,2.12-3.99,4.1-5.98,6.15
		C92.97,236.39,94.89,238.28,96.9,240.25z"/>
</g>
</svg>
