<svg id="Layer_1" data-name="Layer 1" xmlns="http://www.w3.org/2000/svg" viewBox="0 0 299.9 261.7"><defs><style>.cls-1{fill:#086467;}.cls-2{fill:#0b7a71;}</style></defs><path class="cls-1" d="M299.9,152.44c-1.64,2.34-3.48,4.58-4.91,7Q261.6,217.19,228.36,275c-2.47,4.31-5.41,5.9-10.33,5.88q-68.85-.24-137.71,0c-4.46,0-7.21-1.4-9.44-5.31Q36.42,215.4,1.68,155.42c-2.24-3.87-2.23-7,0-10.88Q36.59,84.33,71.24,24c2-3.54,4.5-4.81,8.5-4.8q69.74.15,139.48,0c4.05,0,6.54,1.45,8.51,4.87q35,60.84,70.12,121.61c.65,1.11,1.37,2.19,2,3.28ZM149.22,26.49c-21.38,0-42.76.1-64.13-.08-4.29,0-7,1.56-9,5.14Q43.81,87.41,11.4,143.17c-2.75,4.74-2.78,9,0,13.78C33,194.12,54.44,231.4,76.27,268.45c1.39,2.36,5.44,3.51,8.5,4.41,2.1.61,4.62-.32,7-.32q53,0,105.91,0a57.93,57.93,0,0,1,9.27.95c6.33,1,14-1.64,16.63-6.09,4.9-8.46,9.65-17,14.55-25.46q24.39-42.12,48.9-84.16c3.11-5.31,3.12-10.07,0-15.37-12.79-22-25.39-44-38.09-66-8.3-14.38-16.72-28.71-25-43.12-2.8-4.87-6.46-7-12.37-6.91C190.8,26.7,170,26.49,149.22,26.49Z" transform="translate(0 -19.15)"/><path class="cls-2" d="M149.22,26.49c20.79,0,41.58.21,62.36-.13,5.91-.1,9.57,2,12.37,6.91,8.26,14.41,16.68,28.74,25,43.12,12.7,22,25.3,44.08,38.09,66,3.08,5.3,3.07,10.06,0,15.37q-24.6,42-48.9,84.16c-4.9,8.46-9.65,17-14.55,25.46-2.58,4.45-10.3,7.12-16.63,6.09a57.93,57.93,0,0,0-9.27-.95q-52.95-.1-105.91,0c-2.33,0-4.85.93-7,.32-3.06-.9-7.11-2.05-8.5-4.41C54.44,231.4,33,194.12,11.38,157c-2.76-4.74-2.73-9,0-13.78Q43.83,87.42,76.07,31.55c2.07-3.58,4.73-5.17,9-5.14C106.46,26.59,127.84,26.49,149.22,26.49Z" transform="translate(0 -19.15)"/></svg>