<?xml version="1.0" encoding="utf-8"?>
<!-- Generator: Adobe Illustrator 25.2.0, SVG Export Plug-In . SVG Version: 6.00 Build 0)  -->
<svg version="1.1" id="Layer_1" xmlns="http://www.w3.org/2000/svg" xmlns:xlink="http://www.w3.org/1999/xlink" x="0px" y="0px"
	 viewBox="0 0 300 300" style="enable-background:new 0 0 300 300;" xml:space="preserve">
<style type="text/css">
	.st0{fill:#0B7A71;}
</style>
<path class="st0" d="M299.96,28.12V271.8c-0.15,0.24-0.4,0.48-0.43,0.73c-1.6,13.43-14.17,27.51-33.52,27.46
	c-77.32-0.19-154.64-0.07-231.95-0.12c-3,0-6.08-0.2-8.99-0.88c-15.06-3.51-25-16.34-25.01-32.23
	c-0.04-38.07-0.01-76.15-0.01-114.22c0-39.73-0.01-79.47,0.01-119.2C0.06,20.35,5.64,10.39,17,4.04c3.41-1.9,7.42-2.72,11.16-4.04
	c81.23,0,162.46,0,243.69,0c0.44,0.18,0.86,0.44,1.31,0.52c10.09,1.87,17.78,7.26,22.65,16.22
	C297.72,20.25,298.61,24.31,299.96,28.12z M89.74,196.55c0.53-0.1,0.82-0.2,1.1-0.2c17.18-0.01,34.36,0,51.55-0.05
	c1.56-0.01,2.13,0.6,2.52,1.97c1.21,4.33,2.28,8.7,3.56,13.02c2.54,8.62,4.71,17.35,7.36,25.94c1.5,4.86,6.24,7.21,10.91,5.79
	c4.44-1.34,6.94-5.92,5.84-10.71c-0.17-0.76-0.4-1.51-0.61-2.26c-12.62-45.45-25.23-90.89-37.85-136.34
	c-2.74-9.86-5.45-19.73-8.22-29.57c-1.53-5.43-5.12-8.06-9.95-7.44c-5.15,0.67-6.88,4.42-8.09,8.79
	c-13.17,47.52-26.37,95.03-39.57,142.54c-2.16,7.79-4.38,15.57-6.5,23.38c-1.36,5.01,0.39,9.21,4.49,11.14
	c4.96,2.33,10.47-0.2,12.23-5.88c1.73-5.58,3.17-11.26,4.74-16.89C85.41,212.01,87.59,204.24,89.74,196.55z M229.37,197.17
	c0-11.71,0.01-23.43-0.01-35.14c0-1.27-0.02-2.54-0.17-3.8c-0.51-4.08-3.65-7.13-7.71-7.6c-3.82-0.44-7.73,1.88-8.99,5.61
	c-0.52,1.53-0.65,3.25-0.66,4.89c-0.04,23.91-0.03,47.83-0.02,71.74c0,1.26,0.06,2.54,0.3,3.77c0.62,3.23,3.2,5.78,6.42,6.48
	c6.15,1.34,10.78-2.76,10.82-9.65C229.42,221.38,229.37,209.27,229.37,197.17z M217.63,104.07c-2.05,0.64-3.79,2.11-4.74,4.04
	c-3.2,6.51,1.67,13.1,7.79,13.01c4.79-0.07,8.67-4.07,8.62-8.89C229.25,106.44,223.77,102.17,217.63,104.07z"/>
<path class="st0" d="M138.31,176.9c-6.99,0-43.6,0-43.6,0c7.43-26.75,14.81-53.29,22.18-79.84c0.2,0,0.18,0,0.38,0
	c7.28,26.18,14.55,52.35,21.88,78.73C139.3,176.35,138.88,176.9,138.31,176.9z"/>
</svg>
