<?xml version="1.0" encoding="utf-8"?>
<!-- Generator: Adobe Illustrator 25.2.0, SVG Export Plug-In . SVG Version: 6.00 Build 0)  -->
<svg version="1.1" id="Layer_1" xmlns="http://www.w3.org/2000/svg" xmlns:xlink="http://www.w3.org/1999/xlink" x="0px" y="0px"
	 viewBox="0 0 2500 2438" style="enable-background:new 0 0 2500 2438;" xml:space="preserve">
<style type="text/css">
	.st0{fill:#0B7A71;stroke:#0B7A71;stroke-width:86;stroke-miterlimit:10;}
</style>
<path class="st0" d="M155.06,156.06h2188.33V2284.7H155.06V156.06z M55.59,2384.18h2387.27V56.59H55.59V2384.18z M1565.54,1023.43
	c-14.92-6.96-34.82-9.95-58.69-9.95c-128.31,0-217.84,98.48-217.84,262.6c0,187,91.51,262.6,205.91,262.6
	c24.86,0,50.73-2.98,70.62-11.93V1023.43z M1512.81,861.3c20.89,0,32.83,0,52.72,1.99V598.7c0-6.96,4.97-9.95,9.94-9.95h161.14
	c7.96,0,9.95,2.98,9.95,7.96v930.04c0,27.85,0,62.67,4.97,100.46c0,6.96-1.99,7.96-8.95,11.94
	c-85.54,40.78-176.06,58.69-260.61,58.69c-219.83,0-376.99-136.27-376.99-413.79C1104,1046.31,1261.16,861.3,1512.81,861.3
	L1512.81,861.3z M928.93,1669.99c0,9.94-1.99,12.93-12.93,12.93H762.82c-9.95,0-12.93-4.97-12.93-12.93V601.68
	c0-9.95,4.97-12.93,12.93-12.93h154.18c7.96,0,11.94,2.98,11.94,11.94V1669.99z"/>
</svg>
