<?xml version="1.0" encoding="utf-8"?>
<!-- Generator: Adobe Illustrator 25.2.0, SVG Export Plug-In . SVG Version: 6.00 Build 0)  -->
<svg version="1.1" id="Layer_1" xmlns="http://www.w3.org/2000/svg" xmlns:xlink="http://www.w3.org/1999/xlink" x="0px" y="0px"
	 viewBox="0 0 300 300" style="enable-background:new 0 0 300 300;" xml:space="preserve">
<style type="text/css">
	.st0{fill:#FE1F1F;}
	.st1{fill:#FE2121;}
	.st2{fill:#FE1E1E;}
	.st3{fill:#FE2727;}
	.st4{fill:#FE1616;}
	.st5{fill:#FE1D1D;}
	.st6{fill:#FE2020;}
	.st7{fill:#FE2323;}
	.st8{fill:#FEE8E8;}
</style>
<g>
	<path class="st0" d="M146.2,166.94c0-10.51-0.23-21.03,0.22-31.52c0.08-1.81,2.82-3.88,4.77-5.15c2.52-1.64,5.49-2.61,8.56-4
		c0.12,1.65,0.33,4.33,0.54,7.21c3.29,0,6.56-0.48,9.63,0.09c8.28,1.55,13.39,7.33,13.99,15.14c0.62,7.98-4.24,16.22-12.08,18.11
		c-3.75,0.9-8.51-0.16-12.2-1.75C154.52,162.86,150.29,161.13,146.2,166.94z M160.63,134.98c0,9.36-0.74,18.24,0.32,26.9
		c0.51,4.19,8.44,4.48,10.63,0.85C175.6,156.08,169.49,138.82,160.63,134.98z"/>
	<path class="st1" d="M119.55,126.08c0.1,1.91,0.25,4.51,0.37,6.85c4.26,0.38,8.41,0.13,12.19,1.21
		c9.73,2.79,14.44,13.74,10.23,23.01c-4.15,9.13-15.26,13.76-23.07,8.29c-6.3-4.42-7.59-3.66-13.28,2.69
		c0-11.93-0.2-22.93,0.24-33.9c0.06-1.44,3.31-2.92,5.26-4.07C113.92,128.71,116.54,127.58,119.55,126.08z M119.89,134.13
		c0,9.93-0.36,18.42,0.32,26.82c0.13,1.61,4.24,3.45,6.79,4.08c1.24,0.31,3.85-1.55,4.58-3.04
		C135.04,154.96,129.37,139.46,119.89,134.13z"/>
	<path class="st2" d="M253.21,140.98c-2.05-2.2-4.1-4.41-6.23-6.7c5.33-2.46,11.17,6.08,16.4-0.94c0.5,0.46,1,0.93,1.5,1.39
		c-2.09,3.43-4.18,6.85-6.29,10.3c3.77,1.95,6.74,5.44,6.53,11.17c-0.37,9.85-7.85,14.42-16.78,10.08
		c-3.26-1.58-6.52-4.51-9.76,0.03c-0.39,0-0.79,0-1.18,0c0.03-0.75,0.06-1.49,0.09-2.24c-0.8-0.85-1.61-1.7-2.41-2.55
		c2.83-2.25,5.67-4.5,7.45-5.92c-1.99-4.52-4.95-8.91-5.57-13.61c-0.36-2.67,3.11-5.85,5.73-8.61c-0.42,7.57,5.13,7.55,9.43,8.89
		c0.39,0.09,0.77,0.18,1.16,0.27C253.24,142.02,253.22,141.5,253.21,140.98z M249.36,155.37c-0.31,0.48-0.62,0.97-0.92,1.45
		c1.7,2.54,3.2,5.25,5.2,7.52c0.78,0.89,2.69,0.8,4.08,1.15c0.2-1.49,1.1-3.84,0.49-4.34C255.49,158.94,252.35,157.25,249.36,155.37
		z"/>
	<path class="st3" d="M49.27,147.71c-2.29-0.85-4.58-1.7-7.68-2.85c0,7.73,0,14.84,0,22.34c-4.92,0-9.18,0-13.9,0
		c0-13.85,0-27.81,0-42.12c4.34,0,8.61,0,13.39,0c0,5.85,0,11.58,0,18.07c2.93,0.73,5.59,1.39,8.25,2.05
		C49.32,146.04,49.29,146.88,49.27,147.71z"/>
	<path class="st0" d="M192.93,140.95c7.23,0,7.75,3.98,7.54,8.81c-0.24,5.77-0.06,11.56-0.06,17.58c-4.68,0-8.95,0-13.69,0
		c0-9.45,0.01-18.69-0.01-27.94c0-1.32,0.15-2.77-0.29-3.95c-1.84-4.9-0.8-8.69,4.25-10.55c4.46-1.64,8.33-0.34,10.36,4.12
		c2,4.4-0.26,7.87-6.03,10.05C194.68,139.2,194.44,139.57,192.93,140.95z"/>
	<path class="st4" d="M49.27,147.71c0.02-0.83,0.05-1.67,0.07-2.5c0.01-6.21,0.02-12.42,0.05-18.62c0-0.37,0.27-0.74,0.54-1.41
		c4.11,0,8.33,0,12.78,0c0.14,0.97,0.35,1.76,0.35,2.54c0.02,13.02,0.01,26.03,0.01,39.45c-4.49,0-8.72,0-13.8,0
		C49.27,160.78,49.27,154.25,49.27,147.71z"/>
	<path class="st0" d="M235.08,161.53c0.8,0.85,1.61,1.7,2.41,2.55c-1.81,0.66-3.62,1.32-5.43,1.97c-8.23,2.94-16.33,3.25-23.34-2.7
		c-5.56-4.72-7.29-11.4-4.62-17.98c1.58-3.91,5.6-6.83,8.52-10.19c-0.02,0.36-0.04,0.71-0.04,1.07c-2.38,6.89,0.56,13.37,6.24,13.76
		c0,0.41,0,0.81-0.01,1.22c-1.44,4.92,4.8,11.5,10.99,11.39C231.56,162.58,233.32,161.91,235.08,161.53z"/>
	<path class="st0" d="M76.77,133.92c4.87,0.02,9.91-0.75,14.58,0.23c7.29,1.53,11.61,7.82,11.93,15.38
		c0.32,7.74-2.7,12.87-9.17,15.55c-0.31-3.51,0.55-7.8-1.16-10.39C88.12,147.39,82.24,140.8,76.77,133.92z"/>
	<path class="st0" d="M92.89,166.14c-7.89,3.17-15.48,2.66-21.86-3.11c-5.55-5.02-7-11.81-4.07-18.62c1.39-3.24,4.84-5.59,7.36-8.34
		c-0.87,11.76,6.62,19.43,13.6,27.24c1.07,1.19,3.32,1.32,5.03,1.95C92.94,165.54,92.92,165.84,92.89,166.14z"/>
	<path class="st5" d="M275.42,151.41c-2.27-8.57-8.45-16.16-6.48-26.21c4.17,0,8.39,0,12.98,0c2.62,9.76-4.57,17.34-6.23,26.15
		L275.42,151.41z"/>
	<path class="st6" d="M275.42,151.41l0.28-0.06c1.43,0.97,3.43,1.62,4.16,2.97c1.44,2.64,3.57,6.14,2.8,8.39
		c-0.78,2.28-4.72,4.8-7.27,4.79c-2.56-0.01-6.51-2.54-7.27-4.82c-0.75-2.27,1.4-5.78,2.9-8.4
		C271.79,152.93,273.91,152.35,275.42,151.41z"/>
	<path class="st7" d="M212.57,136.25c0.01-0.36,0.02-0.71,0.04-1.07c5.08-0.48,10.19-1.47,15.23-1.21c2.05,0.11,5.33,2.74,5.59,4.57
		c0.32,2.27-1.28,5.77-3.2,7.18c-3.35,2.46-7.57,3.73-11.43,5.5c0.01-0.41,0.01-0.81,0.01-1.22c2.9-2.34,5.27-5.03,3.29-8.97
		C220.18,137.24,217.25,134.84,212.57,136.25z"/>
	<path class="st0" d="M92.94,165.24c0.44-0.07,0.88-0.15,1.32-0.22c-0.46,0.37-0.92,0.75-1.38,1.12
		C92.92,165.84,92.94,165.54,92.94,165.24z"/>
	<path class="st0" d="M237.4,166.32c0.39,0,0.79,0,1.18,0c-0.29,0.29-0.58,0.58-0.87,0.88C237.61,166.9,237.5,166.61,237.4,166.32z"
		/>
	<path class="st8" d="M253.21,140.98c0.02,0.52,0.04,1.05,0.06,1.57c-0.39-0.09-0.77-0.18-1.16-0.27
		C252.47,141.84,252.84,141.41,253.21,140.98z"/>
</g>
</svg>
