<svg id="Layer_1" data-name="Layer 1" xmlns="http://www.w3.org/2000/svg" viewBox="0 0 292.14 300"><defs><style>.cls-1{fill:#0b7a71;}</style></defs><path class="cls-1" d="M177.88,230.86a12.61,12.61,0,0,1,2.17-1.49c17.19-6.06,21.34-19.67,21.36-35.94,0-3.19,1.55-6.37,2.38-9.56l1.65.2a30.94,30.94,0,0,1,1.63,3.45c3.93,11.89,11.71,20.69,22,27.49,4.26,2.81,8.65,5.46,12.69,8.56,7.27,5.55,8.21,10.41,3.83,18.46a39.76,39.76,0,0,1-4.45,6.6c-35.82,42.43-81.14,60.63-135.47,46.82S18.33,244.82,8.25,189.9C-4.61,119.78,38.89,52.83,107.17,37.2c46.87-10.73,88.5.21,122.61,35.42,3.29,3.39,4,5.75,1,10-20.49,28.72-39.36,58.44-55.31,89.94a9.5,9.5,0,0,1-4.16,3.7c-17.94,8.83-26.81,23.08-26.86,43.07a10.76,10.76,0,0,1-3.74,7.37c-12.34,9.73-15.19,25.93-6.36,38.47a27.57,27.57,0,0,0,37.3,7.3c12.83-8.15,16.46-24.39,8.47-37.94C179.46,233.38,178.74,232.26,177.88,230.86Zm-92.51-40.2c-15,0-27.63,12.59-27.67,27.44a27.67,27.67,0,1,0,27.67-27.44ZM76,109.33a27.4,27.4,0,1,0,27.93,27A27.51,27.51,0,0,0,76,109.33Zm59.89-50.58a27.51,27.51,0,1,0,27.84,27.08A27.53,27.53,0,0,0,135.85,58.75Z" transform="translate(-6)"/><path class="cls-1" d="M205.37,174.75l-18.6-11.07C191.7,145.14,286.57,4.28,298.14,0c-.93,4.47-1,8.35-2.55,11.54C291,21.13,286,30.51,281,39.88c-17.55,32.82-34.93,65.72-52.86,98.32C221.33,150.57,213.22,162.23,205.37,174.75Z" transform="translate(-6)"/><path class="cls-1" d="M157.2,248.05c-11.09-20.29-13.51-52.26,13.36-66.27,6.11-3.18,12.46-5.38,18.9-1.52s7.35,10.58,7.16,17.45c-.36,13.09-5.32,22.94-18.57,27.55C167.73,228.85,159.66,235,157.2,248.05Z" transform="translate(-6)"/><path class="cls-1" d="M181.31,171.63l3.1-5.38,18.34,10.93c-1.36,4.5-3,6.63-7.49,3.5-3.79-2.65-7.93-4.82-11.9-7.24A18.53,18.53,0,0,1,181.31,171.63Z" transform="translate(-6)"/></svg>