<?xml version="1.0" encoding="utf-8"?>
<!-- Generator: Adobe Illustrator 25.2.0, SVG Export Plug-In . SVG Version: 6.00 Build 0)  -->
<svg version="1.1" id="Layer_1" xmlns="http://www.w3.org/2000/svg" xmlns:xlink="http://www.w3.org/1999/xlink" x="0px" y="0px"
	 viewBox="0 0 500 500" style="enable-background:new 0 0 500 500;" xml:space="preserve">
<style type="text/css">
	.st0{fill:#0B7A71;stroke:#0B7A71;stroke-width:20;stroke-miterlimit:10;}
</style>
<path class="st0" d="M52.3,38.1h398.8c8.3,0,15.1,6.8,15.1,15.1v398.7c0,8.3-6.8,15.1-15.1,15.1H52.3c-8.3,0-15.1-6.8-15.1-15.1
	V53.2C37.2,44.8,44,38.1,52.3,38.1z M32.6,487h438c8.3,0,15.1-6.8,15.1-15.1V33.1c0-8.3-6.8-15.1-15.1-15.1H32.8
	c-8.3,0-15.1,6.8-15.1,15.1V472C17.7,480.3,24.4,487,32.6,487z M333.3,210.5c-15.4,0-20.6,8-20.6,14.6c0,7.2,3.5,12.2,24.2,23.3
	c30.6,15.2,40.1,29.9,40.1,51.3c0,32.1-23.8,49.3-56,49.3c-17,0-31.6-3.6-40-8.5c-1.4-0.6-1.6-1.6-1.6-3.2v-29.5
	c0-2.1,0.9-2.6,2.3-1.6c12.3,8.2,26.4,11.8,39.2,11.8c15.4,0,21.9-6.7,21.9-15.6c0-7.2-4.5-13.6-24.2-24.1
	c-27.7-13.6-39.2-27.4-39.2-50.5c0-25.8,19.7-47.4,53.8-47.4c16.8,0,28.5,2.6,34.9,5.6c1.6,0.9,2,2.6,2,4v27.5
	c0,1.6-0.9,2.6-2.9,2.1C358.7,213.9,346,210.5,333.3,210.5L333.3,210.5z M165.6,234.3c4.5,0.4,8,0.4,15.8,0.4
	c22.8,0,44.3-8.2,44.3-40.1c0-25.4-15.4-38.3-41.4-38.3c-1.4,0-2.7,0-4,0c-8.2,0.1-14.7,6.8-14.7,14.9L165.6,234.3L165.6,234.3z
	 M130.8,127.8c0-1.4,2.7-2.4,4.3-2.4c12.5-0.6,31-0.9,50.3-0.9c54,0,75.1,30.5,75.1,69.3c0,50.9-35.9,72.8-80,72.8l0,0
	c-8.4,0-15.2,6.8-15.2,15.2v61.3c0,1.6-0.6,2.4-2.3,2.4h-29.8c-1.6,0-2.3-0.6-2.3-2.4V127.8H130.8z"/>
</svg>
