<?xml version="1.0" encoding="utf-8"?>
<!-- Generator: Adobe Illustrator 25.2.0, SVG Export Plug-In . SVG Version: 6.00 Build 0)  -->
<svg version="1.1" id="Layer_1" xmlns="http://www.w3.org/2000/svg" xmlns:xlink="http://www.w3.org/1999/xlink" x="0px" y="0px"
	 viewBox="0 0 300.9 300.1" style="enable-background:new 0 0 300.9 300.1;" xml:space="preserve">
<style type="text/css">
	.st0{fill:#424242;}
	.st1{fill:#696B6B;}
	.st2{fill:#3C4360;}
	.st3{fill:#F8974A;}
	.st4{fill:#FAB17D;}
	.st5{fill:#4D5454;}
	.st6{fill:#FEE3CB;}
	.st7{fill:#D9E1F2;}
	.st8{fill:#F1BE8F;}
	.st9{fill:#7A97CD;}
	.st10{fill:#F58248;}
	.st11{fill:#E26B32;}
	.st12{fill:#1D3B65;}
	.st13{fill:#E0EAF7;}
	.st14{fill:#F68F4B;}
	.st15{fill:#B5C7E7;}
	.st16{fill:#183761;}
	.st17{fill:#304A8E;}
	.st18{fill:#626363;}
	.st19{fill:#99B0DB;}
	.st20{fill:#EBF3FB;}
	.st21{fill:#57595B;}
	.st22{fill:#1E478A;}
	.st23{fill:#5C81C1;}
	.st24{fill:#DDE7F6;}
	.st25{fill:#FEE2C8;}
	.st26{fill:#F78F4B;}
	.st27{fill:#A8A6A6;}
	.st28{fill:#F68F4B;stroke:#E26B32;stroke-miterlimit:10;}
	.st29{font-family:'ArialMT';}
	.st30{font-size:29.7px;}
	.st31{letter-spacing:-0.9;}
	.st32{letter-spacing:-1.8;}
	.st33{fill:#7F8184;}
	.st34{fill:#4D5454;stroke:#4D5454;stroke-width:0.25;stroke-miterlimit:10;}
	.st35{fill:#A8A6A6;stroke:#A8A6A6;stroke-width:2;stroke-miterlimit:10;}
	.st36{fill:#888989;}
	.st37{fill:#A9AAAA;}
	.st38{fill:#404444;}
	.st39{fill:none;stroke:#696B6B;stroke-width:4;stroke-miterlimit:10;}
	.st40{opacity:0.5;fill:none;stroke:#777777;stroke-width:4;stroke-miterlimit:10;}
	.st41{opacity:0.5;fill:none;stroke:#777777;stroke-width:2;stroke-miterlimit:10;}
</style>
<path class="st0" d="M88.4,138.3c2.2,2.5-3.1,3.1-5.5,1.4c-1.1,0.3-2.1,0.8-3.1,1.4c-0.5,0.3-0.9,0.7-1.2,1.2
	c-0.4,0.6-0.4,1.4,0.1,1.9c0.9,1,1.9,1.7,3.1,2.3c1.6,0.9,3.3,1.6,5,2.2c0.7,0.3,1.4,0.5,2.2,0.6c1.2,0.2,2.5,0.4,3.7,0.4
	c0.1,0,0.2,0,0.4,0.1c0.3,0,0.6,0.1,0.9,0.1c0.2,0,0.4,0,0.7,0c0.8,0.3,1.7,0.1,2.6,0.3c0.7,0,1.3,0.1,1.9,0.2c1-0.1,2,0.2,3.1,0.2
	c0,0.2,0,0.5,0,0.8c0,2.9,0,5.9,0,8.8v8.3c0,0.3,0,0.7,0,1c-0.1-0.1-0.1-0.2-0.2-0.3c-0.4-1.6-0.8-3.1-1.2-4.7
	c-0.6-2.3-1.2-4.5-1.8-6.8c-0.3-1-0.6-2.1-0.9-3.1c-0.1-0.5-0.5-0.8-1-0.8c-0.4,0-0.7,0-1.1,0.1c-1.2,0.3-2.3,0.6-3.5,0.9
	s-2.4,0.6-3.6,1l-6.7,1.8l-4.6,1.2l-6.6,1.8c-1.6,0.4-3.1,0.8-4.7,1.2c-2.2,0.6-4.4,1.2-6.6,1.8c-0.6,0.1-1.3,0.3-1.9,0.6
	c-0.2,0-0.4,0-0.6,0l-2.4,0.7c-0.3,0.1-0.6,0.2-0.9,0.3c-0.7,0.2-1,1-0.8,1.7c0.3,1.1,0.6,2.2,0.8,3.2c0.9,3.4,1.8,6.9,2.8,10.3
	c0.5,1.7,0.9,3.4,1.4,5.1c0.4,1.4,0.7,2.7,1.1,4.1h-4.1c0-0.1,0-0.3-0.1-0.4c-0.2-0.4-0.5-0.8-0.7-1.2c-0.8-1.1-1.6-2.3-2.5-3.4
	c-0.4-0.6-0.9-1.2-1.4-1.7c-0.8-0.8-1.7-1.6-2.5-2.5c-0.5-0.6-1.3-0.8-2.1-0.7c-0.6,0.1-1,0.6-1.1,1.2c-0.1,0.8,0.1,1.6,0.5,2.2
	c1,1.5,2.2,3,3.4,4.3c0.6,0.7,1.2,1.4,1.8,2.1c0.5,0.7,1,1.3,1.6,1.8c0.2,0.1,0.3,0.4,0.4,0.5c0.3,0.4,0.6,0.8,1.1,0.9l0.4,2.1
	c-0.7,0.3-1-0.2-1.3-0.5c-1.7-1.8-3.6-3.6-5.5-5.2c-1-0.8-1.9-1.6-2.9-2.3c-2-1.5-4.2-2.7-6.4-3.8c-0.6-0.3-1.4-0.4-2.1-0.3
	c-0.9,0.2-1.4,1-1.3,1.9c0.1,1,0.6,2,1.3,2.7c1.1,1.1,2.3,2,3.5,2.9c1.7,1.2,3.5,2.4,5.2,3.6l8.2,5.6c0.3,0.2,0.5,0.3,0.8,0.4v4.3
	c-0.3,0-0.6,0-0.8,0c-1.5-0.3-3-0.6-4.5-0.8c-1.3-0.2-2.7-0.3-4-0.3c-0.8,0-1.6,0-2.4,0c-0.2,0-0.4,0-0.7,0c-0.2,0-0.4,0.2-0.4,0.4
	c0,0,0,0,0,0c0.9,1.2,1.9,2.4,2.8,3.7s1.9,2.5,2.8,3.8c0.8,1.1,1.5,2.2,2.2,3.3c0.6,0.9,1.1,1.9,1.4,3c0.2,0.4,0,0.8-0.3,1
	c0,0,0,0-0.1,0c-0.8-0.1-1.5-0.4-2.2-0.9c-1.4-1-2.8-2.1-4.1-3.3c-0.6-0.5-1.2-1.2-1.8-1.8s-1.3-1.1-1.9-1.7c-1-1-1.9-2-2.8-3
	c-0.6-0.6-1.2-1.2-1.9-1.9c-0.2-0.2-0.3-0.4-0.5-0.6c-0.4-0.4-0.8-0.9-1.2-1.3c-0.2-0.2-0.5-0.4-0.8-0.3c-1-0.1-1.9,0-2.9,0.2
	c-0.2,0-0.3,0-0.5,0c-0.7,0.1-1.4,0.1-2.1,0.2s-1.6,0.3-2.4,0.5c-2.2,0.5-4.3,1.5-6.1,2.8c-1.1,0.9-2,2-2.5,3.3
	c-0.4,1-0.7,2.1-0.6,3.3c0,0.3-0.1,0.7-0.1,1c0,0.5,0,1,0,1.5c0,0.3,0.1,0.7,0.1,1c0,0.8,0.1,1.5,0.3,2.3c0.2,0.8,0.5,1.6,0.8,2.4
	c0.6,1.6,1.7,3,3,4c0.8,0.6,1.7,0.9,2.7,0.9c0.6-0.1,1.3,0,1.9,0c0.2,0,0.4-0.1,0.6-0.1c0.3-0.1,0.6-0.1,0.9-0.1c0.2,0,0.4,0,0.6,0
	c0.5-0.1,1-0.2,1.5-0.2c0.2,0,0.3,0,0.5,0c0.4-0.1,0.9-0.2,1.3-0.1c0.2,0,0.4,0,0.6,0c0.5-0.1,1-0.2,1.6-0.1c0.6,0,1.1-0.2,1.7-0.2
	c1.4,0,2.9,0,4.3,0c0.3,0,0.6,0.1,0.9,0.2c0.4,0.1,0.6,0.5,0.5,0.8c0,0,0,0,0,0c-0.2,0.5-0.5,0.8-0.9,1.1c-1.4,1.1-2.9,1.9-4.6,2.6
	c-1.5,0.6-3,1.1-4.5,1.4c-1,0.3-2,0.4-3,0.4c0,0-0.1,0-0.1,0c-0.5,0.1-1,0.1-1.6,0c-0.3-0.1-0.5,0-0.7,0.2c0.1,0.2,0.2,0.4,0.4,0.6
	c0.8,1.2,1.7,2.5,2.6,3.6c0.8,1.1,1.8,2.1,2.7,3.1l0.4,0.3c0.9,1,1.9,1.8,3,2.6c1.2,0.9,2.6,1.5,4,2c0.4,0.1,0.8,0.1,1.2,0.2
	c0.5,0.1,0.9,0.1,1.4,0.1c1-0.2,2-0.4,3-0.8c1.6-0.5,3-1.3,4.4-2.3c0.5-0.4,1.1-0.8,1.6-1.2s1.2-0.9,1.7-1.4c1-0.9,2-1.7,3.1-2.4
	c0.2-0.1,0.5-0.2,0.8-0.2v3.4c-0.1,0-0.2,0-0.4,0.1c-1.7,0.5-3.4,1.3-4.9,2.3c-0.6,0.4-1.1,0.9-1.5,1.4c-0.6,0.8-1.3,1.5-1.9,2.3
	c-0.4,0.6-0.9,1.1-1.2,1.8c-0.2,0.3-0.3,0.6-0.3,1c0,0.2,0,0.4,0.2,0.6c0.2,0.4,0.6,0.6,1,0.8c0.9,0.3,1.8,0.5,2.7,0.5
	c0.5,0,1,0.1,1.6,0.2s1,0,1.5,0c0.5,0.1,0.9,0.1,1.4,0c0.5-0.1,1-0.2,1.5-0.1l0.5,0.5v13.7l0,0H26.2l-1-0.5
	c-0.2-0.3-0.4-0.6-0.7-0.8c-0.9-1.1-1.8-2.2-2.6-3.3c-1.5-1.9-2.8-3.9-4.1-5.9c-0.8-1.2-1.5-2.5-2.2-3.8s-1.5-2.6-2.2-4
	c-1.1-2.2-2.1-4.5-3-6.9c-0.4-1.1-0.8-2.1-1.2-3.1c-0.6-2-1.3-3.9-1.7-5.9c-0.4-1.8-0.8-3.5-1-5.3c-0.1-0.9-0.2-1.8-0.4-2.7
	s-0.1-1.7-0.3-2.6c-0.1-0.6-0.1-1.2,0-1.8c0-0.6-0.1-1.3-0.2-1.9c-0.1-0.8-0.1-1.6,0-2.3c0.1-0.3,0.1-0.7,0.1-1c0-0.6,0-1.2,0-1.9
	c0-0.4,0-0.8,0.1-1.2c0-0.1,0.1-0.2,0.1-0.4c0.1-0.8,0.1-1.6,0.2-2.3c0.2-1.2,0.3-2.4,0.6-3.6c0.3-1.6,0.7-3.1,1.1-4.7
	c0.2-0.7,0.4-1.3,0.6-2c0.3-1,0.6-2,1-2.9c0.6-1.5,1.1-3,1.8-4.4c0.4-1,0.9-1.9,1.4-2.9c1.1-2.2,2.3-4.4,3.6-6.5
	c1.4-2.3,2.9-4.4,4.5-6.5c1-1.3,2-2.5,3.1-3.7c0.9-1,1.9-2,2.8-3s1.9-1.7,2.9-2.6s2.6-2.2,3.7-2.9c1.3-1,2.7-1.9,4.1-2.8
	s3.1-1.9,4.6-2.8c2.6-1.6,5.2-3,7.8-4.6c1.4-0.9,2.8-1.9,4.1-2.9c1.3-1,2.5-2.1,3.6-3.4c1.2-1.3,2.2-2.8,3.1-4.3
	c1-1.8,1.8-3.7,2.5-5.7c0.5-1.5,0.8-2.9,1.1-4.4c0.2-1,0.3-2,0.4-2.9c0.1-0.7,0.2-1.4,0.3-2.1c0-0.2,0-0.4,0-0.7
	c0-0.5,0-1.1,0.2-1.6c0-0.2,0-0.4,0-0.7c0-0.8,0-1.5,0-2.2c0-0.4,0.1-0.7,0.1-1.1c0-0.2,0.1-0.5,0.1-0.8c0-1,0-2,0-3
	c0-0.3,0-0.6-0.1-0.9c-0.1-1.3-0.1-2.7-0.1-4c0.1-0.8,0.2-1.6,0.2-2.4c0.1-0.9,0.2-1.7,0.3-2.6c0.2-1.6,0.6-3.2,1-4.8
	c0.3-1.2,0.8-2.4,1.2-3.6c0.5-1.3,1.1-2.6,1.8-3.8c0.9-1.8,2-3.5,3.2-5.2c0.7-0.9,1.5-1.7,2.2-2.7c0.6-0.8,1.3-1.5,2-2.2
	c1.2-1.1,2.4-2.2,3.7-3.2c1.3-1,2.6-2,4-2.8c1-0.7,2.1-1.2,3.1-1.8c0.6-0.3,1.5-0.8,2.1-1.1c1.7-0.8,3.3-1.6,5-2.2
	c1.2-0.4,2.4-0.9,3.6-1.3s2.6-0.8,3.8-1.1c0.8-0.2,1.6-0.5,2.3-0.6c1.4-0.3,2.7-0.6,4.1-0.9c0.9-0.2,1.8-0.4,2.6-0.5
	c0.7-0.1,1.4-0.1,2-0.2l2.2-0.3c0.2,0,0.5,0,0.8-0.1s0.7-0.1,1.1-0.1c0.1,0,0.1,0,0.2,0c1,0,2-0.2,3.1-0.2c3.5,0,6.9,0,10.4,0
	c0.3,0,0.6,0.1,0.9,0.1s0.6,0.1,0.8,0.1c0.5,0,1.1,0,1.6,0.2c0.1,0,0.1,0,0.2,0c0.8,0,1.7,0.1,2.5,0.2c1,0.1,1.9,0.3,2.9,0.4
	s2.1,0.3,3.1,0.6c1.4,0.3,2.7,0.6,4,1c1.1,0.3,2.1,0.7,3.2,1c2.2,0.7,4.4,1.6,6.4,2.8c1.7,1,3.3,2,4.8,3.2c0.9,0.6,1.8,1.3,2.6,2
	s1.7,1.4,2.5,2.1l2.1,1.8l0.1,0.1l2.5,2l3.2,2.9c0.1,0.1,0.2,0.2,0.2,0.4c-0.1,0.1-0.1,0.2-0.2,0.2c-0.6,0.2-1.2,0.3-1.8,0.5
	c-2.3,0.7-4.6,1.5-6.8,2.6c-2,0.9-3.9,2-5.8,3c-0.2,0.1-0.4,0.3-0.4,0.6c-0.3,0-0.6,0.1-0.9,0.2c-1.5,1.1-3.1,2.1-4.6,3.2
	c-0.5,0.4-1,0.8-1.5,1.2c-1,0.8-2,1.6-2.9,2.5c-1.4,1.3-2.8,2.6-4,4.1c-0.5,0.6-1.1,1.2-1.6,1.8c-1.6,2-3.1,4.1-4.4,6.3
	c-0.2,0.4-0.6,0.8-0.6,1.3c-1.1,0-2.2,0-3.3,0c-3.9-0.1-7.8-0.2-11.7,0c-4.3,0.1-8.6,0-12.8,0.1c-2.6,0-5,1-6.8,2.8
	c-1.6,1.7-2.5,3.9-2.4,6.2c0,3.8,0,7.6,0,11.4c-1.2,0.1-2.3-0.3-3.5-0.2c-0.6-0.2-1.2-0.2-1.8-0.2l-0.8-0.1
	c-0.4-0.1-0.7-0.1-1.1-0.1c-1.1,0-2.1,0-3.2,0.1c-0.8,0.1-1.7,0.2-2.5,0.4c-1,0.2-2,0.5-2.9,1c-0.3,0.2-0.6,0.4-0.9,0.6
	 M138.9,100.3c-0.6,0-1.2,0-1.8,0.1c-1.5,0.2-3,0.6-4.3,1.3c-0.5,0.3-1.1,0.6-1.6,0.9c-0.4,0.3-0.8,0.3-1.2,0.1
	c-0.6-0.2-1.2-0.4-1.8-0.6c-1.1-0.3-2.3-0.5-3.5-0.6c-1.1,0-2.2,0-3.4,0c-0.6,0-1.1,0.1-1.6,0.3c0.9,0.1,1.8,0.2,2.7,0.3
	c1.7,0.2,3.3,0.7,4.8,1.4c1,0.4,1.9,1,2.7,1.8c0.3,0.3,0.6,0.5,1,0.7c0.5-0.5,0.9-1,1.4-1.5s0.9-1,1.4-1.4c0.5-0.4,1.1-0.8,1.6-1.2
	c0.6-0.4,1.1-0.7,1.7-1C137.6,100.8,138.3,100.5,138.9,100.3L138.9,100.3z M107.9,99.8c1,0.2,2,0.3,3,0.5c1.9,0.3,3.7,1.3,5.2,2.6
	l0.2,0.1c0.1,0.1,0.4,0.1,0.5,0c0.1-0.1,0.1-0.1,0.2-0.2c1.4-1.8,3.3-3.2,5.5-3.8c0.1,0,0.2-0.1,0.2-0.1c-0.1-0.1-0.1-0.1-0.1-0.1
	c-0.7,0.1-1.4,0.1-2,0.2c-1.3,0.3-2.6,0.8-3.7,1.5c-0.3,0.2-0.8,0.3-1.1,0.1c-1.4-0.5-2.9-0.9-4.4-0.9
	C110.2,99.4,109.1,99.5,107.9,99.8L107.9,99.8z M96.1,98.4c1.1,0.1,2,0.2,2.9,0.3c1,0.2,1.9,0.5,2.8,0.9c0.8,0.5,1.6,0.9,2.3,1.5
	c0.5-0.6,1-1.2,1.5-1.8c0.6-0.5,1.2-1,1.8-1.5c0.6-0.4,1.3-0.6,2.1-1.1c-2.1,0.2-4,0.9-5.7,2.1c-1.2-0.4-2.5-0.7-3.8-0.7
	C98.7,98,97.4,98.1,96.1,98.4z M134.4,97c0.2-0.1,0.3-0.2,0.4-0.3c0.3-0.3,0.6-0.6,0.9-0.9c1-1.1,2.3-1.9,3.7-2.3
	c0.1,0,0.2-0.1,0.4-0.2c-1.9-0.1-3,0.2-5.6,1.6c-0.1,0-0.2,0-0.2-0.1c-1.3-0.6-2.7-0.9-4.1-1c-0.8-0.1-1.6-0.1-2.4,0
	c-0.3,0-0.6,0.1-0.8,0.3c0.9,0.1,1.8,0.2,2.7,0.4c1,0.2,1.9,0.5,2.7,1C132.8,95.9,133.6,96.5,134.4,97z M134.5,87.8
	c-1.8,0.1-3.6,0.7-5.1,1.7c-1.5-0.5-3-0.8-4.6-0.9c-0.7,0-1.5,0.1-2.2,0.2c0,0-0.1,0.1-0.2,0.3c2.6-0.2,5.2,0.7,7.2,2.4L131,90
	c0.5-0.5,1-1,1.7-1.3C133.3,88.4,133.9,88.1,134.5,87.8L134.5,87.8z M100.2,93.7c-0.2,0-0.3,0-0.5,0c-0.8,0.2-1.5,0.5-2.1,1
	c-0.5,0.5-1.2,0.6-1.9,0.4c-1.2-0.2-2.5-0.2-3.7,0.2c-0.1,0-0.2,0.1-0.5,0.2c0.4,0,0.6,0,0.9,0c1.5-0.1,3,0.2,4.3,1
	c0.3,0.2,0.5,0.1,0.7-0.2c0.1-0.2,0.3-0.3,0.4-0.5c0.5-0.7,1.1-1.3,1.8-1.8L100.2,93.7z M121.9,86.3c-1.7-0.5-3.4-0.5-5.1,0
	c0.6,0,1.2,0,1.9,0.2c0.6,0.1,1.3,0.3,1.9,0.5c0.6,0.3,1.1,0.6,1.7,0.9l0.6-0.8c0.2-0.2,0.4-0.4,0.6-0.6c0.2-0.2,0.5-0.4,0.7-0.6
	l0.7-0.5c0.2-0.2,0.6-0.2,0.8-0.6C124.2,85,123,85.5,121.9,86.3z"/>
<path class="st0" d="M228,100.8h1.1c0.2,0,0.3,0,0.5,0c0.9-0.1,1.7-0.2,2.6-0.2c1.7-0.2,3.4-0.2,5.1-0.2c0.4,0,0.7,0.1,1.1,0.1
	c0.1,0,0.2,0,0.4,0c1,0,2,0,3,0.2c1.3,0.1,2.6,0.3,3.9,0.6c1.2,0.3,2.4,0.5,3.6,0.9c1.4,0.4,2.7,1,4,1.5c0.5,0.2,1,0.4,1.5,0.7
	c1.8,0.9,3.5,2,5.2,3.2c0.5,0.4,1.1,0.7,1.6,1.2s0.9,0.8,1.3,1.2s1.1,0.9,1.6,1.4c1.2,1.3,2.4,2.7,3.5,4.1c1.7,2.4,3.2,5,4.5,7.7
	c0.8,1.9,1.6,3.8,2.1,5.8c0.6,1.8,1,3.7,1.4,5.6c0.3,1.2,0.4,2.4,0.5,3.6c0.2,0.9,0.2,1.8,0.2,2.8c0,0.3,0,0.6,0.1,0.9
	c0,0.3,0.1,0.6,0.1,0.8c0,1.7,0,3.4,0,5.1c0,1-0.2,2-0.2,3c0,0.8-0.2,1.6-0.3,2.5c-0.2,1.5-0.5,2.9-0.8,4.4c-0.4,2-1,4-1.7,5.9
	c-0.4,1.1-0.9,2.3-1.4,3.4c-0.8,1.6-1.5,3.3-2.2,5c-0.5,1.4-0.9,2.9-1.1,4.3c-0.2,1.6-0.2,3.3-0.1,4.9c0.1,0.8,0.2,1.6,0.4,2.4
	c0.3,1.1,0.7,2.2,1.2,3.2c0.4,0.8,0.8,1.7,1.3,2.5c0.8,1.3,1.6,2.5,2.6,3.7c0.8,1,1.6,1.9,2.5,2.9l2.1,2.4l0.2,0.2
	c0.8,0.9,1.6,1.7,2.3,2.6c0.5,0.5,0.9,1.1,1.3,1.7l1.1,1.3c1.2,1.4,2.2,2.9,3.2,4.4c0.9,1.4,1.7,2.9,2.5,4.4c0.4,0.8,0.7,1.6,1,2.3
	c0.5,1.4,1,2.8,1.3,4.2c0.2,1,0.4,2.1,0.5,3.1s0.1,1.8,0.2,2.7c0.1,0.7,0.1,1.3,0.1,2c0,0.2,0,0.3,0,0.5c-0.2,0.8-0.2,1.6-0.2,2.4
	c0,0.3-0.1,0.6-0.1,0.8c0,0.2-0.1,0.3-0.1,0.5c-0.1,1.5-0.3,2.9-0.7,4.3c-0.3,1.5-0.6,3-1.1,4.4s-0.8,2.9-1.4,4.3s-1,2.7-1.5,4
	c-0.7,1.7-1.4,3.4-2.2,5c-0.3,0.6-0.6,1.3-0.9,1.9c-0.8,1.6-1.7,3.1-2.5,4.7c-0.4,0.8-0.8,1.5-1.2,2.3s-0.7,1.2-1.1,1.9
	c-0.3,0.4-0.4,0.8-0.5,1.2c-0.3,0-0.6,0-0.8,0h-32.2c-0.2,0-0.5,0-0.8,0c-0.2,0-0.3-0.1-0.5-0.2c0.8-0.4,1.1-1.3,0.7-2
	c0-0.1-0.1-0.1-0.1-0.2c-0.2-0.3-0.2-0.6-0.1-0.9l0.5-0.1c1.5-0.3,2.7-1.6,2.9-3.1c0-0.4,0-0.9,0.1-1.3l0.9-0.1l0.1-1.6
	c0.4,0.1,0.7,0.2,1.1,0.3c0.7,0.3,1.5,0.3,2.2,0.3c0.4,0,0.8-0.3,0.8-0.7c0,0,0,0,0,0c0-0.5,0-1.1-0.1-1.6c-0.3-1.1-0.6-2.1-0.9-3.1
	c-0.2-0.7-0.6-1.4-1-2c-0.5-0.6-1-1.2-1.5-1.8c-0.2-0.1-0.3-0.3-0.5-0.4v-3.4c0.1,0,0.3,0.1,0.4,0.2c0.6,0.5,1.1,1.1,1.4,1.9
	c0.6,1.2,1.2,2.4,1.8,3.5c0.9,1.8,2.3,3.4,3.9,4.7c1.2,0.9,2.7,1.4,4.3,1.3c0.6,0,1.1-0.1,1.7-0.2c1.6-0.3,3.2-0.8,4.8-1.5
	c0.9-0.4,1.9-0.9,2.8-1.4c0.7-0.4,1.4-0.9,2-1.3c0.1-0.1,0.1-0.2,0.2-0.4c-1.6-0.7-3.1-1.6-4.4-2.7c-1.3-1.1-2.5-2.3-3.5-3.7
	c-0.3-0.5-0.6-0.9-0.9-1.4c-0.2-0.3-0.2-0.7-0.2-1c0-0.3,0.2-0.5,0.5-0.5c0.1,0,0.1,0,0.2,0c0.8,0.2,1.5,0.4,2.2,0.8
	c1.1,0.6,2.3,1.2,3.4,1.8c0.7,0.4,1.4,0.8,2.1,1.2c1.1,0.7,2.2,1.2,3.3,1.8c0.8,0.4,1.8,0.5,2.7,0.2c0.8-0.2,1.5-0.6,2.1-1
	c1-0.7,1.8-1.5,2.5-2.5c0.8-1.2,1.5-2.5,2-3.9c0.3-0.8,0.5-1.7,0.5-2.6c0-0.3-0.1-0.6-0.1-0.9c-0.2-1.4-0.8-2.8-1.8-3.8
	c-0.8-0.9-1.7-1.8-2.6-2.5c-1.4-1.1-3-2-4.6-2.8c-0.5-0.2-1-0.2-1.4,0c-1.1,0.5-2.1,1-3.2,1.4c-2.6,1-5.2,2.1-7.9,2.9
	c-0.9,0.3-1.9,0.5-2.8,0.7c-0.5,0.1-1.1,0.1-1.6,0c-0.2,0-0.4-0.2-0.4-0.4c0-0.1,0-0.2,0.1-0.3c0.5-0.6,1-1.1,1.6-1.5
	c2.7-1.9,5.5-3.5,8.5-5c0.2-0.1,0.3-0.1,0.5-0.2s0.4-0.4,0.1-0.7c-0.1-0.1-0.2-0.2-0.3-0.2c-0.5-0.2-0.9-0.5-1.4-0.7
	c-1.6-0.7-3.3-1.2-5-1.6c-1.6-0.4-3.2-0.7-4.8-1c-1.1-0.2-2.2-0.3-3.3-0.5c-0.5-0.1-0.9-0.1-1.4-0.2c-0.4,0-0.7,0.2-0.9,0.5
	l-1.1,1.8c-0.4,0.6-0.7,1.2-1.1,1.8c-0.1,0.2-0.4,0.3-0.6,0.3c0-1.1,0-2.2,0-3.4c0.4-0.1,0.7-0.4,0.8-0.8c-0.3-0.2-0.6-0.1-0.8-0.1
	c-0.1-0.6-0.2-1.3-0.3-1.9c-0.1-0.3-0.2-0.7-0.4-1c0.1-0.2,0.2-0.3,0.4-0.4c1.3-0.9,2.6-1.8,3.9-2.7c1.9-1.3,3.9-2.6,5.8-3.9
	c1.4-1,2.9-2,4.3-3c1.1-0.8,2.1-1.6,3-2.6c0.3-0.3,0.5-0.6,0.7-0.9c0.4-0.7,0.5-1.5,0.4-2.2c-0.3-1-1.3-1.6-2.4-1.3
	c-0.1,0-0.1,0-0.2,0.1c-1.6,0.7-3.1,1.5-4.6,2.4c-2.4,1.5-4.6,3.2-6.7,5c-1,0.9-1.9,1.8-2.9,2.7c-0.8,0.7-1.4,1.6-2.2,2.3
	c-0.7,0.7-1.4,1.4-2,2.2l-1.3-0.5l1-1.2c0.7-0.9,1.4-1.7,2.1-2.6l1.3-1.5c0.6-0.7,1.2-1.4,1.8-2.1s1.1-1.2,1.7-1.9
	c1-1.2,1.9-2.4,2.8-3.6c0.4-0.5,0.7-1.1,1.1-1.6c0.3-0.5,0.3-1,0.2-1.6c-0.2-0.9-1-1.5-1.9-1.3c-0.2,0-0.5,0.2-0.7,0.3
	c-0.6,0.5-1.2,1-1.7,1.5c-0.7,0.7-1.4,1.4-2,2.2c-1,1.2-2,2.5-2.8,3.8c-0.3,0.5-0.7,1.1-1,1.6c-0.4,0.7-0.9,1.4-1.3,2.2
	c-0.6,1.2-1.2,2.4-1.8,3.6c-0.3,0.7-0.6,1.4-0.8,2.1l-0.7,0.1c-0.5-0.1-1-0.1-1.5,0c-0.9-0.7-1.9-1.1-3-1.3c-0.1-0.3-0.2-0.7-0.3-1
	c-0.4-0.9-0.8-1.8-1.2-2.6c-1-2.2-2-4.3-3.2-6.4c-0.7-1.1-1.2-2.3-1.6-3.5c-0.5-1.8-1-3.5-1.5-5.3c-0.5-2-1.4-3.9-2.4-5.6
	c0-0.1-0.3-0.2-0.3-0.2c0.1,0,0.5-0.2,0.6-0.3c0.6-0.5,1-0.9,1.6-1.4c0.9-0.9,1.8-1.9,2.7-2.9c0.6-0.6,1.1-1.2,1.6-1.8
	c0.7-0.8,1.2-1.5,1.9-2.4c0.4-0.5,0.7-0.9,1-1.5c0.1-0.1,0.5-0.3,0.6-0.5c0.9-1.3,1.7-2.6,2.5-4c2.1-3.9,3.8-8,5.1-12.2
	c0.7-2.6,1.3-5.2,1.7-7.9c0.1-0.5,0.2-1,0.2-1.5c0.1-1.1,0.2-2.2,0.2-3.3c0-0.1,0-0.2,0-0.4c0.1-0.5,0.2-0.9,0.1-1.4
	c0-1.3,0-2.6,0-3.8c0-0.2,0-0.5,0-0.7c-0.1-0.5-0.2-1-0.1-1.5c0-0.9-0.1-1.9-0.2-2.8c-0.1-0.5-0.1-1.1-0.2-1.6
	c-0.2-0.9-0.3-1.9-0.5-2.8c-0.2-1.1-0.5-2.3-0.8-3.4c-0.1-0.2-0.2-0.4-0.3-0.7c0-0.6-0.1-1.1-0.3-1.6c-0.4-1.1-0.8-2.2-1.1-3.3
	c-0.7-2-1.6-3.9-2.6-5.8c-0.1-0.1-0.2-0.3-0.3-0.4c-0.1-0.2-0.1-0.4-0.2-0.6c-0.4-0.7-0.8-1.5-1.2-2.2c-0.9-1.4-1.7-2.8-2.7-4.2
	c-2.2-3.1-4.7-5.9-7.4-8.6l-0.4-0.4L228,100.8z"/>
<path class="st1" d="M241.1,117.8c0.1,0.1,0.2,0.2,0.3,0.4c1,1.9,1.9,3.8,2.6,5.8c0.4,1.1,0.8,2.2,1.1,3.3c0.2,0.5,0.3,1.1,0.3,1.6
	c-0.2-0.1-0.5-0.1-0.7-0.2c-0.3,0-0.7-0.1-0.9-0.4c-0.4-0.4-0.9-0.7-1.5-0.7c-0.9-0.2-1.8-0.2-2.7-0.2c-0.9,0.1-1.9,0.1-2.8,0.2
	c-2.2,0.2-4.4-0.6-5.9-2.2c-0.2-0.2-0.5-0.4-0.7-0.6l-0.4-0.2l-0.2-0.7c0.1,0,0.2-0.1,0.2-0.1c0.2-0.5,0.2-1.2-0.1-1.7
	c-0.1-0.1-0.2-0.1-0.2-0.1c-0.1,0-0.2,0.2-0.2,0.2c0,0.4,0,0.8,0,1.2c-0.3-0.2-0.5-0.4-0.7-0.6c-0.4-0.6-1-1.1-1.6-1.6
	c-0.8-0.7-1.9-1.2-3-1.3c-0.5-0.1-1.1-0.1-1.6,0c-0.1,0-0.2,0-0.3,0c-0.6,0-1.2,0.1-1.8,0.3c-1.6,0.4-3.1,1.3-4.4,2.4
	c-0.8,0.8-1.8,1.4-2.9,1.7c-0.8,0.3-1.7,0.4-2.6,0.4c-0.2,0-0.4,0-0.6,0.1c-0.6,0.1-1.1,0.2-1.6,0.3c-1.1,0.3-2.2,0.7-3.2,1.3
	c-1,0.6-1.7,1.6-1.9,2.6c-0.1,0.3-0.1,0.6,0,0.9c0.2,0.9,0.5,1.7,0.9,2.4c0.7,0.9,0.9,2.1,0.5,3.1c-0.1,0.2-0.2,0.5-0.3,0.7
	c-0.3,0.6-0.7,1.3-1,1.9c-0.4,0.9-0.5,1.9-0.3,2.8c0.3,1.3,0.9,2.4,1.9,3.3l0.4,0.4c0.6,0.6,1.3,1,2,1.3c0.7,0.2,1.4,0.4,2.1,0.4
	c0.7,0.1,1.4,0.1,2.1,0c0.3,0,0.6-0.1,0.8-0.1c0.2,0,0.4,0,0.7,0c1.8-0.3,3.6-0.8,5.3-1.3c0.7-0.2,1.5-0.4,2.2-0.3
	c0.4,0,0.7,0.2,0.8,0.5c0.1,0.2,0.2,0.5,0.2,0.7c0.2,0.8,0.2,1.5,0,2.3c0,0.1,0,0.1,0,0.2c-0.1,1.5,0,2.9,0.2,4.4
	c0.2,1.5,1,2.9,2.2,3.7c1.5,1,3.1,1.7,4.9,2.1c1.3,0.3,2.6,0.6,3.9,0.9c0.5,0.1,1,0.4,1.4,0.7c0.3,0.3,0.4,0.7,0.2,1.1
	c-0.1,0.4-0.3,0.7-0.6,1c-0.4,0.6-0.9,1.2-1.3,1.8c-1,1.4-1.8,2.8-2.5,4.4c-0.5,1.2-0.8,2.5-0.9,3.8c0,1.3,0.5,2.5,1.5,3.4
	c0.9,0.9,2.1,1.4,3.3,1.6c1.1,0.2,2.2,0.1,3.3-0.1c-0.2,0.6-0.6,1.1-1,1.6c-0.6,0.9-1.3,1.7-2,2.5c-0.5,0.6-1,1.2-1.6,1.8
	c-0.9,1-1.8,1.9-2.7,2.9c-0.5,0.5-1.1,1-1.7,1.5c-0.1,0.1-0.2,0.1-0.4,0.1c-0.4-0.5-0.8-0.9-1.2-1.4c-0.8-0.8-1.8-1.4-2.9-1.7
	c-1.2-0.3-2.4-0.4-3.6-0.4c-0.6-1.3-1-2.8-1.1-4.3c0-0.1,0.1-0.2,0.2-0.3c0.2-0.4,0.6-0.7,1.1-0.5c0.4,0.1,0.9-0.1,1.1-0.5
	c0.4-0.4,0.7-1,0.8-1.6c0.3-1.2,0.3-2.5-0.1-3.7c-0.1-0.3-0.2-0.6-0.3-0.9c0.5-0.1,0.9,0,1.2-0.4c1-1.1,1.2-2.6,0.7-3.9
	c-0.3-0.9-1.2-1.6-2.2-1.6c-1.3-0.1-2.4,0.6-3,1.7c-0.1,0.2-0.2,0.4-0.3,0.6c-0.1,0-0.2,0-0.3-0.1c-0.8-0.3-1.7-0.3-2.4,0.1
	c-0.4,0.2-0.9,0.5-1.2,0.8c-0.6,0.6-1.2,1.2-1.8,1.8c-0.4,0.5-0.8,1-1.2,1.5c-0.4,0.5-0.6,1-0.6,1.6c0,1.1,0.3,2.2,0.9,3.1
	c0.2,1.2,0.6,2.4,1.2,3.5l0.2,0.2c0.3,0.5,0.8,0.8,1.4,0.7c0.2,0,0.3,0,0.5,0l0.2,1.1l0.1,1.5c-1.7,0.2-3.3,1-4.6,2.1
	c-0.6,0.5-1.1,1.2-1.3,2c-0.1,0.3-0.2,0.7-0.3,1c-0.4,1.8-0.9,3.6-1.3,5.4c-0.2,0.8-0.5,1.6-0.9,2.4c-0.1,0.4-0.6,0.6-1,0.4
	c0,0,0,0,0,0c-0.1-0.1-0.3-0.1-0.4-0.2c-1.4-0.5-2.7-1.1-4.1-1.6c-0.8-0.3-1.6-0.5-2.4-0.7c-0.2-0.9-0.1-1.9,0.2-2.8
	c0,0,0-0.1,0-0.1l0.9-0.4l0.7-0.2c0-0.2,0.1-0.3,0-0.3c-0.5-1.7-1-3.4-1.5-5.2c0-0.1-0.1-0.1-0.2-0.2l-0.5,0.2
	c-0.5,0.1-1.1,0.2-1.6,0.4s-1.1,0.2-1.5,0.6l0.2,0.7c-0.1,0.5-0.1,1-0.2,1.5c-0.1,0.9-0.1,1.8-0.2,2.7c-0.1,0.6,0,1.1,0.3,1.6
	c0.4,0.9,1,1.6,1.7,2.3c-0.1,0.4,0,0.8,0.3,1.1c0.6,1.1,1.4,2,2.3,2.9c0.3,0.3,0.6,0.7,1,1l-1.8,0.3c-0.5,0.1-1,0.2-1.6,0.2
	c-0.8,0.1-1.7,0.2-2.5,0.2c-0.1,0-0.2,0-0.3,0c-0.3,0-0.7,0.1-1,0.1c-0.7-0.1-1.4-0.1-2.1,0c-0.8,0.1-1.6,0.2-2.4,0.1
	c0-0.8,0-1.6,0-2.3v-21.8c0-0.4,0-0.8,0.1-1.1c1.2-0.6,1.6-2,1-3.2c0,0,0,0,0,0c-0.1-0.3-0.3-0.7-0.5-1s-0.2-0.6-0.6-0.9v-4.6
	c0.7,0.1,1.5,0.2,2.2,0.5c0.6,0.2,1.3,0.3,1.9,0.3c0.9,0,1.8-0.5,2.4-1.2c0.2-0.3,0.5-0.7,0.7-1c0.5-0.9,0.9-1.8,1.1-2.8
	c0.2-1.1,0.4-2.2,0.6-3.3c0.2-1.5,0.8-2.8,1.7-4c0.2-0.3,0.3-0.5,0.4-0.8c0.4-0.8,0.2-1.8-0.5-2.3c-0.8-0.5-1.8-0.7-2.8-0.8h-0.2
	c-0.8,0.1-1.5,0.3-2.2,0.7c-0.9,0.7-2,0.5-3,0.7c-0.1,0-0.1,0-0.2,0l-1.8-0.4c0-0.4-0.1-0.7-0.1-1.1c0-8.9,0-17.7,0-26.6
	c0-0.4,0-0.8,0-1.2c-0.1-3.2-1.9-6.1-4.8-7.5c-0.8-0.4-1.5-0.7-2.4-0.9c0-0.1,0-0.1,0-0.2c0.3-0.7,0.1-1.6-0.6-2.1
	c-0.6-0.5-1.3-0.8-2.1-0.8c-0.9-0.2-1.8-0.3-2.7-0.2c-0.9,0-1.7,0-2.6,0.2c-0.2,0-0.4,0-0.6,0c-0.3,0-0.5-0.1-0.8-0.1
	c-0.9-0.1-1.6-0.7-1.9-1.5c-0.4-1.2-0.4-2.4-0.2-3.6c0.2-1.2,0.3-2.3,0.3-3.5c0-0.8-0.4-1.6-1.1-2l-1.5-1.1
	c-1.2-0.7-2.3-1.7-3.1-2.8c-0.5-0.6-1-1.1-1.6-1.6c-0.5-0.4-1.1-0.7-1.6-1c-0.7-0.3-1.5-0.5-2.3-0.6c0-0.3,0.2-0.5,0.4-0.6
	c1.9-1,3.8-2.1,5.8-3c2.2-1,4.5-1.9,6.8-2.6c0.6-0.2,1.2-0.3,1.8-0.5c0.1,0,0.1-0.1,0.2-0.2c0.7,0,1.4-0.2,2.1-0.4
	c1.3-0.3,2.5-0.5,3.8-0.7c0.7-0.1,1.5-0.3,2.2-0.3c1.1-0.1,2.2-0.2,3.4-0.2c0.5,0.1,1,0,1.5-0.1c0.2,0,0.4,0,0.6,0
	c0.8,0,1.5,0,2.2,0c0.5,0,0.9,0,1.4,0.1c0.4,0.1,0.8,0.1,1.2,0.1c0.6,0,1.2,0,1.9,0.2c0.2,0,0.4,0,0.6,0c1,0,1.9,0.2,2.9,0.4
	c-0.2,0.4-0.4,0.9-0.5,1.3c0,0.1,0.1,0.2,0.1,0.3s0.2,0,0.3-0.1c0.1-0.1,0.1-0.1,0.1-0.2l0.4-1.1c1.3,0.1,2.5,0.3,3.8,0.6
	c2.5,0.6,4.9,1.3,7.3,2.2c1.4,0.5,2.8,1.1,4.2,1.8s3,1.5,4.4,2.3c1.2,0.7,2.3,1.5,3.5,2.2c0.1,0.1,0.2,0.3,0.3,0.4
	c-0.4,0.2-0.9,0.2-1.4,0.2c-0.7,0-1.4,0-2.1,0c-0.8,0-1.6,0.2-2.4,0.5c-0.7,0.2-1.2,0.6-1.7,1.1c-0.3,0.3-0.5,0.7-0.7,1.1
	c-0.2,0.4-0.4,0.8-0.7,1.2c-0.5,0.7-1.2,1.2-2,1.5c-0.3,0.1-0.6,0.3-1,0.4c-0.8,0.3-1.6,0.7-2.4,1.1c-0.8,0.4-1.5,1.1-1.9,1.9
	c-0.3,0.7-0.4,1.5-0.3,2.3c0,0.5,0.3,0.9,0.7,1c0.6,0.3,1.3,0.3,2,0.2c0.2-0.1,0.4-0.1,0.6-0.1c0.7-0.1,1.5-0.2,2.2-0.3
	c0.8-0.2,1.6-0.2,2.4-0.3c0.3,0,0.7,0,1,0c1.8,0,3.5,0.7,4.7,2.1c0.5,0.6,0.9,1.2,1.3,1.8c0.4,0.5,0.7,1.1,1.1,1.6
	c0.2,0.4,0.5,0.7,0.9,1c0.6,0.5,1.4,0.7,2.1,0.5c0.7-0.3,1.4-0.5,2.1-0.7c0.4-0.1,0.7-0.2,1.1-0.3c0,0.3,0.1,0.7,0.1,1
	c0,0.1,0,0.2,0.1,0.3c0.1,0.1,0.2,0.2,0.3,0.2c0.1,0,0.2-0.2,0.2-0.2c0-0.5-0.1-1-0.2-1.4c0.1,0,0.2,0,0.3,0
	c1.1,0.1,2.2,0.5,3.1,1.1c0.9,0.6,1.8,1.2,2.7,1.7c1.5,1,3.4,1.4,5.2,0.9C240.5,118.1,240.8,118,241.1,117.8z M188.8,96.1
	c-0.8-0.6-1.7-1-2.6-1.2c-0.8-0.2-1.5-0.4-2.3-0.4c-0.9-0.1-1.9,0-2.8,0.2c-0.8,0.2-1.7,0.3-2.5,0.3c-0.8,0-1.6,0-2.4,0
	c-1,0-1.9,0.4-2.5,1.2c-0.5,0.5-0.7,1.2-0.6,1.8c0.2,1,0.6,2,1.3,2.8c0.4,0.4,0.7,0.9,1.1,1.3c0.9,1.3,1.9,2.7,2.8,4.1
	c0.5,0.7,1.1,1.3,1.8,1.9c0.2,0.1,0.4,0.3,0.6,0.3c0.6,0.4,1.3,0.3,1.8-0.2c0.3-0.3,0.6-0.6,0.8-0.9c0.7-0.9,1.3-1.9,1.8-3
	c0.2-0.5,0.5-1,0.7-1.4c0.2-0.5,0.6-0.9,1.1-1.1c0,0.2,0,0.4,0,0.7c0,0.7,0.1,1.4,0.4,2.1c0.4,1.2,0.9,2.3,1.6,3.4
	c2,3.2,4.4,6.1,7.2,8.7c0.1,0.1,0.2,0.1,0.3,0.2c0.2-0.2,0.5-0.4,0.7-0.6c1-1,1.9-2,2.9-3.1c1.4-1.6,2.6-3.2,3.7-5
	c0.8-1.2,1.4-2.5,1.8-3.8c0.2-0.6,0.3-1.1,0.3-1.7c0.1-3-1.1-5.9-3.2-7.9c-3.3-3.2-8.6-3.3-12-0.2C189.8,94.9,189.3,95.5,188.8,96.1
	z M229.1,119.9c0.1,0.3,0.1,0.8,0.2,1.1c0,0.1,0.2,0.2,0.3,0.2s0.3-0.1,0.3-0.3c0-0.4-0.1-0.8-0.1-1.2c0,0,0-0.1,0-0.1
	s-0.2-0.2-0.3-0.2s-0.1,0.2-0.2,0.2S229.1,119.8,229.1,119.9L229.1,119.9z M228.7,117.4c0.1,0.3,0.1,0.7,0.1,1s0.1,0.4,0.3,0.4
	s0.3-0.2,0.2-0.5c0-0.2,0-0.3-0.1-0.5c0-0.2-0.1-0.4-0.1-0.6c0-0.1-0.2-0.1-0.3-0.1s-0.1,0.1-0.2,0.2
	C228.7,117.2,228.7,117.3,228.7,117.4L228.7,117.4z M197.3,90.6c0.1,0,0.2,0,0.2-0.1c0.3-0.2,0.5-0.6,0.4-1c0-0.1-0.1-0.2-0.1-0.2
	c-0.1,0-0.3,0-0.3,0c-0.2,0.2-0.4,0.6-0.4,0.9C197.1,90.4,197.3,90.5,197.3,90.6z"/>
<path class="st2" d="M245.2,265.4c0.2,0.1,0.3,0.1,0.5,0.2c0.2,0,0.5,0,0.8,0h32.1c0.3,0,0.6,0,0.8,0s0.6,0,0.9,0h6.1h13.3
	c0.2,0,0.4,0,0.7,0c0.2,0,0.4,0.2,0.4,0.4c0,0,0,0,0,0c0,0.2-0.1,0.4-0.4,0.5c-0.2,0-0.4,0-0.6,0H285h-66.1h-68.7H82.4H14.3H1.4H0.9
	c-0.2,0-0.4-0.2-0.5-0.4c0,0,0,0,0-0.1c0-0.3,0.2-0.5,0.4-0.5c0,0,0,0,0,0h24.6h0.8h26.4c0.3,0,0.6,0,0.9,0s0.8,0,1.2,0h49.7
	c1.7,0,3.5,0,5.2,0h47.1c0.3,0,0.7,0,1,0c0.5,0.1,0.9,0.2,1.4,0.1c7.5,0,15,0,22.5,0c0.7,0,1.4-0.1,2.1-0.4c0.1,0.1,0.1,0.2,0.1,0.2
	c0.2,0,0.5,0.1,0.7,0.1h10.1c0.3,0,0.5,0,0.8-0.1h0.9h9.3c0.5,0.1,1,0.1,1.4,0h4.4c0.3,0,0.7,0.1,1,0.1h6.3c0.5,0,0.9,0,1.4,0h2
	c0.2,0,0.4,0,0.6,0h4h15.5c0.4,0,0.7,0,1,0h0.4C244.3,265.7,244.8,265.6,245.2,265.4z"/>
<path class="st3" d="M202.8,80.7c0,0.1,0,0.1,0,0.2c-0.2,0.3-0.5,0.7-0.8,1c-0.1,0.1-0.2,0.1-0.3,0.1c-0.1-0.1-0.2-0.2-0.1-0.3
	c0,0,0,0,0-0.1c0.2-0.3,0.5-0.7,0.8-1c0,0,0.2,0,0.3,0S202.8,80.7,202.8,80.7z"/>
<path class="st3" d="M220.7,84.1c-0.1,0.1-0.1,0.2-0.2,0.2s-0.2,0-0.2,0c-0.2-0.4-0.5-0.9-0.7-1.3c0,0,0-0.2,0.1-0.2
	c0.1,0,0.2,0,0.3,0C220.2,83.2,220.5,83.6,220.7,84.1z"/>
<path class="st3" d="M200.1,85c-0.1,0.5-0.3,1-0.7,1.4c-0.1,0-0.2,0-0.2,0c-0.1,0-0.2-0.2-0.1-0.2c0.1-0.5,0.4-1,0.7-1.4
	c0,0,0.2,0,0.2,0S200,84.9,200.1,85z"/>
<path class="st4" d="M219.4,82.1c0,0-0.1,0.1-0.1,0.1c-0.1,0-0.2,0-0.3,0c-0.3-0.4-0.6-0.8-0.8-1.2c0-0.1,0.1-0.2,0.1-0.3
	c0.1,0,0.2,0,0.2,0c0.4,0.3,0.7,0.8,0.9,1.3C219.4,81.9,219.4,81.9,219.4,82.1z"/>
<path class="st3" d="M214.7,77.1c0.1,0,0.2,0,0.3,0c0.4,0.2,0.7,0.5,1,0.8c0.1,0.1,0.1,0.2,0,0.3c0,0.1-0.2,0.2-0.3,0.1
	c-0.4-0.2-0.8-0.5-1.1-0.8c-0.1,0-0.1-0.2,0-0.2C214.6,77.1,214.6,77.1,214.7,77.1z"/>
<path class="st3" d="M212.8,76.2c0.2,0.1,0.6,0.2,1,0.3c0.1,0.1,0.1,0.2,0.2,0.3c0,0.1-0.2,0.3-0.3,0.2l-1.2-0.3
	c-0.2,0-0.3-0.2-0.2-0.3c0.1-0.1,0.2-0.1,0.3-0.2C212.5,76.2,212.6,76.2,212.8,76.2z"/>
<path class="st4" d="M224.4,93.6c-0.1,0.1-0.1,0.2-0.2,0.2s-0.3,0-0.3,0c-0.3-0.4-0.5-0.9-0.5-1.5c0-0.1,0.1-0.2,0.2-0.2
	s0.2,0,0.3,0c0,0,0.1,0,0.1,0.1L224.4,93.6z"/>
<path class="st4" d="M205.3,78.4c-0.3-0.3-0.4-0.5-0.2-0.6s0.7-0.4,1-0.7c0.1,0,0.1,0,0.2,0c0.1,0,0.2,0.1,0.3,0.2
	c0,0.1,0,0.2-0.1,0.3C206.1,77.9,205.7,78.2,205.3,78.4z"/>
<path class="st3" d="M221,85c0,0,0.1,0,0.2,0.1c0.2,0.4,0.4,0.8,0.5,1.2c0,0.1,0,0.2-0.1,0.3c-0.1,0.1-0.2,0.1-0.3,0
	c-0.2-0.4-0.4-0.8-0.6-1.2C220.6,85.2,220.8,85,221,85z"/>
<path class="st4" d="M200.4,84.2c-0.1-0.1-0.2-0.2-0.2-0.2c0.1-0.6,0.4-1.1,0.9-1.4c0.1,0,0.3,0.1,0.3,0.3c-0.1,0.5-0.4,1-0.8,1.3
	C200.6,84.2,200.5,84.2,200.4,84.2z"/>
<path class="st3" d="M221.9,87.3c0.1,0,0.2,0.1,0.2,0.1c0.2,0.5,0.4,0.9,0.5,1.3c0,0.1-0.1,0.2-0.1,0.2c-0.1,0-0.3,0-0.3-0.1
	c-0.2-0.4-0.4-0.8-0.5-1.3C221.7,87.6,221.8,87.4,221.9,87.3z"/>
<path class="st3" d="M225.6,98.7c-0.4,0.1-0.4,0.1-0.7-0.4c0-0.3-0.1-0.6-0.1-0.9c0-0.1,0.1-0.2,0.2-0.2c0.1,0,0.2,0.1,0.3,0.2
	C225.5,97.7,225.7,98.2,225.6,98.7z"/>
<path class="st3" d="M199,87.2l-0.4,1.1c0,0.1-0.1,0.2-0.1,0.2c-0.1,0-0.2,0.1-0.3,0.1s-0.2-0.2-0.1-0.3c0.1-0.4,0.3-0.9,0.5-1.3
	C198.7,87,198.9,87.1,199,87.2z"/>
<path class="st3" d="M210.5,76.5c-0.2,0-0.4,0-0.6,0c-0.1,0-0.2-0.1-0.2-0.2c0-0.1,0.1-0.2,0.2-0.3c0.4-0.1,0.9-0.1,1.4,0
	c0.1,0,0.1,0.2,0.2,0.3s-0.1,0.2-0.2,0.2C211,76.5,210.8,76.5,210.5,76.5L210.5,76.5z"/>
<path class="st3" d="M208.6,76.1c0.1,0.1,0.2,0.2,0.3,0.3c0,0.1,0,0.2-0.1,0.3c-0.4,0.2-0.8,0.3-1.1,0.4c-0.1,0.1-0.3,0-0.3-0.1
	c0,0,0,0,0-0.1c0-0.1,0-0.2,0.1-0.3C207.8,76.4,208.2,76.3,208.6,76.1z"/>
<path class="st3" d="M224.4,94.6c0.1,0.1,0.2,0.1,0.3,0.2c0.1,0.4,0.3,0.9,0.4,1.3c0.1,0.7-0.1,0.2-0.1,0.2s-0.3,0-0.3-0.1
	c-0.1-0.4-0.3-0.9-0.4-1.3C224.1,94.7,224.3,94.6,224.4,94.6z"/>
<path class="st4" d="M204.6,78.9c0,0,0,0.2-0.1,0.2c-0.3,0.3-0.6,0.6-0.9,0.9c-0.1,0.1-0.2,0.1-0.4,0c0,0,0,0,0,0c0-0.1,0-0.2,0-0.3
	c0.3-0.3,0.6-0.7,1-1C204.3,78.6,204.5,78.7,204.6,78.9z"/>
<path class="st3" d="M222.8,89.7c0.1,0.1,0.3,0.1,0.3,0.1c0.2,0.4,0.3,0.8,0.4,1.3c0,0.1-0.1,0.2-0.1,0.2s-0.3,0-0.3-0.1
	c-0.2-0.4-0.3-0.8-0.4-1.3C222.6,89.9,222.7,89.8,222.8,89.7z"/>
<path class="st3" d="M216.8,78.7L216.8,78.7c0.5,0.3,0.9,0.7,1.1,1.2c0,0.1,0,0.1-0.1,0.2c-0.1,0-0.2,0.1-0.2,0.1c0,0-0.1,0-0.1,0
	c-0.3-0.3-0.6-0.7-0.9-1c0,0,0-0.2,0-0.2S216.7,78.7,216.8,78.7z"/>
<path class="st5" d="M109.8,265.4c-1.7,0-3.5,0-5.2,0H54.8c-0.4,0-0.8,0-1.2,0v-13.6c0-0.2,0-0.4,0-0.7s0-0.4,0-0.6v-9.4
	c0-0.2,0-0.4,0-0.6c0-1.1,0-2.2,0-3.4c0-0.4,0-0.7,0-1v-30.8c0-0.3,0-0.7,0-1c0-1.4,0-2.9,0-4.3c0-1.6,0-3.3,0-4.9
	c0-0.7,0-1.5,0-2.2s0-1.6,0.1-2.4c0-0.2,0-0.5,0.1-0.7l1.5-0.1h4.1c1.3,0,2.7,0,4,0c0.5,0,0.9,0,1.4,0c0.5,0,0.7,0,1,0h17.1
	c0.3,0,0.7,0,1,0s0.6,0,0.9,0h4c0.3,0,0.6,0,0.9,0h0.7h5.6h0.7h0.9h3.8c0.3,0,0.6,0,0.9-0.1s0.8,0.1,1.1,0c1.4,0,2.7,0,4.1,0h1.3
	c1.2,0,2.3,0.7,3,1.7c0.4,0.7,0.7,1.5,0.6,2.3c0,4.5,0,9,0,13.6c0,0.4,0,0.8,0,1.2s0,0.8,0,1.2V245c0,0.4,0,0.7,0,1s0,0.7,0,1
	c0,4.5,0,9,0,13.5c0.1,1.1-0.1,2.2-0.6,3.3c0,0,0,0.1,0,0.1l-0.4,0.3L109.8,265.4z M66.6,241.6c-0.1-0.3-0.3-0.6-0.6-0.8
	c0-0.1-0.1-0.3-0.2-0.4c-0.3-0.5-0.7-1.1-1-1.6c-0.8-1.4-1.4-2.9-1.8-4.5c-0.4-1.5-0.6-3-0.7-4.5c0-0.6,0-1.2,0-1.9
	c0-1.1,0.1-2.2,0.4-3.3c0.4-1.9,1.1-3.7,2-5.4c0.3-0.6,0.7-1.2,1-1.8c0.1-0.2,0.1-0.4,0.2-0.6c0.4-0.1,0.6-0.4,0.6-0.8
	c0.4-0.1,0.6-0.4,0.8-0.7c0.1-0.1,0-0.2,0.1-0.5c-0.5,0.4-0.8,0.6-1,1.1c-0.3,0.1-0.5,0.4-0.6,0.8c-0.3,0.2-0.5,0.4-0.6,0.7
	c-0.5,0.9-1,1.8-1.5,2.7c-1,2.2-1.6,4.5-1.9,6.9c-0.1,1.6,0,3.2,0.2,4.8c0.2,1.2,0.5,2.4,0.8,3.6c0.6,1.8,1.4,3.4,2.4,5
	c0.1,0.2,0.3,0.3,0.5,0.4c0,0.4,0.1,0.7,0.6,0.8c0,0.3,0.1,0.6,0.4,0.8c0.1,0,0.2,0.1,0.3,0.1C67,242.1,66.8,241.8,66.6,241.6z
	 M70.3,212.5c-0.5,0-0.8,0.3-1,0.6c0.1,0.1,0.3,0.1,0.4,0c0,0,0,0,0,0C69.9,213,70.1,212.7,70.3,212.5c0.4-0.1,0.7-0.3,0.8-0.6
	c0.1,0,0.3-0.1,0.4-0.2c1.8-1.2,3.8-2.1,5.8-2.7c1.1-0.3,2.3-0.5,3.5-0.7c1.9-0.1,3.7,0,5.6,0.2c1.1,0.2,2.2,0.5,3.3,0.8
	c1.5,0.5,3,1.2,4.3,2.1c0.2,0.2,0.6,0.3,0.9,0.3c0.3,0.6,0.8,1,1.5,1.1c0,0.1,0,0.3,0.1,0.3c0.7,0.7,1.4,1.4,2.2,2.1c0,0,0,0,0.1,0
	c0.1-0.2,0-0.4-0.1-0.5c-0.6-0.6-1.2-1.2-1.8-1.8c-0.1-0.1-0.3-0.1-0.4-0.2c-0.4-0.5-0.9-0.9-1.5-1.1c-0.1-0.1-0.2-0.2-0.3-0.3
	c-1.9-1.4-4.1-2.3-6.4-2.9c-1-0.3-1.9-0.4-2.9-0.5c-1.8-0.1-3.6-0.1-5.3,0.1c-1,0.2-2.1,0.4-3.1,0.7c-0.9,0.3-1.7,0.6-2.5,1
	c-1,0.5-2,1-2.9,1.6c-0.1,0.1-0.2,0.3-0.3,0.5C70.6,212,70.3,212.1,70.3,212.5z M99,242.4c0.5-0.4,1-1,1.3-1.6c1-1.4,1.8-3,2.4-4.6
	c0.7-1.8,1.1-3.7,1.2-5.6c0-0.1,0-0.2,0-0.4c0.2-0.5,0.2-1,0.1-1.6c-0.2-1-0.1-1.9-0.3-2.9c-0.2-1.1-0.4-2.1-0.7-3.2
	c-0.6-1.8-1.4-3.5-2.4-5.1c-0.3-0.5-0.7-1-1.1-1.5c-0.1-0.1-0.2-0.3-0.4-0.1c0,0.1,0.1,0.2,0.1,0.2c1.3,1.5,2.3,3.2,3,5.1
	c0.8,1.9,1.3,3.9,1.4,6c0,0.2,0,0.3,0.1,0.5c0,0.3,0.1,0.7,0.1,1c0,0.6,0,1.2-0.1,1.8c-0.2,0.6-0.1,1.3-0.2,1.9
	c-0.3,1.9-0.9,3.8-1.7,5.5c-0.6,1.3-1.4,2.6-2.3,3.7C99.1,241.8,99,242.1,99,242.4c-0.2,0.1-0.3,0.2-0.5,0.3
	c-0.6,0.6-1.3,1.2-1.9,1.9c-0.1,0.1-0.2,0.3-0.2,0.5c-0.3,0-0.6,0.1-0.8,0.3c-1,0.8-2,1.4-3.1,2c-1.5,0.7-3.1,1.3-4.7,1.7
	c-0.8,0.2-1.6,0.4-2.5,0.4c-1.8,0.1-3.7,0.1-5.5-0.1c-1-0.2-2-0.4-2.9-0.6c-1.3-0.4-2.6-1-3.9-1.6c-0.8-0.4-1.6-0.9-2.3-1.4
	c-0.2-0.1-0.3-0.2-0.5-0.2c-0.2-0.2-0.4-0.4-0.6-0.6c-0.1-0.1-0.2-0.1-0.3-0.1c0,0,0,0-0.1,0.1c0.1,0.4,0.5,0.6,0.9,0.6
	c0,0.3,0.2,0.5,0.5,0.7c0.9,0.6,1.8,1.1,2.7,1.6c1.3,0.7,2.7,1.2,4.2,1.6c1,0.3,2,0.5,3.1,0.6c1.8,0.1,3.5,0.1,5.3-0.1
	c1.1-0.1,2.2-0.3,3.3-0.6c2-0.6,3.9-1.5,5.6-2.7c0.6-0.3,1.1-0.7,1.5-1.3c0.2-0.1,0.3-0.1,0.5-0.2c0.7-0.6,1.3-1.2,1.9-1.9
	C98.9,242.7,99,242.5,99,242.4z M99,224.4c-0.1-1.1-0.5-2.1-1.1-3c0-0.1-0.1-0.2-0.1-0.4c-0.6-1.1-1.3-2.1-2.1-3
	c-1-1.2-2.1-2.2-3.4-3l-0.6-0.4c-2.2-1.4-4.8-2.2-7.4-2.4c-1.6-0.1-3.2,0-4.8,0.4c-1.5,0.3-2.9,0.8-4.2,1.6
	c-0.2,0.1-0.5,0.3-0.7,0.5c-0.2,0-0.5,0.1-0.7,0.2c-1.4,0.9-2.7,2.1-3.8,3.4c-1.1,1.3-2,2.8-2.7,4.3c-0.4,1-0.7,2-0.9,3
	c-0.2,0.9-0.3,1.9-0.4,2.9c0,0.7,0,1.4,0.1,2.1c0.1,0.7,0.2,1.5,0.3,2.2c0.4,1.5,0.9,2.9,1.7,4.2c0.6,1.1,1.3,2.2,2.2,3.1
	c1.7,1.9,3.8,3.4,6.1,4.3c1.6,0.7,3.3,1.1,5,1.2c1.8,0.1,3.6,0,5.4-0.4c1.6-0.4,3.2-1.1,4.6-1.9c1.9-1.2,3.6-2.7,4.9-4.5
	c1.2-1.6,2.1-3.5,2.6-5.4c0.4-1.6,0.6-3.2,0.6-4.8c0-0.2,0-0.4,0-0.6c0-0.8-0.1-1.5-0.3-2.3C99.4,225.2,99.2,224.7,99,224.4
	L99,224.4z M94.1,258.9c-0.4,0-0.7,0-1,0h-20c-0.3,0-0.6,0-0.8,0c-0.2,0-0.3,0.2-0.3,0.4c0,0.2,0.1,0.4,0.3,0.5c0.3,0,0.6,0,0.8,0
	h20c0.3,0,0.6,0,0.8,0c0.1,0,0.2-0.1,0.3-0.1L94.1,258.9z M96,199.3l0.7-0.1c0.3-0.1,0.6,0.1,0.7,0.4c0.1,0.1,0.1,0.3,0.2,0.4
	l0.9,1.6h0.7c0.2,0,0.3,0,0.4-0.2c-0.5-0.8-0.9-1.6-1.3-2.4c0.2-0.2,0.4-0.4,0.6-0.6s0.2-0.2,0.3-0.4c0.1-0.6,0.1-1.2-0.1-1.8
	c-0.1-0.2-0.3-0.4-0.5-0.6c-0.5-0.3-1-0.4-1.5-0.4c-0.8-0.1-1.6-0.1-2.3,0c-0.1,0.8,0,1.5,0,2.2s0,1.4,0,2.1c0,0.7,0,1.4,0,2.1
	c0.3,0.2,0.8,0.1,1.1-0.1v-1C96,200.1,96,199.7,96,199.3L96,199.3z M93.7,198.4L93.7,198.4c0-0.3,0-0.6,0-0.9
	c-0.1-1-0.8-1.9-1.7-2.2c-1.4-0.5-2.9,0.3-3.4,1.6c-0.1,0.3-0.1,0.5-0.1,0.8c0,0.5,0,1.1,0,1.6c0,0.7,0.4,1.4,0.9,1.9
	c0.7,0.6,1.8,0.8,2.7,0.4c1-0.3,1.6-1.2,1.7-2.3C93.8,199,93.8,198.7,93.7,198.4L93.7,198.4z M77.3,199.7c-0.2,0.6,0.2,1.3,0.8,1.6
	c0.8,0.4,1.8,0.5,2.6,0.3c0.6-0.1,1-0.5,1.2-1.1c0.3-0.8-0.1-1.8-0.9-2.1c-0.4-0.2-0.8-0.4-1.2-0.5l-0.9-0.3
	c-0.4-0.2-0.5-0.7-0.3-1.1c0.1-0.1,0.1-0.2,0.3-0.3c0.6-0.4,1.4-0.2,1.8,0.4c0.1,0.1,0.2,0.3,0.3,0.5l0.8-0.1
	c0.2-0.4,0.1-0.8-0.2-1.1c-0.9-1.1-2.6-1.3-3.7-0.3c-0.1,0.1-0.2,0.1-0.2,0.2c-0.5,0.6-0.5,1.4,0,2c0.3,0.4,0.7,0.7,1.2,0.8
	c0.5,0.2,1,0.4,1.5,0.7c0.3,0.1,0.4,0.5,0.3,0.8c-0.1,0.3-0.3,0.5-0.7,0.6c-0.3,0-0.6,0-0.8,0c-0.4-0.1-0.8-0.2-0.9-0.7
	s-0.4-0.4-0.7-0.4C77.5,199.7,77.4,199.7,77.3,199.7z M71.9,199.7c-0.2,0.7,0.1,1.4,0.7,1.7c0.8,0.4,1.8,0.5,2.6,0.3
	c0.6-0.1,1.1-0.6,1.2-1.3c0.2-0.8-0.2-1.6-0.9-1.9c-0.4-0.2-0.8-0.4-1.2-0.5l-0.8-0.3c-0.3-0.1-0.5-0.4-0.4-0.8
	c0-0.3,0.2-0.5,0.5-0.6c0.6-0.3,1.3-0.2,1.7,0.4c0.1,0.2,0.2,0.4,0.3,0.6l0.9-0.1c0-0.2,0-0.4,0-0.6c-0.3-0.8-1-1.3-1.8-1.4
	c-0.2,0-0.5,0-0.8,0c-0.6,0-1.2,0.3-1.6,0.7c-0.4,0.4-0.3,0.9-0.3,1.3c0,0.3,0.1,0.6,0.3,0.8c0.3,0.3,0.7,0.6,1.1,0.7
	c0.2,0.1,0.5,0.1,0.7,0.2c0.4,0.1,0.7,0.3,1,0.5c0.3,0.2,0.4,0.6,0.2,1c-0.1,0.1-0.3,0.3-0.4,0.3c-0.4,0.1-0.9,0.1-1.3,0
	c-0.4-0.1-0.5-0.5-0.7-0.8c0-0.1-0.1-0.1-0.1-0.2L71.9,199.7z M68,195.2c-0.1,0.1-0.1,0.2-0.2,0.3c-0.7,1.9-1.4,3.7-2.1,5.6
	c0,0.2,0,0.4,0,0.6c0.3,0.1,0.7,0.1,1,0l0.6-1.4c0.8-0.1,1.6-0.1,2.3,0c0.3,0.5,0.3,1,0.7,1.4c0.2,0,0.4,0,0.6,0s0.2-0.1,0.3-0.1
	c0-0.1,0-0.3-0.1-0.4c-0.4-1.2-0.9-2.4-1.4-3.7c-0.2-0.6-0.4-1.1-0.6-1.6c-0.1-0.4-0.5-0.8-0.9-0.7C68.2,195.1,68.1,195.1,68,195.2
	L68,195.2z M84,201.6c0-0.6,0-1.1,0-1.6c0-0.2,0.1-0.4,0.1-0.7h1c0.3,0,0.6,0,0.8,0c1-0.1,1.7-0.9,1.8-1.9c0.1-1-0.6-1.8-1.6-2.1
	c-0.9-0.2-1.9-0.3-2.8-0.2c-0.3,0-0.5,0.2-0.5,0.5c0,0.1,0,0.2,0,0.3v5.2c0,0.1,0,0.3,0.1,0.4C83.3,201.7,83.7,201.7,84,201.6
	L84,201.6z M62.3,199.3c0.6,0,1.1,0,1.7,0c0.7,0,1.4-0.4,1.7-1.1c0.1-0.4,0.1-0.7,0.1-1.1c0-0.8-0.6-1.6-1.5-1.7
	c-0.2,0-0.5-0.1-0.7-0.1c-0.8-0.1-1.6-0.1-2.4,0c-0.1,0.5-0.1,1.1-0.1,1.6c0,0.5,0,1.1,0,1.6s0,1.1,0,1.6c0,0.5,0,1.1,0.1,1.6
	c0.3,0.2,0.7,0.1,1-0.1C62.3,200.8,62.1,200,62.3,199.3L62.3,199.3z M102.9,196.4l0.3-0.1h0.6c0.2,0,0.4,0,0.7,0
	c0.3,0,0.5-0.2,0.5-0.5c0,0,0-0.1,0-0.1c0-0.3-0.2-0.5-0.5-0.5h-4.1c-0.1,0-0.3,0-0.4,0c-0.2,0.6-0.2,0.6,0.1,1
	c0.6,0.1,1.2-0.1,1.8,0.2c0.1,0.6,0.1,1.2,0.1,1.8c0,0.6,0,1.1,0,1.7c0,0.6,0,1.2,0.1,1.8c0.3,0.2,0.7,0.1,1.1-0.1
	C103,199.8,102.9,198.1,102.9,196.4L102.9,196.4z M82.9,257.4h3.8c0.2,0,0.4,0,0.7,0c0.2,0,0.4-0.2,0.4-0.4c0.1-0.2-0.1-0.5-0.3-0.5
	c-0.3-0.1-0.6-0.1-0.9-0.1h-7.4c-0.2,0-0.4,0-0.6,0c-0.2,0.1-0.3,0.1-0.5,0.3c-0.2,0.2-0.2,0.4-0.1,0.6c0.1,0.1,0.2,0.1,0.3,0.2
	c0.2,0,0.4,0,0.7,0L82.9,257.4z M69.1,244.4c-0.2-0.2-0.3-0.4-0.5-0.6c-0.4-0.4-0.7-0.7-1.1-1.1c0,0.2,0,0.4,0,0.4
	c0.4,0.4,0.8,0.8,1.2,1.2C68.8,244.4,68.9,244.4,69.1,244.4L69.1,244.4z M67.8,214.7c0.5-0.2,0.9-0.6,1.2-1c-0.2,0-0.3,0-0.4,0
	C68.2,213.9,67.9,214.3,67.8,214.7z"/>
<path class="st6" d="M96.6,189.6h-0.7h-5.6h-0.7c0-0.1-0.1-0.2-0.1-0.4c-0.7-2.6-1.4-5.2-2.1-7.8s-1.3-5.1-2-7.7
	c-0.5-1.9-1-3.7-1.5-5.6c-0.1-0.3-0.2-0.5-0.3-0.8c-0.3,0-0.5,0-0.8,0.1c-0.6,0.1-1.3,0.3-1.9,0.5l-2.1,0.6
	c-0.5,0.1-0.6,0.4-0.5,0.9c0.1,0.3,0.2,0.6,0.3,1c0.4,1.5,0.8,3.1,1.2,4.6c0.6,2.2,1.2,4.4,1.8,6.6c0.6,2,1.1,4.1,1.6,6.1
	c0.2,0.6,0.3,1.3,0.4,1.9c-0.3,0-0.7,0-1,0H65.7c-0.3,0-0.7,0-1,0c0-0.1,0-0.2,0-0.4c-0.7-2.7-1.5-5.4-2.2-8s-1.5-5.6-2.2-8.4
	c-0.7-2.6-1.4-5.2-2.1-7.9c-0.1-0.3-0.2-0.5-0.2-0.8c0.6-0.3,1.2-0.5,1.9-0.6c2.2-0.6,4.4-1.2,6.6-1.8c1.6-0.4,3.1-0.8,4.7-1.2
	l6.6-1.8l4.6-1.2l6.7-1.8c1.2-0.3,2.4-0.6,3.6-1s2.3-0.6,3.5-0.9c0.4-0.1,0.7-0.1,1.1-0.1c0.5,0,0.9,0.3,1,0.8
	c0.3,1.1,0.6,2.1,0.9,3.1c0.6,2.3,1.2,4.5,1.8,6.8c0.4,1.6,0.8,3.1,1.2,4.7c0,0.1,0.1,0.2,0.2,0.3c0.1,0.5,0.2,0.9,0.3,1.4
	c0.3,1.4,0.7,2.7,1.1,4.1c0.2,0.7,0.4,1.4,0.7,2.1l0.4,2l0.6,2.1l2.2,8.3c-1.4,0-2.7,0-4.1,0c-0.4,0-0.8,0-1.1,0
	c0-0.3-0.1-0.6-0.1-0.9c-0.5-1.9-1-3.7-1.5-5.6c-0.4-1.6-0.8-3.2-1.2-4.9c-0.6-2.1-1.2-4.3-1.8-6.5s-1.2-4.4-1.8-6.6
	c-0.1-0.3-0.2-0.6-0.3-0.9c-1.1,0.2-2.1,0.4-3.1,0.8c-0.8,0.1-1.5,0.3-2.2,0.7c0,0.1,0,0.2,0,0.2c0.6,2.2,1.2,4.4,1.8,6.6
	c0.6,2.3,1.2,4.7,1.8,7c0.5,1.9,1,3.7,1.5,5.6C95.8,186.5,96.1,188.1,96.6,189.6z M71.2,180.3c0.3,0.3,0.7,0.5,1.1,0.4
	c0.1-0.1,0.2-0.2,0.2-0.3c0.1-0.5,0.5-0.9,1-1c0.4-0.1,0.7-0.3,1-0.5c0.1-0.1,0.2-0.2,0.3-0.4c-0.7-0.1-1.3-0.2-2-0.2
	c-0.7-0.1-1.3-0.2-2-0.3c0-0.1-0.1-0.2-0.1-0.3c0-1.1,0-2.2-0.2-3.3c0,0,0-0.1,0-0.1c0-0.3,0.1-0.6,0.4-0.8c0.2-0.1,0.3-0.2,0.5-0.3
	c0.1-0.1,0.1-0.2,0.1-0.3c0-0.1-0.1-0.2-0.2-0.2c-0.1-0.1-0.3-0.1-0.4-0.1c-0.2,0-0.4-0.1-0.6-0.2c-0.6-0.5-1.4-0.7-2-1.2
	c-0.1-0.1-0.2-0.2-0.4-0.2c-0.1,0-0.3-0.1-0.4-0.1c0.1,0.3,0.2,0.5,0.4,0.8c0.3,0.5,0.7,1,1,1.4c0.2,0.3,0.3,0.6,0.3,1
	c0,0.7,0,1.3,0,2c0,0.4-0.1,0.8-0.3,1.1c-0.3-0.2-0.6-0.4-0.8-0.6l-3.4-2.8c-0.1-0.1-0.2-0.2-0.3-0.2c-0.1,0-0.2,0-0.3,0.1
	c-0.1,0.1-0.1,0.2,0,0.3c0.2,0.3,0.4,0.6,0.6,0.8c0.7,0.9,1.4,1.7,2.2,2.6c0.4,0.4,0.6,1,0.6,1.5c0,0.1,0,0.3,0.1,0.4l0.9,0.2
	c0.2,0,0.3,0.2,0.4,0.4c0.1,0.2,0.1,0.5,0.1,0.7c-0.2,1-0.2,1.9-0.1,2.9c0,0.5,0.3,1,0.7,1.2c0.6-0.1,1.1-0.7,1-1.3
	c0-0.7,0-1.4,0-2.1c0-0.4,0.2-0.8,0.6-0.9L71.2,180.3z M81.9,187.9c0-0.3,0-0.5-0.1-0.8c-0.2-0.8-0.4-1.7-0.7-2.5
	c-0.5-1.8-0.9-3.6-1.4-5.4c-0.6-2.2-1.2-4.4-1.8-6.7c-0.2-1-0.5-1.9-0.8-2.9c-0.1-0.2-0.2-0.4-0.3-0.6c-0.4,0-0.7,0.2-1,0.4
	c0,0.2,0.1,0.5,0.1,0.7c0.2,0.8,0.4,1.7,0.7,2.5c0.5,1.8,0.9,3.5,1.4,5.3c0.6,2.2,1.2,4.4,1.8,6.7c0.3,1,0.5,2,0.8,3
	c0.1,0.2,0.2,0.3,0.3,0.5L81.9,187.9z M87.8,166.1c-0.1,0.6-0.1,1.1,0.2,1.6c0.8,3.1,1.7,6.2,2.5,9.4c0.6,2.3,1.2,4.6,1.8,7
	c0.2,1,0.4,1,1.3,0.6l0.1-0.1c0.1-0.3,0-0.6-0.1-0.9c-0.3-1.2-0.7-2.4-1-3.6c-0.4-1.5-0.8-3.1-1.2-4.6c-0.8-3-1.6-6-2.4-8.9
	c-0.1-0.2-0.2-0.4-0.3-0.7L87.8,166.1z"/>
<path class="st7" d="M150.1,141.3c0.2,0,0.4-0.1,0.6-0.1l1.6-0.5c0.1,0,0.2-0.2,0.2-0.3c0,0,0,0,0-0.1c0.6-0.1,0.9-0.6,1.3-1
	c0.7-0.8,1.3-1.6,2-2.3s1.3-1.4,1.9-2.1c0.7-0.9,1.4-1.8,2.2-2.6l0.3-0.3c0.6-0.7,1.2-1.5,1.9-2.2c0.8-0.9,1.6-1.8,2.3-2.7
	c0.6-0.6,1.4-0.9,2.3-0.9c0.1,0,0.1,0.1,0.2,0.1c0,0.1,0,0.4,0,0.5c-0.8,1.7-1.4,3.4-2.2,5.1c-0.1,0.2-0.4,0.3-0.5,0.5
	c-0.5,1.2-1,2.4-1.6,3.6c-0.4,0.9-0.9,1.8-1.4,2.8c-0.3,0.8-0.8,1.6-1.4,2.3l-0.4,0.5c-0.8,0.7-1.8,1.1-2.7,1.5
	c-4.2,1.7-8.3,3.4-12.5,5.1c-0.5,0.2-1.2,0.2-1.7,0.2c-2.1-0.2-4.2-0.4-6.3-0.5c-0.4,0-0.8,0-1.2,0c-1.7,1.9-3.7,3.5-5.9,4.7
	c-0.1,0.1-0.2,0.2-0.2,0.3l-2.6-0.2c-0.1,0-0.2-0.2-0.4-0.3c0-0.3,0.1-0.6,0.1-0.8c0-0.3-0.1-0.6-0.3-0.8c-0.6-0.7-1.4-1.2-2.4-1.3
	c0-0.4,0-0.9-0.1-1.3c-0.7-0.2-1.3-0.4-2-0.6c-0.8-0.2-1.6-0.2-2.4-0.4c-1.1-0.3-2.2-0.4-3.3-0.3l-2.2,0.1l-0.8,0.3
	c-0.1,0.5-0.1,1-0.2,1.4c-0.1,0.9-0.2,1.8-0.3,2.7h-1c-0.4,0-0.9,0-1.3,0c-0.5-0.1-1.1-0.2-1.7-0.1c-0.3,0-0.6-0.1-0.9-0.1
	c-0.2,0-0.4,0-0.6-0.1c-0.7,0-1.3,0-2-0.2c-0.1,0-0.3,0-0.4,0l-2-0.2c-1,0-2-0.3-3.1-0.2c-0.6-0.1-1.3-0.2-1.9-0.2
	c-0.8-0.2-1.7,0-2.6-0.3c-0.2,0-0.4,0-0.7,0c-0.3,0-0.6-0.1-0.9-0.1c-0.1,0-0.2-0.1-0.4-0.1c-1.2,0-2.5-0.2-3.7-0.4
	c-0.7-0.1-1.5-0.3-2.2-0.6c-1.7-0.6-3.4-1.4-5-2.2c-1.1-0.6-2.2-1.3-3.1-2.3c-0.5-0.5-0.7-1.3-0.3-1.9c0.3-0.5,0.8-1,1.3-1.3
	c1-0.7,4-1.9,3.4-1.3c0.5,0,0.7,0.1,1.2,0.1 M87,140c0.4-0.1,0.9,0.2,1.4-0.5c0.1-0.4,0.1-0.9,0-1.3c-0.7-0.1-1.3-0.1-1.9-0.2
	c-0.2,0-0.4,0-0.5-0.1c-0.1,0-0.3-0.1-0.4-0.2c0.3-0.3,0.6-0.5,0.9-0.6c0.9-0.5,1.9-0.8,2.9-1c0.8-0.2,1.6-0.3,2.5-0.4
	c1.1-0.1,2.1-0.2,3.2-0.1c0.4,0,0.7,0.1,1.1,0.1l0.8,0.1c0.6,0,1.2,0,1.8,0.2c1.2-0.1,2.3,0.3,3.5,0.2l2,0.2c1,0.1,2.1,0.2,3.1,0.2
	c0.7,0.2,1.5,0.2,2.2,0.2c0.1,0,0.2,0,0.3,0c0.5,0.2,1,0.2,1.5,0.2c0.6,0,1.1,0.1,1.7,0.2c0.6,0,1.1-0.1,1.7-0.2
	c0,0.2,0.2,0.4,0.4,0.4c0,0,0,0,0,0c0.5-0.1,1.1-0.1,1.6,0c0.5,0.1,1,0.1,1.6,0.1c0.2,0,0.4,0,0.7,0c0.6,0.1,1.2,0.2,1.8,0.2
	c0.2,0,0.5,0,0.8,0c0.5,0.1,1,0.2,1.5,0.1c0.2,0,0.5,0,0.7,0c0.5,0.1,1,0.2,1.6,0.1c0.2,0,0.4,0,0.7,0c0.5,0.1,1.1,0.2,1.7,0.1
	c0.2,0,0.4,0,0.7,0c0.4,0.1,0.9,0.2,1.4,0.1c0.3,0,0.6,0,0.8,0c0.5,0.1,1,0.2,1.6,0.1c0.2,0,0.4,0,0.7,0c0.5,0.1,1.1,0.2,1.7,0.2
	c0.2,0,0.4,0,0.6,0c1,0.2,1.9,0.3,2.9,0.3c0.7,0.1,1.5,0.1,2.2,0.2l-1,2.4l-0.4,0.9l-0.5,0.1l-2.6,0.3c-0.7,0.1-1.4,0.1-2,0.2
	l-2.8,0.4c0-0.2,0-0.4,0-0.6c0-0.3-0.2-0.5-0.5-0.6c-0.3,0-0.6,0.2-0.6,0.6c0,0,0,0,0,0c0,0.2,0,0.5,0,0.7c-0.4,0.1-0.9,0.1-1.4,0.1
	c-0.1,0-0.3-0.1-0.4-0.1c0.1-0.3,0-0.7,0-1c0-0.3-0.2-0.4-0.4-0.5c-0.3-0.1-0.6,0.1-0.6,0.4c0,0,0,0,0,0c0,0.4,0,0.7,0,1.1
	c0,0.1-0.2,0.3-0.3,0.3c-0.5,0.1-1,0.2-1.6,0.2c-1.1,0.1-2.2,0.3-3.2,0.4c-0.6,0.1-1.2,0.2-1.8,0.3c-0.4,0.1-0.5,0.4-0.2,0.8
	c0.1,0.1,0.1,0.1,0.2,0.2c0.7,0.4,1.5,0.6,2.3,0.4c0.6-0.1,1.2-0.2,1.8-0.3l4-0.7c1.3-0.2,2.6-0.4,3.9-0.6c1.7-0.3,3.4-0.6,5.1-0.9
	c2.1-0.4,4.1-0.6,6.2-1 M106,141.4c0-0.2,0-0.4-0.1-0.5c0-0.2-0.2-0.4-0.4-0.4c-0.3,0-0.5,0.1-0.6,0.4c-0.1,0.3-0.1,0.7-0.1,1
	c0,0.2,0.2,0.4,0.4,0.4c0.3,0,0.5-0.1,0.6-0.3c0.1-0.2,0.1-0.5,0.1-0.7L106,141.4z M119.8,142.5c0-0.2-0.1-0.4-0.1-0.5
	c0-0.2-0.2-0.3-0.4-0.3c-0.2,0-0.4,0.1-0.5,0.2c-0.2,0.4-0.3,0.8-0.1,1.2c0.1,0.2,0.3,0.4,0.5,0.4c0.2,0,0.3-0.1,0.4-0.3
	c0.1-0.3,0.2-0.6,0.2-0.8L119.8,142.5z M115.8,142.5c0,0.1,0,0.2,0,0.4c0,0.2,0.2,0.4,0.4,0.4c0.2,0.1,0.5-0.1,0.6-0.3
	c0.1-0.4,0.1-0.7,0.1-1.1c0-0.3-0.3-0.4-0.5-0.4c-0.2,0-0.4,0.2-0.5,0.4c0,0.2-0.1,0.3-0.1,0.5L115.8,142.5z M107.5,141.6
	c0,0.2,0,0.3,0,0.4c0,0.3,0.3,0.5,0.5,0.5c0.3,0,0.5-0.2,0.5-0.4c0.1-0.3,0.1-0.6,0.1-0.9c0-0.3-0.2-0.5-0.5-0.5
	c-0.3,0-0.5,0.2-0.6,0.4c0,0.1-0.1,0.3-0.1,0.4L107.5,141.6z M122.5,142.7c0-0.1,0-0.2,0-0.4c0-0.2-0.2-0.4-0.4-0.4
	c-0.3-0.1-0.5,0.1-0.6,0.4c-0.1,0.3-0.1,0.7-0.1,1c0,0.3,0.2,0.5,0.5,0.5c0.3,0,0.5-0.1,0.6-0.4c0-0.3,0-0.5,0.1-0.8L122.5,142.7z
	 M95.7,140.6c0,0.1,0,0.3,0,0.4c0,0.3,0.2,0.5,0.5,0.5c0.3,0,0.5-0.1,0.6-0.4c0.1-0.3,0.1-0.7,0.1-1c0-0.3-0.3-0.5-0.6-0.4
	c-0.2,0-0.3,0.2-0.4,0.3c0,0.2-0.1,0.3-0.1,0.5L95.7,140.6z M125.3,143c0-0.1,0-0.2,0-0.3c0-0.3-0.2-0.5-0.5-0.5
	c-0.3,0-0.5,0.1-0.6,0.4c-0.1,0.3-0.1,0.7-0.1,1c0,0.3,0.2,0.5,0.5,0.5c0.3,0,0.5-0.2,0.6-0.4c0-0.2,0.1-0.5,0.1-0.7L125.3,143z
	 M102,141.2c0,0.1,0,0.3,0,0.4c0,0.3,0.2,0.5,0.5,0.5c0.3,0,0.5-0.1,0.6-0.4c0.1-0.3,0.1-0.7,0.1-1c0-0.3-0.3-0.5-0.6-0.4
	c-0.2,0-0.3,0.2-0.4,0.3c0,0.1-0.1,0.3-0.1,0.4L102,141.2z M100.3,140.9c0-0.1,0-0.2,0-0.3c0-0.3-0.2-0.5-0.5-0.5c0,0,0,0,0,0
	c-0.3,0-0.5,0.2-0.6,0.5c0,0.3,0,0.6,0,0.8c0,0.3,0.2,0.5,0.4,0.5c0.3,0,0.5-0.2,0.6-0.4c0-0.2,0-0.4,0-0.6L100.3,140.9z
	 M111.4,141.9c0-0.2,0-0.3,0-0.4c0-0.3-0.3-0.5-0.6-0.5c-0.2,0-0.4,0.2-0.5,0.4c0,0.3-0.1,0.6-0.1,0.9c0,0.3,0.2,0.5,0.5,0.5
	c0.3,0,0.5-0.1,0.6-0.4c0.1-0.3,0.1-0.5,0.1-0.6L111.4,141.9z M113.1,142.1c0,0.2,0,0.3,0,0.4c0,0.3,0.2,0.5,0.5,0.6
	c0.3,0,0.5-0.2,0.6-0.5c0-0.3,0-0.6,0-0.9c0-0.3-0.3-0.4-0.5-0.4c-0.2,0-0.4,0.1-0.5,0.4c0,0.1,0,0.3,0,0.4L113.1,142.1z"/>
<path class="st8" d="M57.9,164.1c0.1,0.3,0.2,0.5,0.2,0.8c0.7,2.6,1.4,5.2,2.1,7.9c0.7,2.8,1.5,5.6,2.2,8.4s1.5,5.3,2.2,8
	c0,0.1,0,0.2,0,0.4c-0.5,0-0.9,0-1.4,0c-1.3,0-2.7,0-4,0c-0.4-1.4-0.7-2.7-1.1-4.1c-0.5-1.7-0.9-3.4-1.4-5.1
	c-0.9-3.4-1.8-6.9-2.8-10.3c-0.3-1.1-0.6-2.2-0.8-3.2c-0.2-0.7,0.1-1.4,0.8-1.7c0.3-0.1,0.6-0.2,0.9-0.3l2.5-0.7
	C57.6,164.2,57.7,164.2,57.9,164.1z"/>
<path class="st9" d="M200.6,201.5c-0.3-0.3-0.6-0.7-1-1c-0.9-0.9-1.7-1.8-2.3-2.9c-0.3-0.3-0.4-0.7-0.3-1.1c0.5-0.4,1.2-0.7,1.8-0.8
	c0.8,0.2,1.6,0.4,2.4,0.7c1.4,0.5,2.7,1,4.1,1.6c0.1,0.1,0.3,0.1,0.4,0.2c0.4,0.2,0.8,0,1-0.4c0,0,0,0,0,0c0.4-0.7,0.7-1.5,0.9-2.4
	c0.4-1.8,0.9-3.6,1.3-5.4c0.1-0.3,0.2-0.7,0.3-1c0.2-0.8,0.7-1.5,1.3-2c1.3-1.2,2.9-1.9,4.6-2.1c0,0.2,0,0.5,0,0.7
	c-0.1,0.5,0.3,0.9,0.7,1c0,0,0.1,0,0.2,0c0.5,0,1,0,1.6-0.1c0.7-0.1,1.3-0.2,1.8-0.6c0.5-0.4,1-0.9,0.8-1.6c1.2,0,2.3,0.1,3.5,0.4
	c1.1,0.3,2.2,0.9,3,1.7c0.4,0.4,0.8,0.9,1.2,1.4c0,0.1,0.4,0.4,0.5,0.4c1,1.8,1.7,3.5,2.2,5.5c0.5,1.8,1,3.5,1.5,5.3
	c0.4,1.2,0.9,2.3,1.6,3.4c1.1,2.1,2.2,4.3,3.2,6.5c0.4,0.9,0.8,1.7,1.1,2.5c0.1,0.3,0.3,0.7,0.3,1.1c-0.7,0.3-1.8,0.5-2.5,0.5
	c-0.3-0.1-0.2-0.4-0.4-0.6c-0.4-0.3-0.7-0.6-0.8-0.7c-0.2-0.2-0.7-0.3-0.9-0.6c-1.5-1.5-3-3-4.5-4.5c-0.1-0.1-0.3-0.2-0.4-0.3
	c-0.2-0.3-0.3-0.7-0.5-1c-0.9-1.7-1.7-3.4-2.4-5.2c-0.1-0.2-0.2-0.5-0.3-0.7c-0.1-0.2-0.2-0.4-0.4-0.7c-0.2,0.2-0.3,0.3-0.4,0.5
	c-0.3,0.7-0.5,1.5-0.5,2.3v3.5c0,0.4,0,0.8,0.1,1.2c0,0.4,0,0.9,0,1.3c0,0.2-0.1,0.4-0.1,0.6c0,1.3-0.5,2.5-1.3,3.4
	c-0.5,0.6-0.9,1.4-1,2.2c-0.2,1,0,2,0.5,2.9c0.1,0.2,0.2,0.5,0.3,0.8c-0.2,0.1-0.4,0-0.7,0c-0.9,0-1.8,0-2.7-0.1
	c-1.3-0.1-2.5-0.4-3.8-0.7l-1.5-0.4c-0.1-0.1-0.3-0.2-0.4-0.2c-1.4-0.5-2.8-1.1-4.1-1.8c-0.2-0.1-0.4-0.1-0.6-0.2
	c-0.6-1.1-0.8-2.4-0.5-3.6c0.2-1.1,0.5-2.3,0.8-3.4c0.3-1,0.6-2.1,0.9-3.1c0.1-0.1,0-0.3-0.1-0.4c0.2-0.3,0.3-0.6,0.4-1
	c0.1-0.9,0.3-1.7,0.4-2.6l0.5-2.7c-0.1,0-0.1,0-0.1,0c-0.1,0-0.2,0.1-0.2,0.1c-1,1-1.7,2.2-2.1,3.6c-0.2,0.7-0.3,1.3-0.6,2
	c-0.1,0.6-0.6,1-1.2,1.1l-1.1,0.2c-0.1,0-0.2,0.1-0.3,0.1c-1.5-0.4-3-1.1-4.3-2L200.6,201.5z"/>
<path class="st10" d="M241.6,213.6c0.5-0.1,1-0.1,1.5,0c0,0.1,0,0.2,0,0.4v44.9c-0.6,0.8-0.8,1.8-0.7,2.8c0,0.2,0,0.3,0,0.5l-0.6,0
	h-4l-0.6-0.1c0-0.4,0-0.9,0-1.3v-45.4c0-0.4,0-0.8,0-1.2c0.4,0.2,0.7,0.4,1.1,0.6s0.4,0.3,0.7,0.1l-0.2-0.7c0.3-0.1,0.6,0,0.8,0.2
	c0.4,0.3,0.7,0.6,1.1,0.9c0.2,0.2,0.6,0.3,0.8,0.1c0.1-0.1,0.2-0.3,0.2-0.5C241.5,214.4,241.5,214,241.6,213.6z"/>
<path class="st10" d="M250.2,223.8c0,0.3-0.1,0.6-0.1,0.9c0,6,0,12,0,17.9c0,0.3,0,0.6,0,0.8v3.4c0,0.2,0,0.4,0,0.6
	c0,2.6,0,5.1,0,7.7c0,0.2,0,0.4,0,0.6l-0.1,1.6l-0.9,0.1c-1,0-1.9,0-2.9-0.1c-0.8,0-1.6,0.1-2.3,0.5c0-0.5,0-0.9,0-1.4
	c0-13.9,0-27.9,0-41.8v-1.2c0.6,0,1.3,0,1.9,0.1l1.3,0.5c0.6,0.4,1.2,0.9,1.7,1.4c0.2,0.3,0.5,0.6,0.7,0.9c0.1,0.3,0.3,0.7,0.4,1
	c0.1,0.6,0.2,1.2,0.3,1.9v0.9C250.2,221.5,250.2,222.7,250.2,223.8z"/>
<path class="st11" d="M243.8,213.5l0.2,0.1v1.2c0,13.9,0,27.9,0,41.8c0,0.5,0,0.9,0,1.4l-1,0.8V214c0-0.1,0-0.2,0-0.4L243.8,213.5z"
	/>
<path class="st12" d="M243,258.9l1-0.8c0.7-0.3,1.5-0.5,2.3-0.5c1,0,1.9,0,2.9,0.1c0,0.4,0,0.9-0.1,1.3c-0.2,1.6-1.4,2.8-2.9,3.1
	l-0.5,0.1c-0.1,0.3-0.1,0.6,0.1,0.9c0.5,0.7,0.3,1.7-0.4,2.1c-0.1,0-0.1,0.1-0.2,0.1c-0.3,0.3-0.8,0.4-1.2,0.3l-0.2-0.2
	c-0.1-0.1-0.3-0.2-0.4-0.3c-0.6-0.5-0.7-1.3-0.4-1.9c0.1-0.1,0.2-0.3,0.2-0.4c0-0.2,0-0.4,0-0.6l-0.9-0.1c0-0.2,0-0.3,0-0.5
	C242.2,260.7,242.5,259.7,243,258.9z"/>
<path class="st4" d="M241.6,213.6c0,0.4,0,0.8,0,1.2c0,0.3-0.2,0.6-0.5,0.6c-0.2,0-0.4-0.1-0.5-0.2c-0.4-0.3-0.7-0.6-1.1-0.9
	c-0.2-0.2-0.5-0.3-0.8-0.2l0.2,0.7c-0.3,0.2-0.5,0-0.7-0.1s-0.7-0.4-1.1-0.6l-0.6-0.6l-0.2-0.8c0.7,0,1.5-0.2,2.1-0.5
	C239.6,212.4,240.7,212.9,241.6,213.6z"/>
<path class="st13" d="M250.2,220.4v-0.9c0.3,0,0.6-0.1,0.8,0.1C250.9,220,250.6,220.3,250.2,220.4z"/>
<path class="st0" d="M200.9,201.5l1.2,0.8c1.3,0.9,2.7,1.6,4.3,2c0.6,0.2,1.3,0.3,2,0.3c0.9-0.1,1.7-0.5,2.3-1.1
	c0.1,0.1,0.2,0.3,0.1,0.4c-0.3,1.1-0.5,2.1-0.9,3.1c-0.4,1.1-0.6,2.2-0.8,3.4c-0.2,1.2,0,2.5,0.5,3.6c-1.6,3.2-3.2,6.5-4.6,9.8
	c-1.1,2.4-2,4.9-2.8,7.4c-0.4,1.3-0.5,2.7-0.4,4.1c0.2,1.5,0.5,3,0.8,4.5c0.6,2.6,1.4,5.2,2.3,7.8c0,0.4,0,0.7-0.2,1.1
	c-1.1,3.6-2.1,7.2-3.1,10.8c-0.1,0.2-0.1,0.4-0.1,0.6c0,0.1,0.1,0.2,0.2,0.3c-0.5,0.9-1,1.7-1.6,2.5c-0.3,0.4-0.7,0.7-1.2,0.8
	c-0.3,0-0.6,0.1-0.8,0.2c-0.4,0.1-0.8,0.2-1.2,0.4c-0.5,0.2-0.9,0.7-1,1.2c-0.3,0.1-0.5,0.1-0.8,0.1h-10.1c-0.2,0-0.5,0-0.7-0.1
	c-0.1,0-0.1-0.1-0.1-0.2c2.7-1.1,4.6-3.5,5.2-6.4c0.2-0.8,0.2-1.5,0.2-2.3c0-8,0-16,0-24.1c0-9.6,0-19.2,0-28.8c0-0.4,0-0.7,0-1.1
	c0.8,0,1.6,0,2.4-0.1c0.7-0.1,1.4-0.1,2.1,0c0.3,0,0.7-0.1,1-0.1c0.1,0,0.2,0,0.3,0c0.8,0,1.7-0.1,2.5-0.2c0.5,0,1-0.1,1.6-0.2
	L200.9,201.5z"/>
<path class="st14" d="M188.8,96.1c0.5-0.6,1-1.2,1.6-1.7c3.4-3.1,8.7-3,12,0.2c2.2,2,3.4,4.9,3.2,7.9c0,0.6-0.1,1.2-0.3,1.7
	c-0.4,1.3-1,2.6-1.8,3.8c-1.1,1.8-2.3,3.4-3.7,5c-0.9,1.1-1.9,2.1-2.9,3.1c-0.2,0.2-0.4,0.4-0.7,0.6c-0.1,0-0.2-0.1-0.3-0.2
	c-2.7-2.6-5.2-5.5-7.2-8.7c-0.7-1.1-1.2-2.2-1.6-3.4c-0.2-0.7-0.4-1.4-0.4-2.1c0-0.2,0-0.4,0-0.7s0.1-0.2,0.1-0.4
	c0.1-1.4,0.5-2.7,1.1-3.9C188.3,97,188.5,96.5,188.8,96.1z M196.3,96.2c-3-0.1-5.5,2.3-5.5,5.3c0,0.1,0,0.1,0,0.2
	c0,3,2.4,5.5,5.4,5.6c0,0,0.1,0,0.1,0c3,0,5.4-2.4,5.5-5.4C201.8,98.7,199.4,96.2,196.3,96.2C196.3,96.2,196.3,96.2,196.3,96.2
	L196.3,96.2z"/>
<path class="st12" d="M211.6,177.9c-0.6-0.9-0.9-2-0.9-3.1c0-0.6,0.2-1.2,0.6-1.6c0.4-0.5,0.8-1,1.2-1.5c0.6-0.6,1.1-1.2,1.8-1.8
	c0.4-0.3,0.8-0.6,1.2-0.8c0.7-0.4,1.6-0.5,2.4-0.1c0.1,0,0.2,0.1,0.3,0.1c0.1-0.2,0.2-0.4,0.3-0.6c0.6-1.1,1.7-1.8,3-1.7
	c1,0,1.9,0.6,2.2,1.6c0.6,1.3,0.3,2.9-0.7,3.9c-0.3,0.4-0.7,0.3-1.2,0.4c0.1,0.3,0.2,0.6,0.3,0.9c0.4,1.2,0.5,2.5,0.1,3.7
	c-0.2,0.6-0.4,1.1-0.8,1.6c-0.3,0.4-0.7,0.6-1.1,0.5c-0.4-0.1-0.9,0.1-1.1,0.5c-0.1,0.1-0.1,0.2-0.2,0.3c-0.2-0.3-0.2-0.7-0.1-1
	c0.1-0.7,0-1.4-0.2-2c-0.8,0-1.6-0.1-2.4-0.3c-0.1-0.1-0.3-0.3-0.6-0.2l0.4,0.4l0.4,0.5l-0.2,0.2c-0.3-0.2-0.6-0.4-0.9-0.7
	c-0.8-0.8-1.5-1.7-2.1-2.7c-0.2-0.3-0.3-0.5-0.5-0.8c-0.6,0.5-0.9,1.3-1,2.1c0,0.4,0,0.8-0.1,1.2C212,177.2,211.8,177.6,211.6,177.9
	z"/>
<path class="st4" d="M216.7,177.3c-0.1-0.1-0.3-0.3-0.4-0.5l0.2-0.2c0.8,0.2,1.6,0.3,2.4,0.3c0.2,0.6,0.2,1.3,0.2,2
	c-0.1,0.3-0.1,0.7,0.1,1c0.1,1.5,0.5,2.9,1.1,4.3c0.3,0.7-0.2,1.2-0.7,1.6c-0.5,0.4-1.2,0.6-1.8,0.6c-0.5,0.1-1.1,0.1-1.6,0.1
	c-0.5,0-0.9-0.4-0.9-0.9c0,0,0-0.1,0-0.1c0-0.2,0-0.5,0-0.7l-0.1-1.5c0.7,0.1,1.3-0.2,1.8-0.7c0.5-0.4,0.9-1,1.1-1.6
	c-0.1-0.1-0.3-0.2-0.5-0.1c0,0,0,0-0.1,0.1c-0.5,0.4-1.1,0.6-1.8,0.8c-0.3,0.1-0.6,0.2-0.9,0.4c-0.2,0-0.3,0-0.5,0
	c-0.6,0.1-1.1-0.2-1.4-0.7l-0.2-0.2c-0.6-1.1-1-2.3-1.2-3.5c0.3-0.3,0.4-0.7,0.4-1.1c0-0.4,0-0.8,0.1-1.2c0.1-0.8,0.4-1.5,1-2.1
	c0.2,0.3,0.3,0.6,0.5,0.8c0.5,1,1.2,1.9,2.1,2.7c0.3,0.2,0.6,0.5,0.9,0.7c0.3,0.3,0.6,0.5,1,0.5C217.3,177.7,217,177.5,216.7,177.3z
	"/>
<path class="st4" d="M198.8,195.6c-0.6,0.2-1.3,0.5-1.8,0.8c-0.7-0.7-1.2-1.5-1.7-2.3c-0.3-0.5-0.4-1.1-0.3-1.6
	c0.2-0.9,0.2-1.8,0.2-2.7c0.1-0.5,0.1-1,0.2-1.5c0.2,0.6,0.4,1.3,0.7,1.9c0.4-0.2,0.5-0.5,0.7-0.8s0.2-0.3,0.5-0.2
	c0.1,0.3-0.2,0.7,0.2,1c0.1,0,0,0.2,0,0.4s-0.2,0.5-0.3,0.7c0,0,0,0.1,0,0.2l0.4,0.1c0,0.6-0.5,0.9-0.5,1.5c0.6-0.1,1.1-0.2,1.7-0.3
	c0,0,0,0.1,0,0.1C198.7,193.7,198.6,194.7,198.8,195.6z"/>
<path class="st11" d="M199,192.7c-0.5,0.1-1.1,0.3-1.7,0.3c0-0.6,0.5-1,0.5-1.5l-0.4-0.1c0-0.1-0.1-0.1,0-0.2
	c0.1-0.2,0.2-0.5,0.3-0.7s0-0.3,0-0.4c-0.4-0.2-0.1-0.7-0.2-1c-0.3-0.1-0.4,0.1-0.5,0.2s-0.3,0.6-0.7,0.8c-0.3-0.6-0.5-1.2-0.7-1.9
	l-0.2-0.7c0.4-0.5,1-0.5,1.5-0.6s1.1-0.3,1.6-0.4c0.1,0.4,0.3,0.7,0.4,1.1c0.3,1,0.6,2.1,0.9,3.1c0.2,0.5,0.3,1,0.2,1.6L199,192.7z"
	/>
<path class="st15" d="M189.3,177.3c0-0.5-0.1-1-0.1-1.5c0-1.2,0-2.4,0-3.6c0.3,0.2,0.4,0.6,0.6,0.9s0.4,0.6,0.5,1
	C190.9,175.2,190.5,176.7,189.3,177.3C189.3,177.3,189.3,177.3,189.3,177.3z"/>
<path class="st3" d="M200,192.3c0-0.5-0.1-1.1-0.2-1.6c-0.3-1-0.6-2.1-0.9-3.1c-0.1-0.4-0.2-0.7-0.4-1.1l0.5-0.2
	c0.1,0.1,0.2,0.1,0.2,0.2c0.5,1.7,1,3.4,1.5,5.2c0,0.1,0,0.2,0,0.3L200,192.3z"/>
<path class="st14" d="M214.8,182.2c0.3-0.1,0.6-0.3,0.9-0.4c0.6-0.2,1.2-0.4,1.7-0.8c0.1-0.1,0.3-0.2,0.5-0.1c0,0,0,0,0.1,0.1
	c-0.2,0.6-0.6,1.2-1.2,1.6c-0.5,0.5-1.1,0.7-1.8,0.6L214.8,182.2z"/>
<path class="st3" d="M229.1,119.9c0-0.1,0-0.1,0-0.2s0.1-0.2,0.2-0.2s0.2,0.1,0.3,0.2s0,0.1,0,0.1c0.1,0.4,0.1,0.8,0.1,1.2
	c0,0.2-0.1,0.3-0.3,0.3s-0.3-0.1-0.3-0.2C229.2,120.7,229.1,120.3,229.1,119.9z"/>
<path class="st3" d="M228.7,117.4c0-0.1,0-0.1,0-0.2c0.1-0.1,0.1-0.2,0.2-0.2s0.3,0.1,0.3,0.1c0.1,0.2,0.1,0.4,0.1,0.6
	c0,0.2,0.1,0.3,0.1,0.5c0,0.3-0.1,0.5-0.2,0.5s-0.3-0.2-0.3-0.4S228.8,117.7,228.7,117.4z"/>
<path class="st4" d="M229.7,123.9l-0.3-0.4c0-0.4,0-0.8,0-1.2c0-0.1,0.1-0.2,0.2-0.2c0.1,0,0.2,0,0.2,0.1c0.3,0.5,0.3,1.1,0.1,1.7
	C229.9,123.8,229.8,123.8,229.7,123.9z"/>
<path class="st14" d="M230.3,124.8c0,0.4,0.1,0.9,0.1,1.3c0,0.1-0.1,0.2-0.2,0.3s-0.3-0.1-0.3-0.2c0-0.4-0.1-0.9-0.1-1.3
	c0-0.1,0.1-0.2,0.2-0.3L230.3,124.8z"/>
<path class="st3" d="M228.3,114.7c0.1-0.2,0.3-0.3,0.5-0.2c0,0,0,0,0,0c0.1,0.5,0.2,1,0.2,1.4c0,0.1-0.1,0.2-0.2,0.2
	c-0.1,0-0.2-0.1-0.3-0.2c-0.1-0.1-0.1-0.2-0.1-0.3C228.4,115.3,228.4,115,228.3,114.7z"/>
<path class="st4" d="M197.3,90.6c-0.1-0.1-0.2-0.2-0.2-0.3c0-0.3,0.1-0.7,0.4-0.9c0.1-0.1,0.2-0.1,0.3,0c0.1,0,0.1,0.1,0.1,0.2
	c0,0.4-0.1,0.8-0.4,1C197.5,90.6,197.4,90.6,197.3,90.6z"/>
<path class="st14" d="M226.1,99.5c0,0.2,0,0.4,0,0.5c0,0.3,0.1,0.5,0.2,0.8c0,0.2,0,0.3-0.2,0.4c-0.1,0.1-0.3,0-0.4-0.3
	s-0.2-0.7-0.2-1s0.1-0.4,0.4-0.4L226.1,99.5L226.1,99.5z"/>
<path class="st14" d="M226.9,103.4c-0.1,0.1-0.1,0.2-0.2,0.2s-0.3-0.1-0.3-0.1c-0.1-0.4-0.2-0.9-0.3-1.3c0-0.1,0.1-0.2,0.2-0.2
	c0.1,0,0.2,0.1,0.3,0.2C226.7,102.6,226.8,103,226.9,103.4z"/>
<path class="st14" d="M228.3,110.9c-0.1,0.1-0.1,0.2-0.2,0.3c-0.1,0.1-0.3,0-0.3-0.1c0,0,0,0,0-0.1c-0.1-0.4-0.2-0.8-0.2-1.3
	c0-0.1,0.1-0.2,0.2-0.2c0.1,0,0.2,0.1,0.3,0.2C228.1,110,228.2,110.5,228.3,110.9z"/>
<path class="st14" d="M227.4,105.9c-0.1,0.1-0.1,0.2-0.2,0.2c-0.1,0.1-0.3,0-0.3-0.1c0,0,0-0.1,0-0.1c-0.1-0.4-0.2-0.8-0.2-1.3
	c0-0.1,0.1-0.2,0.2-0.2c0.1,0,0.2,0.1,0.3,0.2C227.2,105,227.3,105.4,227.4,105.9z"/>
<path class="st14" d="M228.7,113.4c-0.1,0.1-0.1,0.2-0.2,0.2c-0.1,0.1-0.3,0-0.4-0.2c-0.1-0.4-0.1-0.8-0.2-1.3
	c0-0.1,0.1-0.2,0.2-0.2s0.2,0.1,0.2,0.1C228.5,112.5,228.6,112.9,228.7,113.4z"/>
<path class="st14" d="M227.9,108.3c-0.1,0.1-0.1,0.2-0.2,0.3c-0.1,0.1-0.3,0-0.3-0.1c0,0,0,0,0-0.1c-0.1-0.4-0.1-0.8-0.2-1.3
	c0-0.1,0.1-0.2,0.2-0.2s0.2,0,0.2,0.1C227.6,107.5,227.8,107.9,227.9,108.3z"/>
<path class="st0" d="M220.4,265.6c-0.5,0-0.9,0-1.4,0h-6.3c-0.3,0-0.7,0-1-0.1c0.3-0.4,0.5-0.8,0.6-1.3c0.1-0.6,0.4-1.1,0.8-1.5
	c0.2-0.2,0.4-0.4,0.6-0.6c0.7-0.6,0.8-1.6,0.2-2.3c0,0-0.1-0.1-0.1-0.1c-0.2-0.3-0.4-0.5-0.6-0.7l-0.4-0.4c0-0.5,0.1-1,0.1-1.5
	c-0.1-1.4-0.1-2.8-0.2-4.2c0-0.6-0.1-1.1-0.2-1.7c0.1-0.3,0.3-0.7,0.5-1c1.4-2.4,2.6-5,3.6-7.6c0.1-0.4,0.3-0.7,0.4-1.1
	c0,0.4,0,0.9,0,1.3v13.3c0,0.3,0,0.7,0,1c0,0.2,0.1,0.4,0.2,0.6l0.9,0.1v0.4c-0.1,1.4,0.6,2.7,1.7,3.4c0.1,0.1,0.2,0.2,0.3,0.3
	l0.1,0.9c-0.1,0.2-0.3,0.4-0.4,0.6c-0.3,0.5-0.2,1.2,0.2,1.6c0.1,0.1,0.3,0.3,0.4,0.4S220.5,265.5,220.4,265.6z"/>
<path class="st0" d="M242.3,262.1l0.9,0.1c0,0.2,0,0.4,0,0.6c-0.1,0.1-0.1,0.3-0.2,0.4c-0.4,0.6-0.2,1.5,0.4,1.9
	c0.1,0.1,0.2,0.2,0.4,0.3l-0.2,0.2c-0.3,0-0.7,0-1,0h-15.5h-4c-0.2,0-0.4,0-0.6,0s-0.1-0.2,0-0.4c0.7-0.6,0.8-1.6,0.2-2.2l-0.1-0.3
	l0.1-0.4h0.9l1.8-0.1l3.8,0.1c0.2,0,0.4,0,0.6-0.1h0.9c0.2,0,0.3,0,0.5,0h4.6c0.2,0,0.3,0,0.5-0.1h0.9c0.2,0,0.4,0.1,0.6,0.1h4
	L242.3,262.1z"/>
<path class="st16" d="M212.6,251c0.1,0.6,0.1,1.1,0.2,1.7c0.1,1.4,0.1,2.8,0.2,4.2c0,0.5,0,0.9-0.1,1.5l0.4,0.4
	c0.2,0.2,0.4,0.5,0.6,0.7c0.6,0.7,0.6,1.7,0,2.3c0,0-0.1,0.1-0.1,0.1c-0.2,0.2-0.4,0.4-0.6,0.6c-0.4,0.4-0.7,1-0.8,1.5
	c-0.1,0.5-0.3,0.9-0.6,1.3h-4.4c0.1-0.5,0.4-0.6,0.8-0.7c0.7-0.2,1.2-0.7,1.4-1.4c0.1-0.3,0.2-0.6,0.2-0.9c0-0.5,0-1,0-1.5
	c0.1-0.6-0.3-1-0.5-1.4c0-0.1-0.1-0.2-0.1-0.3c-0.2-0.5-0.4-0.9-0.6-1.4c0.1-0.3,0.2-0.6,0.4-0.8s0.4-0.6,0.6-0.9l2.8-4.9
	C212.4,251.2,212.5,251.1,212.6,251z"/>
<path class="st16" d="M195.6,265.4c0.1-0.5,0.5-1,1-1.2c0.4-0.2,0.8-0.3,1.2-0.4c0.3-0.1,0.5-0.1,0.8-0.2c0.5-0.1,0.9-0.3,1.2-0.8
	c0.6-0.8,1.2-1.6,1.6-2.5c1.1,0.4,2.3,0.6,3.5,0.6c0.1,0,0.2,0,0.4,0c-0.2,0.5-0.1,1.1,0.1,1.6c0.1,0.2,0.2,0.3,0.2,0.5
	c0.3,0.7,0.3,1.6,0.1,2.3h-9.3L195.6,265.4z"/>
<path class="st0" d="M205.9,265.4c0.3-0.8,0.2-1.6-0.1-2.3c-0.1-0.2-0.1-0.3-0.2-0.5c-0.3-0.5-0.3-1.1-0.1-1.6c0.1,0,0.2,0,0.3,0
	c0.5,0,1-0.3,1.2-0.7c0.4-0.6,0.8-1.2,1.2-1.8c0.1-0.2,0.3-0.3,0.4-0.5c0.2,0.5,0.4,0.9,0.6,1.4c0,0.1,0.1,0.2,0.1,0.3
	c0.2,0.4,0.6,0.8,0.5,1.4c0,0.5,0,1,0,1.5c0,0.3-0.1,0.6-0.2,0.9c-0.2,0.7-0.7,1.2-1.4,1.4c-0.4,0.1-0.7,0.2-0.8,0.7
	C206.9,265.6,206.4,265.6,205.9,265.4z"/>
<path class="st17" d="M222.5,262.6l0.1,0.3c0.5,0.7,0.4,1.7-0.2,2.2c-0.1,0.2-0.1,0.3,0,0.4h-2c0-0.1,0.1-0.2,0.1-0.2
	s-0.3-0.3-0.4-0.4c-0.4-0.5-0.4-1.1-0.2-1.6c0.1-0.2,0.2-0.4,0.4-0.6C221.1,262.4,221.8,262.4,222.5,262.6z"/>
<path class="st17" d="M243.6,265.6l0.2-0.2l0.2,0.2L243.6,265.6z"/>
<path class="st14" d="M187.2,179.2c0,0.3,0,0.7,0,1v57.9c0,0.4,0,0.8-0.1,1.2h-66.4c-0.1-0.2-0.2-0.4-0.2-0.6
	c-0.4-1.3-0.7-2.6-1.1-3.9c-0.9-3.4-1.8-6.8-2.7-10.2c-1.2-4.4-2.3-8.8-3.5-13.2c-0.3-1-0.6-2-0.9-3c0-0.4,0-0.8,0-1.2
	c0-4.5,0-9,0-13.6c0-0.8-0.2-1.6-0.6-2.3c-0.7-1-1.8-1.7-3-1.7h-1.3l-2.2-8.3l-0.6-2.1c0.4,0,0.8,0,1.2,0h35.5c0.4,0,0.8,0,1.1,0
	c1.3,0,2.6,0,3.9,0s2.4,0,3.6,0c0.4,0,0.8,0,1.1,0h36.1L187.2,179.2z M135.9,208h11.3c0.2,0,0.5,0,0.8,0c2,0,3.6-1.7,3.7-3.7
	c0-0.3,0-0.6,0-0.8v-13.4c0-0.3,0-0.6,0-0.9c-0.1-1.7-1.3-3.1-2.9-3.5c-0.4-0.1-0.8-0.1-1.2-0.1h-23.1c-0.2,0-0.3,0-0.5,0
	c-1.6,0-3,1-3.5,2.5c-0.2,0.6-0.3,1.3-0.3,1.9c0,4.5,0,9,0,13.5c0,0.4,0,0.9,0.1,1.3c0.2,1.5,1.2,2.7,2.7,3.1
	c0.4,0.1,0.9,0.2,1.3,0.1L135.9,208z M182.2,208c0-5.7,0-11.5,0-17.2c0.1-1.6-0.6-3.2-1.9-4.2c-0.8-0.8-1.9-1.2-3-1.2h-17.2
	c-1.1,0-2.2,0.5-3,1.2c-1.2,1-1.9,2.6-1.9,4.2c0,11.4,0,22.9,0,34.3c0,0.7,0.1,1.4,0.4,2c0.3,1,1,1.9,1.9,2.5c0.9,0.6,2,1,3.2,1
	h16.1c0.2,0,0.3,0,0.5,0c1.8-0.1,3.4-1.1,4.2-2.7c0.5-0.9,0.7-1.8,0.7-2.8C182.2,219.4,182.2,213.7,182.2,208L182.2,208z M136,211.4
	h-11.8c-0.2,0-0.5,0-0.8,0c-2,0.1-3.5,1.8-3.5,3.7v7.4c0,1.4,0,2.9,0,4.3c0,1.2,0.6,2.3,1.6,3c0.7,0.5,1.6,0.7,2.4,0.7h24.3
	c1.7-0.1,3.2-1.3,3.6-2.9c0.1-0.5,0.1-0.9,0.1-1.4c0-3.5,0-7,0-10.5c0-0.2,0-0.4,0-0.6c0-1.6-1.1-3-2.5-3.5c-0.5-0.2-1-0.2-1.5-0.2
	L136,211.4z"/>
<path class="st1" d="M120.7,239.3h66.4c0,0.3,0,0.6,0,0.9c0,5.6,0,11.1,0,16.7c0,0.7-0.1,1.4-0.3,2.1c-0.8,2.8-3.3,4.8-6.2,4.9h-0.5
	h-13.6h-0.3c0-0.5,0-0.9,0-1.4c0-2.4,0-4.8,0-7.2c0-1.4-0.4-2.7-1.1-3.9c-0.9-1.6-2.7-2.6-4.6-2.6c-3.3,0.1-6.7,0-10,0
	c-6.8,0-13.5,0-20.2,0c-1.7-0.1-3.2,0.7-4.2,2.1c-0.9,1.3-1.4,2.8-1.4,4.4c0,1.8,0,3.6,0,5.4c0,1,0,2.1,0,3.1h-0.4h-12.3h-0.4
	c0,0,0-0.1,0-0.1c0.5-1,0.7-2.1,0.6-3.3c0-4.5,0-9,0-13.4c0-0.3,0-0.7,0-1c0.6,0,1.1-0.1,1.6-0.4c2-0.5,4-1,6-1.6
	c0.2-0.1,0.5-0.2,0.7-0.2c0.7-0.3,1-1,0.8-1.7c-0.1-0.4-0.2-0.8-0.3-1.3C120.9,240.4,120.8,239.9,120.7,239.3z"/>
<path class="st18" d="M74.6,214.6c0.2-0.2,0.4-0.3,0.7-0.5c1.3-0.7,2.7-1.2,4.2-1.5c1.6-0.4,3.2-0.5,4.8-0.4c2.6,0.2,5.2,1,7.4,2.4
	l0.6,0.4c-0.2,0.2-0.4,0.2-0.7,0.2c-0.5,0-1,0.2-1.3,0.6c-0.4,0.7-1.1,1.2-1.8,1.4c-0.3,0.1-0.5,0.4-0.6,0.7
	c-0.1,0.3-0.1,0.6,0.1,0.8c0.7,0.1,1.3,0.1,2-0.1c0.3-0.1,0.6-0.1,0.9,0.1c0.5,0.2,0.9,0.5,1.1,0.9c0.1,0.2,0.2,0.4,0.4,0.5
	c0.2,0.4,0.6,0.5,1,0.4c0.2,0,0.4-0.1,0.5-0.1c0.6-0.2,1.2-0.1,1.7,0.3c0.6,0.5,1.3,0.7,2,0.6c0.1,0,0.2,0,0.4,0
	c0.6,0.9,1,1.9,1.1,3c-0.1,0-0.2,0-0.3-0.1c-0.5-0.3-1.1-0.4-1.6-0.3c-0.2,0-0.5,0-0.8,0c-0.5,0-1.1-0.2-1.4-0.6
	c-0.3-0.3-0.7-0.7-1-1c-0.3-0.3-0.8-0.5-1.2-0.5c-0.7-0.1-1.5,0.2-2,0.7c-0.3,0.3-0.8,0.6-1.2,0.6c-0.6,0.1-1.1,0.2-1.6,0.4
	c-0.5,0.1-0.9,0.7-0.8,1.2c0,0.3,0.1,0.6,0.2,0.8c0.2,0.3,0.2,0.7,0,1.1c-0.1,0.2-0.2,0.4-0.2,0.6c-0.2,0.4-0.2,0.9,0.1,1.2
	c0.3,0.5,0.7,0.8,1.2,1c0.5,0.1,1,0.1,1.5,0c0.6-0.1,1.2-0.2,1.8-0.4c0.2-0.1,0.5,0,0.7,0.2c0,0.1,0.1,0.2,0,0.2c0,0.4,0,0.9,0,1.3
	c-0.1,0.8,0.4,1.5,1.1,1.8c0.4,0.2,0.9,0.3,1.3,0.5c0.3,0.1,0.6,0.1,0.9,0.2c0.1,0.1,0.3,0.1,0.4,0.2c0,0.1,0,0.2-0.1,0.3
	c-0.1,0.2-0.2,0.3-0.3,0.5c-0.3,0.5-0.7,1.1-0.9,1.6c-0.5,1.2-0.2,2,1,2.4c0.3,0.1,0.6,0.1,0.8,0.4c-1.3,1.8-3,3.4-4.9,4.5
	c-1.4,0.9-3,1.5-4.6,1.9c-1.8,0.4-3.6,0.6-5.4,0.4c-1.7-0.1-3.4-0.6-5-1.2c-2.3-0.9-4.4-2.4-6.1-4.3c-0.9-1-1.6-2-2.2-3.2
	c-0.7-1.3-1.3-2.7-1.6-4.2c-0.2-0.7-0.2-1.5-0.3-2.2c-0.1-0.7-0.1-1.4-0.1-2.1c0-1,0.2-1.9,0.4-2.9c0.1,0.1,0.2,0.2,0.3,0.4
	c0.1,0.3,0.4,0.6,0.7,0.7c0.4,0.2,0.8,0.2,1.2,0c0.2-0.1,0.4-0.1,0.5-0.1c0.6-0.2,1.3-0.1,1.8,0.3c0.3,0.3,0.6,0.5,1,0.6
	c0.8,0.3,1.8,0.2,1.7-1.1c0-0.4-0.2-0.9-0.6-1.1c-0.2-0.1-0.5-0.3-0.6-0.6c-0.3-0.3-0.4-0.8,0-1.2c0.1-0.1,0.2-0.2,0.3-0.2
	c0.1-0.1,0.2-0.1,0.3-0.1c0.3,0,0.6,0,0.9,0.1c0.6,0.1,1.2,0.3,1.8,0.4c0.3,0.1,0.7,0,0.9-0.4c0.1-0.2,0.2-0.5,0.3-0.8
	c0-0.2,0-0.4,0-0.7c0-0.6,0.4-1,0.9-1.1c0.5-0.2,1.1-0.2,1.7-0.2c0.3,0,0.6,0,0.8-0.1c0.1-0.1,0.2-0.2,0.3-0.3
	c0.1-0.2,0-0.4-0.2-0.5c-0.1,0-0.2-0.1-0.3-0.1c-0.6-0.2-1.2-0.2-1.8-0.2c-0.5,0.1-0.9-0.3-0.9-0.7c0-0.1,0-0.2,0-0.4
	c0.1-0.4,0.1-0.7,0.1-1.1c0-0.4-0.2-0.8-0.6-1c-0.5-0.3-1-0.7-1.3-1.2c-0.1-0.1-0.3-0.3-0.4-0.3C75.1,214.8,74.8,214.7,74.6,214.6z
	 M84.1,236c0.7-0.3,1.1-1,1.2-1.7c0-0.6,0.2-1.2,0.5-1.7c0.1-0.2,0.2-0.4,0.2-0.6c0.1-0.3-0.1-0.6-0.3-0.6c0,0-0.1,0-0.1,0
	c-0.4,0-0.8,0-1.2,0.1s-0.9,0.1-1.3,0.1c-0.3,0-0.5-0.2-0.6-0.4c-0.1-0.3-0.2-0.6-0.3-1c-0.1-0.4-0.4-0.7-0.8-0.7
	c-0.5-0.1-1-0.3-1.3-0.6c-0.2-0.1-0.3-0.3-0.5-0.4c-0.4-0.3-1-0.1-1.3,0.3c-0.1,0.1-0.1,0.2-0.2,0.2c-0.4,0.5-1,0.9-1.6,1.1
	c-0.6,0.2-1,0.9-0.8,1.5c0,0,0,0.1,0,0.1c0.1,0.3,0.2,0.6,0.5,0.8c0.2,0.2,0.4,0.3,0.6,0.5c0.5,0.3,0.7,0.8,0.7,1.4
	c0,0.1,0,0.3,0,0.4c0,0.5,0.3,1,0.8,1.3c0.2,0.1,0.4,0.2,0.6,0.3c0.2,0.1,0.4,0.4,0.3,0.6c0,0,0,0.1,0,0.1c-0.2,0.3-0.4,0.6-0.6,0.9
	c-0.5,0.7-0.6,1.5-0.4,2.3c0.1,0.4,0.2,0.7,0.2,1.1c0.2,1.1,0.9,2,1.9,2.3c0.5,0.2,0.9,0,0.9-0.6c0-0.3,0-0.6-0.2-0.8
	c-0.1-0.1-0.2-0.3-0.2-0.4c-0.2-0.3-0.1-0.7,0.2-1c0,0,0,0,0.1,0c0.5-0.3,0.9-0.7,1.1-1.2c0-0.1,0.2-0.2,0.3-0.4l0.6-0.6
	c0.4-0.3,0.4-0.9,0.1-1.3c-0.2-0.3-0.4-0.7-0.5-1c-0.1-0.2,0.1-0.5,0.3-0.6c0.1,0,0.2,0,0.2,0C83.4,235.7,83.8,235.9,84.1,236z
	 M82.9,215.8c0-0.6,0-0.7-0.2-0.9c-0.5-0.3-1.2-0.5-1.8-0.4c-0.5,0.1-1,0.1-1.5,0.1c-0.4,0-0.8,0.1-1,0.4c-0.2,0.2-0.2,0.5-0.1,0.7
	c0.5,0.9,1.1,1.8,1.8,2.6l0.1,0.1c0.3,0.3,0.7,0.2,0.9,0c0,0,0.1-0.1,0.1-0.1c0.2-0.2,0.3-0.5,0.4-0.7c0.2-0.4,0.5-0.8,0.9-1
	C82.8,216.4,82.9,216.1,82.9,215.8L82.9,215.8z"/>
<path class="st6" d="M120.7,239.3c0,0.6,0.1,1.1,0.3,1.6c0.1,0.4,0.2,0.8,0.3,1.3c0.2,0.7-0.1,1.4-0.8,1.7c-0.2,0.1-0.5,0.2-0.7,0.2
	c-2,0.5-4,1.1-6,1.6c-0.5,0.2-1.1,0.3-1.6,0.4c0-0.3,0-0.7,0-1v-35.5c0-0.4,0-0.8,0-1.2c0.3,1,0.6,2,0.9,3c1.2,4.4,2.4,8.8,3.5,13.2
	c0.9,3.4,1.8,6.8,2.7,10.2c0.3,1.3,0.7,2.6,1.1,3.9C120.5,238.9,120.6,239.1,120.7,239.3z"/>
<path class="st19" d="M70.3,245.4c-0.4,0-0.8-0.2-0.9-0.6c0.1-0.1,0.2-0.1,0.3-0.1c0,0,0,0,0.1,0.1C69.9,245,70.1,245.2,70.3,245.4
	L70.3,245.4z"/>
<path class="st0" d="M142.5,179.1c-0.4,0-0.8,0-1.1,0h-35.5c-0.4,0-0.8,0-1.2,0l-0.4-2v-5.7c0-0.9,0-1.7,0-2.6
	c0.4-0.1,0.9-0.2,1.4-0.2c0.2,0,0.5,0,0.7-0.1c0.8-0.2,1.6-0.2,2.3,0c0.2,0,0.5,0.1,0.7,0.1c0.2,0,0.4,0,0.7,0
	c1.6,0.3,3.1,0.9,4.6,1.6c0.3,0.2,0.6,0.3,0.9,0.4c0.2-0.1,0.4-0.1,0.5-0.2c1-0.6,2.3-0.9,3.5-0.9c0.4,0,0.8,0.1,1.2,0.2
	c0.6,0.1,1.1,0.2,1.6,0.6c1,0.6,1.7,1.4,2.2,2.5c0.1,0.3,0.3,0.4,0.6,0.3c0.1,0,0.2,0,0.3-0.1c1-0.3,2.1-0.5,3.2-0.5
	c0.2,0,0.4,0,0.6-0.1c0.7-0.1,1.3-0.1,2,0c0.2,0.1,0.5,0.1,0.7,0.1c0.7,0,1.4,0.1,2.1,0.3c1.4,0.3,2.8,0.9,4,1.6
	c0.5,0.3,1,0.6,1.4,0.9c1.1,1,2.1,2.1,2.9,3.3C142.3,178.8,142.4,179,142.5,179.1z"/>
<path class="st1" d="M104.2,136.4c0-0.4,0-0.8,0-1.1c0-3.4,0-6.8,0-10.2c0-0.9,0.1-1.7,0.4-2.6c0.9-2.7,3.4-4.5,6.2-4.7
	c1.4,0,2.9,0,4.3,0h64.7c0.7,0,1.4,0,2.1,0.2c3,0.7,5.2,3.3,5.4,6.3c0,0.2,0,0.4,0,0.7c0,8.8,0,17.6,0,26.4c0,0.2,0,0.5,0,0.7
	c-0.3,0-0.7-0.1-1-0.1c-0.5-0.1-1.1-0.1-1.6-0.1c-0.8,0.1-1.6,0.2-2.4,0.3c-0.7,0.1-1.5,0.3-2.1,0.6c-0.9,0.3-1.7,0.7-2.5,1.2
	c-0.7,0.4-1.4,0.8-2,1.4c-0.4,0.4-0.9,0.7-1.3,1.1c-1.8-1.6-4.2-2.2-6.5-1.8l-2.9-1.9c-0.1,0-0.1-0.1-0.2-0.2l0.3-0.1l8.5-2.2
	c0.3-0.1,0.6-0.2,0.9-0.3c0.2,0,0.4-0.1,0.6-0.1l3.6-1.1c0.8-0.2,1.4-0.8,1.5-1.6c0.2-0.5,0.2-1,0.1-1.6c0.3-0.2,0.6-0.4,0.9-0.6
	c0.8-0.5,1.7-1.1,2.5-1.6c0.1-0.1,0.2-0.2,0.3-0.4c-0.6-0.1-1-0.2-1.5-0.2c-1.5-0.1-2.9,0-4.4,0.2c-0.2,0-0.4,0-0.6,0
	c0.5-1.9,1.1-3.8,1.6-5.6c0.9-3,1.8-6,2.6-9.1c0.1-0.3,0.2-0.7,0.2-1c-0.1-0.1-0.2-0.2-0.4-0.2c-0.5,0-0.9,0-1.4,0
	c-0.1,0-0.3,0.1-0.4,0.2c-0.6,0.4-1.1,0.8-1.6,1.3c-1.8,1.8-3.4,3.7-5,5.6c-1.2,1.5-2.5,3-3.7,4.6c-0.3,0.5-0.8,0.8-1.3,1
	c-0.4,0.1-0.9,0.3-1.3,0.4c-1.4,0.4-2.9,0.8-4.3,1.2l-2.6-0.2c0.6-0.7,1.1-1.4,1.4-2.3c0.5-0.9,0.9-1.8,1.4-2.8
	c0.5-1.1,1.1-2.3,1.6-3.5c0.1-0.2,0.2-0.4,0.3-0.6c0.8-1.7,1.6-3.4,2.4-5.1c0-0.1,0.1-0.3,0.1-0.4c-0.1-0.1-0.1-0.1-0.2-0.1
	c-0.8-0.1-1.7,0.2-2.3,0.9c-0.7,0.9-1.5,1.8-2.3,2.7c-0.6,0.7-1.2,1.5-1.9,2.2l-0.3,0.3c-0.8,0.8-1.5,1.7-2.2,2.6
	c-0.6,0.7-1.2,1.4-1.9,2.1s-1.3,1.6-2,2.3c-0.4,0.4-0.7,0.9-1.3,1l-2.7-0.2c-0.6-0.8-1.4-1.5-2.3-2c-1.5-1-3.1-1.9-4.8-2.4
	c-0.9-0.2-1.7-0.4-2.6-0.6c-0.6-0.1-1.3-0.2-1.9-0.2c-1,0-1.9,0-2.9,0c-0.2,0-0.4,0-0.7,0l-1.2,0.1c-0.3,0-0.6,0.1-0.9,0.1
	c-0.3,0.1-0.6,0-0.8-0.2c-0.2-0.2-0.4-0.3-0.6-0.4c-0.4-0.3-0.8-0.5-1.2-0.8c-1.3-0.7-2.7-1.1-4.2-1.1c-0.9,0-1.8,0.1-2.7,0.4
	c-1.7,0.5-3.2,1.4-4.5,2.6c-0.2,0.3-0.6,0.4-0.9,0.4c-0.2,0-0.4,0-0.6,0c-0.8,0-1.7,0.3-2.4,0.7c-0.5,0.1-1.1,0.2-1.7,0.2
	c-0.6-0.1-1.1-0.1-1.7-0.2c-0.5,0-1.1,0-1.6-0.1c-0.1,0-0.2,0-0.3,0c-0.7,0-1.5,0-2.2-0.2C106.3,136.7,105.2,136.6,104.2,136.4z
	 M150.2,132.5h0.9c1,0,1.9,0,2.9,0c0.2,0,0.4,0,0.6-0.1c0.5-0.3,0.7-1,0.4-1.6c-0.1-0.1-0.2-0.2-0.3-0.3c-0.1-0.1-0.3-0.2-0.5-0.3
	c-1-0.5-2-0.8-3.1-0.9l-0.6-0.1c-0.4,0-0.8-0.1-1.2-0.1c-0.2,0-0.5,0.1-0.7,0.1c-0.9,0.2-1.9,0-2.6-0.5c-1.2-0.8-2.7-1-4.1-0.5
	c-0.7,0.2-1.4,0.6-2,1.1c-0.4,0.4-1,0.6-1.6,0.7c-0.2,0-0.3,0.1-0.4,0.2c-0.5,0.5-0.5,1.3,0,1.8c0.1,0.1,0.2,0.2,0.3,0.2
	c0.2,0.1,0.5,0.1,0.7,0.1h5.7c0.2,0,0.5,0,0.8,0c0.5,0.1,1.1,0.2,1.7,0.1C148.1,132.5,149.1,132.5,150.2,132.5L150.2,132.5z
	 M109.6,126.5c0.3-0.2,0.6-0.4,0.8-0.7c0.3-0.3,0.6-0.6,0.9-0.8c1.1-0.8,2.4-1.2,3.7-1.1c1.3,0,2.7,0.4,3.8,1.2
	c0.4,0.3,0.7,0.6,1.1,1c0.4,0.3,0.6,0.3,1-0.2c-0.3-0.7-0.8-1.2-1.4-1.6c-0.8-0.6-1.7-1-2.7-1.3c-0.9-0.2-1.7-0.2-2.6-0.1
	c-0.3,0-0.6,0.1-0.8,0.1c-1.2,0.2-2.2,0.8-3.2,1.5c-0.5,0.3-0.9,0.8-1.1,1.4L109.6,126.5z M115,125c-1.2,0-2.3,0.4-3.2,1.1
	c-0.3,0.2-0.6,0.5-0.9,0.8c-0.1,0.1-0.1,0.3,0,0.5c0,0,0,0,0,0c0.4,0.3,0.6,0.2,0.9-0.1c0.3-0.3,0.7-0.6,1.1-0.9
	c1.6-0.9,3.6-0.7,4.9,0.6l0.4,0.4c0.1,0.1,0.3,0.2,0.5,0.1c0.2-0.1,0.3-0.4,0.2-0.6c-0.1-0.2-0.2-0.4-0.4-0.5
	C117.6,125.5,116.3,125,115,125z M112.9,128.7c0.2-0.2,0.4-0.3,0.6-0.5c0.6-0.5,1.3-0.6,2-0.4c0.4,0.1,0.9,0.3,1.2,0.6
	c0.4,0.3,0.6,0.2,1-0.3c-0.7-0.9-1.8-1.5-2.9-1.4c-0.8,0-1.5,0.3-2.1,0.8c-0.5,0.4-0.5,0.6,0.1,1.1L112.9,128.7z M114.9,130.3
	c0.3-0.2,0.6-0.4,0.9-0.6c0.2-0.1,0.2-0.3,0.1-0.5c0,0,0-0.1-0.1-0.1c-0.5-0.5-1.3-0.5-1.8,0c-0.1,0.1-0.1,0.3,0,0.5c0,0,0,0,0,0
	L114.9,130.3z"/>
<path class="st3" d="M159.8,141.1l2.6,0.2c0.2,0.1,0.5,0.1,0.7,0.1c1.2,0.1,2.5,0.2,3.7,0.4c2.6,0.4,5.2,0.9,7.9,1.3
	c0.1,0,0.2,0.1,0.4,0.2c-1,0.2-1.8,0.5-2.6,0.7c-0.5,0.1-0.9,0.3-1.3,0.4c-0.3,0.1-0.4,0.4-0.3,0.6c0,0.1,0.1,0.2,0.2,0.3
	c0.1,0.1,0.3,0.1,0.4,0.2c0.3,0.3,0.6,0.7,0.9,1c1,0.9,1.7,2.1,2,3.4c-0.3,0.1-0.6,0.2-0.9,0.3l-8.5,2.2l-0.3,0.1
	c-0.2,0-0.5,0.1-0.7,0.1c-2.2,0.6-4.5,1-6.8,1.4c-1.5,0.3-3,0.4-4.5,0.5c-1.9,0.1-3.9-0.2-5.8-0.3c-0.8,0-1.5-0.1-2.2-0.2l-2.2-0.1
	c-0.2-0.1-0.5-0.1-0.7-0.1c-1.1-0.1-2.1-0.2-3.2-0.2s-2.2-0.1-3.3-0.2l-6.3-0.5c0.1-0.1,0.2-0.2,0.2-0.3c2.2-1.3,4.2-2.9,5.9-4.7
	c0.4,0,0.8,0,1.2,0c2.1,0.2,4.2,0.3,6.3,0.5c0.6,0,1.2-0.1,1.7-0.3c4.1-1.7,8.3-3.4,12.5-5.1c0.9-0.4,1.8-0.9,2.5-1.6L159.8,141.1z
	 M161.2,146.4c0-0.2,0-0.3-0.1-0.5c0-0.2-0.2-0.4-0.4-0.4c-0.3,0-0.5,0.1-0.6,0.4c-0.1,0.3-0.1,0.7-0.1,1c0,0.3,0.3,0.5,0.6,0.4
	c0.2,0,0.3-0.2,0.4-0.3C161.1,146.8,161.2,146.6,161.2,146.4z M158.4,146.1c0-0.1,0-0.3,0-0.4c0-0.3-0.2-0.5-0.5-0.5
	c-0.3,0-0.5,0.2-0.6,0.4c-0.1,0.3-0.1,0.6-0.1,0.9c0,0.3,0.2,0.5,0.4,0.5c0.3,0,0.6-0.1,0.6-0.4
	C158.4,146.5,158.4,146.3,158.4,146.1L158.4,146.1z M155.6,146c0-0.2,0-0.3,0-0.4c0-0.3-0.2-0.5-0.5-0.6c-0.3,0-0.6,0.2-0.6,0.5
	c0,0.3,0,0.6,0,0.9c0,0.3,0.2,0.4,0.5,0.5c0.2,0,0.4-0.1,0.5-0.3C155.6,146.4,155.6,146.2,155.6,146L155.6,146z"/>
<path class="st0" d="M114.7,137c0.7-0.5,1.5-0.7,2.4-0.7c0.2,0,0.4,0,0.6,0c0.3,0,0.7-0.1,0.9-0.4c1.3-1.2,2.8-2.1,4.5-2.6
	c0.9-0.3,1.8-0.4,2.7-0.4c1.5,0,2.9,0.3,4.2,1.1c0.4,0.2,0.8,0.5,1.2,0.8c0.2,0.1,0.4,0.3,0.6,0.4c0.2,0.2,0.5,0.2,0.8,0.2
	c0.3-0.1,0.6-0.1,0.9-0.1l1.2-0.1c0.2,0,0.4,0,0.7,0c1,0,1.9,0,2.9,0c0.7,0,1.3,0.1,1.9,0.2c0.9,0.1,1.8,0.3,2.6,0.6
	c1.7,0.6,3.3,1.4,4.8,2.4c0.9,0.5,1.6,1.2,2.3,2c-0.2,0-0.3,0-0.5,0c-1.7-0.1-3.5-0.3-5.2-0.4c-0.7-0.1-1.4-0.1-2.1-0.2
	s-1.3-0.1-1.9-0.1s-1.5-0.1-2.2-0.2c-1,0-1.9-0.1-2.9-0.3c-0.2,0-0.4,0-0.6,0c-0.6,0-1.1,0-1.7-0.2c-0.2,0-0.4,0-0.7,0
	c-0.5,0-1.1,0-1.6-0.1c-0.3,0-0.6,0-0.8,0c-0.5,0-0.9,0-1.4-0.1c-0.2,0-0.4,0-0.7,0c-0.6,0-1.1,0-1.7-0.1c-0.2,0-0.4,0-0.7,0
	c-0.5,0-1.1,0-1.6-0.1c-0.2,0-0.5,0-0.7,0c-0.5,0-1,0-1.5-0.1c-0.2,0-0.5,0-0.8,0c-0.6,0-1.2,0-1.8-0.2c-0.2,0-0.4,0-0.7,0
	c-0.5,0-1.1,0-1.6-0.1c-0.5-0.1-1.1-0.1-1.6,0c-0.2,0.1-0.4,0.1-0.6-0.1C114.5,137.4,114.5,137.1,114.7,137z"/>
<path class="st0" d="M128.8,152.9l6.3,0.5c1.1,0.1,2.2,0.1,3.3,0.2s2.1,0.1,3.2,0.2c0.2,0,0.5,0.1,0.7,0.1c-0.2,0.2-0.5,0.5-0.7,0.8
	c-0.2,0.3-0.4,0.5-0.6,0.8c-0.4,0.8-0.6,1.6-0.6,2.5c0,0.3,0.1,0.6-0.1,0.9c-1.1-0.1-2.1-0.1-3.2-0.1c-0.1,0-0.2,0-0.3,0
	c-1.3,0.2-2.5,0.8-3.4,1.8c-0.2,0.2-0.4,0.3-0.6,0.4c0-0.2-0.1-0.3-0.1-0.5c-0.2-1.4-0.9-2.6-2.1-3.4c-1-0.7-2.2-1-3.3-1
	c-1,0-2,0.1-3,0.4c-0.2-0.3-0.4-0.5-0.6-0.8c-0.3-0.5-0.7-0.9-1.2-1.3c0.3-0.2,0.7-0.5,0.6-1c0.6-0.1,1.2-0.2,1.8-0.4
	c0.5-0.1,0.9-0.4,1.1-0.8c0.1,0.1,0.2,0.2,0.4,0.3L128.8,152.9z"/>
<path class="st20" d="M123,153.6c0.1,0.5-0.3,0.7-0.6,1l-1.2,0.1c-0.8,0-1.6,0.3-2.4,0.3c-0.6,0-1.2,0-1.8,0c-0.6,0-1.2-0.1-1.7-0.2
	c-0.9-0.1-1.8-0.4-2.6-0.9c0-0.3,0.1-0.6,0.1-0.8c0.2-1.9,0.3-3.8,0.5-5.7c0-0.1,0-0.2,0-0.4l2.2-0.1c1.1,0,2.2,0.1,3.3,0.3
	c0.8,0.2,1.6,0.3,2.4,0.4c0.7,0.2,1.3,0.3,2,0.6c0.1,0.4,0.1,0.8,0.1,1.3C123.2,150.9,123.1,152.2,123,153.6z"/>
<path class="st9" d="M128,143.5c0.1,0.1,0.3,0.1,0.4,0.1c0.5,0,0.9-0.1,1.4-0.1l1.1-0.2l2.8-0.4c0.7-0.1,1.4-0.2,2-0.2l2.6-0.3
	l0.5-0.1l2.7-0.3l3.6-0.4l5.1-0.6c0.1,0.1,0.3,0.1,0.3,0.4c-0.3,0.1-0.7,0.2-1,0.2l-6.2,1.2c-2,0.4-4.1,0.7-6.2,1.1
	c-1.7,0.3-3.4,0.5-5.1,0.8c-1.3,0.2-2.6,0.4-3.9,0.7l-4,0.7c-0.6,0.1-1.2,0.2-1.8,0.3c-0.8,0.2-1.6,0-2.3-0.5
	c-0.1,0-0.1-0.1-0.2-0.2c-0.3-0.3-0.2-0.7,0.2-0.8c0.6-0.1,1.2-0.2,1.8-0.3c1.1-0.2,2.2-0.3,3.2-0.4c0.5-0.1,1.1-0.1,1.6-0.2
	c0.1,0,0.3,0,0.5-0.1"/>
<path class="st0" d="M104.3,155.3v-2.9c0-0.5,0-1.1,0-1.6c0.1,0,0.3,0,0.4,0c0.7,0.2,1.3,0.2,2,0.2c0.2,0,0.4,0,0.6,0.1
	c0.3,0,0.6,0.1,0.9,0.1c0.6,0,1.1,0,1.7,0.1c0.4,0,0.9,0,1.3,0h1L112,153c-0.1,0.3,0,0.6,0.2,0.8c-0.2,0.2-0.4,0.5-0.7,0.7
	s-0.5,0.4-0.8,0.7c-0.6,0.6-1.2,1.2-1.6,1.9c-0.1,0.2-0.3,0.4-0.6,0.4c-0.1-0.1-0.1-0.1-0.2-0.2c-0.3-0.6-0.9-1.2-1.5-1.4
	C106,155.5,105.2,155.3,104.3,155.3z"/>
<path class="st3" d="M150.2,141.1l-5.1,0.6l-3.8,0.5l-2.6,0.3l0.2-0.6l1-2.4c0.6,0,1.3,0.1,1.9,0.1s1.4,0.1,2.1,0.2
	c1.7,0.2,3.5,0.3,5.2,0.4c0.2,0,0.3,0,0.5,0l3,0.3c0.1,0.1,0.1,0.3-0.1,0.4c0,0-0.2,0.1-0.2,0.1l-1.6,0.5
	C150.4,141.4,150.4,141.1,150.2,141.1z"/>
<path class="st17" d="M123,153.6c0.1-1.4,0.2-2.7,0.3-4.1c0.9,0.1,1.8,0.6,2.4,1.3c0.2,0.2,0.3,0.5,0.3,0.8c0,0.3-0.1,0.6-0.1,0.8
	c-0.2,0.4-0.6,0.7-1.1,0.8C124.2,153.4,123.6,153.5,123,153.6z"/>
<path class="st3" d="M112.2,153.8c-0.2-0.2-0.3-0.5-0.2-0.8l0.1-1.6c0.1-0.9,0.2-1.8,0.3-2.7c0-0.5,0.1-0.9,0.2-1.4l0.8-0.3
	c0,0.1,0,0.2,0,0.4c-0.2,1.9-0.3,3.8-0.5,5.7c0,0.3-0.1,0.6-0.1,0.8L112.2,153.8z"/>
<path class="st21" d="M112.2,153.8l0.6,0.1c0.8,0.4,1.7,0.7,2.6,0.9c0.6,0.1,1.2,0.2,1.7,0.2c0.6,0,1.2,0,1.8,0
	c0.8,0,1.6-0.2,2.4-0.3l1.2-0.1c0.5,0.3,0.9,0.8,1.2,1.3c0.2,0.3,0.4,0.5,0.6,0.8c1-0.3,2-0.4,3-0.4c1.2,0,2.4,0.3,3.3,1
	c1.2,0.7,2,2,2.1,3.4c0,0.2,0.1,0.3,0.1,0.5c0.2-0.1,0.4-0.3,0.6-0.4c0.9-1,2.1-1.6,3.4-1.8c0.1,0,0.2,0,0.3,0c1.1,0,2.1,0,3.2,0.1
	c0.2-0.2,0.1-0.6,0.1-0.9c0-0.9,0.2-1.7,0.6-2.5c0.2-0.3,0.4-0.6,0.6-0.8c0.2-0.3,0.4-0.5,0.7-0.8l2.2,0.1c0.8,0,1.5,0.1,2.2,0.2
	c1.9,0.1,3.9,0.4,5.8,0.3c1.5-0.1,3-0.2,4.5-0.5c2.3-0.4,4.6-0.8,6.8-1.4c0.2-0.1,0.5-0.1,0.7-0.1c0.1,0.1,0.1,0.2,0.2,0.2l2.9,1.9
	c2.3-0.5,4.8,0.2,6.5,1.8c0.5-0.4,0.9-0.7,1.3-1.1c0.6-0.5,1.3-1,2-1.4c0.8-0.5,1.7-0.9,2.5-1.2c0.7-0.3,1.4-0.5,2.1-0.6
	c0.8-0.1,1.6-0.2,2.4-0.3c0.5,0,1.1,0,1.6,0.1c0.3,0,0.7,0.1,1,0.1c0,0.1,0.1,0.2,0.1,0.3v4.8c0,0.1,0,0.1,0,0.2
	c-1.2-0.1-2.3,0.4-3,1.3c-0.4,0.5-0.7,1-0.8,1.6c0,0.4-0.3,0.6-0.6,0.7c-0.1,0-0.2,0.1-0.4,0.1c-0.8,0-1.6,0.4-2.2,1
	c-0.2,0.2-0.4,0.3-0.6,0.5c-0.1-0.2-0.2-0.3-0.3-0.5c-0.2-0.7-0.5-1.4-1.1-1.9c-0.9-1-2.1-1.8-3.4-2.3c-1.4-0.4-2.8-0.7-4.3-0.7
	c-0.7-0.1-1.5-0.1-2.2,0.1c-0.1,0-0.2,0-0.4,0c-1.4,0-2.7,0.4-3.9,1c-1.7,0.7-2.9,2.2-3.3,3.9c-0.1,0.3-0.2,0.5-0.5,0.5
	c-0.4,0-0.9,0.1-1.3,0.3c-1.8,0.6-3.3,1.9-4.1,3.7c-0.7,1.4-0.4,3.1,0.8,4.1c0.3,0.2,0.5,0.4,0.6,0.8l-0.8,0.3
	c-1.1,0.5-2.2,1.2-3,2.1c-0.5,0.5-0.9,1.1-1.3,1.7c-0.6,1.1-1,2.2-1,3.5c-1.2,0-2.4,0-3.6,0s-2.6,0-3.9,0c0-0.1-0.1-0.3-0.2-0.4
	c-0.8-1.2-1.8-2.3-2.9-3.3c-0.4-0.4-0.9-0.7-1.4-0.9c-1.2-0.8-2.6-1.3-4-1.6c-0.7-0.2-1.4-0.3-2.1-0.3c-0.2,0-0.5,0-0.7-0.1
	c-0.7-0.1-1.3-0.1-2,0c-0.2,0-0.4,0.1-0.6,0.1c-1.1,0-2.2,0.2-3.2,0.5c-0.1,0-0.2,0.1-0.3,0.1c-0.3,0.1-0.5-0.1-0.6-0.3
	c-0.5-1-1.2-1.9-2.2-2.5c-0.5-0.3-1-0.5-1.6-0.6c-0.4-0.1-0.8-0.1-1.2-0.2c-1.2-0.1-2.4,0.3-3.5,0.9c-0.2,0.1-0.3,0.2-0.5,0.2
	c-0.3-0.1-0.6-0.3-0.9-0.4c-1.4-0.7-3-1.3-4.6-1.6c-0.2,0-0.4,0-0.7,0c-0.2,0-0.5,0-0.7-0.1c-0.8-0.2-1.6-0.2-2.3,0
	c-0.2,0-0.5,0.1-0.7,0.1c-0.5,0-0.9,0-1.4,0.2c0-0.2,0-0.4,0-0.6c0-4.1,0-8.1,0-12.2c0-0.2,0-0.4,0-0.6c0.9,0,1.7,0.2,2.5,0.5
	c0.7,0.3,1.2,0.8,1.5,1.4c0,0.1,0.1,0.1,0.2,0.2c0.3,0,0.4-0.2,0.6-0.4c0.5-0.7,1-1.4,1.6-1.9c0.2-0.2,0.5-0.4,0.8-0.7
	S111.9,154,112.2,153.8z"/>
<path class="st0" d="M150,179.1c0-1.2,0.4-2.4,1-3.5c0.4-0.6,0.8-1.2,1.3-1.7c0.9-0.9,1.9-1.6,3.1-2l0.8-0.3
	c-0.1-0.3-0.3-0.6-0.6-0.8c-1.1-1.1-1.4-2.7-0.8-4.1c0.7-1.8,2.2-3.1,4.1-3.7c0.4-0.2,0.8-0.3,1.3-0.3c0.3,0,0.4-0.2,0.5-0.5
	c0.4-1.8,1.7-3.2,3.3-3.9c1.2-0.6,2.6-1,3.9-1c0.1,0,0.2,0,0.4,0c0.7-0.2,1.5-0.3,2.2-0.1c1.5,0,2.9,0.3,4.3,0.7
	c1.3,0.5,2.5,1.2,3.4,2.3c0.5,0.5,0.9,1.2,1.1,1.9c0.1,0.2,0.2,0.4,0.3,0.5c0.2-0.2,0.4-0.3,0.6-0.5c0.6-0.6,1.4-1,2.2-1
	c0.1,0,0.2,0,0.4-0.1c0.3-0.1,0.6-0.4,0.6-0.7c0.1-0.6,0.4-1.2,0.8-1.6c0.7-0.9,1.8-1.4,3-1.3c0,0.3,0.1,0.6,0.1,0.8v20
	c0,0.3-0.1,0.6-0.1,0.9h-36.1C150.8,179.2,150.4,179.1,150,179.1z"/>
<path class="st10" d="M124.8,263.9c0-1,0-2.1,0-3.1c0-1.8,0-3.6,0-5.4c0-1.6,0.5-3.1,1.4-4.4c0.9-1.4,2.5-2.2,4.1-2.2
	c6.7,0,13.5,0,20.2,0c3.3,0,6.7,0.1,10,0c1.9-0.1,3.7,0.9,4.6,2.6c0.8,1.2,1.1,2.5,1.1,3.9c0,2.4,0,4.8,0,7.2c0,0.5,0,0.9,0,1.4
	c-0.3,0-0.6,0.1-0.9,0.1h-39.7C125.4,264,125.1,264,124.8,263.9z M140.6,256.6c-0.1,2.8,2.1,5.1,4.9,5.2c0.1,0,0.1,0,0.2,0
	c2.8,0,5.2-2.2,5.2-5.1c0,0,0-0.1,0-0.1c0-2.8-2.3-5.2-5.1-5.2C142.9,251.5,140.6,253.8,140.6,256.6z"/>
<path class="st14" d="M230.1,154.2c-0.3-0.2-0.6-0.4-0.9-0.7c-1.9-1.9-3.6-4-5.2-6.1c-1-1.3-1.9-2.7-2.6-4.2c0-0.1,0-0.1-0.1-0.2
	c-1-1.9-1.3-4.1-0.8-6.2c0.6-3.2,2.7-5.9,5.7-7.3c3.4-1.6,7.5-1,10.2,1.6c2.4,2.2,3.7,5.3,3.4,8.6c-0.1,1-0.4,2.1-0.8,3
	c-0.8,1.7-1.7,3.3-2.8,4.7c-1.4,1.9-3,3.8-4.7,5.5l-0.7,0.8C230.6,153.9,230.3,154.1,230.1,154.2z M230.1,144.3
	c3.2,0.1,5.8-2.3,6-5.5c0.1-3.2-2.3-5.8-5.5-6c-0.2,0-0.3,0-0.5,0c-3.2-0.1-5.8,2.3-6,5.5c-0.1,3.2,2.3,5.8,5.5,6
	C229.7,144.3,229.9,144.3,230.1,144.3z"/>
<path class="st22" d="M208.5,257.9c-0.2,0.1-0.3,0.3-0.4,0.5c-0.4,0.6-0.8,1.2-1.2,1.8c-0.2,0.5-0.7,0.7-1.2,0.7c-0.1,0-0.2,0-0.3,0
	c-0.1,0-0.2,0-0.4,0c-1.2,0-2.4-0.2-3.5-0.6c-0.1-0.1-0.2-0.2-0.2-0.3c0-0.2,0.1-0.4,0.1-0.6c1-3.6,2.1-7.2,3.1-10.8
	c0.1-0.3,0.2-0.7,0.2-1.1c0.2-0.1,0.3-0.3,0.3-0.5c0.2-0.9,0.5-1.7,0.8-2.6c0.4-1.1,0.8-2.2,1.2-3.3c0.7-2.1,1.3-4.1,2-6.2
	c0.2-0.7,0.4-1.4,0.6-2.1c0.7-2.2,1.3-4.4,1.9-6.6c0.4-1.5,0.9-3,1.3-4.5c0.5-1.7,0.9-3.4,1.4-5.1c0-0.1,0.1-0.2,0.2-0.3l1.5,0.4
	c1.2,0.3,2.5,0.5,3.8,0.7c0.9,0.1,1.8,0.1,2.7,0.1c0.2,0,0.4-0.1,0.6-0.1c1.1,0,2.1-0.2,3.1-0.5c0.5-0.1,0.9-0.3,1.4-0.4
	c-0.1,1-0.3,2-0.6,3c-0.7,2.2-1.7,4.4-2.8,6.5c-0.1,0.2-0.2,0.4-0.3,0.7l-1.1,1.9c-0.7,1.2-1.4,2.4-2.1,3.5s-1.5,2.6-2.2,3.9
	c-0.4,0.7-0.6,1.6-0.8,2.4c-0.1,0.8-0.3,1.5-0.5,2.3c0,0.2-0.1,0.5-0.2,0.7s-0.3,0.7-0.4,1.1c-1,2.6-2.2,5.1-3.6,7.6
	c-0.2,0.3-0.3,0.7-0.5,1c-0.1,0.1-0.2,0.2-0.3,0.3l-2.8,4.9c-0.2,0.3-0.4,0.6-0.6,0.9S208.7,257.6,208.5,257.9z"/>
<path class="st16" d="M214.6,216.2c-0.1,0.1-0.1,0.2-0.2,0.3c-0.5,1.7-0.9,3.4-1.4,5.1c-0.4,1.5-0.9,3-1.3,4.5
	c-0.6,2.2-1.3,4.4-1.9,6.6c-0.2,0.7-0.4,1.4-0.6,2.1c-0.7,2.1-1.3,4.1-2,6.2c-0.4,1.1-0.8,2.2-1.2,3.3c-0.3,0.9-0.6,1.7-0.8,2.6
	c0,0.2-0.2,0.4-0.3,0.5c-0.9-2.6-1.7-5.2-2.3-7.8c-0.4-1.5-0.6-3-0.8-4.5c-0.2-1.4-0.1-2.8,0.4-4.1c0.8-2.5,1.7-4.9,2.8-7.4
	c1.4-3.3,3-6.6,4.6-9.8c0.2,0,0.4,0.1,0.6,0.2c1.3,0.7,2.7,1.3,4.1,1.8C214.3,216.1,214.5,216.1,214.6,216.2z"/>
<path class="st23" d="M227.7,216.5c-0.4,0.1-1.2,0.4-1.7,0.5c-1,0.3-2.1,0.4-3.2,0.4c-0.1-0.2-0.2-0.5-0.3-0.7
	c-0.5-0.9-0.7-1.9-0.5-2.9c0.1-0.8,0.5-1.6,1-2.2c0.8-1,1.3-2.2,1.3-3.4c0-0.2,0.1-0.4,0.1-0.6c0-0.4,0-0.9,0-1.3
	c-0.1-0.4-0.1-0.8-0.1-1.2v-3.5c0-0.8,0.2-1.6,0.5-2.3c0.1-0.2,0.2-0.3,0.4-0.5c0.1,0.3,0.2,0.5,0.4,0.7c0.1,0.2,0.2,0.4,0.3,0.7
	c0.7,1.8,1.5,3.5,2.4,5.2c0.2,0.3,0.6,0.9,0.8,1.2c0,0.5-0.1,0.9-0.2,1.4c-0.2,1.5-0.3,2.8-0.5,4.3c0,0.2,0,0.5,0,0.7
	s-0.1,0.4-0.1,0.7c-0.1,0.4-0.2,1.1-0.3,1.5S227.8,216,227.7,216.5z"/>
<path class="st0" d="M228.4,212.2c0.2-1.5,0.4-3,0.6-4.5c0.1-0.5,0.1-1,0.2-1.5c0.1,0.1,0.3,0.2,0.4,0.3c1.5,1.5,3,3,4.5,4.5
	c0.2,0.2,0.4,0.4,0.6,0.6c-1.3-0.1-2.7-0.1-4,0.1C229.9,211.9,229.2,212.1,228.4,212.2z"/>
<path class="st23" d="M210.6,203.5c-0.6,0.6-1.4,1-2.2,1.1c-0.7,0.1-1.4,0-2-0.3c0.1-0.1,0.2-0.1,0.3-0.1l1-0.3
	c0.6-0.1,0.7-0.8,0.9-1.4c0.2-0.6,0.3-0.8,0.5-1.5c0.3-1.4,0.5-2,1.5-3c0.1-0.1,0.5-0.6,0.6-0.6c0,0,0.2-0.2,0.3-0.1l-0.2,2.6
	c-0.1,0.9-0.2,1.7-0.3,2.5C210.9,202.8,210.8,203.1,210.6,203.5z"/>
<path class="st0" d="M228.3,213.6c0-0.2,0.1-0.5,0.1-0.7c2-0.6,4.1-0.9,6.1-0.7c0.3,0,0.6,0.1,0.9,0.1c0.3,0.2,0.5,0.3,0.8,0.5
	c0,0.3,0.1,0.5,0.2,0.8l-0.3,0.1c-0.2,0-0.4-0.1-0.5-0.1c-1.4,0-2.8,0-4.3,0c-0.2,0-0.4,0-0.6,0.1c-0.3-0.1-0.6-0.1-0.9,0
	c-0.2,0-0.4-0.1-0.5-0.1C228.9,213.6,228.6,213.6,228.3,213.6z"/>
<path class="st11" d="M236.1,213.6l0.3-0.1l0.6,0.6c0,0.4,0,0.8,0,1.2v45.4c0,0.4,0,0.9,0,1.3h-0.9c0-0.2,0-0.4,0-0.7L236.1,213.6z"
	/>
<path class="st24" d="M196.3,96.2c3,0,5.5,2.5,5.5,5.5c0,0,0,0,0,0c-0.1,3-2.5,5.4-5.5,5.4c-3,0-5.5-2.4-5.5-5.4c0,0,0-0.1,0-0.1
	c0-3,2.4-5.4,5.4-5.4C196.2,96.2,196.3,96.2,196.3,96.2z"/>
<path class="st2" d="M216.7,177.4c0.3,0.1,0.6,0.4,0.8,0.7c-0.4,0-0.7-0.2-1-0.5L216.7,177.4z"/>
<path class="st11" d="M216.5,176.7l-0.2,0.2l-0.4-0.4C216.2,176.4,216.3,176.6,216.5,176.7z"/>
<path class="st10" d="M217.1,241.3c0.1-0.2,0.1-0.5,0.2-0.7c0.2-0.8,0.4-1.5,0.5-2.3c0.1-0.8,0.4-1.6,0.8-2.4
	c0.7-1.3,1.5-2.6,2.2-3.9s1.4-2.4,2.1-3.5c0.2,0.2,0.1,0.5,0.1,0.8v28.4c-1.6-0.1-3.2-0.2-4.7-0.1l-0.9-0.1
	c-0.1-0.2-0.1-0.4-0.2-0.6c0-0.3,0-0.7,0-1v-13.3C217.1,242.2,217.1,241.8,217.1,241.3z"/>
<path class="st16" d="M218.2,257.6c1.6-0.1,3.2-0.1,4.7,0.1l0.9,0.4l0.2,0.2c0.9,0.7,1.4,1.8,1.3,2.9c0,0.3,0,0.6,0,0.9l-1.8,0.1
	h-0.9l-0.1,0.4c-0.7-0.2-1.5-0.2-2.2,0l-0.1-0.9c-0.1-0.1-0.2-0.2-0.3-0.3c-1.1-0.8-1.8-2.1-1.7-3.4L218.2,257.6z"/>
<path class="st10" d="M236.1,213.6v47.8c0,0.2,0,0.4,0,0.7c-0.2,0-0.3,0-0.5,0.1h-4.5c-0.2,0-0.3,0-0.5,0c0-0.3,0-0.6,0-0.9v-46.7
	c0-0.3,0-0.6,0-0.8c0.2,0,0.4-0.1,0.6-0.1c1.4,0,2.9,0,4.3,0C235.7,213.6,235.9,213.6,236.1,213.6z"/>
<path class="st10" d="M225.4,262.1c0-0.3,0-0.6,0-0.9c0-1.1-0.4-2.2-1.3-2.9l-0.2-0.2c0-0.4,0-0.8,0-1.2v-26.7c0-1.2,0-2.4,0-3.6
	c0.1-0.2,0.2-0.5,0.3-0.7c1.1-2.1,2.1-4.3,2.8-6.5c0.4-1,0.6-2,0.6-3c0.1-0.5,0.2-1,0.4-1.5s0.2-0.9,0.3-1.3c0.3,0,0.6,0,0.9,0
	c0.2,0,0.4,0,0.5,0.1c0,0.2,0,0.5,0,0.8v46.9c0,0.3,0,0.6,0,0.9c-0.2,0-0.4,0.1-0.6,0.1L225.4,262.1z"/>
<path class="st11" d="M229.7,262.1c0-0.3,0-0.6,0-0.9v-46.9c0-0.2,0-0.5,0-0.8c0.3-0.1,0.6-0.1,0.9,0c0,0.3,0,0.6,0,0.8v46.7
	c0,0.3,0,0.6,0,0.9L229.7,262.1z"/>
<path class="st25" d="M135.9,208h-11.6c-0.4,0-0.9,0-1.3-0.1c-1.4-0.4-2.5-1.6-2.7-3.1c-0.1-0.4-0.1-0.9-0.1-1.3c0-4.5,0-9,0-13.5
	c0-0.7,0.1-1.3,0.3-1.9c0.5-1.5,1.9-2.5,3.5-2.5c0.2,0,0.3,0,0.5,0h23.1c0.4,0,0.8,0.1,1.2,0.1c1.6,0.4,2.8,1.8,2.9,3.5
	c0,0.3,0,0.6,0,0.9v13.4c0,0.3,0,0.6,0,0.8c0,2-1.7,3.6-3.7,3.7c-0.2,0-0.5,0-0.8,0L135.9,208z M141.1,197.5
	c-0.4,0.2-0.4,0.5-0.6,0.7c-0.1,0.3-0.5,0.5-0.8,0.4c0,0,0,0-0.1,0c-0.3-0.1-0.6-0.2-0.9-0.4l-2.1-0.9c-0.3-0.1-0.7-0.1-1,0
	c-0.5,0.2-0.6,0.5-0.4,1c0.2,0.3,0.5,0.6,0.9,0.7c0.7,0.2,1.3,0.5,2,0.8c0.4,0.1,0.6,0.5,0.5,0.9c0,0.1-0.1,0.3-0.2,0.3
	c-0.3,0.2-0.4,0.5-0.5,0.8l0.9,0.7c0,0.4,0,0.7,0,1.1c0,0.2,0,0.4,0,0.6c0,0.2,0.1,0.4,0.4,0.3c0.1-0.2,0.2-0.3,0.3-0.5
	c0.3-0.7,0.6-1.5,1-2.2c0.1-0.2,0.1-0.6,0.5-0.7c1.3,0.4,2.6,0.7,3.8,1.2c0.3,0.4,0,1,0.5,1.3c0.1,0,0.1,0,0.1,0
	c0.5-0.4,0.6-1.2,1.4-1.3c0,0,0-0.1,0-0.1c0.1-0.4,0.4-0.5,0.6-0.6s0.6-0.4,0.9-0.7c0.1-0.1,0.1-0.2,0.2-0.3
	c-0.1-0.1-0.2-0.1-0.3-0.1c-0.1,0-0.3,0-0.4,0.1c-0.6,0.1-1.1,0.3-1.7,0.5c-0.3,0.1-0.6,0.1-0.8,0c-0.8-0.3-1.7-0.6-2.5-1
	c-0.2-0.1-0.3-0.2-0.5-0.3c0.1-0.1,0.3-0.2,0.4-0.3l4.1-2.5c0.2-0.1,0.3-0.2,0.5-0.3c0.1-0.1,0.1-0.2,0.1-0.2
	c-0.1-0.1-0.2-0.2-0.3-0.2c-0.1,0-0.2,0-0.3,0.1l-3,1.1c-0.6,0.2-1.3,0.4-1.9,0.7L141.1,197.5z M124.4,194.6c0.4,0,0.7,0,1,0h9.6
	c0.2,0,0.4-0.1,0.6-0.1c0.1-0.3,0.1-0.7,0-1c-0.1-0.1-0.1-0.1-0.1-0.1c-0.2,0-0.3,0-0.5-0.1h-10.5h-0.1l-0.1,0.1L124.4,194.6z
	 M135.5,190.9c-0.1,0-0.2-0.1-0.2-0.1c-0.2,0-0.5,0-0.8,0h-9.9c0,0-0.1,0-0.1,0l-0.1,0.1c-0.2,0.3-0.2,0.7,0,1
	c0.7,0.1,8.6,0.2,10.6,0.1c0.1,0,0.3,0,0.5-0.1C135.6,191.6,135.6,191.2,135.5,190.9L135.5,190.9z M131.1,196.1
	c-0.1,0-0.2-0.1-0.3-0.1h-6c-0.1,0-0.2,0-0.3,0.1c-0.1,0.4-0.1,0.8,0.1,1.1c1,0.1,5.8,0.1,6.5,0
	C131.3,196.9,131.3,196.5,131.1,196.1L131.1,196.1z"/>
<path class="st17" d="M171.4,145.6c-0.1,0-0.3-0.1-0.4-0.2c-0.2-0.1-0.3-0.4-0.2-0.7c0.1-0.1,0.2-0.2,0.3-0.2
	c0.4-0.2,0.9-0.3,1.3-0.4c0.8-0.2,1.7-0.4,2.6-0.7c-0.2-0.1-0.3-0.2-0.4-0.2c-2.6-0.4-5.2-0.9-7.9-1.3c-1.2-0.2-2.5-0.3-3.7-0.4
	c-0.2,0-0.5-0.1-0.7-0.1c1.4-0.4,2.9-0.8,4.3-1.2c0.4-0.1,0.9-0.3,1.3-0.4c0.5-0.2,1-0.5,1.3-1c1.2-1.5,2.5-3.1,3.7-4.6
	c1.6-1.9,3.2-3.8,5-5.6c0.5-0.5,1-0.9,1.6-1.3c-0.1,0.4-0.2,0.7-0.5,1c-1.3,1.9-2.6,3.9-3.7,5.9c-0.7,1.2-1.4,2.5-1.8,3.9
	c-0.3,0.9-0.2,1.8,0.3,2.6c0.6,0.9,1.3,1.6,2.1,2.2c0.3,0.3,0.7,0.3,1,0.2l0.4-0.1c0.2,0,0.4,0,0.6,0c1.4-0.2,2.9-0.3,4.4-0.2
	c0.5,0,0.9,0.1,1.5,0.2c-0.1,0.1-0.2,0.3-0.3,0.4c-0.8,0.5-1.7,1.1-2.5,1.6c-0.3,0.2-0.6,0.4-0.9,0.6c-0.1,0.1-0.3,0.1-0.4,0.2
	c-0.4,0.3-0.9,0.5-1.4,0.4c-0.1,0-0.2,0-0.4,0l-5.2-0.5C172.3,145.6,171.8,145.6,171.4,145.6z"/>
<path class="st9" d="M177.4,143l-0.4,0.1c-0.3,0.1-0.7,0.1-1-0.2c-0.8-0.6-1.5-1.4-2.1-2.2c-0.5-0.8-0.6-1.7-0.3-2.6
	c0.5-1.4,1.1-2.7,1.8-3.9c1.2-2,2.4-4,3.7-5.9c0.3-0.3,0.4-0.6,0.5-1c0.1-0.1,0.3-0.2,0.4-0.2c0.5,0,0.9,0,1.4,0
	c0.1,0,0.2,0.1,0.4,0.2c-0.1,0.3-0.1,0.7-0.2,1c-0.9,3-1.8,6-2.6,9.1C178.4,139.2,177.9,141.1,177.4,143z"/>
<path class="st10" d="M171.4,145.6c0.5,0,0.9,0,1.4,0l5.2,0.5c0.1,0,0.2,0,0.4,0c0.5,0.1,1,0,1.4-0.4c0.1-0.1,0.3-0.1,0.4-0.2
	c0.1,0.5,0,1.1-0.1,1.6c-0.2,0.8-0.8,1.4-1.5,1.6l-3.6,1.1c-0.2,0.1-0.4,0.1-0.6,0.1c-0.3-1.3-1-2.5-2-3.4
	C171.9,146.3,171.7,145.9,171.4,145.6z"/>
<path class="st15" d="M230.1,144.3c-3.2,0-5.7-2.6-5.7-5.7c0-3.2,2.6-5.7,5.7-5.7c3.1,0,5.7,2.5,5.7,5.7c0.1,3.1-2.3,5.7-5.4,5.8
	C230.3,144.3,230.2,144.3,230.1,144.3z"/>
<path class="st11" d="M223.9,226.6c0,1.2,0,2.4,0,3.6v26.7c0,0.4,0,0.8,0,1.2l-0.9-0.4v-28.4c0-0.3,0.1-0.6-0.1-0.8L223.9,226.6z"/>
<path class="st26" d="M181.5,207.9c0,5.8,0,11.5,0,17.2c0,0.9-0.2,1.8-0.6,2.6c-0.7,1.2-2,2-3.4,2.1c-0.3,0-0.7,0-1,0H161
	c-0.5,0-0.9,0-1.4-0.1c-2.1-0.4-3.6-2.2-3.6-4.3v-34.5c0-0.7,0.1-1.4,0.3-2c0.7-1.7,2.2-2.9,4.1-3h16.6c0.8,0,1.6,0.2,2.2,0.6
	c1.5,0.7,2.4,2.2,2.4,3.9c0,1.8,0,3.5,0,5.2L181.5,207.9z M168.8,208.6c0.2-0.1,0.3-0.3,0.5-0.4c0.7-0.7,1.4-1.5,2-2.2
	c1-1.2,2-2.4,2.8-3.7c0.5-0.8,0.9-1.7,1.3-2.6c0.3-1,0.4-2,0.1-2.9c-0.4-2.2-1.7-4.2-3.7-5.2c-1-0.5-2.1-0.8-3.2-0.7
	c-1.3,0-2.5,0.4-3.5,1.1c-1.6,1.1-2.7,2.8-3.1,4.7c-0.1,0.6-0.2,1.2-0.2,1.8c0.1,0.6,0.2,1.1,0.4,1.6c0.3,1,0.8,1.9,1.4,2.8
	c1.4,2,2.9,3.9,4.7,5.6C168.5,208.4,168.6,208.5,168.8,208.6L168.8,208.6z M174.3,214.9c-0.1,0-0.3-0.1-0.4-0.1h-10.3
	c-0.2,0-0.3,0.1-0.4,0.1c-0.1,0.4-0.1,0.8,0.1,1.1c0.1,0,0.3,0,0.4,0h10.2c0.1,0,0.3,0,0.4-0.1C174.4,215.6,174.4,215.2,174.3,214.9
	z M163.2,218.7c0.2,0,0.4,0.1,0.5,0.1h10.1c0.2,0,0.3,0,0.5-0.1c0.1-0.3,0.1-0.7,0-1c-0.1,0-0.2-0.1-0.4-0.1c-0.2,0-0.4,0-0.6,0
	c-3,0-6.1,0-9.1,0c-0.3,0-0.7-0.1-1,0.2L163.2,218.7z M163.2,221.3c0.1,0,0.3,0.1,0.4,0.1h5.8c0.1,0,0.3-0.1,0.4-0.1v-1
	c-0.1,0-0.3-0.1-0.4-0.1h-5.8c-0.2,0-0.3,0-0.4,0.1L163.2,221.3z"/>
<path class="st26" d="M136,229.9h-11.6c-0.3,0-0.7,0-1,0c-1.3-0.1-2.3-1-2.6-2.2c-0.1-0.4-0.2-0.9-0.2-1.3c0-3.6,0-7.2,0-10.8
	c0-0.7,0.2-1.4,0.5-2.1c0.4-0.7,1.1-1.2,1.9-1.4c0.5-0.1,1-0.2,1.6-0.2h22.9c0.5,0,1.1,0.1,1.6,0.2c1.4,0.3,2.3,1.5,2.3,2.9
	c0,1.9,0,3.8,0,5.7s0,4,0,6c0,1.2-0.7,2.3-1.8,2.8c-0.3,0.1-0.7,0.2-1,0.3c-0.3,0-0.7,0-1,0L136,229.9z M138.4,221
	c0,2.8,2.2,5.1,5.1,5.2c2.9,0,5.2-2.3,5.2-5.1c0-2.8-2.3-5.2-5.1-5.2S138.4,218.2,138.4,221L138.4,221z M123.7,218.8H134
	c0.3,0,0.7,0.1,1-0.2c0.1-0.4,0-0.8-0.1-1.1h-10.2c-0.3,0-0.7-0.1-1,0.2C123.6,218,123.6,218.4,123.7,218.8L123.7,218.8z
	 M134.9,216.1c0.1-0.4,0.1-0.8,0-1.2c-0.1,0-0.3-0.1-0.4-0.1c-3.5,0-6.9,0-10.4,0c-0.1,0-0.3,0.1-0.4,0.1c-0.1,1.1-0.1,1.2,1,1.2
	c3.2,0,6.3,0,9.5,0C134.3,216.1,134.6,216.1,134.9,216.1L134.9,216.1z M123.7,220.3c0,0.4-0.2,0.7,0.1,1c0.1,0,0.1,0,0.2,0h6.1
	c0.1,0,0.2,0,0.4-0.1c0.1-0.4,0.1-0.7-0.1-1C129.4,220.2,124.5,220.2,123.7,220.3L123.7,220.3z"/>
<path class="st10" d="M145.7,251.9c2.6-0.1,4.8,2,4.9,4.6c0.1,2.6-2,4.8-4.6,4.9c-0.1,0-0.3,0-0.4,0c-2.6-0.1-4.7-2.2-4.7-4.8
	C140.9,254,143.1,251.9,145.7,251.9C145.7,251.9,145.7,251.9,145.7,251.9z M145.5,259.1c0.9-1.1,1.7-2.3,2.5-3.5
	c0.2-0.3,0.4-0.6,0.5-0.9c-0.2-0.3-0.5-0.5-0.9-0.6c-0.1,0.2-0.3,0.4-0.5,0.6l-1.6,2.3c-0.1,0.1-0.2,0.3-0.4,0.4
	c-0.5-0.5-1.1-0.9-1.7-1.3c-0.3,0.2-0.6,0.4-0.7,0.8C143.6,257.7,144.5,258.4,145.5,259.1z"/>
<path class="st25" d="M168.8,208.6c-0.1-0.1-0.3-0.2-0.4-0.3c-1.7-1.7-3.3-3.6-4.7-5.6c-0.6-0.9-1.1-1.8-1.4-2.8
	c-0.2-0.5-0.3-1.1-0.4-1.6c0-0.6,0-1.2,0.2-1.8c0.4-1.9,1.5-3.6,3.1-4.7c1-0.7,2.3-1.1,3.5-1.1c1.1,0,2.2,0.2,3.2,0.7
	c2,1.1,3.4,3,3.7,5.2c0.2,1,0.2,2-0.1,2.9c-0.3,0.9-0.7,1.8-1.3,2.6c-0.8,1.3-1.8,2.6-2.8,3.7c-0.7,0.7-1.4,1.5-2,2.2
	C169.1,208.3,169,208.5,168.8,208.6z M172.8,197.6c0-2.2-1.7-4-3.9-4c0,0,0,0-0.1,0c-2.2,0-4,1.8-4,4c0.1,2.2,1.8,3.9,4,4
	C171,201.6,172.7,199.8,172.8,197.6L172.8,197.6z"/>
<path class="st26" d="M148.3,221c0.1,2.5-1.9,4.5-4.4,4.6c0,0-0.1,0-0.1,0c-2.5,0.3-4.7-1.6-5-4c-0.3-2.5,1.6-4.7,4-5
	c0.3,0,0.6,0,0.8,0C146.2,216.5,148.2,218.5,148.3,221C148.3,221,148.3,221,148.3,221z M144.1,220.9c0-0.6,0-1.1,0-1.5
	c0-0.2,0-0.4-0.1-0.6c0-0.1-0.2-0.2-0.2-0.2c-0.1,0.1-0.2,0.2-0.2,0.2c0,0.9,0,1.8,0,2.7c0,0.1,0.1,0.2,0.2,0.3
	c0.1,0,0.2-0.1,0.3-0.1l1.3-1.4c0.4-0.4,0.8-0.8,1.2-1.3c0.1-0.1,0.1-0.2-0.1-0.3c-0.4,0.3-0.7,0.7-1.1,1.1
	C145,220.1,144.5,220.5,144.1,220.9z"/>
<path class="st17" d="M88.4,138.3c0.1,0.3,0.1,0.7,0.1,1.1c0,0.4-0.4,0.8-0.8,0.8c-1.1,0.1-2.2,0-3.3-0.2l-1.5-0.3
	c0.8-0.8,1.7-1.4,2.6-1.9"/>
<path class="st27" d="M15,0h270.8c8.3,0,15,6.7,15,15v19.5c0,0.6-0.4,1-1,1H1c-0.6,0-1-0.4-1-1V15C0,6.7,6.7,0,15,0z"/>
<text transform="matrix(1.09 0 0 1 13.4189 61.67)" class="st28 st29 st30 st31">T</text>
<text transform="matrix(1.09 0 0 1 13.4189 61.67)" class="st28 st29 st30 st31">T</text>
<text transform="matrix(1.09 0 0 1 28.0468 61.67)" class="st28 st29 st30">r</text>
<text transform="matrix(1.09 0 0 1 28.0468 61.67)" class="st28 st29 st30">r</text>
<text transform="matrix(1.09 0 0 1 38.7612 61.67)" class="st28 st29 st30">i</text>
<text transform="matrix(1.09 0 0 1 38.7612 61.67)" class="st28 st29 st30">i</text>
<text transform="matrix(1.09 0 0 1 46.3369 61.67)" class="st28 st29 st30 st31">p</text>
<text transform="matrix(1.09 0 0 1 46.3369 61.67)" class="st28 st29 st30 st31">p</text>
<text transform="matrix(1.09 0 0 1 63.4609 61.67)" class="st28 st29 st30 st32">T</text>
<text transform="matrix(1.09 0 0 1 63.4609 61.67)" class="st28 st29 st30 st32">T</text>
<text transform="matrix(1.09 0 0 1 77.2495 61.67)" class="st28 st29 st30">oe</text>
<text transform="matrix(1.09 0 0 1 77.2495 61.67)" class="st28 st29 st30">oe</text>
<path class="st27" d="M285.9,300.1H15c-8.3,0-15-6.7-15-15l0,0v-19.5c0-0.6,0.4-1,1-1h298.9c0.6,0,1,0.4,1,1v19.5
	C300.9,293.4,294.2,300.1,285.9,300.1L285.9,300.1z"/>
<path class="st33" d="M195.7,62.2c3.2,0,3.2-5,0-5S192.5,62.2,195.7,62.2z"/>
<path class="st33" d="M209.6,69c5.2,0,10.2-4.6,10-10c-0.1-5.5-4.5-9.9-10-10c-5.2,0-10.2,4.6-10,10C199.7,64.5,204.1,68.9,209.6,69
	z"/>
<path class="st33" d="M221.3,64.1c2.8,0,5-2.2,5-5s-2.2-5-5-5s-5,2.2-5,5C216.3,61.8,218.5,64,221.3,64.1z"/>
<path class="st33" d="M201.5,65.9c2.8,0,5-2.2,5-5s-2.2-5-5-5s-5,2.2-5,5C196.5,63.6,198.7,65.8,201.5,65.9z"/>
<path class="st33" d="M227.1,64.2c3.2,0,3.2-5,0-5S223.9,64.2,227.1,64.2z"/>
<path class="st33" d="M224.4,67.1c3.2,0,3.2-5,0-5S221.2,67.1,224.4,67.1z"/>
<path class="st33" d="M220,65.9c3.2,0,3.2-5,0-5S216.8,65.9,220,65.9z"/>
<path class="st33" d="M197,65.2c3.9,0,7.7-3.5,7.5-7.5c-0.1-4.1-3.4-7.4-7.5-7.5c-3.9,0-7.7,3.5-7.5,7.5
	C189.5,61.8,192.8,65.1,197,65.2z"/>
<path class="st33" d="M186.2,62.7c2.8,0,5-2.2,5-5s-2.2-5-5-5s-5,2.2-5,5C181.2,60.4,183.4,62.7,186.2,62.7z"/>
<path class="st33" d="M180.6,61.2c3.2,0,3.2-5,0-5S177.4,61.2,180.6,61.2z"/>
<path class="st33" d="M190.4,64.8c3.2,0,3.2-5,0-5S187.2,64.8,190.4,64.8z"/>
<path class="st27" d="M249.2,90.4c0.9-1.7,1.9-3.3,2.8-4.9s1.7-3,2.6-4.6c0.8-1.4,1.5-2.8,2.2-4.2c0.6-1.2,1.2-2.5,1.8-3.8
	c0.4-0.8,0.7-1.6,1-2.4c0.6-1.8,1.2-3.6,1.7-5.4s1-3.7,1.3-5.6c0.4-2.2,0.8-4.5,1-6.7c0.2-1.5,0.3-3.1,0.3-4.7
	c0.1-1.4-0.1-2.8-0.6-4.1c-0.2-0.8-0.8-1.4-1.5-1.7c0.5,0.2,0.6,0.3,1.1,0.5c1.4,0.7,2.7,1.6,3.8,2.7c1.1,1.2,2.1,2.7,2.7,4.2
	c1.1,2.9,1.7,6,1.7,9.1c0.1,2.7-0.1,5.4-0.5,8c-0.4,2.9-1.4,5.7-2.9,8.2c-1.9,3.2-4.3,6.1-6.9,8.7c-1.6,1.6-3.3,3.1-5,4.7
	c-1.1,0.9-2.1,2-2.9,3.1c-0.1,0.2-0.1,0.3,0.2,0.4c0.7,0.3,1.4,0.7,2.1,1c0.2,0.1,0.4,0.2,0.6,0c1.3-1.3,2.8-2.5,4.5-3.4
	c1.6-1,3.2-2,4.8-3.1c2.6-1.6,5-3.5,7.2-5.6c1.8-1.6,3.3-3.5,4.5-5.6c0.8-1.6,1.4-3.2,1.6-5c0.4-3.3,0.3-6.6-0.4-9.9
	c-0.5-2.4-1.3-4.8-2.5-7c-1.3-2.7-3.2-5.1-5.7-6.8c-2.4-1.7-5-3.1-7.8-4.1c2.3,0.9,4.6,1.9,6.8,3.1c3.6,2,6.7,4.8,9.2,8
	c2.5,3.1,4.3,6.7,5.2,10.5c1.6,7.5-1.3,15.2-7.4,19.7c-1.7,1.3-3.6,2.3-5.5,3.2c-4.3,1.8-8.4,3.9-12.4,6.2c-2.4,1.5-4.7,3.2-6.9,5.1
	c-0.2,0.2-0.4,0.4-0.6,0.5c-0.9,0.7-1.5,1.7-1.6,2.8c0,0.1-0.1,0.3-0.1,0.5l-1.4-0.4c-0.9-0.3-0.9-0.3-1.3,0.3
	c-0.1,0.1-0.1,0.2-0.2,0.3c0.2,0,0.3,0.1,0.5,0.2c0.1,0.1,0.2,0.2,0.3,0.3c-0.1,0-0.2,0.1-0.4,0.1c-0.1,0-0.3,0-0.4-0.1
	c0,0.4,0,0.8,0,1.2c0,0.7,0.1,1.3,0.1,2c0,0.3,0.1,0.5,0.5,0.5h0.1l0,0c-0.4,0.9-0.7,1.8-1.1,2.7c-0.3,0.9-0.5,1.9-0.5,2.9l-8.5-2.6
	c1-1.6,1.7-3.5,1.9-5.5c0.6,0.2,0.6,0.2,1-0.3l1.6-2.2c0-0.1,0.1-0.1,0.1-0.2h-0.1c-0.1-0.2-0.3-0.3-0.3-0.5c0.1-0.3,0.4,0,0.7-0.1
	c0-0.3,0-0.6-0.1-1c0-0.1-0.2-0.2-0.3-0.2l-2.1-0.7c0.1-0.3,0.1-0.6,0.3-0.8c0.4-1,0.5-2,0.2-3c-0.5-2.7-1.3-5.3-2.3-7.9
	c-0.5-1.2-1.2-2.4-1.8-3.5c-1.5-2.6-2.9-5.2-4.4-7.7c-0.6-1-1.3-2-1.9-3.1c-2.1-3.6-3.2-7.7-3-11.9c0.2-4.9,2.4-9.6,6-13
	c1.6-1.5,3.4-2.8,5.4-3.8c3.5-1.8,7.3-2.8,11.3-3.1c1.7-0.2,3.4-0.3,5.1-0.2c2.6,0.2,5.1,0.5,7.6,1.1c-2.3-0.5-4.6-0.7-6.9-0.6
	c-2.4,0.1-4.8,0.5-7.1,1.1c-3.4,1.2-6.5,3-9.2,5.4c-2.2,1.9-4,4.2-5.2,6.9c-0.9,2-1.3,4.2-1.4,6.4c-0.2,3.7,0.2,7.4,1.1,10.9
	c0.9,3.6,2.1,7.1,3.7,10.5c0.7,1.5,1.4,3,2,4.5c0.1,0.5,0.5,0.8,1,0.8c0.7,0,1.4,0.2,2.1,0.3c0-0.2,0-0.3,0-0.4l-1.1-4.5
	c-0.8-3.4-1.3-6.8-1.5-10.2c-0.2-3.2-0.1-6.5,0.3-9.7c0.6-4.1,2.1-8.1,4.6-11.5c1.3-1.9,2.8-3.5,4.5-5.1c1.3-1.2,2.8-2.3,4.4-3.1
	c1.4-0.8,3-1.3,4.6-1.5c0.6-0.1,1.1-0.1,1.7-0.1c0.8,0,1.6,0.1,2.4,0.2c0,0,1,0.3,1,0.3c-0.5-0.2-1.1-0.2-1.7,0
	c-1.1,0.5-2.1,1.2-2.8,2.2c-1.4,1.7-2.6,3.6-3.7,5.6c-1,1.9-1.8,3.8-2.7,5.7c-0.9,2.1-1.7,4.2-2.4,6.4c-0.4,1.6-0.9,3.2-1.2,4.9
	s-0.7,3-0.9,4.5c-0.3,1.7-0.6,3.4-0.8,5.2s-0.4,3.4-0.6,5s-0.2,3.4-0.4,5.2c0,0.5-0.1,0.9-0.1,1.4c0,0.2,0.1,0.3,0.3,0.4l3.8,1.2
	C248.8,90.3,249,90.3,249.2,90.4z M245.2,106.5c0,0,0-0.1,0.1-0.1c-0.1-1.1-0.1-2.2-0.2-3.3c0-0.2-0.1-0.3-0.3-0.3
	c-1.2-0.4-2.5-0.8-3.8-1.2c-0.2-0.1-0.4,0-0.5,0.1c-0.6,0.8-1.2,1.6-1.8,2.5c-0.2,0.3-0.2,0.3,0.2,0.5c1.6,0.8,3.3,1.4,5.1,1.7
	L245.2,106.5z M241,101.1c0,0,0.1,0.1,0.1,0.1l3.6,1.1c0.2,0.1,0.3,0,0.3-0.2c0-0.3,0-0.5,0-0.8c0-0.1-0.1-0.2-0.2-0.2l-2.8-0.9
	c-0.1,0-0.2,0-0.3,0C241.4,100.5,241.2,100.8,241,101.1L241,101.1z M240.8,99.9c0.1,0.3,0.1,0.6,0.2,0.6c0.3,0,0.4-0.2,0.4-0.4
	L240.8,99.9z M245.6,101.4l-0.6-0.2l0.2,0.7c0.1-0.1,0.3-0.2,0.4-0.3S245.7,101.5,245.6,101.4L245.6,101.4z"/>
<path class="st0" d="M260.9,96.9c3.2,0,3.2-5,0-5S257.6,96.9,260.9,96.9z"/>
<path class="st0" d="M274.6,102.6c5.2,0,10.2-4.6,10-10c-0.1-5.5-4.5-9.9-10-10c-5.2,0-10.2,4.6-10,10
	C264.7,98.1,269.1,102.5,274.6,102.6z"/>
<path class="st0" d="M286.3,96.7c2.8,0,5-2.2,5-5s-2.2-5-5-5s-5,2.2-5,5C281.3,94.5,283.5,96.7,286.3,96.7z"/>
<path class="st0" d="M266.7,100.1c2.8,0,5-2.2,5-5s-2.2-5-5-5s-5,2.2-5,5C261.7,97.8,263.9,100,266.7,100.1z"/>
<path class="st0" d="M292.3,96.3c3.2,0,3.2-5,0-5S289,96.3,292.3,96.3z"/>
<path class="st0" d="M289.8,99.5c3.2,0,3.2-5,0-5S286.6,99.5,289.8,99.5z"/>
<path class="st0" d="M285.4,98.6c3.2,0,3.2-5,0-5S282.2,98.6,285.4,98.6z"/>
<path class="st0" d="M261.9,99.8c3.9,0,7.7-3.4,7.5-7.5c-0.1-4.1-3.4-7.4-7.5-7.5c-3.9,0-7.7,3.4-7.5,7.5
	C254.5,96.4,257.8,99.7,261.9,99.8z"/>
<path class="st0" d="M251.1,98.1c2.8,0,5-2.2,5-5s-2.2-5-5-5s-5,2.2-5,5C246.2,95.9,248.4,98.1,251.1,98.1z"/>
<path class="st0" d="M245.7,97.1c3.2,0,3.2-5,0-5S242.5,97.1,245.7,97.1z"/>
<path class="st0" d="M255.7,99.9c3.2,0,3.2-5,0-5S252.5,99.9,255.7,99.9z"/>
<path class="st34" d="M62.2,196.1v2.3c0,0,2.2,0.6,2.5-1.2C64.6,197.3,65,195.7,62.2,196.1z"/>
<line class="st35" x1="0.8" y1="33.8" x2="1" y2="265.4"/>
<line class="st35" x1="300.1" y1="33.7" x2="300.3" y2="265.3"/>
<g>
	<circle class="st5" cx="152.7" cy="282.3" r="12.7"/>
	<circle class="st36" cx="152.7" cy="282.3" r="11.2"/>
	<circle class="st37" cx="152.7" cy="282.3" r="10.2"/>
</g>
<g>
	<circle class="st5" cx="150.5" cy="17.8" r="3.5"/>
	<circle class="st36" cx="150.5" cy="17.8" r="3.1"/>
	<circle class="st38" cx="150.5" cy="17.8" r="2.8"/>
</g>
<path class="st34" d="M67.3,199.3h2.3c0,0-0.5-1.3-0.9-2.4c-0.1-0.3-0.4-0.3-0.5,0C68,197.3,67.7,198.1,67.3,199.3z"/>
<path class="st34" d="M84.1,196.1v2.3c0,0,2.2,0.6,2.5-1.2C86.5,197.3,86.9,195.7,84.1,196.1z"/>
<path class="st34" d="M91.2,200L91.2,200c0.8,0,1.4-1,1.2-2c-0.1-0.6-0.5-1.1-1.2-1.2c0,0-1-0.3-1.2,1.4
	C89.9,199.2,90.5,200,91.2,200z"/>
<path class="st34" d="M95.9,196.1v2.3c0,0,2.2,0.6,2.5-1.2C98.3,197.3,98.7,195.7,95.9,196.1z"/>
<path class="st39" d="M299.9,264.6"/>
<path class="st40" d="M2,264.6l0,20.3c0,0-0.8,10.4,11.8,13.2h93.4l128.8,0.1h48.6c0,0,12.2,0.4,14.1-11.8l0.1-21.8"/>
<line class="st41" x1="0.8" y1="33" x2="1" y2="264.6"/>
<line class="st41" x1="300" y1="33.9" x2="300.2" y2="265.5"/>
<path class="st40" d="M2.1,35.5l0-20.9c0,0-0.8-10.7,11.8-13.6h93.4L236.2,1h48.6c0,0,12.2-0.4,14.1,12.1l0.1,22.4"/>
</svg>
