<?xml version="1.0" encoding="utf-8"?>
<!-- Generator: Adobe Illustrator 25.2.0, SVG Export Plug-In . SVG Version: 6.00 Build 0)  -->
<svg version="1.1" id="Layer_1" xmlns="http://www.w3.org/2000/svg" xmlns:xlink="http://www.w3.org/1999/xlink" x="0px" y="0px"
	 viewBox="0 0 300 248" style="enable-background:new 0 0 300 248;" xml:space="preserve">
<style type="text/css">
	.st0{fill:#434343;}
	.st1{fill:#6A6C6C;}
	.st2{fill:#3D4461;}
	.st3{fill:#F8984D;}
	.st4{fill:#FAB17C;}
	.st5{fill:#4E5554;}
	.st6{fill:#FEE3CB;}
	.st7{fill:#D9E1F3;}
	.st8{fill:#F0BE8E;}
	.st9{fill:#7A97CE;}
	.st10{fill:#F58348;}
	.st11{fill:#E26C30;}
	.st12{fill:#1E3C65;}
	.st13{fill:#E0E9F7;}
	.st14{fill:#F7904C;}
	.st15{fill:#B6C7E7;}
	.st16{fill:#193861;}
	.st17{fill:#304B8F;}
	.st18{fill:#626464;}
	.st19{fill:#9BB1DC;}
	.st20{fill:#ECF3FB;}
	.st21{fill:#585A5C;}
	.st22{fill:#1E488A;}
	.st23{fill:#5C82C2;}
	.st24{fill:#DDE7F6;}
	.st25{fill:#FEE2C8;}
	.st26{fill:#F78F4D;}
	.st27{font-family:'ArialMT';}
	.st28{font-size:33.9064px;}
	.st29{fill:none;stroke:#E26C30;stroke-miterlimit:10;}
	.st30{fill:#808184;}
	.st31{fill:#A9A6A6;}
	.st32{fill:#4E5554;stroke:#4E5554;stroke-width:0.25;stroke-miterlimit:10;}
	.st33{fill:none;stroke:#A9A6A6;stroke-width:2;stroke-miterlimit:10;}
	.st34{fill:none;stroke:#6A6C6C;stroke-width:4;stroke-miterlimit:10;}
	.st35{opacity:0.5;fill:none;stroke:#787878;stroke-width:2;stroke-miterlimit:10;enable-background:new    ;}
</style>
<path class="st0" d="M87.1,110.8c2.3,2.7-3.2,3.3-5.7,1.5c-1.1,0.3-2.2,0.9-3.2,1.5c-0.5,0.3-0.9,0.8-1.2,1.3
	c-0.4,0.6-0.4,1.5,0.1,2c0.9,1.1,2,1.8,3.2,2.5c1.7,1,3.4,1.7,5.2,2.4c0.7,0.3,1.4,0.5,2.3,0.6c1.2,0.2,2.6,0.4,3.8,0.4
	c0.1,0,0.2,0,0.4,0.1c0.3,0,0.6,0.1,0.9,0.1c0.2,0,0.4,0,0.7,0c0.8,0.3,1.8,0.1,2.7,0.3c0.7,0,1.3,0.1,2,0.2c1-0.1,2.1,0.2,3.2,0.2
	c0,0.2,0,0.5,0,0.9c0,3.1,0,6.3,0,9.4v8.9c0,0.3,0,0.8,0,1.1c-0.1-0.1-0.1-0.2-0.2-0.3c-0.4-1.7-0.8-3.3-1.2-5
	c-0.6-2.5-1.2-4.8-1.8-7.3c-0.3-1.1-0.6-2.2-0.9-3.3c-0.1-0.5-0.5-0.9-1-0.9c-0.4,0-0.7,0-1.1,0.1c-1.2,0.3-2.4,0.6-3.6,1
	c-1.2,0.3-2.5,0.6-3.7,1.1l-6.9,1.9l-4.7,1.3l-6.8,1.9c-1.7,0.4-3.2,0.9-4.8,1.3c-2.3,0.6-4.5,1.3-6.8,1.9c-0.6,0.1-1.3,0.3-2,0.6
	c-0.2,0-0.4,0-0.6,0l-2.5,0.8c-0.3,0.1-0.6,0.2-0.9,0.3c-0.7,0.2-1,1.1-0.8,1.8c0.3,1.2,0.6,2.4,0.8,3.4c0.9,3.6,1.8,7.4,2.9,11
	c0.5,1.8,0.9,3.6,1.4,5.5c0.4,1.5,0.7,2.9,1.1,4.4h-4.2c0-0.1,0-0.3-0.1-0.4c-0.2-0.4-0.5-0.9-0.7-1.3c-0.8-1.2-1.7-2.5-2.6-3.6
	c-0.4-0.6-0.9-1.3-1.4-1.8c-0.8-0.9-1.8-1.7-2.6-2.7c-0.5-0.6-1.3-0.9-2.2-0.8c-0.6,0.1-1,0.6-1.1,1.3c-0.1,0.9,0.1,1.7,0.5,2.4
	c1,1.6,2.3,3.2,3.5,4.6c0.6,0.8,1.2,1.5,1.8,2.2c0.5,0.8,1,1.4,1.7,1.9c0.2,0.1,0.3,0.4,0.4,0.5c0.3,0.4,0.6,0.9,1.1,1l0.4,2.2
	c-0.7,0.3-1-0.2-1.3-0.5c-1.8-1.9-3.7-3.9-5.7-5.6c-1-0.9-2-1.7-3-2.5c-2.1-1.6-4.3-2.9-6.6-4.1c-0.6-0.3-1.4-0.4-2.2-0.3
	c-0.9,0.2-1.4,1.1-1.3,2c0.1,1.1,0.6,2.1,1.3,2.9c1.1,1.2,2.4,2.1,3.6,3.1c1.8,1.3,3.6,2.6,5.3,3.9l8.4,6c0.3,0.2,0.5,0.3,0.8,0.4
	v4.6c-0.3,0-0.6,0-0.8,0c-1.5-0.3-3.1-0.6-4.6-0.9c-1.3-0.2-2.8-0.3-4.1-0.3c-0.8,0-1.7,0-2.5,0c-0.2,0-0.4,0-0.7,0
	c-0.2,0-0.4,0.2-0.4,0.4l0,0c0.9,1.3,2,2.6,2.9,4c0.9,1.4,2,2.7,2.9,4.1c0.8,1.2,1.5,2.4,2.3,3.5c0.6,1,1.1,2,1.4,3.2
	c0.2,0.4,0,0.9-0.3,1.1c0,0,0,0-0.1,0c-0.8-0.1-1.5-0.4-2.3-1c-1.4-1.1-2.9-2.2-4.2-3.5c-0.6-0.5-1.2-1.3-1.8-1.9
	c-0.6-0.6-1.3-1.2-2-1.8c-1-1.1-2-2.1-2.9-3.2c-0.6-0.6-1.2-1.3-2-2c-0.2-0.2-0.3-0.4-0.5-0.6c-0.4-0.4-0.8-1-1.2-1.4
	c-0.2-0.2-0.5-0.4-0.8-0.3c-1-0.1-2,0-3,0.2c-0.2,0-0.3,0-0.5,0c-0.7,0.1-1.4,0.1-2.2,0.2c-0.7,0.1-1.6,0.3-2.5,0.5
	c-2.3,0.5-4.4,1.6-6.3,3c-1.1,1-2.1,2.1-2.6,3.5c-0.4,1.1-0.7,2.2-0.6,3.5c0,0.3-0.1,0.8-0.1,1.1c0,0.5,0,1.1,0,1.6
	c0,0.3,0.1,0.8,0.1,1.1c0,0.9,0.1,1.6,0.3,2.5s0.5,1.7,0.8,2.6c0.6,1.7,1.8,3.2,3.1,4.3c0.8,0.6,1.8,1,2.8,1c0.6-0.1,1.3,0,2,0
	c0.2,0,0.4-0.1,0.6-0.1c0.3-0.1,0.6-0.1,0.9-0.1c0.2,0,0.4,0,0.6,0c0.5-0.1,1-0.2,1.5-0.2c0.2,0,0.3,0,0.5,0
	c0.4-0.1,0.9-0.2,1.3-0.1c0.2,0,0.4,0,0.6,0c0.5-0.1,1-0.2,1.6-0.1c0.6,0,1.1-0.2,1.8-0.2c1.4,0,3,0,4.4,0c0.3,0,0.6,0.1,0.9,0.2
	c0.4,0.1,0.6,0.5,0.5,0.9l0,0c-0.2,0.5-0.5,0.9-0.9,1.2c-1.4,1.2-3,2-4.7,2.8c-1.5,0.6-3.1,1.2-4.6,1.5c-1,0.3-2.1,0.4-3.1,0.4h-0.1
	c-0.5,0.1-1,0.1-1.6,0c-0.3-0.1-0.5,0-0.7,0.2c0.1,0.2,0.2,0.4,0.4,0.6c0.8,1.3,1.8,2.7,2.7,3.9c0.8,1.2,1.9,2.2,2.8,3.3l0.4,0.3
	c0.9,1.1,2,1.9,3.1,2.8c1.2,1,2.7,1.6,4.1,2.1c0.4,0.1,0.8,0.1,1.2,0.2c0.5,0.1,0.9,0.1,1.4,0.1c1-0.2,2.1-0.4,3.1-0.9
	c1.7-0.5,3.1-1.4,4.5-2.5c0.5-0.4,1.1-0.9,1.7-1.3c0.5-0.4,1.2-1,1.8-1.5c1-1,2.1-1.8,3.2-2.6c0.2-0.1,0.5-0.2,0.8-0.2v3.6
	c-0.1,0-0.2,0-0.4,0.1c-1.8,0.5-3.5,1.4-5,2.5c-0.6,0.4-1.1,1-1.5,1.5c-0.6,0.9-1.3,1.6-2,2.5c-0.4,0.6-0.9,1.2-1.2,1.9
	c-0.2,0.3-0.3,0.6-0.3,1.1c0,0.2,0,0.4,0.2,0.6c0.2,0.4,0.6,0.6,1,0.9c0.9,0.3,1.8,0.5,2.8,0.5c0.5,0,1,0.1,1.7,0.2
	c0.6,0.1,1,0,1.5,0c0.5,0.1,0.9,0.1,1.4,0s1-0.2,1.5-0.1l0.5,0.5V247l0,0H23.1l-1-0.5c-0.2-0.3-0.4-0.6-0.7-0.9
	c-0.9-1.2-1.9-2.4-2.7-3.5c-1.5-2-2.9-4.2-4.2-6.3c-0.8-1.3-1.5-2.7-2.3-4.1s-1.5-2.8-2.3-4.3c-1.1-2.4-2.2-4.8-3.1-7.4
	c-0.4-1.2-0.8-2.2-1.2-3.3c-0.6-2.1-1.3-4.2-1.8-6.3c-0.4-1.9-0.8-3.8-1-5.7c-0.1-1-0.2-1.9-0.4-2.9c-0.2-1-0.1-1.8-0.3-2.8
	c-0.1-0.6-0.1-1.3,0-1.9c0-0.6-0.1-1.4-0.2-2c-0.1-0.9-0.1-1.7,0-2.5c0.1-0.3,0.1-0.8,0.1-1.1c0-0.6,0-1.3,0-2c0-0.4,0-0.9,0.1-1.3
	c0-0.1,0.1-0.2,0.1-0.4c0.1-0.9,0.1-1.7,0.2-2.5c0.2-1.3,0.3-2.6,0.6-3.9c0.3-1.7,0.7-3.3,1.1-5c0.2-0.8,0.4-1.4,0.6-2.1
	c0.3-1.1,0.6-2.1,1-3.1c0.6-1.6,1.1-3.2,1.8-4.7c0.4-1.1,0.9-2,1.4-3.1c1.1-2.4,2.4-4.7,3.7-7c1.4-2.5,3-4.7,4.6-7
	c1-1.4,2.1-2.7,3.2-4c0.9-1.1,2-2.1,2.9-3.2s2-1.8,3-2.8s2.7-2.4,3.8-3.1c1.3-1.1,2.8-2,4.2-3s3.2-2,4.7-3c2.7-1.7,5.3-3.2,8-4.9
	c1.4-1,2.9-2,4.2-3.1s2.6-2.2,3.7-3.6c1.2-1.4,2.3-3,3.2-4.6c1-1.9,1.8-4,2.6-6.1c0.5-1.6,0.8-3.1,1.1-4.7c0.2-1.1,0.3-2.1,0.4-3.1
	c0.1-0.8,0.2-1.5,0.3-2.2c0-0.2,0-0.4,0-0.8c0-0.5,0-1.2,0.2-1.7c0-0.2,0-0.4,0-0.8c0-0.9,0-1.6,0-2.4c0-0.4,0.1-0.8,0.1-1.2
	c0-0.2,0.1-0.5,0.1-0.9c0-1.1,0-2.1,0-3.2c0-0.3,0-0.6-0.1-1C63,84.6,63,83.1,63,81.7c0.1-0.9,0.2-1.7,0.2-2.6
	c0.1-1,0.2-1.8,0.3-2.8c0.2-1.7,0.6-3.4,1-5.1c0.3-1.3,0.8-2.6,1.2-3.9c0.5-1.4,1.1-2.8,1.8-4.1c0.9-1.9,2.1-3.8,3.3-5.6
	c0.7-1,1.5-1.8,2.3-2.9c0.6-0.9,1.3-1.6,2.1-2.4c1.2-1.2,2.5-2.4,3.8-3.4s2.7-2.1,4.1-3c1-0.8,2.2-1.3,3.2-1.9
	c0.6-0.3,1.5-0.9,2.2-1.2c1.8-0.9,3.4-1.7,5.2-2.4c1.2-0.4,2.5-1,3.7-1.4s2.7-0.9,3.9-1.2c0.8-0.2,1.7-0.5,2.4-0.6
	c1.4-0.3,2.8-0.6,4.2-1c0.9-0.2,1.8-0.4,2.7-0.5c0.7-0.1,1.4-0.1,2.1-0.2l2.3-0.3c0.2,0,0.5,0,0.8-0.1s0.7-0.1,1.1-0.1
	c0.1,0,0.1,0,0.2,0c1,0,2.1-0.2,3.2-0.2c3.6,0,7.1,0,10.7,0c0.3,0,0.6,0.1,0.9,0.1s0.6,0.1,0.8,0.1c0.5,0,1.1,0,1.6,0.2
	c0.1,0,0.1,0,0.2,0c0.8,0,1.8,0.1,2.6,0.2c1,0.1,2,0.3,3,0.4c1,0.1,2.2,0.3,3.2,0.6c1.4,0.3,2.8,0.6,4.1,1.1
	c1.1,0.3,2.2,0.8,3.3,1.1c2.3,0.8,4.5,1.7,6.6,3c1.8,1.1,3.4,2.1,4.9,3.4c0.9,0.6,1.9,1.4,2.7,2.1c0.8,0.8,1.8,1.5,2.6,2.2l2.2,1.9
	l0.1,0.1l2.6,2.1l3.3,3.1c0.1,0.1,0.2,0.2,0.2,0.4c-0.1,0.1-0.1,0.2-0.2,0.2c-0.6,0.2-1.2,0.3-1.9,0.5c-2.4,0.8-4.7,1.6-7,2.8
	c-2.1,1-4,2.1-6,3.2c-0.2,0.1-0.4,0.3-0.4,0.6c-0.3,0-0.6,0.1-0.9,0.2c-1.5,1.2-3.2,2.2-4.7,3.4c-0.5,0.4-1,0.9-1.5,1.3
	c-1,0.9-2.1,1.7-3,2.7c-1.4,1.4-2.9,2.8-4.1,4.4c-0.5,0.6-1.1,1.3-1.6,1.9c-1.6,2.1-3.2,4.4-4.5,6.8c-0.2,0.4-0.6,0.9-0.6,1.4
	c-1.1,0-2.3,0-3.4,0c-4-0.1-8-0.2-12,0c-4.4,0.1-8.8,0-13.2,0.1c-2.7,0-5.2,1.1-7,3c-1.7,1.8-2.6,4.2-2.5,6.6c0,4.1,0,8.1,0,12.2
	c-1.2,0.1-2.4-0.3-3.6-0.2c-0.6-0.2-1.2-0.2-1.8-0.2l-0.8-0.1c-0.4-0.1-0.7-0.1-1.1-0.1c-1.1,0-2.2,0-3.3,0.1
	c-0.8,0.1-1.8,0.2-2.6,0.4c-1,0.2-2.1,0.5-3,1.1c-0.3,0.2-0.6,0.4-0.9,0.6 M139.1,70.1c-0.6,0-1.2,0-1.9,0.1
	c-1.5,0.2-3.1,0.6-4.4,1.4c-0.5,0.3-1.1,0.6-1.6,1c-0.4,0.3-0.8,0.3-1.2,0.1c-0.6-0.2-1.2-0.4-1.9-0.6c-1.1-0.3-2.4-0.5-3.6-0.6
	c-1.1,0-2.3,0-3.5,0c-0.6,0-1.1,0.1-1.7,0.3c0.9,0.1,1.8,0.2,2.8,0.3c1.8,0.2,3.4,0.8,4.9,1.5c1,0.4,2,1.1,2.8,1.9
	c0.3,0.3,0.6,0.5,1,0.8c0.5-0.5,0.9-1.1,1.4-1.6s0.9-1.1,1.4-1.5c0.5-0.4,1.1-0.9,1.6-1.3c0.6-0.4,1.1-0.8,1.8-1.1
	C137.7,70.6,138.5,70.3,139.1,70.1L139.1,70.1z M107.2,69.5c1,0.2,2.1,0.3,3.1,0.5c2,0.3,3.8,1.4,5.3,2.8l0.2,0.1
	c0.1,0.1,0.4,0.1,0.5,0s0.1-0.1,0.2-0.2c1.4-1.9,3.4-3.4,5.7-4.1c0.1,0,0.2-0.1,0.2-0.1c-0.1-0.1-0.1-0.1-0.1-0.1
	c-0.7,0.1-1.4,0.1-2.1,0.2c-1.3,0.3-2.7,0.9-3.8,1.6c-0.3,0.2-0.8,0.3-1.1,0.1c-1.4-0.5-3-1-4.5-1C109.5,69.1,108.4,69.2,107.2,69.5
	L107.2,69.5z M95,68c1.1,0.1,2.1,0.2,3,0.3c1,0.2,2,0.5,2.9,1c0.8,0.5,1.7,1,2.4,1.6c0.5-0.6,1-1.3,1.5-1.9c0.6-0.5,1.2-1.1,1.8-1.6
	c0.6-0.4,1.3-0.6,2.2-1.2c-2.2,0.2-4.1,1-5.9,2.2c-1.2-0.4-2.6-0.8-3.9-0.8C97.7,67.6,96.4,67.7,95,68z M134.4,66.5
	c0.2-0.1,0.3-0.2,0.4-0.3c0.3-0.3,0.6-0.6,0.9-1c1-1.2,2.4-2,3.8-2.5c0.1,0,0.2-0.1,0.4-0.2c-2-0.1-3.1,0.2-5.8,1.7
	c-0.1,0-0.2,0-0.2-0.1c-1.3-0.6-2.8-1-4.2-1.1c-0.8-0.1-1.6-0.1-2.5,0c-0.3,0-0.6,0.1-0.8,0.3c0.9,0.1,1.8,0.2,2.8,0.4
	c1,0.2,2,0.5,2.8,1.1C132.8,65.3,133.6,66,134.4,66.5z M134.6,56.7c-1.9,0.1-3.7,0.8-5.2,1.8c-1.5-0.5-3.1-0.9-4.7-1
	c-0.7,0-1.5,0.1-2.3,0.2c0,0-0.1,0.1-0.2,0.3c2.7-0.2,5.3,0.8,7.4,2.6l1.4-1.6c0.5-0.5,1-1.1,1.8-1.4
	C133.3,57.3,133.9,57,134.6,56.7L134.6,56.7z M99.2,63c-0.2,0-0.3,0-0.5,0c-0.8,0.2-1.5,0.5-2.2,1.1c-0.5,0.5-1.2,0.6-2,0.4
	c-1.2-0.2-2.6-0.2-3.8,0.2c-0.1,0-0.2,0.1-0.5,0.2c0.4,0,0.6,0,0.9,0c1.5-0.1,3.1,0.2,4.4,1.1c0.3,0.2,0.5,0.1,0.7-0.2
	c0.1-0.2,0.3-0.3,0.4-0.5c0.5-0.8,1.1-1.4,1.8-1.9L99.2,63z M121.6,55c-1.8-0.5-3.5-0.5-5.2,0c0.6,0,1.2,0,2,0.2
	c0.6,0.1,1.3,0.3,2,0.5c0.6,0.3,1.1,0.6,1.8,1l0.6-0.9c0.2-0.2,0.4-0.4,0.6-0.6s0.5-0.4,0.7-0.6l0.7-0.5c0.2-0.2,0.6-0.2,0.8-0.6
	C123.9,53.7,122.7,54.2,121.6,55z"/>
<path class="st0" d="M230.8,70.6h1.1c0.2,0,0.3,0,0.5,0c0.9-0.1,1.8-0.2,2.7-0.2c1.8-0.2,3.5-0.2,5.2-0.2c0.4,0,0.7,0.1,1.1,0.1
	c0.1,0,0.2,0,0.4,0c1,0,2.1,0,3.1,0.2c1.3,0.1,2.7,0.3,4,0.6c1.2,0.3,2.5,0.5,3.7,1c1.4,0.4,2.8,1.1,4.1,1.6c0.5,0.2,1,0.4,1.5,0.8
	c1.9,1,3.6,2.1,5.4,3.4c0.5,0.4,1.1,0.8,1.6,1.3c0.5,0.5,0.9,0.9,1.3,1.3s1.1,1,1.6,1.5c1.2,1.4,2.5,2.9,3.6,4.4
	c1.8,2.6,3.3,5.4,4.6,8.2c0.8,2,1.6,4.1,2.2,6.2c0.6,1.9,1,4,1.4,6c0.3,1.3,0.4,2.6,0.5,3.9c0.2,1,0.2,1.9,0.2,3c0,0.3,0,0.6,0.1,1
	c0,0.3,0.1,0.6,0.1,0.9c0,1.8,0,3.6,0,5.5c0,1.1-0.2,2.1-0.2,3.2c0,0.9-0.2,1.7-0.3,2.7c-0.2,1.6-0.5,3.1-0.8,4.7
	c-0.4,2.1-1,4.3-1.8,6.3c-0.4,1.2-0.9,2.5-1.4,3.6c-0.8,1.7-1.5,3.5-2.3,5.4c-0.5,1.5-0.9,3.1-1.1,4.6c-0.2,1.7-0.2,3.5-0.1,5.2
	c0.1,0.9,0.2,1.7,0.4,2.6c0.3,1.2,0.7,2.4,1.2,3.4c0.4,0.9,0.8,1.8,1.3,2.7c0.8,1.4,1.6,2.7,2.7,4c0.8,1.1,1.6,2,2.6,3.1l2.2,2.6
	l0.2,0.2c0.8,1,1.6,1.8,2.4,2.8c0.5,0.5,0.9,1.2,1.3,1.8l1.1,1.4c1.2,1.5,2.3,3.1,3.3,4.7c0.9,1.5,1.8,3.1,2.6,4.7
	c0.4,0.9,0.7,1.7,1,2.5c0.5,1.5,1,3,1.3,4.5c0.2,1.1,0.4,2.2,0.5,3.3s0.1,1.9,0.2,2.9c0.1,0.8,0.1,1.4,0.1,2.1c0,0.2,0,0.3,0,0.5
	c-0.2,0.9-0.2,1.7-0.2,2.6c0,0.3-0.1,0.6-0.1,0.9c0,0.2-0.1,0.3-0.1,0.5c-0.1,1.6-0.3,3.1-0.7,4.6c-0.3,1.6-0.6,3.2-1.1,4.7
	s-0.8,3.1-1.4,4.6s-1,2.9-1.5,4.3c-0.7,1.8-1.4,3.6-2.3,5.4c-0.3,0.6-0.6,1.4-0.9,2c-0.8,1.7-1.8,3.3-2.6,5
	c-0.4,0.9-0.8,1.6-1.2,2.5s-0.7,1.3-1.1,2c-0.3,0.4-0.4,0.9-0.5,1.3c-0.3,0-0.6,0-0.8,0h-33.1c-0.2,0-0.5,0-0.8,0
	c-0.2,0-0.3-0.1-0.5-0.2c0.8-0.4,1.1-1.4,0.7-2.1c0-0.1-0.1-0.1-0.1-0.2c-0.2-0.3-0.2-0.6-0.1-1l0.5-0.1c1.5-0.3,2.8-1.7,3-3.3
	c0-0.4,0-1,0.1-1.4l0.9-0.1l0.1-1.7c0.4,0.1,0.7,0.2,1.1,0.3c0.7,0.3,1.5,0.3,2.3,0.3c0.4,0,0.8-0.3,0.8-0.8l0,0
	c0-0.5,0-1.2-0.1-1.7c-0.3-1.2-0.6-2.2-0.9-3.3c-0.2-0.8-0.6-1.5-1-2.1c-0.5-0.6-1-1.3-1.5-1.9c-0.2-0.1-0.3-0.3-0.5-0.4v-3.6
	c0.1,0,0.3,0.1,0.4,0.2c0.6,0.5,1.1,1.2,1.4,2c0.6,1.3,1.2,2.6,1.9,3.8c0.9,1.9,2.4,3.6,4,5c1.2,1,2.8,1.5,4.4,1.4
	c0.6,0,1.1-0.1,1.8-0.2c1.6-0.3,3.3-0.9,4.9-1.6c0.9-0.4,2-1,2.9-1.5c0.7-0.4,1.4-1,2.1-1.4c0.1-0.1,0.1-0.2,0.2-0.4
	c-1.6-0.8-3.2-1.7-4.5-2.9c-1.3-1.2-2.6-2.5-3.6-4c-0.3-0.5-0.6-1-0.9-1.5c-0.2-0.3-0.2-0.8-0.2-1.1s0.2-0.5,0.5-0.5
	c0.1,0,0.1,0,0.2,0c0.8,0.2,1.5,0.4,2.3,0.9c1.1,0.6,2.4,1.3,3.5,1.9c0.7,0.4,1.4,0.9,2.2,1.3c1.1,0.8,2.3,1.3,3.4,1.9
	c0.8,0.4,1.9,0.5,2.8,0.2c0.8-0.2,1.5-0.6,2.2-1.1c1-0.8,1.9-1.6,2.6-2.7c0.8-1.3,1.5-2.7,2.1-4.2c0.3-0.9,0.5-1.8,0.5-2.8
	c0-0.3-0.1-0.6-0.1-1c-0.2-1.5-0.8-3-1.9-4.1c-0.8-1-1.8-1.9-2.7-2.7c-1.4-1.2-3.1-2.1-4.7-3c-0.5-0.2-1-0.2-1.4,0
	c-1.1,0.5-2.2,1.1-3.3,1.5c-2.7,1.1-5.4,2.2-8.1,3.1c-0.9,0.3-2,0.5-2.9,0.8c-0.5,0.1-1.1,0.1-1.6,0c-0.2,0-0.4-0.2-0.4-0.4
	c0-0.1,0-0.2,0.1-0.3c0.5-0.6,1-1.2,1.6-1.6c2.8-2,5.7-3.8,8.8-5.4c0.2-0.1,0.3-0.1,0.5-0.2c0.2-0.1,0.4-0.4,0.1-0.8
	c-0.1-0.1-0.2-0.2-0.3-0.2c-0.5-0.2-0.9-0.5-1.4-0.8c-1.6-0.8-3.4-1.3-5.1-1.7c-1.6-0.4-3.3-0.8-4.9-1.1c-1.1-0.2-2.3-0.3-3.4-0.5
	c-0.5-0.1-0.9-0.1-1.4-0.2c-0.4,0-0.7,0.2-0.9,0.5l-1.1,1.9c-0.4,0.6-0.7,1.3-1.1,1.9c-0.1,0.2-0.4,0.3-0.6,0.3c0-1.2,0-2.4,0-3.6
	c0.4-0.1,0.7-0.4,0.8-0.9c-0.3-0.2-0.6-0.1-0.8-0.1c-0.1-0.6-0.2-1.4-0.3-2c-0.1-0.3-0.2-0.8-0.4-1.1c0.1-0.2,0.2-0.3,0.4-0.4
	c1.3-1,2.7-1.9,4-2.9c2-1.4,4-2.8,6-4.2c1.4-1.1,3-2.1,4.4-3.2c1.1-0.9,2.2-1.7,3.1-2.8c0.3-0.3,0.5-0.6,0.7-1
	c0.4-0.8,0.5-1.6,0.4-2.4c-0.3-1.1-1.3-1.7-2.5-1.4c-0.1,0-0.1,0-0.2,0.1c-1.6,0.8-3.2,1.6-4.7,2.6c-2.5,1.6-4.7,3.4-6.9,5.4
	c-1,1-2,1.9-3,2.9c-0.8,0.8-1.4,1.7-2.3,2.5c-0.7,0.8-1.4,1.5-2.1,2.4l-1.3-0.5l1-1.3c0.7-1,1.4-1.8,2.2-2.8l1.3-1.6
	c0.6-0.8,1.2-1.5,1.9-2.2c0.6-0.8,1.1-1.3,1.8-2c1-1.3,2-2.6,2.9-3.9c0.4-0.5,0.7-1.2,1.1-1.7c0.3-0.5,0.3-1.1,0.2-1.7
	c-0.2-1-1-1.6-2-1.4c-0.2,0-0.5,0.2-0.7,0.3c-0.6,0.5-1.2,1.1-1.8,1.6c-0.7,0.8-1.4,1.5-2.1,2.4c-1,1.3-2.1,2.7-2.9,4.1
	c-0.3,0.5-0.7,1.2-1,1.7c-0.4,0.8-0.9,1.5-1.3,2.4c-0.6,1.3-1.2,2.6-1.9,3.9c-0.3,0.8-0.6,1.5-0.8,2.2l-0.7,0.1
	c-0.5-0.1-1-0.1-1.5,0c-0.9-0.8-2-1.2-3.1-1.4c-0.1-0.3-0.2-0.8-0.3-1.1c-0.4-1-0.8-1.9-1.2-2.8c-1-2.4-2.1-4.6-3.3-6.9
	c-0.7-1.2-1.2-2.5-1.6-3.8c-0.5-1.9-1-3.8-1.5-5.7c-0.5-2.1-1.4-4.2-2.5-6c0-0.1-0.3-0.2-0.3-0.2c0.1,0,0.5-0.2,0.6-0.3
	c0.6-0.5,1-1,1.6-1.5c0.9-1,1.9-2,2.8-3.1c0.6-0.6,1.1-1.3,1.6-1.9c0.7-0.9,1.2-1.6,2-2.6c0.4-0.5,0.7-1,1-1.6
	c0.1-0.1,0.5-0.3,0.6-0.5c0.9-1.4,1.8-2.8,2.6-4.3c2.2-4.2,3.9-8.6,5.2-13.1c0.7-2.8,1.3-5.6,1.8-8.5c0.1-0.5,0.2-1.1,0.2-1.6
	c0.1-1.2,0.2-2.4,0.2-3.5c0-0.1,0-0.2,0-0.4c0.1-0.5,0.2-1,0.1-1.5c0-1.4,0-2.8,0-4.1c0-0.2,0-0.5,0-0.8c-0.1-0.5-0.2-1.1-0.1-1.6
	c0-1-0.1-2-0.2-3c-0.1-0.5-0.1-1.2-0.2-1.7c-0.2-1-0.3-2-0.5-3c-0.2-1.2-0.5-2.5-0.8-3.6c-0.1-0.2-0.2-0.4-0.3-0.8
	c0-0.6-0.1-1.2-0.3-1.7c-0.4-1.2-0.8-2.4-1.1-3.5c-0.7-2.1-1.6-4.2-2.7-6.2c-0.1-0.1-0.2-0.3-0.3-0.4c-0.1-0.2-0.1-0.4-0.2-0.6
	c-0.4-0.8-0.8-1.6-1.2-2.4c-0.9-1.5-1.8-3-2.8-4.5c-2.3-3.3-4.8-6.3-7.6-9.2l-0.4-0.4L230.8,70.6z"/>
<path class="st1" d="M244.3,88.8c0.1,0.1,0.2,0.2,0.3,0.4c1,2,2,4.1,2.7,6.2c0.4,1.2,0.8,2.4,1.1,3.5c0.2,0.5,0.3,1.2,0.3,1.7
	c-0.2-0.1-0.5-0.1-0.7-0.2c-0.3,0-0.7-0.1-0.9-0.4c-0.4-0.4-0.9-0.8-1.5-0.8c-0.9-0.2-1.9-0.2-2.8-0.2c-0.9,0.1-2,0.1-2.9,0.2
	c-2.3,0.2-4.5-0.6-6.1-2.4c-0.2-0.2-0.5-0.4-0.7-0.6l-0.4-0.2l-0.2-0.8c0.1,0,0.2-0.1,0.2-0.1c0.2-0.5,0.2-1.3-0.1-1.8
	c-0.1-0.1-0.2-0.1-0.2-0.1c-0.1,0-0.2,0.2-0.2,0.2c0,0.4,0,0.9,0,1.3c-0.3-0.2-0.5-0.4-0.7-0.6c-0.4-0.6-1-1.2-1.6-1.7
	c-0.8-0.8-2-1.3-3.1-1.4c-0.5-0.1-1.1-0.1-1.6,0c-0.1,0-0.2,0-0.3,0c-0.6,0-1.2,0.1-1.9,0.3c-1.6,0.4-3.2,1.4-4.5,2.6
	c-0.8,0.9-1.9,1.5-3,1.8c-0.8,0.3-1.8,0.4-2.7,0.4c-0.2,0-0.4,0-0.6,0.1c-0.6,0.1-1.1,0.2-1.6,0.3c-1.1,0.3-2.3,0.8-3.3,1.4
	s-1.8,1.7-2,2.8c-0.1,0.3-0.1,0.6,0,1c0.2,1,0.5,1.8,0.9,2.6c0.7,1,0.9,2.2,0.5,3.3c-0.1,0.2-0.2,0.5-0.3,0.8c-0.3,0.6-0.7,1.4-1,2
	c-0.4,1-0.5,2-0.3,3c0.3,1.4,0.9,2.6,2,3.5l0.4,0.4c0.6,0.6,1.3,1.1,2.1,1.4c0.7,0.2,1.4,0.4,2.2,0.4c0.7,0.1,1.4,0.1,2.2,0
	c0.3,0,0.6-0.1,0.8-0.1c0.2,0,0.4,0,0.7,0c1.9-0.3,3.7-0.9,5.4-1.4c0.7-0.2,1.5-0.4,2.3-0.3c0.4,0,0.7,0.2,0.8,0.5
	c0.1,0.2,0.2,0.5,0.2,0.8c0.2,0.9,0.2,1.6,0,2.5c0,0.1,0,0.1,0,0.2c-0.1,1.6,0,3.1,0.2,4.7s1,3.1,2.3,4c1.5,1.1,3.2,1.8,5,2.2
	c1.3,0.3,2.7,0.6,4,1c0.5,0.1,1,0.4,1.4,0.8c0.3,0.3,0.4,0.8,0.2,1.2c-0.1,0.4-0.3,0.8-0.6,1.1c-0.4,0.6-0.9,1.3-1.3,1.9
	c-1,1.5-1.9,3-2.6,4.7c-0.5,1.3-0.8,2.7-0.9,4.1c0,1.4,0.5,2.7,1.5,3.6c0.9,1,2.2,1.5,3.4,1.7c1.1,0.2,2.3,0.1,3.4-0.1
	c-0.2,0.6-0.6,1.2-1,1.7c-0.6,1-1.3,1.8-2.1,2.7c-0.5,0.6-1,1.3-1.6,1.9c-0.9,1.1-1.9,2-2.8,3.1c-0.5,0.5-1.1,1.1-1.8,1.6
	c-0.1,0.1-0.2,0.1-0.4,0.1c-0.4-0.5-0.8-1-1.2-1.5c-0.8-0.9-1.9-1.5-3-1.8c-1.2-0.3-2.5-0.4-3.7-0.4c-0.6-1.4-1-3-1.1-4.6
	c0-0.1,0.1-0.2,0.2-0.3c0.2-0.4,0.6-0.8,1.1-0.5c0.4,0.1,0.9-0.1,1.1-0.5c0.4-0.4,0.7-1.1,0.8-1.7c0.3-1.3,0.3-2.7-0.1-4
	c-0.1-0.3-0.2-0.6-0.3-1c0.5-0.1,0.9,0,1.2-0.4c1-1.2,1.2-2.8,0.7-4.2c-0.3-1-1.2-1.7-2.3-1.7c-1.3-0.1-2.5,0.6-3.1,1.8
	c-0.1,0.2-0.2,0.4-0.3,0.6c-0.1,0-0.2,0-0.3-0.1c-0.8-0.3-1.8-0.3-2.5,0.1c-0.4,0.2-0.9,0.5-1.2,0.9c-0.6,0.6-1.2,1.3-1.9,1.9
	c-0.4,0.5-0.8,1.1-1.2,1.6c-0.4,0.5-0.6,1.1-0.6,1.7c0,1.2,0.3,2.4,0.9,3.3c0.2,1.3,0.6,2.6,1.2,3.8l0.2,0.2
	c0.3,0.5,0.8,0.9,1.4,0.8c0.2,0,0.3,0,0.5,0l0.2,1.2l0.1,1.6c-1.8,0.2-3.4,1.1-4.7,2.2c-0.6,0.5-1.1,1.3-1.3,2.1
	c-0.1,0.3-0.2,0.8-0.3,1.1c-0.4,1.9-0.9,3.9-1.3,5.8c-0.2,0.9-0.5,1.7-0.9,2.6c-0.1,0.4-0.6,0.6-1,0.4l0,0c-0.1-0.1-0.3-0.1-0.4-0.2
	c-1.4-0.5-2.8-1.2-4.2-1.7c-0.8-0.3-1.6-0.5-2.5-0.8c-0.2-1-0.1-2,0.2-3v-0.1l0.9-0.4l0.7-0.2c0-0.2,0.1-0.3,0-0.3
	c-0.5-1.8-1-3.6-1.5-5.6c0-0.1-0.1-0.1-0.2-0.2l-0.5,0.2c-0.5,0.1-1.1,0.2-1.6,0.4c-0.5,0.2-1.1,0.2-1.5,0.6l0.2,0.8
	c-0.1,0.5-0.1,1.1-0.2,1.6c-0.1,1-0.1,1.9-0.2,2.9c-0.1,0.6,0,1.2,0.3,1.7c0.4,1,1,1.7,1.8,2.5c-0.1,0.4,0,0.9,0.3,1.2
	c0.6,1.2,1.4,2.1,2.4,3.1c0.3,0.3,0.6,0.8,1,1.1l-1.9,0.3c-0.5,0.1-1,0.2-1.6,0.2c-0.8,0.1-1.8,0.2-2.6,0.2c-0.1,0-0.2,0-0.3,0
	c-0.3,0-0.7,0.1-1,0.1c-0.7-0.1-1.4-0.1-2.2,0c-0.8,0.1-1.6,0.2-2.5,0.1c0-0.9,0-1.7,0-2.5V153c0-0.4,0-0.9,0.1-1.2
	c1.2-0.6,1.6-2.1,1-3.4l0,0c-0.1-0.3-0.3-0.8-0.5-1.1s-0.2-0.6-0.6-1v-4.9c0.7,0.1,1.5,0.2,2.3,0.5c0.6,0.2,1.3,0.3,2,0.3
	c0.9,0,1.9-0.5,2.5-1.3c0.2-0.3,0.5-0.8,0.7-1.1c0.5-1,0.9-1.9,1.1-3c0.2-1.2,0.4-2.4,0.6-3.5c0.2-1.6,0.8-3,1.8-4.3
	c0.2-0.3,0.3-0.5,0.4-0.9c0.4-0.9,0.2-1.9-0.5-2.5c-0.8-0.5-1.9-0.8-2.9-0.9h-0.2c-0.8,0.1-1.5,0.3-2.3,0.8
	c-0.9,0.8-2.1,0.5-3.1,0.8c-0.1,0-0.1,0-0.2,0l-1.9-0.4c0-0.4-0.1-0.8-0.1-1.2c0-9.5,0-19,0-28.5c0-0.4,0-0.9,0-1.3
	c-0.1-3.4-2-6.5-4.9-8c-0.8-0.4-1.5-0.8-2.5-1c0-0.1,0-0.1,0-0.2c0.3-0.8,0.1-1.7-0.6-2.2c-0.6-0.5-1.3-0.9-2.2-0.9
	c-0.9-0.2-1.9-0.3-2.8-0.2c-0.9,0-1.8,0-2.7,0.2c-0.2,0-0.4,0-0.6,0c-0.3,0-0.5-0.1-0.8-0.1c-0.9-0.1-1.6-0.8-2-1.6
	c-0.4-1.3-0.4-2.6-0.2-3.9c0.2-1.3,0.3-2.5,0.3-3.8c0-0.9-0.4-1.7-1.1-2.1l-1.5-1.2c-1.2-0.8-2.4-1.8-3.2-3c-0.5-0.6-1-1.2-1.6-1.7
	c-0.5-0.4-1.1-0.8-1.6-1.1c-0.7-0.3-1.5-0.5-2.4-0.6c0-0.3,0.2-0.5,0.4-0.6c2-1.1,3.9-2.2,6-3.2c2.3-1.1,4.6-2,7-2.8
	c0.6-0.2,1.2-0.3,1.9-0.5c0.1,0,0.1-0.1,0.2-0.2c0.7,0,1.4-0.2,2.2-0.4c1.3-0.3,2.6-0.5,3.9-0.8c0.7-0.1,1.5-0.3,2.3-0.3
	c1.1-0.1,2.3-0.2,3.5-0.2c0.5,0.1,1,0,1.5-0.1c0.2,0,0.4,0,0.6,0c0.8,0,1.5,0,2.3,0c0.5,0,0.9,0,1.4,0.1c0.4,0.1,0.8,0.1,1.2,0.1
	c0.6,0,1.2,0,2,0.2c0.2,0,0.4,0,0.6,0c1,0,2,0.2,3,0.4c-0.2,0.4-0.4,1-0.5,1.4c0,0.1,0.1,0.2,0.1,0.3s0.2,0,0.3-0.1
	c0.1-0.1,0.1-0.1,0.1-0.2l0.4-1.2c1.3,0.1,2.6,0.3,3.9,0.6c2.6,0.6,5,1.4,7.5,2.4c1.4,0.5,2.9,1.2,4.3,1.9s3.1,1.6,4.5,2.5
	c1.2,0.8,2.4,1.6,3.6,2.4c0.1,0.1,0.2,0.3,0.3,0.4c-0.4,0.2-0.9,0.2-1.4,0.2c-0.7,0-1.4,0-2.2,0c-0.8,0-1.6,0.2-2.5,0.5
	c-0.7,0.2-1.2,0.6-1.8,1.2c-0.3,0.3-0.5,0.8-0.7,1.2s-0.4,0.9-0.7,1.3c-0.5,0.8-1.2,1.3-2.1,1.6c-0.3,0.1-0.6,0.3-1,0.4
	c-0.8,0.3-1.6,0.8-2.5,1.2s-1.5,1.2-2,2c-0.3,0.7-0.4,1.6-0.3,2.5c0,0.5,0.3,1,0.7,1.1c0.6,0.3,1.3,0.3,2.1,0.2
	c0.2-0.1,0.4-0.1,0.6-0.1c0.7-0.1,1.5-0.2,2.3-0.3c0.8-0.2,1.6-0.2,2.5-0.3c0.3,0,0.7,0,1,0c1.9,0,3.6,0.8,4.8,2.2
	c0.5,0.6,0.9,1.3,1.3,1.9c0.4,0.5,0.7,1.2,1.1,1.7c0.2,0.4,0.5,0.8,0.9,1.1c0.6,0.5,1.4,0.8,2.2,0.5c0.7-0.3,1.4-0.5,2.2-0.8
	c0.4-0.1,0.7-0.2,1.1-0.3c0,0.3,0.1,0.8,0.1,1.1c0,0.1,0,0.2,0.1,0.3s0.2,0.2,0.3,0.2c0.1,0,0.2-0.2,0.2-0.2c0-0.5-0.1-1.1-0.2-1.5
	c0.1,0,0.2,0,0.3,0c1.1,0.1,2.3,0.5,3.2,1.2c0.9,0.6,1.9,1.3,2.8,1.8c1.5,1.1,3.5,1.5,5.4,1C243.6,89.1,243.9,89,244.3,88.8z
	 M190.4,65.6c-0.8-0.6-1.8-1.1-2.7-1.3c-0.8-0.2-1.5-0.4-2.4-0.4c-0.9-0.1-2,0-2.9,0.2c-0.8,0.2-1.8,0.3-2.6,0.3s-1.6,0-2.5,0
	c-1,0-2,0.4-2.6,1.3c-0.5,0.5-0.7,1.3-0.6,1.9c0.2,1.1,0.6,2.1,1.3,3c0.4,0.4,0.7,1,1.1,1.4c0.9,1.4,2,2.9,2.9,4.4
	c0.5,0.8,1.1,1.4,1.9,2c0.2,0.1,0.4,0.3,0.6,0.3c0.6,0.4,1.3,0.3,1.9-0.2c0.3-0.3,0.6-0.6,0.8-1c0.7-1,1.3-2,1.9-3.2
	c0.2-0.5,0.5-1.1,0.7-1.5c0.2-0.5,0.6-1,1.1-1.2c0,0.2,0,0.4,0,0.8c0,0.8,0.1,1.5,0.4,2.2c0.4,1.3,0.9,2.5,1.6,3.6
	c2.1,3.4,4.5,6.5,7.4,9.3c0.1,0.1,0.2,0.1,0.3,0.2c0.2-0.2,0.5-0.4,0.7-0.6c1-1.1,2-2.1,3-3.3c1.4-1.7,2.7-3.4,3.8-5.4
	c0.8-1.3,1.4-2.7,1.9-4.1c0.2-0.6,0.3-1.2,0.3-1.8c0.1-3.2-1.1-6.3-3.3-8.5c-3.4-3.4-8.9-3.5-12.4-0.2
	C191.5,64.3,190.9,64.9,190.4,65.6z M231.9,91.1c0.1,0.3,0.1,0.9,0.2,1.2c0,0.1,0.2,0.2,0.3,0.2c0.1,0,0.3-0.1,0.3-0.3
	c0-0.4-0.1-0.9-0.1-1.3v-0.1c0,0-0.2-0.2-0.3-0.2c-0.1,0-0.1,0.2-0.2,0.2C232,90.7,231.9,90.9,231.9,91.1L231.9,91.1z M231.5,88.4
	c0.1,0.3,0.1,0.8,0.1,1.1s0.1,0.4,0.3,0.4s0.3-0.2,0.2-0.5c0-0.2,0-0.3-0.1-0.5c0-0.2-0.1-0.4-0.1-0.6c0-0.1-0.2-0.1-0.3-0.1
	c-0.1,0-0.1,0.1-0.2,0.2C231.5,88.2,231.5,88.3,231.5,88.4L231.5,88.4z M199.2,59.7c0.1,0,0.2,0,0.2-0.1c0.3-0.2,0.5-0.6,0.4-1.1
	c0-0.1-0.1-0.2-0.1-0.2c-0.1,0-0.3,0-0.3,0c-0.2,0.2-0.4,0.6-0.4,1C199,59.4,199.2,59.5,199.2,59.7z"/>
<path class="st2" d="M248.5,247c0.2,0.1,0.3,0.1,0.5,0.2c0.2,0,0.5,0,0.8,0h33c0.3,0,0.6,0,0.8,0c0.2,0,0.6,0,0.9,0h6.3h13.7
	c0.2,0,0.4,0,0.7,0c0.2,0,0.4,0.2,0.4,0.4l0,0c0,0.2-0.1,0.4-0.4,0.5c-0.2,0-0.4,0-0.6,0h-15.2h-68h-70.7H80.9H10.8H-2.4H-3
	c-0.2,0-0.4-0.2-0.5-0.4c0,0,0,0,0-0.1c0-0.3,0.2-0.5,0.4-0.5l0,0h25.3h0.8h27.2c0.3,0,0.6,0,0.9,0s0.8,0,1.2,0h51.1
	c1.8,0,3.6,0,5.3,0h48.5c0.3,0,0.7,0,1,0c0.5,0.1,0.9,0.2,1.4,0.1c7.7,0,15.4,0,23.2,0c0.7,0,1.4-0.1,2.2-0.4
	c0.1,0.1,0.1,0.2,0.1,0.2c0.2,0,0.5,0.1,0.7,0.1h10.4c0.3,0,0.5,0,0.8-0.1h0.9h9.6c0.5,0.1,1,0.1,1.4,0h4.5c0.3,0,0.7,0.1,1,0.1h6.5
	c0.5,0,0.9,0,1.4,0h2.1c0.2,0,0.4,0,0.6,0h4.1h15.9c0.4,0,0.7,0,1,0h0.4C247.6,247.3,248.1,247.2,248.5,247z"/>
<path class="st3" d="M204.8,49c0,0.1,0,0.1,0,0.2c-0.2,0.3-0.5,0.8-0.8,1.1c-0.1,0.1-0.2,0.1-0.3,0.1c-0.1-0.1-0.2-0.2-0.1-0.3
	c0,0,0,0,0-0.1c0.2-0.3,0.5-0.8,0.8-1.1c0,0,0.2,0,0.3,0C204.8,48.9,204.8,49,204.8,49z"/>
<path class="st3" d="M223.3,52.7c-0.1,0.1-0.1,0.2-0.2,0.2c-0.1,0-0.2,0-0.2,0c-0.2-0.4-0.5-1-0.7-1.4c0,0,0-0.2,0.1-0.2
	s0.2,0,0.3,0C222.8,51.7,223.1,52.2,223.3,52.7z"/>
<path class="st3" d="M202.1,53.7c-0.1,0.5-0.3,1.1-0.7,1.5c-0.1,0-0.2,0-0.2,0c-0.1,0-0.2-0.2-0.1-0.2c0.1-0.5,0.4-1.1,0.7-1.5h0.2
	C202,53.4,202,53.5,202.1,53.7z"/>
<path class="st4" d="M221.9,50.5l-0.1,0.1c-0.1,0-0.2,0-0.3,0c-0.3-0.4-0.6-0.9-0.8-1.3c0-0.1,0.1-0.2,0.1-0.3c0.1,0,0.2,0,0.2,0
	c0.4,0.3,0.7,0.9,0.9,1.4C221.9,50.3,221.9,50.3,221.9,50.5z"/>
<path class="st3" d="M217.1,45.2c0.1,0,0.2,0,0.3,0c0.4,0.2,0.7,0.5,1,0.9c0.1,0.1,0.1,0.2,0,0.3c0,0.1-0.2,0.2-0.3,0.1
	c-0.4-0.2-0.8-0.5-1.1-0.9c-0.1,0-0.1-0.2,0-0.2C217,45.2,217,45.2,217.1,45.2z"/>
<path class="st3" d="M215.1,44.2c0.2,0.1,0.6,0.2,1,0.3c0.1,0.1,0.1,0.2,0.2,0.3c0,0.1-0.2,0.3-0.3,0.2l-1.2-0.3
	c-0.2,0-0.3-0.2-0.2-0.3c0.1-0.1,0.2-0.1,0.3-0.2C214.8,44.2,214.9,44.2,215.1,44.2z"/>
<path class="st4" d="M227.1,62.9c-0.1,0.1-0.1,0.2-0.2,0.2c-0.1,0-0.3,0-0.3,0c-0.3-0.4-0.5-1-0.5-1.6c0-0.1,0.1-0.2,0.2-0.2
	c0.1,0,0.2,0,0.3,0c0,0,0.1,0,0.1,0.1L227.1,62.9z"/>
<path class="st4" d="M207.4,46.6c-0.3-0.3-0.4-0.5-0.2-0.6c0.2-0.1,0.7-0.4,1-0.8c0.1,0,0.1,0,0.2,0s0.2,0.1,0.3,0.2
	c0,0.1,0,0.2-0.1,0.3C208.2,46,207.8,46.4,207.4,46.6z"/>
<path class="st3" d="M223.6,53.7c0,0,0.1,0,0.2,0.1c0.2,0.4,0.4,0.9,0.5,1.3c0,0.1,0,0.2-0.1,0.3s-0.2,0.1-0.3,0
	c-0.2-0.4-0.4-0.9-0.6-1.3C223.2,53.9,223.4,53.7,223.6,53.7z"/>
<path class="st4" d="M202.4,52.8c-0.1-0.1-0.2-0.2-0.2-0.2c0.1-0.6,0.4-1.2,0.9-1.5c0.1,0,0.3,0.1,0.3,0.3c-0.1,0.5-0.4,1.1-0.8,1.4
	C202.6,52.8,202.5,52.8,202.4,52.8z"/>
<path class="st3" d="M224.5,56.1c0.1,0,0.2,0.1,0.2,0.1c0.2,0.5,0.4,1,0.5,1.4c0,0.1-0.1,0.2-0.1,0.2c-0.1,0-0.3,0-0.3-0.1
	c-0.2-0.4-0.4-0.9-0.5-1.4C224.3,56.4,224.4,56.2,224.5,56.1z"/>
<path class="st3" d="M228.3,68.3c-0.4,0.1-0.4,0.1-0.7-0.4c0-0.3-0.1-0.6-0.1-1c0-0.1,0.1-0.2,0.2-0.2s0.2,0.1,0.3,0.2
	C228.2,67.3,228.4,67.8,228.3,68.3z"/>
<path class="st3" d="M200.9,56l-0.4,1.2c0,0.1-0.1,0.2-0.1,0.2c-0.1,0-0.2,0.1-0.3,0.1c-0.1,0-0.2-0.2-0.1-0.3
	c0.1-0.4,0.3-1,0.5-1.4C200.6,55.8,200.8,55.9,200.9,56z"/>
<path class="st3" d="M212.8,44.5c-0.2,0-0.4,0-0.6,0c-0.1,0-0.2-0.1-0.2-0.2s0.1-0.2,0.2-0.3c0.4-0.1,0.9-0.1,1.4,0
	c0.1,0,0.1,0.2,0.2,0.3c0.1,0.1-0.1,0.2-0.2,0.2C213.3,44.5,213.1,44.5,212.8,44.5L212.8,44.5z"/>
<path class="st3" d="M210.8,44.1c0.1,0.1,0.2,0.2,0.3,0.3c0,0.1,0,0.2-0.1,0.3c-0.4,0.2-0.8,0.3-1.1,0.4c-0.1,0.1-0.3,0-0.3-0.1
	c0,0,0,0,0-0.1s0-0.2,0.1-0.3C210,44.4,210.4,44.3,210.8,44.1z"/>
<path class="st3" d="M227.1,63.9c0.1,0.1,0.2,0.1,0.3,0.2c0.1,0.4,0.3,1,0.4,1.4c0.1,0.8-0.1,0.2-0.1,0.2s-0.3,0-0.3-0.1
	c-0.1-0.4-0.3-1-0.4-1.4C226.8,64,227,63.9,227.1,63.9z"/>
<path class="st4" d="M206.7,47.1c0,0,0,0.2-0.1,0.2c-0.3,0.3-0.6,0.6-0.9,1c-0.1,0.1-0.2,0.1-0.4,0l0,0c0-0.1,0-0.2,0-0.3
	c0.3-0.3,0.6-0.8,1-1.1C206.4,46.8,206.6,46.9,206.7,47.1z"/>
<path class="st3" d="M225.4,58.7c0.1,0.1,0.3,0.1,0.3,0.1c0.2,0.4,0.3,0.9,0.4,1.4c0,0.1-0.1,0.2-0.1,0.2s-0.3,0-0.3-0.1
	c-0.2-0.4-0.3-0.9-0.4-1.4C225.2,58.9,225.3,58.8,225.4,58.7z"/>
<path class="st3" d="M219.2,46.9L219.2,46.9c0.5,0.3,0.9,0.8,1.1,1.3c0,0.1,0,0.1-0.1,0.2c-0.1,0-0.2,0.1-0.2,0.1H220
	c-0.3-0.3-0.6-0.8-0.9-1.1v-0.2C219.1,47.2,219.1,46.9,219.2,46.9z"/>
<path class="st5" d="M109.1,247c-1.8,0-3.6,0-5.3,0H52.5c-0.4,0-0.8,0-1.2,0v-14.6c0-0.2,0-0.4,0-0.8s0-0.4,0-0.6v-10.1
	c0-0.2,0-0.4,0-0.6c0-1.2,0-2.4,0-3.6c0-0.4,0-0.8,0-1.1v-33c0-0.3,0-0.8,0-1.1c0-1.5,0-3.1,0-4.6c0-1.7,0-3.5,0-5.2
	c0-0.8,0-1.6,0-2.4s0-1.7,0.1-2.6c0-0.2,0-0.5,0.1-0.8l1.5-0.1h4.2c1.3,0,2.8,0,4.1,0c0.5,0,0.9,0,1.4,0s0.7,0,1,0h17.6
	c0.3,0,0.7,0,1,0s0.6,0,0.9,0h4.1c0.3,0,0.6,0,0.9,0h0.7h5.8h0.7h0.9h3.9c0.3,0,0.6,0,0.9-0.1s0.8,0.1,1.1,0c1.4,0,2.8,0,4.2,0h1.3
	c1.2,0,2.4,0.8,3.1,1.8c0.4,0.8,0.7,1.6,0.6,2.5c0,4.8,0,9.6,0,14.6c0,0.4,0,0.9,0,1.3s0,0.9,0,1.3v37.9c0,0.4,0,0.8,0,1.1
	s0,0.8,0,1.1c0,4.8,0,9.6,0,14.5c0.1,1.2-0.1,2.4-0.6,3.5v0.1l-0.4,0.3L109.1,247z M64.7,221.5c-0.1-0.3-0.3-0.6-0.6-0.9
	c0-0.1-0.1-0.3-0.2-0.4c-0.3-0.5-0.7-1.2-1-1.7c-0.8-1.5-1.4-3.1-1.8-4.8c-0.4-1.6-0.6-3.2-0.7-4.8c0-0.6,0-1.3,0-2
	c0-1.2,0.1-2.4,0.4-3.5c0.4-2,1.1-4,2.1-5.8c0.3-0.6,0.7-1.3,1-1.9c0.1-0.2,0.1-0.4,0.2-0.6c0.4-0.1,0.6-0.4,0.6-0.9
	c0.4-0.1,0.6-0.4,0.8-0.8c0.1-0.1,0-0.2,0.1-0.5c-0.5,0.4-0.8,0.6-1,1.2c-0.3,0.1-0.5,0.4-0.6,0.9c-0.3,0.2-0.5,0.4-0.6,0.8
	c-0.5,1-1,1.9-1.5,2.9c-1,2.4-1.7,4.8-2,7.4c-0.1,1.7,0,3.4,0.2,5.1c0.2,1.3,0.5,2.6,0.8,3.9c0.6,1.9,1.4,3.6,2.5,5.4
	c0.1,0.2,0.3,0.3,0.5,0.4c0,0.4,0.1,0.8,0.6,0.9c0,0.3,0.1,0.6,0.4,0.9c0.1,0,0.2,0.1,0.3,0.1C65.1,222,64.9,221.7,64.7,221.5z
	 M68.5,190.3c-0.5,0-0.8,0.3-1,0.6c0.1,0.1,0.3,0.1,0.4,0l0,0C68.1,190.8,68.3,190.5,68.5,190.3c0.4-0.1,0.7-0.3,0.8-0.6
	c0.1,0,0.3-0.1,0.4-0.2c1.8-1.3,3.9-2.2,6-2.9c1.1-0.3,2.4-0.5,3.6-0.8c2-0.1,3.8,0,5.8,0.2c1.1,0.2,2.3,0.5,3.4,0.9
	c1.5,0.5,3.1,1.3,4.4,2.2c0.2,0.2,0.6,0.3,0.9,0.3c0.3,0.6,0.8,1.1,1.5,1.2c0,0.1,0,0.3,0.1,0.3c0.7,0.8,1.4,1.5,2.3,2.2
	c0,0,0,0,0.1,0c0.1-0.2,0-0.4-0.1-0.5c-0.6-0.6-1.2-1.3-1.8-1.9c-0.1-0.1-0.3-0.1-0.4-0.2c-0.4-0.5-0.9-1-1.5-1.2
	c-0.1-0.1-0.2-0.2-0.3-0.3c-2-1.5-4.2-2.5-6.6-3.1c-1-0.3-2-0.4-3-0.5c-1.8-0.1-3.7-0.1-5.4,0.1c-1,0.2-2.2,0.4-3.2,0.8
	c-0.9,0.3-1.8,0.6-2.6,1.1c-1,0.5-2.1,1.1-3,1.7c-0.1,0.1-0.2,0.3-0.3,0.5C68.8,189.8,68.5,189.9,68.5,190.3z M98,222.3
	c0.5-0.4,1-1.1,1.3-1.7c1-1.5,1.8-3.2,2.5-4.9c0.7-1.9,1.1-4,1.2-6c0-0.1,0-0.2,0-0.4c0.2-0.5,0.2-1.1,0.1-1.7
	c-0.2-1.1-0.1-2-0.3-3.1c-0.2-1.2-0.4-2.2-0.7-3.4c-0.6-1.9-1.4-3.8-2.5-5.5c-0.3-0.5-0.7-1.1-1.1-1.6c-0.1-0.1-0.2-0.3-0.4-0.1
	c0,0.1,0.1,0.2,0.1,0.2c1.3,1.6,2.4,3.4,3.1,5.5c0.8,2,1.3,4.2,1.4,6.4c0,0.2,0,0.3,0.1,0.5c0,0.3,0.1,0.8,0.1,1.1
	c0,0.6,0,1.3-0.1,1.9c-0.2,0.6-0.1,1.4-0.2,2c-0.3,2-0.9,4.1-1.8,5.9c-0.6,1.4-1.4,2.8-2.4,4C98.1,221.7,98,222,98,222.3
	c-0.2,0.1-0.3,0.2-0.5,0.3c-0.6,0.6-1.3,1.3-2,2c-0.1,0.1-0.2,0.3-0.2,0.5c-0.3,0-0.6,0.1-0.8,0.3c-1,0.9-2.1,1.5-3.2,2.1
	c-1.5,0.8-3.2,1.4-4.8,1.8c-0.8,0.2-1.7,0.4-2.6,0.4c-1.8,0.1-3.8,0.1-5.7-0.1c-1-0.2-2.1-0.4-3-0.6c-1.3-0.4-2.7-1.1-4-1.7
	c-0.8-0.4-1.7-1-2.4-1.5c-0.2-0.1-0.3-0.2-0.5-0.2c-0.2-0.2-0.4-0.4-0.6-0.6c-0.1-0.1-0.2-0.1-0.3-0.1c0,0,0,0-0.1,0.1
	c0.1,0.4,0.5,0.6,0.9,0.6c0,0.3,0.2,0.5,0.5,0.8c0.9,0.6,1.8,1.2,2.8,1.7c1.3,0.8,2.8,1.3,4.3,1.7c1,0.3,2.1,0.5,3.2,0.6
	c1.8,0.1,3.6,0.1,5.4-0.1c1.1-0.1,2.3-0.3,3.4-0.6c2.1-0.6,4-1.6,5.8-2.9c0.6-0.3,1.1-0.8,1.5-1.4c0.2-0.1,0.3-0.1,0.5-0.2
	c0.7-0.6,1.3-1.3,2-2C97.9,222.7,98,222.5,98,222.3z M98,203.1c-0.1-1.2-0.5-2.2-1.1-3.2c0-0.1-0.1-0.2-0.1-0.4
	c-0.6-1.2-1.3-2.2-2.2-3.2c-1-1.3-2.2-2.4-3.5-3.2l-0.6-0.4c-2.3-1.5-4.9-2.4-7.6-2.6c-1.7-0.1-3.3,0-4.9,0.4
	c-1.5,0.3-3,0.9-4.3,1.7c-0.2,0.1-0.5,0.3-0.7,0.5c-0.2,0-0.5,0.1-0.7,0.2c-1.4,1-2.8,2.2-3.9,3.6c-1.1,1.4-2.1,3-2.8,4.6
	c-0.4,1.1-0.7,2.1-0.9,3.2c-0.2,1-0.3,2-0.4,3.1c0,0.8,0,1.5,0.1,2.2s0.2,1.6,0.3,2.4c0.4,1.6,0.9,3.1,1.8,4.5
	c0.6,1.2,1.3,2.4,2.3,3.3c1.8,2,3.9,3.6,6.3,4.6c1.7,0.8,3.4,1.2,5.2,1.3c1.8,0.1,3.7,0,5.6-0.4c1.7-0.4,3.3-1.2,4.7-2
	c2-1.3,3.7-2.9,5-4.8c1.2-1.7,2.2-3.8,2.7-5.8c0.4-1.7,0.6-3.4,0.6-5.1c0-0.2,0-0.4,0-0.6c0-0.9-0.1-1.6-0.3-2.5
	C98.4,203.9,98.2,203.4,98,203.1L98,203.1z M93,240c-0.4,0-0.7,0-1,0H71.3c-0.3,0-0.6,0-0.8,0c-0.2,0-0.3,0.2-0.3,0.4
	c0,0.2,0.1,0.4,0.3,0.5c0.3,0,0.6,0,0.8,0h20.6c0.3,0,0.6,0,0.8,0c0.1,0,0.2-0.1,0.3-0.1L93,240z M94.9,176.1l0.7-0.1
	c0.3-0.1,0.6,0.1,0.7,0.4c0.1,0.1,0.1,0.3,0.2,0.4l0.9,1.7h0.7c0.2,0,0.3,0,0.4-0.2c-0.5-0.9-0.9-1.7-1.3-2.6
	c0.2-0.2,0.4-0.4,0.6-0.6s0.2-0.2,0.3-0.4c0.1-0.6,0.1-1.3-0.1-1.9c-0.1-0.2-0.3-0.4-0.5-0.6c-0.5-0.3-1-0.4-1.5-0.4
	c-0.8-0.1-1.7-0.1-2.4,0c-0.1,0.9,0,1.6,0,2.4s0,1.5,0,2.2s0,1.5,0,2.2c0.3,0.2,0.8,0.1,1.1-0.1v-1.1
	C94.9,177,94.9,176.6,94.9,176.1L94.9,176.1z M92.6,175.2L92.6,175.2c0-0.3,0-0.6,0-1c-0.1-1.1-0.8-2-1.8-2.4
	c-1.4-0.5-3,0.3-3.5,1.7c-0.1,0.3-0.1,0.5-0.1,0.9c0,0.5,0,1.2,0,1.7c0,0.8,0.4,1.5,0.9,2c0.7,0.6,1.8,0.9,2.8,0.4
	c1-0.3,1.7-1.3,1.8-2.5C92.7,175.8,92.7,175.5,92.6,175.2L92.6,175.2z M75.7,176.6c-0.2,0.6,0.2,1.4,0.8,1.7
	c0.8,0.4,1.8,0.5,2.7,0.3c0.6-0.1,1-0.5,1.2-1.2c0.3-0.9-0.1-1.9-0.9-2.2c-0.4-0.2-0.8-0.4-1.2-0.5l-0.9-0.3
	c-0.4-0.2-0.5-0.8-0.3-1.2c0.1-0.1,0.1-0.2,0.3-0.3c0.6-0.4,1.4-0.2,1.8,0.4c0.1,0.1,0.2,0.3,0.3,0.5l0.8-0.1
	c0.2-0.4,0.1-0.9-0.2-1.2c-0.9-1.2-2.7-1.4-3.8-0.3c-0.1,0.1-0.2,0.1-0.2,0.2c-0.5,0.6-0.5,1.5,0,2.1c0.3,0.4,0.7,0.8,1.2,0.9
	c0.5,0.2,1,0.4,1.5,0.8c0.3,0.1,0.4,0.5,0.3,0.9s-0.3,0.5-0.7,0.6c-0.3,0-0.6,0-0.8,0c-0.4-0.1-0.8-0.2-0.9-0.8
	c-0.1-0.5-0.4-0.4-0.7-0.4C75.9,176.6,75.8,176.6,75.7,176.6z M70.1,176.6c-0.2,0.8,0.1,1.5,0.7,1.8c0.8,0.4,1.8,0.5,2.7,0.3
	c0.6-0.1,1.1-0.6,1.2-1.4c0.2-0.9-0.2-1.7-0.9-2c-0.4-0.2-0.8-0.4-1.2-0.5l-0.8-0.3c-0.3-0.1-0.5-0.4-0.4-0.9c0-0.3,0.2-0.5,0.5-0.6
	c0.6-0.3,1.3-0.2,1.8,0.4c0.1,0.2,0.2,0.4,0.3,0.6l0.9-0.1c0-0.2,0-0.4,0-0.6c-0.3-0.9-1-1.4-1.8-1.5c-0.2,0-0.5,0-0.8,0
	c-0.6,0-1.2,0.3-1.7,0.8s-0.3,1-0.3,1.4c0,0.3,0.1,0.6,0.3,0.9c0.3,0.3,0.7,0.6,1.1,0.8c0.2,0.1,0.5,0.1,0.7,0.2
	c0.4,0.1,0.7,0.3,1,0.5s0.4,0.6,0.2,1.1c-0.1,0.1-0.3,0.3-0.4,0.3c-0.4,0.1-0.9,0.1-1.3,0s-0.5-0.5-0.7-0.9c0-0.1-0.1-0.1-0.1-0.2
	L70.1,176.6z M66.1,171.8c-0.1,0.1-0.1,0.2-0.2,0.3c-0.7,2-1.4,4-2.2,6c0,0.2,0,0.4,0,0.6c0.3,0.1,0.7,0.1,1,0l0.6-1.5
	c0.8-0.1,1.7-0.1,2.4,0c0.3,0.5,0.3,1.1,0.7,1.5c0.2,0,0.4,0,0.6,0s0.2-0.1,0.3-0.1c0-0.1,0-0.3-0.1-0.4c-0.4-1.3-0.9-2.6-1.4-4
	c-0.2-0.6-0.4-1.2-0.6-1.7c-0.1-0.4-0.5-0.9-0.9-0.8C66.3,171.6,66.2,171.6,66.1,171.8L66.1,171.8z M82.6,178.6c0-0.6,0-1.2,0-1.7
	c0-0.2,0.1-0.4,0.1-0.8h1c0.3,0,0.6,0,0.8,0c1-0.1,1.8-1,1.8-2c0.1-1.1-0.6-1.9-1.7-2.2c-0.9-0.2-2-0.3-2.9-0.2
	c-0.3,0-0.5,0.2-0.5,0.5c0,0.1,0,0.2,0,0.3v5.6c0,0.1,0,0.3,0.1,0.4C81.8,178.7,82.3,178.7,82.6,178.6L82.6,178.6z M60.2,176.1
	c0.6,0,1.1,0,1.8,0c0.7,0,1.4-0.4,1.8-1.2c0.1-0.4,0.1-0.8,0.1-1.2c0-0.9-0.6-1.7-1.5-1.8c-0.2,0-0.5-0.1-0.7-0.1
	c-0.8-0.1-1.7-0.1-2.5,0c-0.1,0.5-0.1,1.2-0.1,1.7c0,0.5,0,1.2,0,1.7c0,0.5,0,1.2,0,1.7c0,0.5,0,1.2,0.1,1.7c0.3,0.2,0.7,0.1,1-0.1
	C60.2,177.8,60,176.9,60.2,176.1L60.2,176.1z M102,173l0.3-0.1h0.6c0.2,0,0.4,0,0.7,0s0.5-0.2,0.5-0.5v-0.1c0-0.3-0.2-0.5-0.5-0.5
	h-4.2c-0.1,0-0.3,0-0.4,0c-0.2,0.6-0.2,0.6,0.1,1.1c0.6,0.1,1.2-0.1,1.8,0.2c0.1,0.6,0.1,1.3,0.1,1.9s0,1.2,0,1.8s0,1.3,0.1,1.9
	c0.3,0.2,0.7,0.1,1.1-0.1C102.1,176.7,102,174.9,102,173L102,173z M81.4,238.4h3.9c0.2,0,0.4,0,0.7,0c0.2,0,0.4-0.2,0.4-0.4
	c0.1-0.2-0.1-0.5-0.3-0.5c-0.3-0.1-0.6-0.1-0.9-0.1h-7.6c-0.2,0-0.4,0-0.6,0c-0.2,0.1-0.3,0.1-0.5,0.3c-0.2,0.2-0.2,0.4-0.1,0.6
	c0.1,0.1,0.2,0.1,0.3,0.2c0.2,0,0.4,0,0.7,0L81.4,238.4z M67.2,224.5c-0.2-0.2-0.3-0.4-0.5-0.6c-0.4-0.4-0.7-0.8-1.1-1.2
	c0,0.2,0,0.4,0,0.4c0.4,0.4,0.8,0.9,1.2,1.3C66.9,224.5,67,224.5,67.2,224.5L67.2,224.5z M65.9,192.6c0.5-0.2,0.9-0.6,1.2-1.1
	c-0.2,0-0.3,0-0.4,0C66.3,191.8,66,192.2,65.9,192.6z"/>
<path class="st6" d="M95.5,165.8h-0.7h-5.8h-0.7c0-0.1-0.1-0.2-0.1-0.4c-0.7-2.8-1.4-5.6-2.2-8.4s-1.3-5.5-2.1-8.2c-0.5-2-1-4-1.5-6
	c-0.1-0.3-0.2-0.5-0.3-0.9c-0.3,0-0.5,0-0.8,0.1c-0.6,0.1-1.3,0.3-2,0.5l-2.2,0.6c-0.5,0.1-0.6,0.4-0.5,1c0.1,0.3,0.2,0.6,0.3,1.1
	c0.4,1.6,0.8,3.3,1.2,4.9c0.6,2.4,1.2,4.7,1.8,7.1c0.6,2.1,1.1,4.4,1.7,6.5c0.2,0.6,0.3,1.4,0.4,2c-0.3,0-0.7,0-1,0H63.7
	c-0.3,0-0.7,0-1,0c0-0.1,0-0.2,0-0.4c-0.7-2.9-1.5-5.8-2.3-8.6s-1.5-6-2.3-9c-0.7-2.8-1.4-5.6-2.2-8.5c-0.1-0.3-0.2-0.5-0.2-0.9
	c0.6-0.3,1.2-0.5,2-0.6c2.3-0.6,4.5-1.3,6.8-1.9c1.7-0.4,3.2-0.9,4.8-1.3l6.8-1.9l4.7-1.3l6.9-1.9c1.2-0.3,2.5-0.6,3.7-1.1
	c1.2-0.4,2.4-0.6,3.6-1c0.4-0.1,0.7-0.1,1.1-0.1c0.5,0,0.9,0.3,1,0.9c0.3,1.2,0.6,2.2,0.9,3.3c0.6,2.5,1.2,4.8,1.8,7.3
	c0.4,1.7,0.8,3.3,1.2,5c0,0.1,0.1,0.2,0.2,0.3c0.1,0.5,0.2,1,0.3,1.5c0.3,1.5,0.7,2.9,1.1,4.4c0.2,0.8,0.4,1.5,0.7,2.2l0.4,2.1
	l0.6,2.2l2.3,8.9c-1.4,0-2.8,0-4.2,0c-0.4,0-0.8,0-1.1,0c0-0.3-0.1-0.6-0.1-1c-0.5-2-1-4-1.5-6c-0.4-1.7-0.8-3.4-1.2-5.2
	c-0.6-2.2-1.2-4.6-1.8-7c-0.6-2.4-1.2-4.7-1.8-7.1c-0.1-0.3-0.2-0.6-0.3-1c-1.1,0.2-2.2,0.4-3.2,0.9c-0.8,0.1-1.5,0.3-2.3,0.8
	c0,0.1,0,0.2,0,0.2c0.6,2.4,1.2,4.7,1.8,7.1c0.6,2.5,1.2,5,1.8,7.5c0.5,2,1,4,1.5,6C94.7,162.4,95,164.1,95.5,165.8z M69.4,155.8
	c0.3,0.3,0.7,0.5,1.1,0.4c0.1-0.1,0.2-0.2,0.2-0.3c0.1-0.5,0.5-1,1-1.1c0.4-0.1,0.7-0.3,1-0.5c0.1-0.1,0.2-0.2,0.3-0.4
	c-0.7-0.1-1.3-0.2-2.1-0.2c-0.7-0.1-1.3-0.2-2.1-0.3c0-0.1-0.1-0.2-0.1-0.3c0-1.2,0-2.4-0.2-3.5v-0.1c0-0.3,0.1-0.6,0.4-0.9
	c0.2-0.1,0.3-0.2,0.5-0.3c0.1-0.1,0.1-0.2,0.1-0.3s-0.1-0.2-0.2-0.2c-0.1-0.1-0.3-0.1-0.4-0.1c-0.2,0-0.4-0.1-0.6-0.2
	c-0.6-0.5-1.4-0.8-2.1-1.3c-0.1-0.1-0.2-0.2-0.4-0.2c-0.1,0-0.3-0.1-0.4-0.1c0.1,0.3,0.2,0.5,0.4,0.9c0.3,0.5,0.7,1.1,1,1.5
	c0.2,0.3,0.3,0.6,0.3,1.1c0,0.8,0,1.4,0,2.1c0,0.4-0.1,0.9-0.3,1.2c-0.3-0.2-0.6-0.4-0.8-0.6l-3.5-3c-0.1-0.1-0.2-0.2-0.3-0.2
	c-0.1,0-0.2,0-0.3,0.1c-0.1,0.1-0.1,0.2,0,0.3c0.2,0.3,0.4,0.6,0.6,0.9c0.7,1,1.4,1.8,2.3,2.8c0.4,0.4,0.6,1.1,0.6,1.6
	c0,0.1,0,0.3,0.1,0.4l0.9,0.2c0.2,0,0.3,0.2,0.4,0.4s0.1,0.5,0.1,0.8c-0.2,1.1-0.2,2-0.1,3.1c0,0.5,0.3,1.1,0.7,1.3
	c0.6-0.1,1.1-0.8,1-1.4c0-0.8,0-1.5,0-2.2c0-0.4,0.2-0.9,0.6-1L69.4,155.8z M80.4,163.9c0-0.3,0-0.5-0.1-0.9
	c-0.2-0.9-0.4-1.8-0.7-2.7c-0.5-1.9-0.9-3.9-1.4-5.8c-0.6-2.4-1.2-4.7-1.8-7.2c-0.2-1.1-0.5-2-0.8-3.1c-0.1-0.2-0.2-0.4-0.3-0.6
	c-0.4,0-0.7,0.2-1,0.4c0,0.2,0.1,0.5,0.1,0.8c0.2,0.9,0.4,1.8,0.7,2.7c0.5,1.9,0.9,3.8,1.4,5.7c0.6,2.4,1.2,4.7,1.8,7.2
	c0.3,1.1,0.5,2.1,0.8,3.2c0.1,0.2,0.2,0.3,0.3,0.5L80.4,163.9z M86.5,140.6c-0.1,0.6-0.1,1.2,0.2,1.7c0.8,3.3,1.8,6.6,2.6,10.1
	c0.6,2.5,1.2,4.9,1.8,7.5c0.2,1.1,0.4,1.1,1.3,0.6l0.1-0.1c0.1-0.3,0-0.6-0.1-1c-0.3-1.3-0.7-2.6-1-3.9c-0.4-1.6-0.8-3.3-1.2-4.9
	c-0.8-3.2-1.7-6.4-2.5-9.5c-0.1-0.2-0.2-0.4-0.3-0.8L86.5,140.6z"/>
<path class="st7" d="M150.6,114c0.2,0,0.4-0.1,0.6-0.1l1.6-0.5c0.1,0,0.2-0.2,0.2-0.3c0,0,0,0,0-0.1c0.6-0.1,0.9-0.6,1.3-1.1
	c0.7-0.9,1.3-1.7,2.1-2.5s1.3-1.5,2-2.2c0.7-1,1.4-1.9,2.3-2.8l0.3-0.3c0.6-0.8,1.2-1.6,2-2.4c0.8-1,1.6-1.9,2.4-2.9
	c0.6-0.6,1.4-1,2.4-1c0.1,0,0.1,0.1,0.2,0.1c0,0.1,0,0.4,0,0.5c-0.8,1.8-1.4,3.6-2.3,5.5c-0.1,0.2-0.4,0.3-0.5,0.5
	c-0.5,1.3-1,2.6-1.6,3.9c-0.4,1-0.9,1.9-1.4,3c-0.3,0.9-0.8,1.7-1.4,2.5l-0.4,0.5c-0.8,0.8-1.9,1.2-2.8,1.6
	c-4.3,1.8-8.5,3.6-12.9,5.5c-0.5,0.2-1.2,0.2-1.8,0.2c-2.2-0.2-4.3-0.4-6.5-0.5c-0.4,0-0.8,0-1.2,0c-1.8,2-3.8,3.8-6.1,5
	c-0.1,0.1-0.2,0.2-0.2,0.3l-2.7-0.2c-0.1,0-0.2-0.2-0.4-0.3c0-0.3,0.1-0.6,0.1-0.9c0-0.3-0.1-0.6-0.3-0.9c-0.6-0.8-1.4-1.3-2.5-1.4
	c0-0.4,0-1-0.1-1.4c-0.7-0.2-1.3-0.4-2.1-0.6c-0.8-0.2-1.7-0.2-2.5-0.4c-1.1-0.3-2.3-0.4-3.4-0.3l-2.3,0.1l-0.8,0.3
	c-0.1,0.5-0.1,1.1-0.2,1.5c-0.1,1-0.2,1.9-0.3,2.9h-1c-0.4,0-0.9,0-1.3,0c-0.5-0.1-1.1-0.2-1.8-0.1c-0.3,0-0.6-0.1-0.9-0.1
	c-0.2,0-0.4,0-0.6-0.1c-0.7,0-1.3,0-2.1-0.2c-0.1,0-0.3,0-0.4,0l-2.1-0.2c-1,0-2.1-0.3-3.2-0.2c-0.6-0.1-1.3-0.2-2-0.2
	c-0.8-0.2-1.8,0-2.7-0.3c-0.2,0-0.4,0-0.7,0s-0.6-0.1-0.9-0.1c-0.1,0-0.2-0.1-0.4-0.1c-1.2,0-2.6-0.2-3.8-0.4
	c-0.7-0.1-1.5-0.3-2.3-0.6c-1.8-0.6-3.5-1.5-5.2-2.4c-1.1-0.6-2.3-1.4-3.2-2.5c-0.5-0.5-0.7-1.4-0.3-2c0.3-0.5,0.8-1.1,1.3-1.4
	c1-0.8,4.1-2,3.5-1.4c0.5,0,0.7,0.1,1.2,0.1 M85.7,112.6c0.4-0.1,0.9,0.2,1.4-0.5c0.1-0.4,0.1-1,0-1.4c-0.7-0.1-1.3-0.1-2-0.2
	c-0.2,0-0.4,0-0.5-0.1c-0.1,0-0.3-0.1-0.4-0.2c0.3-0.3,0.6-0.5,0.9-0.6c0.9-0.5,2-0.9,3-1.1c0.8-0.2,1.7-0.3,2.6-0.4
	c1.1-0.1,2.2-0.2,3.3-0.1c0.4,0,0.7,0.1,1.1,0.1l0.8,0.1c0.6,0,1.2,0,1.8,0.2c1.2-0.1,2.4,0.3,3.6,0.2l2.1,0.2
	c1,0.1,2.2,0.2,3.2,0.2c0.7,0.2,1.5,0.2,2.3,0.2c0.1,0,0.2,0,0.3,0c0.5,0.2,1,0.2,1.5,0.2c0.6,0,1.1,0.1,1.8,0.2
	c0.6,0,1.1-0.1,1.8-0.2c0,0.2,0.2,0.4,0.4,0.4l0,0c0.5-0.1,1.1-0.1,1.7,0s1,0.1,1.7,0.1c0.2,0,0.4,0,0.7,0c0.6,0.1,1.2,0.2,1.8,0.2
	c0.2,0,0.5,0,0.8,0c0.5,0.1,1,0.2,1.5,0.1c0.2,0,0.5,0,0.7,0c0.5,0.1,1,0.2,1.7,0.1c0.2,0,0.4,0,0.7,0c0.5,0.1,1.1,0.2,1.8,0.1
	c0.2,0,0.4,0,0.7,0c0.4,0.1,0.9,0.2,1.4,0.1c0.3,0,0.6,0,0.8,0c0.5,0.1,1,0.2,1.6,0.1c0.2,0,0.4,0,0.7,0c0.5,0.1,1.1,0.2,1.8,0.2
	c0.2,0,0.4,0,0.6,0c1,0.2,2,0.3,3,0.3c0.7,0.1,1.5,0.1,2.3,0.2l-1,2.6l-0.4,1l-0.5,0.1l-2.7,0.3c-0.7,0.1-1.4,0.1-2.1,0.2l-2.9,0.4
	c0-0.2,0-0.4,0-0.6c0-0.3-0.2-0.5-0.5-0.6c-0.3,0-0.6,0.2-0.6,0.6l0,0c0,0.2,0,0.5,0,0.8c-0.4,0.1-0.9,0.1-1.4,0.1
	c-0.1,0-0.3-0.1-0.4-0.1c0.1-0.3,0-0.8,0-1.1s-0.2-0.4-0.4-0.5c-0.3-0.1-0.6,0.1-0.6,0.4l0,0c0,0.4,0,0.8,0,1.2
	c0,0.1-0.2,0.3-0.3,0.3c-0.5,0.1-1,0.2-1.7,0.2c-1.1,0.1-2.3,0.3-3.3,0.4c-0.6,0.1-1.2,0.2-1.8,0.3c-0.4,0.1-0.5,0.4-0.2,0.9
	c0.1,0.1,0.1,0.1,0.2,0.2c0.7,0.4,1.5,0.6,2.4,0.4c0.6-0.1,1.2-0.2,1.8-0.3l4.1-0.8c1.3-0.2,2.7-0.4,4-0.6c1.8-0.3,3.5-0.6,5.2-1
	c2.2-0.4,4.2-0.6,6.4-1.1 M105.2,114.1c0-0.2,0-0.4-0.1-0.5c0-0.2-0.2-0.4-0.4-0.4c-0.3,0-0.5,0.1-0.6,0.4c-0.1,0.3-0.1,0.8-0.1,1.1
	c0,0.2,0.2,0.4,0.4,0.4c0.3,0,0.5-0.1,0.6-0.3c0.1-0.2,0.1-0.5,0.1-0.8L105.2,114.1z M119.4,115.3c0-0.2-0.1-0.4-0.1-0.5
	c0-0.2-0.2-0.3-0.4-0.3c-0.2,0-0.4,0.1-0.5,0.2c-0.2,0.4-0.3,0.9-0.1,1.3c0.1,0.2,0.3,0.4,0.5,0.4s0.3-0.1,0.4-0.3
	c0.1-0.3,0.2-0.6,0.2-0.9L119.4,115.3L119.4,115.3z M115.3,115.3c0,0.1,0,0.2,0,0.4c0,0.2,0.2,0.4,0.4,0.4c0.2,0.1,0.5-0.1,0.6-0.3
	c0.1-0.4,0.1-0.8,0.1-1.2c0-0.3-0.3-0.4-0.5-0.4c-0.2,0-0.4,0.2-0.5,0.4c0,0.2-0.1,0.3-0.1,0.5L115.3,115.3L115.3,115.3z
	 M106.8,114.3c0,0.2,0,0.3,0,0.4c0,0.3,0.3,0.5,0.5,0.5c0.3,0,0.5-0.2,0.5-0.4c0.1-0.3,0.1-0.6,0.1-1s-0.2-0.5-0.5-0.5
	c-0.3,0-0.5,0.2-0.6,0.4c0,0.1-0.1,0.3-0.1,0.4L106.8,114.3z M122.2,115.5c0-0.1,0-0.2,0-0.4s-0.2-0.4-0.4-0.4
	c-0.3-0.1-0.5,0.1-0.6,0.4c-0.1,0.3-0.1,0.8-0.1,1.1s0.2,0.5,0.5,0.5s0.5-0.1,0.6-0.4c0-0.3,0-0.5,0.1-0.9L122.2,115.5z M94.6,113.2
	c0,0.1,0,0.3,0,0.4c0,0.3,0.2,0.5,0.5,0.5c0.3,0,0.5-0.1,0.6-0.4c0.1-0.3,0.1-0.8,0.1-1.1s-0.3-0.5-0.6-0.4c-0.2,0-0.3,0.2-0.4,0.3
	c0,0.2-0.1,0.3-0.1,0.5L94.6,113.2z M125.1,115.8c0-0.1,0-0.2,0-0.3c0-0.3-0.2-0.5-0.5-0.5c-0.3,0-0.5,0.1-0.6,0.4
	c-0.1,0.3-0.1,0.8-0.1,1.1s0.2,0.5,0.5,0.5c0.3,0,0.5-0.2,0.6-0.4C125,116.4,125.1,116,125.1,115.8L125.1,115.8z M101.1,113.9
	c0,0.1,0,0.3,0,0.4c0,0.3,0.2,0.5,0.5,0.5s0.5-0.1,0.6-0.4c0.1-0.3,0.1-0.8,0.1-1.1s-0.3-0.5-0.6-0.4c-0.2,0-0.3,0.2-0.4,0.3
	c0,0.1-0.1,0.3-0.1,0.4L101.1,113.9z M99.3,113.6c0-0.1,0-0.2,0-0.3c0-0.3-0.2-0.5-0.5-0.5l0,0c-0.3,0-0.5,0.2-0.6,0.5
	c0,0.3,0,0.6,0,0.9c0,0.3,0.2,0.5,0.4,0.5c0.3,0,0.5-0.2,0.6-0.4C99.2,114,99.2,113.8,99.3,113.6L99.3,113.6L99.3,113.6z
	 M110.8,114.6c0-0.2,0-0.3,0-0.4c0-0.3-0.3-0.5-0.6-0.5c-0.2,0-0.4,0.2-0.5,0.4c0,0.3-0.1,0.6-0.1,1s0.2,0.5,0.5,0.5
	s0.5-0.1,0.6-0.4c0.1-0.3,0.1-0.5,0.1-0.6V114.6z M112.5,114.9c0,0.2,0,0.3,0,0.4c0,0.3,0.2,0.5,0.5,0.6c0.3,0,0.5-0.2,0.6-0.5
	c0-0.3,0-0.6,0-1s-0.3-0.4-0.5-0.4s-0.4,0.1-0.5,0.4c0,0.1,0,0.3,0,0.4L112.5,114.9L112.5,114.9z"/>
<path class="st8" d="M55.7,138.4c0.1,0.3,0.2,0.5,0.2,0.9c0.7,2.8,1.4,5.6,2.2,8.5c0.7,3,1.5,6,2.3,9s1.5,5.7,2.3,8.6
	c0,0.1,0,0.2,0,0.4c-0.5,0-0.9,0-1.4,0c-1.3,0-2.8,0-4.1,0c-0.4-1.5-0.7-2.9-1.1-4.4c-0.5-1.8-0.9-3.6-1.4-5.5
	c-0.9-3.6-1.8-7.4-2.9-11c-0.3-1.2-0.6-2.4-0.8-3.4c-0.2-0.8,0.1-1.5,0.8-1.8c0.3-0.1,0.6-0.2,0.9-0.3l2.6-0.8
	C55.4,138.5,55.5,138.5,55.7,138.4z"/>
<path class="st9" d="M202.6,178.5c-0.3-0.3-0.6-0.8-1-1.1c-0.9-1-1.8-1.9-2.4-3.1c-0.3-0.3-0.4-0.8-0.3-1.2c0.5-0.4,1.2-0.8,1.9-0.9
	c0.8,0.2,1.6,0.4,2.5,0.8c1.4,0.5,2.8,1.1,4.2,1.7c0.1,0.1,0.3,0.1,0.4,0.2c0.4,0.2,0.8,0,1-0.4l0,0c0.4-0.8,0.7-1.6,0.9-2.6
	c0.4-1.9,0.9-3.9,1.3-5.8c0.1-0.3,0.2-0.8,0.3-1.1c0.2-0.9,0.7-1.6,1.3-2.1c1.3-1.3,3-2,4.7-2.2c0,0.2,0,0.5,0,0.8
	c-0.1,0.5,0.3,1,0.7,1.1c0,0,0.1,0,0.2,0c0.5,0,1,0,1.6-0.1c0.7-0.1,1.3-0.2,1.9-0.6c0.5-0.4,1-1,0.8-1.7c1.2,0,2.4,0.1,3.6,0.4
	c1.1,0.3,2.3,1,3.1,1.8c0.4,0.4,0.8,1,1.2,1.5c0,0.1,0.4,0.4,0.5,0.4c1,1.9,1.8,3.8,2.3,5.9c0.5,1.9,1,3.8,1.5,5.7
	c0.4,1.3,0.9,2.5,1.6,3.6c1.1,2.2,2.3,4.6,3.3,7c0.4,1,0.8,1.8,1.1,2.7c0.1,0.3,0.3,0.8,0.3,1.2c-0.7,0.3-1.9,0.5-2.6,0.5
	c-0.3-0.1-0.2-0.4-0.4-0.6c-0.4-0.3-0.7-0.6-0.8-0.8c-0.2-0.2-0.7-0.3-0.9-0.6c-1.5-1.6-3.1-3.2-4.6-4.8c-0.1-0.1-0.3-0.2-0.4-0.3
	c-0.2-0.3-0.3-0.8-0.5-1.1c-0.9-1.8-1.8-3.6-2.5-5.6c-0.1-0.2-0.2-0.5-0.3-0.8c-0.1-0.2-0.2-0.4-0.4-0.8c-0.2,0.2-0.3,0.3-0.4,0.5
	c-0.3,0.8-0.5,1.6-0.5,2.5v3.8c0,0.4,0,0.9,0.1,1.3c0,0.4,0,1,0,1.4c0,0.2-0.1,0.4-0.1,0.6c0,1.4-0.5,2.7-1.3,3.6
	c-0.5,0.6-0.9,1.5-1,2.4c-0.2,1.1,0,2.1,0.5,3.1c0.1,0.2,0.2,0.5,0.3,0.9c-0.2,0.1-0.4,0-0.7,0c-0.9,0-1.9,0-2.8-0.1
	c-1.3-0.1-2.6-0.4-3.9-0.8l-1.5-0.4c-0.1-0.1-0.3-0.2-0.4-0.2c-1.4-0.5-2.9-1.2-4.2-1.9c-0.2-0.1-0.4-0.1-0.6-0.2
	c-0.6-1.2-0.8-2.6-0.5-3.9c0.2-1.2,0.5-2.5,0.8-3.6c0.3-1.1,0.6-2.2,0.9-3.3c0.1-0.1,0-0.3-0.1-0.4c0.2-0.3,0.3-0.6,0.4-1.1
	c0.1-1,0.3-1.8,0.4-2.8l0.5-2.9c-0.1,0-0.1,0-0.1,0c-0.1,0-0.2,0.1-0.2,0.1c-1,1.1-1.8,2.4-2.2,3.9c-0.2,0.8-0.3,1.4-0.6,2.1
	c-0.1,0.6-0.6,1.1-1.2,1.2l-1.1,0.2c-0.1,0-0.2,0.1-0.3,0.1c-1.5-0.4-3.1-1.2-4.4-2.1L202.6,178.5z"/>
<path class="st10" d="M244.8,191.5c0.5-0.1,1-0.1,1.5,0c0,0.1,0,0.2,0,0.4V240c-0.6,0.9-0.8,1.9-0.7,3c0,0.2,0,0.3,0,0.5H245h-4.1
	l-0.6-0.1c0-0.4,0-1,0-1.4v-48.7c0-0.4,0-0.9,0-1.3c0.4,0.2,0.7,0.4,1.1,0.6s0.4,0.3,0.7,0.1l-0.2-0.8c0.3-0.1,0.6,0,0.8,0.2
	c0.4,0.3,0.7,0.6,1.1,1c0.2,0.2,0.6,0.3,0.8,0.1c0.1-0.1,0.2-0.3,0.2-0.5C244.7,192.3,244.7,191.9,244.8,191.5z"/>
<path class="st10" d="M253.6,202.4c0,0.3-0.1,0.6-0.1,1c0,6.4,0,12.9,0,19.2c0,0.3,0,0.6,0,0.9v3.6c0,0.2,0,0.4,0,0.6
	c0,2.8,0,5.5,0,8.2c0,0.2,0,0.4,0,0.6l-0.1,1.7l-0.9,0.1c-1,0-2,0-3-0.1c-0.8,0-1.6,0.1-2.4,0.5c0-0.5,0-1,0-1.5
	c0-14.9,0-29.9,0-44.8v-1.3c0.6,0,1.3,0,2,0.1l1.3,0.5c0.6,0.4,1.2,1,1.8,1.5c0.2,0.3,0.5,0.6,0.7,1c0.1,0.3,0.3,0.8,0.4,1.1
	c0.1,0.6,0.2,1.3,0.3,2v1C253.6,199.9,253.6,201.2,253.6,202.4z"/>
<path class="st11" d="M247,191.4l0.2,0.1v1.3c0,14.9,0,29.9,0,44.8c0,0.5,0,1,0,1.5l-1,0.9v-48c0-0.1,0-0.2,0-0.4L247,191.4z"/>
<path class="st12" d="M246.2,240l1-0.9c0.7-0.3,1.5-0.5,2.4-0.5c1,0,2,0,3,0.1c0,0.4,0,1-0.1,1.4c-0.2,1.7-1.4,3-3,3.3l-0.5,0.1
	c-0.1,0.3-0.1,0.6,0.1,1c0.5,0.8,0.3,1.8-0.4,2.2c-0.1,0-0.1,0.1-0.2,0.1c-0.3,0.3-0.8,0.4-1.2,0.3L247,247
	c-0.1-0.1-0.3-0.2-0.4-0.3c-0.6-0.5-0.7-1.4-0.4-2c0.1-0.1,0.2-0.3,0.2-0.4c0-0.2,0-0.4,0-0.6l-0.9-0.1c0-0.2,0-0.3,0-0.5
	C245.4,242,245.7,240.9,246.2,240z"/>
<path class="st4" d="M244.8,191.5c0,0.4,0,0.9,0,1.3c0,0.3-0.2,0.6-0.5,0.6c-0.2,0-0.4-0.1-0.5-0.2c-0.4-0.3-0.7-0.6-1.1-1
	c-0.2-0.2-0.5-0.3-0.8-0.2l0.2,0.8c-0.3,0.2-0.5,0-0.7-0.1s-0.7-0.4-1.1-0.6l-0.6-0.6l-0.2-0.9c0.7,0,1.5-0.2,2.2-0.5
	C242.7,190.2,243.9,190.7,244.8,191.5z"/>
<path class="st13" d="M253.6,198.8v-1c0.3,0,0.6-0.1,0.8,0.1C254.4,198.3,254,198.6,253.6,198.8z"/>
<path class="st0" d="M202.9,178.5l1.2,0.9c1.3,1,2.8,1.7,4.4,2.1c0.6,0.2,1.3,0.3,2.1,0.3c0.9-0.1,1.8-0.5,2.4-1.2
	c0.1,0.1,0.2,0.3,0.1,0.4c-0.3,1.2-0.5,2.2-0.9,3.3c-0.4,1.2-0.6,2.4-0.8,3.6c-0.2,1.3,0,2.7,0.5,3.9c-1.6,3.4-3.3,7-4.7,10.5
	c-1.1,2.6-2.1,5.3-2.9,7.9c-0.4,1.4-0.5,2.9-0.4,4.4c0.2,1.6,0.5,3.2,0.8,4.8c0.6,2.8,1.4,5.6,2.4,8.4c0,0.4,0,0.8-0.2,1.2
	c-1.1,3.9-2.2,7.7-3.2,11.6c-0.1,0.2-0.1,0.4-0.1,0.6c0,0.1,0.1,0.2,0.2,0.3c-0.5,1-1,1.8-1.6,2.7c-0.3,0.4-0.7,0.8-1.2,0.9
	c-0.3,0-0.6,0.1-0.8,0.2c-0.4,0.1-0.8,0.2-1.2,0.4c-0.5,0.2-0.9,0.8-1,1.3c-0.3,0.1-0.5,0.1-0.8,0.1h-10.4c-0.2,0-0.5,0-0.7-0.1
	c-0.1,0-0.1-0.1-0.1-0.2c2.8-1.2,4.7-3.8,5.4-6.9c0.2-0.9,0.2-1.6,0.2-2.5c0-8.6,0-17.1,0-25.8c0-10.3,0-20.6,0-30.9
	c0-0.4,0-0.8,0-1.2c0.8,0,1.6,0,2.5-0.1c0.7-0.1,1.4-0.1,2.2,0c0.3,0,0.7-0.1,1-0.1c0.1,0,0.2,0,0.3,0c0.8,0,1.8-0.1,2.6-0.2
	c0.5,0,1-0.1,1.6-0.2L202.9,178.5z"/>
<path class="st14" d="M190.4,65.6c0.5-0.6,1-1.3,1.6-1.8c3.5-3.3,8.9-3.2,12.4,0.2c2.3,2.1,3.5,5.2,3.3,8.5c0,0.6-0.1,1.3-0.3,1.8
	c-0.4,1.4-1,2.8-1.9,4.1c-1.1,1.9-2.4,3.6-3.8,5.4c-0.9,1.2-2,2.2-3,3.3c-0.2,0.2-0.4,0.4-0.7,0.6c-0.1,0-0.2-0.1-0.3-0.2
	c-2.8-2.8-5.4-5.9-7.4-9.3c-0.7-1.2-1.2-2.4-1.6-3.6c-0.2-0.8-0.4-1.5-0.4-2.2c0-0.2,0-0.4,0-0.8s0.1-0.2,0.1-0.4
	c0.1-1.5,0.5-2.9,1.1-4.2C189.9,66.5,190.1,66,190.4,65.6z M198.1,65.7c-3.1-0.1-5.7,2.5-5.7,5.7c0,0.1,0,0.1,0,0.2
	c0,3.2,2.5,5.9,5.6,6h0.1c3.1,0,5.6-2.6,5.7-5.8C203.8,68.3,201.3,65.7,198.1,65.7L198.1,65.7L198.1,65.7z"/>
<path class="st12" d="M213.9,153.2c-0.6-1-0.9-2.1-0.9-3.3c0-0.6,0.2-1.3,0.6-1.7c0.4-0.5,0.8-1.1,1.2-1.6c0.6-0.6,1.1-1.3,1.9-1.9
	c0.4-0.3,0.8-0.6,1.2-0.9c0.7-0.4,1.6-0.5,2.5-0.1c0.1,0,0.2,0.1,0.3,0.1c0.1-0.2,0.2-0.4,0.3-0.6c0.6-1.2,1.8-1.9,3.1-1.8
	c1,0,2,0.6,2.3,1.7c0.6,1.4,0.3,3.1-0.7,4.2c-0.3,0.4-0.7,0.3-1.2,0.4c0.1,0.3,0.2,0.6,0.3,1c0.4,1.3,0.5,2.7,0.1,4
	c-0.2,0.6-0.4,1.2-0.8,1.7c-0.3,0.4-0.7,0.6-1.1,0.5c-0.4-0.1-0.9,0.1-1.1,0.5c-0.1,0.1-0.1,0.2-0.2,0.3c-0.2-0.3-0.2-0.8-0.1-1.1
	c0.1-0.8,0-1.5-0.2-2.1c-0.8,0-1.6-0.1-2.5-0.3c-0.1-0.1-0.3-0.3-0.6-0.2l0.4,0.4l0.4,0.5l-0.2,0.2c-0.3-0.2-0.6-0.4-0.9-0.8
	c-0.8-0.9-1.5-1.8-2.2-2.9c-0.2-0.3-0.3-0.5-0.5-0.9c-0.6,0.5-0.9,1.4-1,2.2c0,0.4,0,0.9-0.1,1.3
	C214.3,152.5,214.1,152.9,213.9,153.2z"/>
<path class="st4" d="M219.1,152.6c-0.1-0.1-0.3-0.3-0.4-0.5l0.2-0.2c0.8,0.2,1.6,0.3,2.5,0.3c0.2,0.6,0.2,1.4,0.2,2.1
	c-0.1,0.3-0.1,0.8,0.1,1.1c0.1,1.6,0.5,3.1,1.1,4.6c0.3,0.8-0.2,1.3-0.7,1.7c-0.5,0.4-1.2,0.6-1.9,0.6c-0.5,0.1-1.1,0.1-1.6,0.1
	c-0.5,0-0.9-0.4-0.9-1v-0.1c0-0.2,0-0.5,0-0.8l-0.1-1.6c0.7,0.1,1.3-0.2,1.9-0.8c0.5-0.4,0.9-1.1,1.1-1.7c-0.1-0.1-0.3-0.2-0.5-0.1
	c0,0,0,0-0.1,0.1c-0.5,0.4-1.1,0.6-1.9,0.9c-0.3,0.1-0.6,0.2-0.9,0.4c-0.2,0-0.3,0-0.5,0c-0.6,0.1-1.1-0.2-1.4-0.8l-0.2-0.2
	c-0.6-1.2-1-2.5-1.2-3.8c0.3-0.3,0.4-0.8,0.4-1.2s0-0.9,0.1-1.3c0.1-0.9,0.4-1.6,1-2.2c0.2,0.3,0.3,0.6,0.5,0.9
	c0.5,1.1,1.2,2,2.2,2.9c0.3,0.2,0.6,0.5,0.9,0.8c0.3,0.3,0.6,0.5,1,0.5C219.8,153,219.5,152.8,219.1,152.6z"/>
<path class="st4" d="M200.7,172.2c-0.6,0.2-1.3,0.5-1.9,0.9c-0.7-0.8-1.2-1.6-1.8-2.5c-0.3-0.5-0.4-1.2-0.3-1.7
	c0.2-1,0.2-1.9,0.2-2.9c0.1-0.5,0.1-1.1,0.2-1.6c0.2,0.6,0.4,1.4,0.7,2c0.4-0.2,0.5-0.5,0.7-0.9s0.2-0.3,0.5-0.2
	c0.1,0.3-0.2,0.8,0.2,1.1c0.1,0,0,0.2,0,0.4c0,0.2-0.2,0.5-0.3,0.8c0,0,0,0.1,0,0.2l0.4,0.1c0,0.6-0.5,1-0.5,1.6
	c0.6-0.1,1.1-0.2,1.8-0.3v0.1C200.6,170.1,200.5,171.2,200.7,172.2z"/>
<path class="st11" d="M200.9,169.1c-0.5,0.1-1.1,0.3-1.8,0.3c0-0.6,0.5-1.1,0.5-1.6l-0.4-0.1c0-0.1-0.1-0.1,0-0.2
	c0.1-0.2,0.2-0.5,0.3-0.8c0.1-0.2,0-0.3,0-0.4c-0.4-0.2-0.1-0.8-0.2-1.1c-0.3-0.1-0.4,0.1-0.5,0.2s-0.3,0.6-0.7,0.9
	c-0.3-0.6-0.5-1.3-0.7-2l-0.2-0.8c0.4-0.5,1-0.5,1.5-0.6c0.5-0.1,1.1-0.3,1.6-0.4c0.1,0.4,0.3,0.8,0.4,1.2c0.3,1.1,0.6,2.2,0.9,3.3
	c0.2,0.5,0.3,1.1,0.2,1.7L200.9,169.1z"/>
<path class="st15" d="M190.9,152.6c0-0.5-0.1-1.1-0.1-1.6c0-1.3,0-2.6,0-3.9c0.3,0.2,0.4,0.6,0.6,1c0.2,0.3,0.4,0.6,0.5,1.1
	C192.6,150.3,192.2,151.9,190.9,152.6L190.9,152.6z"/>
<path class="st3" d="M202,168.6c0-0.5-0.1-1.2-0.2-1.7c-0.3-1.1-0.6-2.2-0.9-3.3c-0.1-0.4-0.2-0.8-0.4-1.2l0.5-0.2
	c0.1,0.1,0.2,0.1,0.2,0.2c0.5,1.8,1,3.6,1.5,5.6c0,0.1,0,0.2,0,0.3L202,168.6z"/>
<path class="st14" d="M217.2,157.8c0.3-0.1,0.6-0.3,0.9-0.4c0.6-0.2,1.2-0.4,1.8-0.9c0.1-0.1,0.3-0.2,0.5-0.1c0,0,0,0,0.1,0.1
	c-0.2,0.6-0.6,1.3-1.2,1.7c-0.5,0.5-1.1,0.8-1.9,0.6L217.2,157.8z"/>
<path class="st3" d="M231.9,91.1c0-0.1,0-0.1,0-0.2s0.1-0.2,0.2-0.2c0.1,0,0.2,0.1,0.3,0.2c0.1,0.1,0,0.1,0,0.1
	c0.1,0.4,0.1,0.9,0.1,1.3c0,0.2-0.1,0.3-0.3,0.3s-0.3-0.1-0.3-0.2C232,91.9,231.9,91.5,231.9,91.1z"/>
<path class="st3" d="M231.5,88.4c0-0.1,0-0.1,0-0.2c0.1-0.1,0.1-0.2,0.2-0.2c0.1,0,0.3,0.1,0.3,0.1c0.1,0.2,0.1,0.4,0.1,0.6
	s0.1,0.3,0.1,0.5c0,0.3-0.1,0.5-0.2,0.5c-0.1,0-0.3-0.2-0.3-0.4S231.6,88.7,231.5,88.4z"/>
<path class="st4" d="M232.5,95.3l-0.3-0.4c0-0.4,0-0.9,0-1.3c0-0.1,0.1-0.2,0.2-0.2c0.1,0,0.2,0,0.2,0.1c0.3,0.5,0.3,1.2,0.1,1.8
	C232.7,95.2,232.6,95.2,232.5,95.3z"/>
<path class="st14" d="M233.1,96.3c0,0.4,0.1,1,0.1,1.4c0,0.1-0.1,0.2-0.2,0.3s-0.3-0.1-0.3-0.2c0-0.4-0.1-1-0.1-1.4
	c0-0.1,0.1-0.2,0.2-0.3L233.1,96.3z"/>
<path class="st3" d="M231.1,85.5c0.1-0.2,0.3-0.3,0.5-0.2l0,0c0.1,0.5,0.2,1.1,0.2,1.5c0,0.1-0.1,0.2-0.2,0.2s-0.2-0.1-0.3-0.2
	c-0.1-0.1-0.1-0.2-0.1-0.3C231.2,86.1,231.2,85.8,231.1,85.5z"/>
<path class="st4" d="M199.2,59.7c-0.1-0.1-0.2-0.2-0.2-0.3c0-0.3,0.1-0.8,0.4-1c0.1-0.1,0.2-0.1,0.3,0c0.1,0,0.1,0.1,0.1,0.2
	c0,0.4-0.1,0.9-0.4,1.1C199.4,59.7,199.3,59.7,199.2,59.7z"/>
<path class="st14" d="M228.8,69.2c0,0.2,0,0.4,0,0.5c0,0.3,0.1,0.5,0.2,0.9c0,0.2,0,0.3-0.2,0.4c-0.1,0.1-0.3,0-0.4-0.3
	s-0.2-0.8-0.2-1.1s0.1-0.4,0.4-0.4L228.8,69.2L228.8,69.2z"/>
<path class="st14" d="M229.6,73.4c-0.1,0.1-0.1,0.2-0.2,0.2c-0.1,0-0.3-0.1-0.3-0.1c-0.1-0.4-0.2-1-0.3-1.4c0-0.1,0.1-0.2,0.2-0.2
	s0.2,0.1,0.3,0.2C229.4,72.5,229.5,72.9,229.6,73.4z"/>
<path class="st14" d="M231.1,81.4c-0.1,0.1-0.1,0.2-0.2,0.3s-0.3,0-0.3-0.1c0,0,0,0,0-0.1c-0.1-0.4-0.2-0.9-0.2-1.4
	c0-0.1,0.1-0.2,0.2-0.2s0.2,0.1,0.3,0.2C230.9,80.4,231,81,231.1,81.4z"/>
<path class="st14" d="M230.2,76.1c-0.1,0.1-0.1,0.2-0.2,0.2c-0.1,0.1-0.3,0-0.3-0.1V76c-0.1-0.4-0.2-0.9-0.2-1.4
	c0-0.1,0.1-0.2,0.2-0.2c0.1,0,0.2,0.1,0.3,0.2C230,75.1,230.1,75.5,230.2,76.1z"/>
<path class="st14" d="M231.5,84.1c-0.1,0.1-0.1,0.2-0.2,0.2c-0.1,0.1-0.3,0-0.4-0.2c-0.1-0.4-0.1-0.9-0.2-1.4c0-0.1,0.1-0.2,0.2-0.2
	c0.1,0,0.2,0.1,0.2,0.1C231.3,83.1,231.4,83.6,231.5,84.1z"/>
<path class="st14" d="M230.7,78.6c-0.1,0.1-0.1,0.2-0.2,0.3s-0.3,0-0.3-0.1c0,0,0,0,0-0.1c-0.1-0.4-0.1-0.9-0.2-1.4
	c0-0.1,0.1-0.2,0.2-0.2c0.1,0,0.2,0,0.2,0.1C230.4,77.8,230.6,78.2,230.7,78.6z"/>
<path class="st0" d="M223,247.2c-0.5,0-0.9,0-1.4,0H215c-0.3,0-0.7,0-1-0.1c0.3-0.4,0.5-0.9,0.6-1.4c0.1-0.6,0.4-1.2,0.8-1.6
	c0.2-0.2,0.4-0.4,0.6-0.6c0.7-0.6,0.8-1.7,0.2-2.5l-0.1-0.1c-0.2-0.3-0.4-0.5-0.6-0.8l-0.4-0.4c0-0.5,0.1-1.1,0.1-1.6
	c-0.1-1.5-0.1-3-0.2-4.5c0-0.6-0.1-1.2-0.2-1.8c0.1-0.3,0.3-0.8,0.5-1.1c1.4-2.6,2.7-5.4,3.7-8.1c0.1-0.4,0.3-0.8,0.4-1.2
	c0,0.4,0,1,0,1.4V237c0,0.3,0,0.8,0,1.1c0,0.2,0.1,0.4,0.2,0.6l0.9,0.1v0.4c-0.1,1.5,0.6,2.9,1.8,3.6c0.1,0.1,0.2,0.2,0.3,0.3l0.1,1
	c-0.1,0.2-0.3,0.4-0.4,0.6c-0.3,0.5-0.2,1.3,0.2,1.7c0.1,0.1,0.3,0.3,0.4,0.4C223.1,247.1,223.1,247.1,223,247.2z"/>
<path class="st0" d="M245.5,243.5l0.9,0.1c0,0.2,0,0.4,0,0.6c-0.1,0.1-0.1,0.3-0.2,0.4c-0.4,0.6-0.2,1.6,0.4,2
	c0.1,0.1,0.2,0.2,0.4,0.3l-0.2,0.2c-0.3,0-0.7,0-1,0h-15.9h-4.1c-0.2,0-0.4,0-0.6,0s-0.1-0.2,0-0.4c0.7-0.6,0.8-1.7,0.2-2.4
	l-0.1-0.3l0.1-0.4h0.9l1.9-0.1l3.9,0.1c0.2,0,0.4,0,0.6-0.1h0.9c0.2,0,0.3,0,0.5,0h4.7c0.2,0,0.3,0,0.5-0.1h0.9
	c0.2,0,0.4,0.1,0.6,0.1h4.1L245.5,243.5z"/>
<path class="st16" d="M214.9,231.6c0.1,0.6,0.1,1.2,0.2,1.8c0.1,1.5,0.1,3,0.2,4.5c0,0.5,0,1-0.1,1.6l0.4,0.4
	c0.2,0.2,0.4,0.5,0.6,0.8c0.6,0.8,0.6,1.8,0,2.5l-0.1,0.1c-0.2,0.2-0.4,0.4-0.6,0.6c-0.4,0.4-0.7,1.1-0.8,1.6
	c-0.1,0.5-0.3,1-0.6,1.4h-4.5c0.1-0.5,0.4-0.6,0.8-0.8c0.7-0.2,1.2-0.8,1.4-1.5c0.1-0.3,0.2-0.6,0.2-1c0-0.5,0-1.1,0-1.6
	c0.1-0.6-0.3-1.1-0.5-1.5c0-0.1-0.1-0.2-0.1-0.3c-0.2-0.5-0.4-1-0.6-1.5c0.1-0.3,0.2-0.6,0.4-0.9s0.4-0.6,0.6-1l2.9-5.2
	C214.7,231.8,214.8,231.7,214.9,231.6z"/>
<path class="st16" d="M197.4,247c0.1-0.5,0.5-1.1,1-1.3c0.4-0.2,0.8-0.3,1.2-0.4c0.3-0.1,0.5-0.1,0.8-0.2c0.5-0.1,0.9-0.3,1.2-0.9
	c0.6-0.9,1.2-1.7,1.6-2.7c1.1,0.4,2.4,0.6,3.6,0.6c0.1,0,0.2,0,0.4,0c-0.2,0.5-0.1,1.2,0.1,1.7c0.1,0.2,0.2,0.3,0.2,0.5
	c0.3,0.8,0.3,1.7,0.1,2.5h-9.6L197.4,247z"/>
<path class="st0" d="M208,247c0.3-0.9,0.2-1.7-0.1-2.5c-0.1-0.2-0.1-0.3-0.2-0.5c-0.3-0.5-0.3-1.2-0.1-1.7c0.1,0,0.2,0,0.3,0
	c0.5,0,1-0.3,1.2-0.8c0.4-0.6,0.8-1.3,1.2-1.9c0.1-0.2,0.3-0.3,0.4-0.5c0.2,0.5,0.4,1,0.6,1.5c0,0.1,0.1,0.2,0.1,0.3
	c0.2,0.4,0.6,0.9,0.5,1.5c0,0.5,0,1.1,0,1.6c0,0.3-0.1,0.6-0.2,1c-0.2,0.8-0.7,1.3-1.4,1.5c-0.4,0.1-0.7,0.2-0.8,0.8
	C209.1,247.2,208.6,247.2,208,247z"/>
<path class="st17" d="M225.1,244l0.1,0.3c0.5,0.8,0.4,1.8-0.2,2.4c-0.1,0.2-0.1,0.3,0,0.4h-2.1c0-0.1,0.1-0.2,0.1-0.2
	s-0.3-0.3-0.4-0.4c-0.4-0.5-0.4-1.2-0.2-1.7c0.1-0.2,0.2-0.4,0.4-0.6C223.7,243.8,224.4,243.8,225.1,244z"/>
<path class="st17" d="M246.8,247.2l0.2-0.2l0.2,0.2H246.8z"/>
<path class="st14" d="M188.8,154.6c0,0.3,0,0.8,0,1.1v62.1c0,0.4,0,0.9-0.1,1.3h-68.3c-0.1-0.2-0.2-0.4-0.2-0.6
	c-0.4-1.4-0.7-2.8-1.1-4.2c-0.9-3.6-1.8-7.3-2.8-10.9c-1.2-4.7-2.4-9.4-3.6-14.1c-0.3-1.1-0.6-2.1-0.9-3.2c0-0.4,0-0.9,0-1.3
	c0-4.8,0-9.6,0-14.6c0-0.9-0.2-1.7-0.6-2.5c-0.7-1.1-1.8-1.8-3.1-1.8h-1.3l-2.3-8.9l-0.6-2.2c0.4,0,0.8,0,1.2,0h36.5
	c0.4,0,0.8,0,1.1,0c1.3,0,2.7,0,4,0s2.5,0,3.7,0c0.4,0,0.8,0,1.1,0h37.1L188.8,154.6L188.8,154.6z M136,185.5h11.6
	c0.2,0,0.5,0,0.8,0c2.1,0,3.7-1.8,3.8-4c0-0.3,0-0.6,0-0.9v-14.4c0-0.3,0-0.6,0-1c-0.1-1.8-1.3-3.3-3-3.8c-0.4-0.1-0.8-0.1-1.2-0.1
	h-23.8c-0.2,0-0.3,0-0.5,0c-1.7,0-3.1,1.1-3.6,2.7c-0.2,0.6-0.3,1.4-0.3,2c0,4.8,0,9.6,0,14.5c0,0.4,0,1,0.1,1.4
	c0.2,1.6,1.2,2.9,2.8,3.3c0.4,0.1,0.9,0.2,1.3,0.1L136,185.5z M183.6,185.5c0-6.1,0-12.3,0-18.4c0.1-1.7-0.6-3.4-2-4.5
	c-0.8-0.9-2-1.3-3.1-1.3h-17.7c-1.1,0-2.3,0.5-3.1,1.3c-1.2,1.1-2,2.8-2,4.5c0,12.2,0,24.5,0,36.8c0,0.7,0.1,1.5,0.4,2.1
	c0.3,1.1,1,2,2,2.7c0.9,0.6,2.1,1.1,3.3,1.1h16.6c0.2,0,0.3,0,0.5,0c1.9-0.1,3.5-1.2,4.3-2.9c0.5-1,0.7-1.9,0.7-3
	C183.6,197.7,183.6,191.6,183.6,185.5L183.6,185.5z M136.1,189.1h-12.1c-0.2,0-0.5,0-0.8,0c-2.1,0.1-3.6,1.9-3.6,4v7.9
	c0,1.5,0,3.1,0,4.6c0,1.3,0.6,2.5,1.7,3.2c0.7,0.5,1.7,0.8,2.5,0.8h25c1.8-0.1,3.3-1.4,3.7-3.1c0.1-0.5,0.1-1,0.1-1.5
	c0-3.8,0-7.5,0-11.2c0-0.2,0-0.4,0-0.6c0-1.7-1.1-3.2-2.6-3.8c-0.5-0.2-1-0.2-1.5-0.2L136.1,189.1L136.1,189.1z"/>
<path class="st1" d="M120.3,219h68.3c0,0.3,0,0.6,0,1c0,6,0,11.9,0,17.9c0,0.8-0.1,1.5-0.3,2.2c-0.8,3-3.4,5.1-6.4,5.2h-0.5h-14
	h-0.3c0-0.5,0-1,0-1.5c0-2.6,0-5.1,0-7.7c0-1.5-0.4-2.9-1.1-4.2c-0.9-1.7-2.8-2.8-4.7-2.8c-3.4,0.1-6.9,0-10.3,0c-7,0-13.9,0-20.8,0
	c-1.8-0.1-3.3,0.8-4.3,2.2c-0.9,1.4-1.4,3-1.4,4.7c0,1.9,0,3.9,0,5.8c0,1.1,0,2.2,0,3.3h-0.4h-12.7H111v-0.1
	c0.5-1.1,0.7-2.2,0.6-3.5c0-4.8,0-9.6,0-14.4c0-0.3,0-0.8,0-1.1c0.6,0,1.1-0.1,1.7-0.4c2.1-0.5,4.1-1.1,6.2-1.7
	c0.2-0.1,0.5-0.2,0.7-0.2c0.7-0.3,1-1.1,0.8-1.8c-0.1-0.4-0.2-0.9-0.3-1.4C120.6,220.2,120.4,219.7,120.3,219z"/>
<path class="st18" d="M72.9,192.6c0.2-0.2,0.4-0.3,0.7-0.5c1.3-0.8,2.8-1.3,4.3-1.6c1.7-0.4,3.3-0.5,4.9-0.4
	c2.7,0.2,5.3,1.1,7.6,2.6l0.6,0.4c-0.2,0.2-0.4,0.2-0.7,0.2c-0.5,0-1,0.2-1.3,0.6c-0.4,0.8-1.1,1.3-1.8,1.5
	c-0.3,0.1-0.5,0.4-0.6,0.8c-0.1,0.3-0.1,0.6,0.1,0.9c0.7,0.1,1.3,0.1,2.1-0.1c0.3-0.1,0.6-0.1,0.9,0.1c0.5,0.2,0.9,0.5,1.1,1
	c0.1,0.2,0.2,0.4,0.4,0.5c0.2,0.4,0.6,0.5,1,0.4c0.2,0,0.4-0.1,0.5-0.1c0.6-0.2,1.2-0.1,1.8,0.3c0.6,0.5,1.3,0.8,2.1,0.6
	c0.1,0,0.2,0,0.4,0c0.6,1,1,2,1.1,3.2c-0.1,0-0.2,0-0.3-0.1c-0.5-0.3-1.1-0.4-1.7-0.3c-0.2,0-0.5,0-0.8,0c-0.5,0-1.1-0.2-1.4-0.6
	c-0.3-0.3-0.7-0.8-1-1.1s-0.8-0.5-1.2-0.5c-0.7-0.1-1.5,0.2-2.1,0.8c-0.3,0.3-0.8,0.6-1.2,0.6c-0.6,0.1-1.1,0.2-1.7,0.4
	c-0.5,0.1-0.9,0.8-0.8,1.3c0,0.3,0.1,0.6,0.2,0.9c0.2,0.3,0.2,0.8,0,1.2c-0.1,0.2-0.2,0.4-0.2,0.6c-0.2,0.4-0.2,1,0.1,1.3
	c0.3,0.5,0.7,0.9,1.2,1.1c0.5,0.1,1,0.1,1.5,0c0.6-0.1,1.2-0.2,1.8-0.4c0.2-0.1,0.5,0,0.7,0.2c0,0.1,0.1,0.2,0,0.2c0,0.4,0,1,0,1.4
	c-0.1,0.9,0.4,1.6,1.1,1.9c0.4,0.2,0.9,0.3,1.3,0.5c0.3,0.1,0.6,0.1,0.9,0.2c0.1,0.1,0.3,0.1,0.4,0.2c0,0.1,0,0.2-0.1,0.3
	c-0.1,0.2-0.2,0.3-0.3,0.5c-0.3,0.5-0.7,1.2-0.9,1.7c-0.5,1.3-0.2,2.1,1,2.6c0.3,0.1,0.6,0.1,0.8,0.4c-1.3,1.9-3.1,3.6-5,4.8
	c-1.4,1-3.1,1.6-4.7,2c-1.8,0.4-3.7,0.6-5.6,0.4c-1.8-0.1-3.5-0.6-5.2-1.3c-2.4-1-4.5-2.6-6.3-4.6c-0.9-1.1-1.7-2.1-2.3-3.4
	c-0.7-1.4-1.3-2.9-1.7-4.5c-0.2-0.8-0.2-1.6-0.3-2.4s-0.1-1.5-0.1-2.2c0-1.1,0.2-2,0.4-3.1c0.1,0.1,0.2,0.2,0.3,0.4
	c0.1,0.3,0.4,0.6,0.7,0.8c0.4,0.2,0.8,0.2,1.2,0c0.2-0.1,0.4-0.1,0.5-0.1c0.6-0.2,1.3-0.1,1.8,0.3c0.3,0.3,0.6,0.5,1,0.6
	c0.8,0.3,1.8,0.2,1.8-1.2c0-0.4-0.2-1-0.6-1.2c-0.2-0.1-0.5-0.3-0.6-0.6c-0.3-0.3-0.4-0.9,0-1.3c0.1-0.1,0.2-0.2,0.3-0.2
	c0.1-0.1,0.2-0.1,0.3-0.1c0.3,0,0.6,0,0.9,0.1c0.6,0.1,1.2,0.3,1.8,0.4c0.3,0.1,0.7,0,0.9-0.4c0.1-0.2,0.2-0.5,0.3-0.9
	c0-0.2,0-0.4,0-0.8c0-0.6,0.4-1.1,0.9-1.2c0.5-0.2,1.1-0.2,1.8-0.2c0.3,0,0.6,0,0.8-0.1c0.1-0.1,0.2-0.2,0.3-0.3
	c0.1-0.2,0-0.4-0.2-0.5c-0.1,0-0.2-0.1-0.3-0.1c-0.6-0.2-1.2-0.2-1.8-0.2c-0.5,0.1-0.9-0.3-0.9-0.8c0-0.1,0-0.2,0-0.4
	c0.1-0.4,0.1-0.8,0.1-1.2s-0.2-0.9-0.6-1.1c-0.5-0.3-1-0.8-1.3-1.3c-0.1-0.1-0.3-0.3-0.4-0.3C73.4,192.8,73.1,192.6,72.9,192.6z
	 M82.7,215.5c0.7-0.3,1.1-1.1,1.2-1.8c0-0.6,0.2-1.3,0.5-1.8c0.1-0.2,0.2-0.4,0.2-0.6c0.1-0.3-0.1-0.6-0.3-0.6h-0.1
	c-0.4,0-0.8,0-1.2,0.1c-0.4,0.1-0.9,0.1-1.3,0.1c-0.3,0-0.5-0.2-0.6-0.4c-0.1-0.3-0.2-0.6-0.3-1.1s-0.4-0.8-0.8-0.8
	c-0.5-0.1-1-0.3-1.3-0.6c-0.2-0.1-0.3-0.3-0.5-0.4c-0.4-0.3-1-0.1-1.3,0.3c-0.1,0.1-0.1,0.2-0.2,0.2c-0.4,0.5-1,1-1.7,1.2
	c-0.6,0.2-1,1-0.8,1.6v0.1c0.1,0.3,0.2,0.6,0.5,0.9c0.2,0.2,0.4,0.3,0.6,0.5c0.5,0.3,0.7,0.9,0.7,1.5c0,0.1,0,0.3,0,0.4
	c0,0.5,0.3,1.1,0.8,1.4c0.2,0.1,0.4,0.2,0.6,0.3s0.4,0.4,0.3,0.6v0.1c-0.2,0.3-0.4,0.6-0.6,1c-0.5,0.8-0.6,1.6-0.4,2.5
	c0.1,0.4,0.2,0.8,0.2,1.2c0.2,1.2,0.9,2.1,2,2.5c0.5,0.2,0.9,0,0.9-0.6c0-0.3,0-0.6-0.2-0.9c-0.1-0.1-0.2-0.3-0.2-0.4
	c-0.2-0.3-0.1-0.8,0.2-1.1c0,0,0,0,0.1,0c0.5-0.3,0.9-0.8,1.1-1.3c0-0.1,0.2-0.2,0.3-0.4l0.6-0.6c0.4-0.3,0.4-1,0.1-1.4
	c-0.2-0.3-0.4-0.8-0.5-1.1c-0.1-0.2,0.1-0.5,0.3-0.6c0.1,0,0.2,0,0.2,0C81.9,215.2,82.4,215.4,82.7,215.5z M81.4,193.8
	c0-0.6,0-0.8-0.2-1c-0.5-0.3-1.2-0.5-1.8-0.4c-0.5,0.1-1,0.1-1.5,0.1c-0.4,0-0.8,0.1-1,0.4c-0.2,0.2-0.2,0.5-0.1,0.8
	c0.5,1,1.1,1.9,1.8,2.8l0.1,0.1c0.3,0.3,0.7,0.2,0.9,0l0.1-0.1c0.2-0.2,0.3-0.5,0.4-0.8c0.2-0.4,0.5-0.9,0.9-1.1
	C81.3,194.5,81.4,194.1,81.4,193.8L81.4,193.8z"/>
<path class="st6" d="M120.3,219c0,0.6,0.1,1.2,0.3,1.7c0.1,0.4,0.2,0.9,0.3,1.4c0.2,0.8-0.1,1.5-0.8,1.8c-0.2,0.1-0.5,0.2-0.7,0.2
	c-2.1,0.5-4.1,1.2-6.2,1.7c-0.5,0.2-1.1,0.3-1.7,0.4c0-0.3,0-0.8,0-1.1v-38.1c0-0.4,0-0.9,0-1.3c0.3,1.1,0.6,2.1,0.9,3.2
	c1.2,4.7,2.5,9.4,3.6,14.1c0.9,3.6,1.8,7.3,2.8,10.9c0.3,1.4,0.7,2.8,1.1,4.2C120.1,218.6,120.2,218.8,120.3,219z"/>
<path class="st19" d="M68.5,225.6c-0.4,0-0.8-0.2-0.9-0.6c0.1-0.1,0.2-0.1,0.3-0.1c0,0,0,0,0.1,0.1
	C68.1,225.1,68.3,225.3,68.5,225.6L68.5,225.6z"/>
<path class="st0" d="M142.8,154.5c-0.4,0-0.8,0-1.1,0h-36.5c-0.4,0-0.8,0-1.2,0l-0.4-2.1v-6.1c0-1,0-1.8,0-2.8
	c0.4-0.1,0.9-0.2,1.4-0.2c0.2,0,0.5,0,0.7-0.1c0.8-0.2,1.7-0.2,2.4,0c0.2,0,0.5,0.1,0.7,0.1s0.4,0,0.7,0c1.7,0.3,3.2,1,4.7,1.7
	c0.3,0.2,0.6,0.3,0.9,0.4c0.2-0.1,0.4-0.1,0.5-0.2c1-0.6,2.4-1,3.6-1c0.4,0,0.8,0.1,1.2,0.2c0.6,0.1,1.1,0.2,1.7,0.6
	c1,0.6,1.8,1.5,2.3,2.7c0.1,0.3,0.3,0.4,0.6,0.3c0.1,0,0.2,0,0.3-0.1c1-0.3,2.2-0.5,3.3-0.5c0.2,0,0.4,0,0.6-0.1
	c0.7-0.1,1.3-0.1,2.1,0c0.2,0.1,0.5,0.1,0.7,0.1c0.7,0,1.4,0.1,2.2,0.3c1.4,0.3,2.9,1,4.1,1.7c0.5,0.3,1,0.6,1.4,1
	c1.1,1.1,2.2,2.2,3,3.5C142.6,154.2,142.7,154.4,142.8,154.5z"/>
<path class="st1" d="M103.4,108.7c0-0.4,0-0.9,0-1.2c0-3.6,0-7.3,0-10.9c0-1,0.1-1.8,0.4-2.8c0.9-2.9,3.5-4.8,6.4-5c1.4,0,3,0,4.4,0
	h66.6c0.7,0,1.4,0,2.2,0.2c3.1,0.8,5.4,3.5,5.6,6.8c0,0.2,0,0.4,0,0.8c0,9.4,0,18.9,0,28.3c0,0.2,0,0.5,0,0.8c-0.3,0-0.7-0.1-1-0.1
	c-0.5-0.1-1.1-0.1-1.6-0.1c-0.8,0.1-1.6,0.2-2.5,0.3c-0.7,0.1-1.5,0.3-2.2,0.6c-0.9,0.3-1.8,0.8-2.6,1.3c-0.7,0.4-1.4,0.9-2.1,1.5
	c-0.4,0.4-0.9,0.8-1.3,1.2c-1.9-1.7-4.3-2.4-6.7-1.9l-3-2c-0.1,0-0.1-0.1-0.2-0.2l0.3-0.1l8.8-2.4c0.3-0.1,0.6-0.2,0.9-0.3
	c0.2,0,0.4-0.1,0.6-0.1l3.7-1.2c0.8-0.2,1.4-0.9,1.5-1.7c0.2-0.5,0.2-1.1,0.1-1.7c0.3-0.2,0.6-0.4,0.9-0.6c0.8-0.5,1.8-1.2,2.6-1.7
	c0.1-0.1,0.2-0.2,0.3-0.4c-0.6-0.1-1-0.2-1.5-0.2c-1.5-0.1-3,0-4.5,0.2c-0.2,0-0.4,0-0.6,0c0.5-2,1.1-4.1,1.6-6
	c0.9-3.2,1.9-6.4,2.7-9.8c0.1-0.3,0.2-0.8,0.2-1.1c-0.1-0.1-0.2-0.2-0.4-0.2c-0.5,0-0.9,0-1.4,0c-0.1,0-0.3,0.1-0.4,0.2
	c-0.6,0.4-1.1,0.9-1.6,1.4c-1.9,1.9-3.5,4-5.1,6c-1.2,1.6-2.6,3.2-3.8,4.9c-0.3,0.5-0.8,0.9-1.3,1.1c-0.4,0.1-0.9,0.3-1.3,0.4
	c-1.4,0.4-3,0.9-4.4,1.3l-2.7-0.2c0.6-0.8,1.1-1.5,1.4-2.5c0.5-1,0.9-1.9,1.4-3c0.5-1.2,1.1-2.5,1.6-3.8c0.1-0.2,0.2-0.4,0.3-0.6
	c0.8-1.8,1.6-3.6,2.5-5.5c0-0.1,0.1-0.3,0.1-0.4C168,98,168,98,167.9,98c-0.8-0.1-1.8,0.2-2.4,1c-0.7,1-1.5,1.9-2.4,2.9
	c-0.6,0.8-1.2,1.6-2,2.4l-0.3,0.3c-0.8,0.9-1.5,1.8-2.3,2.8c-0.6,0.8-1.2,1.5-2,2.2s-1.3,1.7-2.1,2.5c-0.4,0.4-0.7,1-1.3,1.1
	l-2.8-0.2c-0.6-0.9-1.4-1.6-2.4-2.1c-1.5-1.1-3.2-2-4.9-2.6c-0.9-0.2-1.8-0.4-2.7-0.6c-0.6-0.1-1.3-0.2-2-0.2c-1,0-2,0-3,0
	c-0.2,0-0.4,0-0.7,0l-1.2,0.1c-0.3,0-0.6,0.1-0.9,0.1c-0.3,0.1-0.6,0-0.8-0.2s-0.4-0.3-0.6-0.4c-0.4-0.3-0.8-0.5-1.2-0.9
	c-1.3-0.8-2.8-1.2-4.3-1.2c-0.9,0-1.8,0.1-2.8,0.4c-1.8,0.5-3.3,1.5-4.6,2.8c-0.2,0.3-0.6,0.4-0.9,0.4c-0.2,0-0.4,0-0.6,0
	c-0.8,0-1.8,0.3-2.5,0.8c-0.5,0.1-1.1,0.2-1.8,0.2c-0.6-0.1-1.1-0.1-1.8-0.2c-0.5,0-1.1,0-1.7-0.1c-0.1,0-0.2,0-0.3,0
	c-0.7,0-1.5,0-2.3-0.2C105.5,109.1,104.4,108.9,103.4,108.7z M150.7,104.6h0.9c1,0,2,0,3,0c0.2,0,0.4,0,0.6-0.1
	c0.5-0.3,0.7-1.1,0.4-1.7c-0.1-0.1-0.2-0.2-0.3-0.3c-0.1-0.1-0.3-0.2-0.5-0.3c-1-0.5-2.1-0.9-3.2-1L151,101c-0.4,0-0.8-0.1-1.2-0.1
	c-0.2,0-0.5,0.1-0.7,0.1c-0.9,0.2-2,0-2.7-0.5c-1.2-0.9-2.8-1.1-4.2-0.5c-0.7,0.2-1.4,0.6-2.1,1.2c-0.4,0.4-1,0.6-1.6,0.8
	c-0.2,0-0.3,0.1-0.4,0.2c-0.5,0.5-0.5,1.4,0,1.9c0.1,0.1,0.2,0.2,0.3,0.2c0.2,0.1,0.5,0.1,0.7,0.1h5.9c0.2,0,0.5,0,0.8,0
	c0.5,0.1,1.1,0.2,1.8,0.1C148.5,104.6,149.6,104.6,150.7,104.6L150.7,104.6z M108.9,98.1c0.3-0.2,0.6-0.4,0.8-0.8
	c0.3-0.3,0.6-0.6,0.9-0.9c1.1-0.9,2.5-1.3,3.8-1.2c1.3,0,2.8,0.4,3.9,1.3c0.4,0.3,0.7,0.6,1.1,1.1c0.4,0.3,0.6,0.3,1-0.2
	c-0.3-0.8-0.8-1.3-1.4-1.7c-0.8-0.6-1.8-1.1-2.8-1.4c-0.9-0.2-1.8-0.2-2.7-0.1c-0.3,0-0.6,0.1-0.8,0.1c-1.2,0.2-2.3,0.9-3.3,1.6
	c-0.5,0.3-0.9,0.9-1.1,1.5L108.9,98.1z M114.5,96.5c-1.2,0-2.4,0.4-3.3,1.2c-0.3,0.2-0.6,0.5-0.9,0.9c-0.1,0.1-0.1,0.3,0,0.5l0,0
	c0.4,0.3,0.6,0.2,0.9-0.1s0.7-0.6,1.1-1c1.7-1,3.7-0.8,5,0.6l0.4,0.4c0.1,0.1,0.3,0.2,0.5,0.1c0.2-0.1,0.3-0.4,0.2-0.6
	s-0.2-0.4-0.4-0.5C117.2,97.1,115.8,96.5,114.5,96.5z M112.3,100.5c0.2-0.2,0.4-0.3,0.6-0.5c0.6-0.5,1.3-0.6,2.1-0.4
	c0.4,0.1,0.9,0.3,1.2,0.6c0.4,0.3,0.6,0.2,1-0.3c-0.7-1-1.8-1.6-3-1.5c-0.8,0-1.5,0.3-2.2,0.9c-0.5,0.4-0.5,0.6,0.1,1.2L112.3,100.5
	z M114.4,102.2c0.3-0.2,0.6-0.4,0.9-0.6c0.2-0.1,0.2-0.3,0.1-0.5c0,0,0-0.1-0.1-0.1c-0.5-0.5-1.3-0.5-1.8,0c-0.1,0.1-0.1,0.3,0,0.5
	l0,0L114.4,102.2z"/>
<path class="st3" d="M160.6,113.8l2.7,0.2c0.2,0.1,0.5,0.1,0.7,0.1c1.2,0.1,2.6,0.2,3.8,0.4c2.7,0.4,5.4,1,8.1,1.4
	c0.1,0,0.2,0.1,0.4,0.2c-1,0.2-1.9,0.5-2.7,0.8c-0.5,0.1-0.9,0.3-1.3,0.4c-0.3,0.1-0.4,0.4-0.3,0.6c0,0.1,0.1,0.2,0.2,0.3
	c0.1,0.1,0.3,0.1,0.4,0.2c0.3,0.3,0.6,0.8,0.9,1.1c1,1,1.8,2.2,2.1,3.6c-0.3,0.1-0.6,0.2-0.9,0.3l-8.8,2.4l-0.3,0.1
	c-0.2,0-0.5,0.1-0.7,0.1c-2.3,0.6-4.6,1.1-7,1.5c-1.5,0.3-3.1,0.4-4.6,0.5c-2,0.1-4-0.2-6-0.3c-0.8,0-1.5-0.1-2.3-0.2l-2.3-0.1
	c-0.2-0.1-0.5-0.1-0.7-0.1c-1.1-0.1-2.2-0.2-3.3-0.2c-1.1,0-2.3-0.1-3.4-0.2l-6.5-0.5c0.1-0.1,0.2-0.2,0.2-0.3
	c2.3-1.4,4.3-3.1,6.1-5c0.4,0,0.8,0,1.2,0c2.2,0.2,4.3,0.3,6.5,0.5c0.6,0,1.2-0.1,1.8-0.3c4.2-1.8,8.5-3.6,12.9-5.5
	c0.9-0.4,1.9-1,2.6-1.7L160.6,113.8z M162,119.4c0-0.2,0-0.3-0.1-0.5c0-0.2-0.2-0.4-0.4-0.4c-0.3,0-0.5,0.1-0.6,0.4
	c-0.1,0.3-0.1,0.8-0.1,1.1s0.3,0.5,0.6,0.4c0.2,0,0.3-0.2,0.4-0.3C161.9,119.9,162,119.7,162,119.4z M159.1,119.1c0-0.1,0-0.3,0-0.4
	c0-0.3-0.2-0.5-0.5-0.5c-0.3,0-0.5,0.2-0.6,0.4c-0.1,0.3-0.1,0.6-0.1,1s0.2,0.5,0.4,0.5c0.3,0,0.6-0.1,0.6-0.4
	C159.1,119.6,159.1,119.4,159.1,119.1L159.1,119.1z M156.3,119c0-0.2,0-0.3,0-0.4c0-0.3-0.2-0.5-0.5-0.6c-0.3,0-0.6,0.2-0.6,0.5
	c0,0.3,0,0.6,0,1s0.2,0.4,0.5,0.5c0.2,0,0.4-0.1,0.5-0.3C156.3,119.4,156.3,119.2,156.3,119L156.3,119z"/>
<path class="st0" d="M114.2,109.4c0.7-0.5,1.5-0.8,2.5-0.8c0.2,0,0.4,0,0.6,0c0.3,0,0.7-0.1,0.9-0.4c1.3-1.3,2.9-2.2,4.6-2.8
	c0.9-0.3,1.8-0.4,2.8-0.4c1.5,0,3,0.3,4.3,1.2c0.4,0.2,0.8,0.5,1.2,0.9c0.2,0.1,0.4,0.3,0.6,0.4c0.2,0.2,0.5,0.2,0.8,0.2
	c0.3-0.1,0.6-0.1,0.9-0.1l1.2-0.1c0.2,0,0.4,0,0.7,0c1,0,2,0,3,0c0.7,0,1.3,0.1,2,0.2c0.9,0.1,1.9,0.3,2.7,0.6
	c1.8,0.6,3.4,1.5,4.9,2.6c0.9,0.5,1.6,1.3,2.4,2.1c-0.2,0-0.3,0-0.5,0c-1.8-0.1-3.6-0.3-5.4-0.4c-0.7-0.1-1.4-0.1-2.2-0.2
	s-1.3-0.1-2-0.1s-1.5-0.1-2.3-0.2c-1,0-2-0.1-3-0.3c-0.2,0-0.4,0-0.6,0c-0.6,0-1.1,0-1.8-0.2c-0.2,0-0.4,0-0.7,0
	c-0.5,0-1.1,0-1.6-0.1c-0.3,0-0.6,0-0.8,0c-0.5,0-0.9,0-1.4-0.1c-0.2,0-0.4,0-0.7,0c-0.6,0-1.1,0-1.8-0.1c-0.2,0-0.4,0-0.7,0
	c-0.5,0-1.1,0-1.7-0.1c-0.2,0-0.5,0-0.7,0c-0.5,0-1,0-1.5-0.1c-0.2,0-0.5,0-0.8,0c-0.6,0-1.2,0-1.8-0.2c-0.2,0-0.4,0-0.7,0
	c-0.5,0-1.1,0-1.7-0.1c-0.5-0.1-1.1-0.1-1.7,0c-0.2,0.1-0.4,0.1-0.6-0.1C114,109.8,114,109.5,114.2,109.4z"/>
<path class="st0" d="M128.7,126.4l6.5,0.5c1.1,0.1,2.3,0.1,3.4,0.2c1.1,0.1,2.2,0.1,3.3,0.2c0.2,0,0.5,0.1,0.7,0.1
	c-0.2,0.2-0.5,0.5-0.7,0.9s-0.4,0.5-0.6,0.9c-0.4,0.9-0.6,1.7-0.6,2.7c0,0.3,0.1,0.6-0.1,1c-1.1-0.1-2.2-0.1-3.3-0.1
	c-0.1,0-0.2,0-0.3,0c-1.3,0.2-2.6,0.9-3.5,1.9c-0.2,0.2-0.4,0.3-0.6,0.4c0-0.2-0.1-0.3-0.1-0.5c-0.2-1.5-0.9-2.8-2.2-3.6
	c-1-0.8-2.3-1.1-3.4-1.1c-1,0-2.1,0.1-3.1,0.4c-0.2-0.3-0.4-0.5-0.6-0.9c-0.3-0.5-0.7-1-1.2-1.4c0.3-0.2,0.7-0.5,0.6-1.1
	c0.6-0.1,1.2-0.2,1.8-0.4c0.5-0.1,0.9-0.4,1.1-0.9c0.1,0.1,0.2,0.2,0.4,0.3L128.7,126.4z"/>
<path class="st20" d="M122.7,127.2c0.1,0.5-0.3,0.8-0.6,1.1l-1.2,0.1c-0.8,0-1.7,0.3-2.5,0.3c-0.6,0-1.2,0-1.8,0
	c-0.6,0-1.2-0.1-1.8-0.2c-0.9-0.1-1.8-0.4-2.7-1c0-0.3,0.1-0.6,0.1-0.9c0.2-2,0.3-4.1,0.5-6.1c0-0.1,0-0.2,0-0.4l2.3-0.1
	c1.1,0,2.3,0.1,3.4,0.3c0.8,0.2,1.7,0.3,2.5,0.4c0.7,0.2,1.3,0.3,2.1,0.6c0.1,0.4,0.1,0.9,0.1,1.4
	C122.9,124.3,122.8,125.7,122.7,127.2z"/>
<path class="st9" d="M127.9,116.4c0.1,0.1,0.3,0.1,0.4,0.1c0.5,0,0.9-0.1,1.4-0.1l1.1-0.2l2.9-0.4c0.7-0.1,1.4-0.2,2.1-0.2l2.7-0.3
	l0.5-0.1l2.8-0.3l3.7-0.4l5.2-0.6c0.1,0.1,0.3,0.1,0.3,0.4c-0.3,0.1-0.7,0.2-1,0.2l-6.4,1.3c-2.1,0.4-4.2,0.8-6.4,1.2
	c-1.8,0.3-3.5,0.5-5.2,0.9c-1.3,0.2-2.7,0.4-4,0.8l-4.1,0.8c-0.6,0.1-1.2,0.2-1.8,0.3c-0.8,0.2-1.7,0-2.4-0.5
	c-0.1,0-0.1-0.1-0.2-0.2c-0.3-0.3-0.2-0.8,0.2-0.9c0.6-0.1,1.2-0.2,1.8-0.3c1.1-0.2,2.3-0.3,3.3-0.4c0.5-0.1,1.1-0.1,1.7-0.2
	c0.1,0,0.3,0,0.5-0.1"/>
<path class="st0" d="M103.5,129v-3.1c0-0.5,0-1.2,0-1.7c0.1,0,0.3,0,0.4,0c0.7,0.2,1.3,0.2,2.1,0.2c0.2,0,0.4,0,0.6,0.1
	c0.3,0,0.6,0.1,0.9,0.1c0.6,0,1.1,0,1.8,0.1c0.4,0,0.9,0,1.3,0h1l-0.2,1.8c-0.1,0.3,0,0.6,0.2,0.9c-0.2,0.2-0.4,0.5-0.7,0.8
	s-0.5,0.4-0.8,0.8c-0.6,0.6-1.2,1.3-1.7,2c-0.1,0.2-0.3,0.4-0.6,0.4c-0.1-0.1-0.1-0.1-0.2-0.2c-0.3-0.6-0.9-1.3-1.5-1.5
	C105.2,129.2,104.4,129,103.5,129z"/>
<path class="st3" d="M150.7,113.8l-5.2,0.6l-3.9,0.5l-2.7,0.3l0.2-0.6l1-2.6c0.6,0,1.3,0.1,2,0.1c0.6,0,1.4,0.1,2.2,0.2
	c1.8,0.2,3.6,0.3,5.4,0.4c0.2,0,0.3,0,0.5,0l3.1,0.3c0.1,0.1,0.1,0.3-0.1,0.4l-0.2,0.1l-1.6,0.5
	C150.9,114.1,150.9,113.8,150.7,113.8z"/>
<path class="st17" d="M122.7,127.2c0.1-1.5,0.2-2.9,0.3-4.4c0.9,0.1,1.8,0.6,2.5,1.4c0.2,0.2,0.3,0.5,0.3,0.9s-0.1,0.6-0.1,0.9
	c-0.2,0.4-0.6,0.8-1.1,0.9C123.9,127,123.3,127.1,122.7,127.2z"/>
<path class="st3" d="M111.6,127.4c-0.2-0.2-0.3-0.5-0.2-0.9l0.1-1.7c0.1-1,0.2-1.9,0.3-2.9c0-0.5,0.1-1,0.2-1.5l0.8-0.3
	c0,0.1,0,0.2,0,0.4c-0.2,2-0.3,4.1-0.5,6.1c0,0.3-0.1,0.6-0.1,0.9L111.6,127.4z"/>
<path class="st21" d="M111.6,127.4l0.6,0.1c0.8,0.4,1.8,0.8,2.7,1c0.6,0.1,1.2,0.2,1.8,0.2c0.6,0,1.2,0,1.8,0c0.8,0,1.7-0.2,2.5-0.3
	l1.2-0.1c0.5,0.3,0.9,0.9,1.2,1.4c0.2,0.3,0.4,0.5,0.6,0.9c1-0.3,2.1-0.4,3.1-0.4c1.2,0,2.5,0.3,3.4,1.1c1.2,0.8,2.1,2.1,2.2,3.6
	c0,0.2,0.1,0.3,0.1,0.5c0.2-0.1,0.4-0.3,0.6-0.4c0.9-1.1,2.2-1.7,3.5-1.9c0.1,0,0.2,0,0.3,0c1.1,0,2.2,0,3.3,0.1
	c0.2-0.2,0.1-0.6,0.1-1c0-1,0.2-1.8,0.6-2.7c0.2-0.3,0.4-0.6,0.6-0.9c0.2-0.3,0.4-0.5,0.7-0.9l2.3,0.1c0.8,0,1.5,0.1,2.3,0.2
	c2,0.1,4,0.4,6,0.3c1.5-0.1,3.1-0.2,4.6-0.5c2.4-0.4,4.7-0.9,7-1.5c0.2-0.1,0.5-0.1,0.7-0.1c0.1,0.1,0.1,0.2,0.2,0.2l3,2
	c2.4-0.5,4.9,0.2,6.7,1.9c0.5-0.4,0.9-0.8,1.3-1.2c0.6-0.5,1.3-1.1,2.1-1.5c0.8-0.5,1.8-1,2.6-1.3c0.7-0.3,1.4-0.5,2.2-0.6
	c0.8-0.1,1.6-0.2,2.5-0.3c0.5,0,1.1,0,1.6,0.1c0.3,0,0.7,0.1,1,0.1c0,0.1,0.1,0.2,0.1,0.3v5.1c0,0.1,0,0.1,0,0.2
	c-1.2-0.1-2.4,0.4-3.1,1.4c-0.4,0.5-0.7,1.1-0.8,1.7c0,0.4-0.3,0.6-0.6,0.8c-0.1,0-0.2,0.1-0.4,0.1c-0.8,0-1.6,0.4-2.3,1.1
	c-0.2,0.2-0.4,0.3-0.6,0.5c-0.1-0.2-0.2-0.3-0.3-0.5c-0.2-0.8-0.5-1.5-1.1-2c-0.9-1.1-2.2-1.9-3.5-2.5c-1.4-0.4-2.9-0.8-4.4-0.8
	c-0.7-0.1-1.5-0.1-2.3,0.1c-0.1,0-0.2,0-0.4,0c-1.4,0-2.8,0.4-4,1.1c-1.8,0.8-3,2.4-3.4,4.2c-0.1,0.3-0.2,0.5-0.5,0.5
	c-0.4,0-0.9,0.1-1.3,0.3c-1.9,0.6-3.4,2-4.2,4c-0.7,1.5-0.4,3.3,0.8,4.4c0.3,0.2,0.5,0.4,0.6,0.9l-0.8,0.3c-1.1,0.5-2.3,1.3-3.1,2.2
	c-0.5,0.5-0.9,1.2-1.3,1.8c-0.6,1.2-1,2.4-1,3.8c-1.2,0-2.5,0-3.7,0s-2.7,0-4,0c0-0.1-0.1-0.3-0.2-0.4c-0.8-1.3-1.9-2.5-3-3.5
	c-0.4-0.4-0.9-0.8-1.4-1c-1.2-0.9-2.7-1.4-4.1-1.7c-0.7-0.2-1.4-0.3-2.2-0.3c-0.2,0-0.5,0-0.7-0.1c-0.7-0.1-1.3-0.1-2.1,0
	c-0.2,0-0.4,0.1-0.6,0.1c-1.1,0-2.3,0.2-3.3,0.5c-0.1,0-0.2,0.1-0.3,0.1c-0.3,0.1-0.5-0.1-0.6-0.3c-0.5-1.1-1.2-2-2.3-2.7
	c-0.5-0.3-1-0.5-1.7-0.6c-0.4-0.1-0.8-0.1-1.2-0.2c-1.2-0.1-2.5,0.3-3.6,1c-0.2,0.1-0.3,0.2-0.5,0.2c-0.3-0.1-0.6-0.3-0.9-0.4
	c-1.4-0.8-3.1-1.4-4.7-1.7c-0.2,0-0.4,0-0.7,0c-0.2,0-0.5,0-0.7-0.1c-0.8-0.2-1.7-0.2-2.4,0c-0.2,0-0.5,0.1-0.7,0.1
	c-0.5,0-0.9,0-1.4,0.2c0-0.2,0-0.4,0-0.6c0-4.4,0-8.7,0-13.1c0-0.2,0-0.4,0-0.6c0.9,0,1.8,0.2,2.6,0.5c0.7,0.3,1.2,0.9,1.5,1.5
	c0,0.1,0.1,0.1,0.2,0.2c0.3,0,0.4-0.2,0.6-0.4c0.5-0.8,1-1.5,1.7-2c0.2-0.2,0.5-0.4,0.8-0.8C111.1,128.1,111.3,127.6,111.6,127.4z"
	/>
<path class="st0" d="M150.5,154.5c0-1.3,0.4-2.6,1-3.8c0.4-0.6,0.8-1.3,1.3-1.8c0.9-1,2-1.7,3.2-2.1l0.8-0.3
	c-0.1-0.3-0.3-0.6-0.6-0.9c-1.1-1.2-1.4-2.9-0.8-4.4c0.7-1.9,2.3-3.3,4.2-4c0.4-0.2,0.8-0.3,1.3-0.3c0.3,0,0.4-0.2,0.5-0.5
	c0.4-1.9,1.8-3.4,3.4-4.2c1.2-0.6,2.7-1.1,4-1.1c0.1,0,0.2,0,0.4,0c0.7-0.2,1.5-0.3,2.3-0.1c1.5,0,3,0.3,4.4,0.8
	c1.3,0.5,2.6,1.3,3.5,2.5c0.5,0.5,0.9,1.3,1.1,2c0.1,0.2,0.2,0.4,0.3,0.5c0.2-0.2,0.4-0.3,0.6-0.5c0.6-0.6,1.4-1.1,2.3-1.1
	c0.1,0,0.2,0,0.4-0.1c0.3-0.1,0.6-0.4,0.6-0.8c0.1-0.6,0.4-1.3,0.8-1.7c0.7-1,1.9-1.5,3.1-1.4c0,0.3,0.1,0.6,0.1,0.9v21.4
	c0,0.3-0.1,0.6-0.1,1h-37.1C151.3,154.6,150.9,154.5,150.5,154.5z"/>
<path class="st10" d="M124.6,245.4c0-1.1,0-2.2,0-3.3c0-1.9,0-3.9,0-5.8c0-1.7,0.5-3.3,1.4-4.7c0.9-1.5,2.6-2.4,4.2-2.4
	c6.9,0,13.9,0,20.8,0c3.4,0,6.9,0.1,10.3,0c2-0.1,3.8,1,4.7,2.8c0.8,1.3,1.1,2.7,1.1,4.2c0,2.6,0,5.1,0,7.7c0,0.5,0,1,0,1.5
	c-0.3,0-0.6,0.1-0.9,0.1h-40.9C125.2,245.5,124.9,245.5,124.6,245.4z M140.8,237.6c-0.1,3,2.2,5.5,5,5.6c0.1,0,0.1,0,0.2,0
	c2.9,0,5.4-2.4,5.4-5.5v-0.1c0-3-2.4-5.6-5.2-5.6C143.2,232.1,140.8,234.6,140.8,237.6z"/>
<path class="st14" d="M232.9,127.8c-0.3-0.2-0.6-0.4-0.9-0.8c-2-2-3.7-4.3-5.4-6.5c-1-1.4-2-2.9-2.7-4.5c0-0.1,0-0.1-0.1-0.2
	c-1-2-1.3-4.4-0.8-6.6c0.6-3.4,2.8-6.3,5.9-7.8c3.5-1.7,7.7-1.1,10.5,1.7c2.5,2.4,3.8,5.7,3.5,9.2c-0.1,1.1-0.4,2.2-0.8,3.2
	c-0.8,1.8-1.8,3.5-2.9,5c-1.4,2-3.1,4.1-4.8,5.9l-0.7,0.9C233.4,127.5,233.1,127.7,232.9,127.8z M232.9,117.2c3.3,0.1,6-2.5,6.2-5.9
	c0.1-3.4-2.4-6.2-5.7-6.4c-0.2,0-0.3,0-0.5,0c-3.3-0.1-6,2.5-6.2,5.9c-0.1,3.4,2.4,6.2,5.7,6.4C232.5,117.2,232.7,117.2,232.9,117.2
	z"/>
<path class="st22" d="M210.7,239c-0.2,0.1-0.3,0.3-0.4,0.5c-0.4,0.6-0.8,1.3-1.2,1.9c-0.2,0.5-0.7,0.8-1.2,0.8c-0.1,0-0.2,0-0.3,0
	c-0.1,0-0.2,0-0.4,0c-1.2,0-2.5-0.2-3.6-0.6c-0.1-0.1-0.2-0.2-0.2-0.3c0-0.2,0.1-0.4,0.1-0.6c1-3.9,2.2-7.7,3.2-11.6
	c0.1-0.3,0.2-0.8,0.2-1.2c0.2-0.1,0.3-0.3,0.3-0.5c0.2-1,0.5-1.8,0.8-2.8c0.4-1.2,0.8-2.4,1.2-3.5c0.7-2.2,1.3-4.4,2.1-6.6
	c0.2-0.8,0.4-1.5,0.6-2.2c0.7-2.4,1.3-4.7,2-7.1c0.4-1.6,0.9-3.2,1.3-4.8c0.5-1.8,0.9-3.6,1.4-5.5c0-0.1,0.1-0.2,0.2-0.3l1.5,0.4
	c1.2,0.3,2.6,0.5,3.9,0.8c0.9,0.1,1.9,0.1,2.8,0.1c0.2,0,0.4-0.1,0.6-0.1c1.1,0,2.2-0.2,3.2-0.5c0.5-0.1,0.9-0.3,1.4-0.4
	c-0.1,1.1-0.3,2.1-0.6,3.2c-0.7,2.4-1.8,4.7-2.9,7c-0.1,0.2-0.2,0.4-0.3,0.8l-1.1,2c-0.7,1.3-1.4,2.6-2.2,3.8s-1.5,2.8-2.3,4.2
	c-0.4,0.8-0.6,1.7-0.8,2.6c-0.1,0.9-0.3,1.6-0.5,2.5c0,0.2-0.1,0.5-0.2,0.8c-0.1,0.2-0.3,0.8-0.4,1.2c-1,2.8-2.3,5.5-3.7,8.1
	c-0.2,0.3-0.3,0.8-0.5,1.1c-0.1,0.1-0.2,0.2-0.3,0.3l-2.9,5.2c-0.2,0.3-0.4,0.6-0.6,1S210.9,238.6,210.7,239z"/>
<path class="st16" d="M217,194.3c-0.1,0.1-0.1,0.2-0.2,0.3c-0.5,1.8-0.9,3.6-1.4,5.5c-0.4,1.6-0.9,3.2-1.3,4.8
	c-0.6,2.4-1.3,4.7-2,7.1c-0.2,0.8-0.4,1.5-0.6,2.2c-0.7,2.2-1.3,4.4-2.1,6.6c-0.4,1.2-0.8,2.4-1.2,3.5c-0.3,1-0.6,1.8-0.8,2.8
	c0,0.2-0.2,0.4-0.3,0.5c-0.9-2.8-1.8-5.6-2.4-8.4c-0.4-1.6-0.6-3.2-0.8-4.8c-0.2-1.5-0.1-3,0.4-4.4c0.8-2.7,1.8-5.2,2.9-7.9
	c1.4-3.5,3.1-7.1,4.7-10.5c0.2,0,0.4,0.1,0.6,0.2c1.3,0.8,2.8,1.4,4.2,1.9C216.7,194.1,216.9,194.1,217,194.3z"/>
<path class="st23" d="M230.5,194.6c-0.4,0.1-1.2,0.4-1.8,0.5c-1,0.3-2.2,0.4-3.3,0.4c-0.1-0.2-0.2-0.5-0.3-0.8c-0.5-1-0.7-2-0.5-3.1
	c0.1-0.9,0.5-1.7,1-2.4c0.8-1.1,1.3-2.4,1.3-3.6c0-0.2,0.1-0.4,0.1-0.6c0-0.4,0-1,0-1.4c-0.1-0.4-0.1-0.9-0.1-1.3v-3.8
	c0-0.9,0.2-1.7,0.5-2.5c0.1-0.2,0.2-0.3,0.4-0.5c0.1,0.3,0.2,0.5,0.4,0.8c0.1,0.2,0.2,0.4,0.3,0.8c0.7,1.9,1.5,3.8,2.5,5.6
	c0.2,0.3,0.6,1,0.8,1.3c0,0.5-0.1,1-0.2,1.5c-0.2,1.6-0.3,3-0.5,4.6c0,0.2,0,0.5,0,0.8s-0.1,0.4-0.1,0.8c-0.1,0.4-0.2,1.2-0.3,1.6
	C230.7,193.6,230.6,194.1,230.5,194.6z"/>
<path class="st0" d="M231.2,190c0.2-1.6,0.4-3.2,0.6-4.8c0.1-0.5,0.1-1.1,0.2-1.6c0.1,0.1,0.3,0.2,0.4,0.3c1.5,1.6,3.1,3.2,4.6,4.8
	c0.2,0.2,0.4,0.4,0.6,0.6c-1.3-0.1-2.8-0.1-4.1,0.1C232.7,189.6,232,189.9,231.2,190z"/>
<path class="st23" d="M212.9,180.6c-0.6,0.6-1.4,1.1-2.3,1.2c-0.7,0.1-1.4,0-2.1-0.3c0.1-0.1,0.2-0.1,0.3-0.1l1-0.3
	c0.6-0.1,0.7-0.9,0.9-1.5c0.2-0.6,0.3-0.9,0.5-1.6c0.3-1.5,0.5-2.1,1.5-3.2c0.1-0.1,0.5-0.6,0.6-0.6c0,0,0.2-0.2,0.3-0.1l-0.2,2.8
	c-0.1,1-0.2,1.8-0.3,2.7C213.2,179.9,213.1,180.2,212.9,180.6z"/>
<path class="st0" d="M231.1,191.5c0-0.2,0.1-0.5,0.1-0.8c2.1-0.6,4.2-1,6.3-0.8c0.3,0,0.6,0.1,0.9,0.1c0.3,0.2,0.5,0.3,0.8,0.5
	c0,0.3,0.1,0.5,0.2,0.9l-0.3,0.1c-0.2,0-0.4-0.1-0.5-0.1c-1.4,0-2.9,0-4.4,0c-0.2,0-0.4,0-0.6,0.1c-0.3-0.1-0.6-0.1-0.9,0
	c-0.2,0-0.4-0.1-0.5-0.1C231.7,191.5,231.4,191.5,231.1,191.5z"/>
<path class="st11" d="M239.1,191.5l0.3-0.1l0.6,0.6c0,0.4,0,0.9,0,1.3v48.7c0,0.4,0,1,0,1.4h-0.9c0-0.2,0-0.4,0-0.8V191.5z"/>
<path class="st24" d="M198.1,65.7c3.1,0,5.7,2.7,5.7,5.9l0,0c-0.1,3.2-2.6,5.8-5.7,5.8s-5.7-2.6-5.7-5.8v-0.1c0-3.2,2.5-5.8,5.6-5.8
	L198.1,65.7L198.1,65.7z"/>
<path class="st2" d="M219.1,152.7c0.3,0.1,0.6,0.4,0.8,0.8c-0.4,0-0.7-0.2-1-0.5L219.1,152.7z"/>
<path class="st11" d="M218.9,151.9l-0.2,0.2l-0.4-0.4C218.6,151.6,218.7,151.8,218.9,151.9z"/>
<path class="st10" d="M219.6,221.2c0.1-0.2,0.1-0.5,0.2-0.8c0.2-0.9,0.4-1.6,0.5-2.5c0.1-0.9,0.4-1.7,0.8-2.6
	c0.7-1.4,1.5-2.8,2.3-4.2c0.7-1.4,1.4-2.6,2.2-3.8c0.2,0.2,0.1,0.5,0.1,0.9v30.4c-1.6-0.1-3.3-0.2-4.8-0.1l-0.9-0.1
	c-0.1-0.2-0.1-0.4-0.2-0.6c0-0.3,0-0.8,0-1.1v-14.2C219.6,222.1,219.6,221.7,219.6,221.2z"/>
<path class="st16" d="M220.7,238.6c1.6-0.1,3.3-0.1,4.8,0.1l0.9,0.4l0.2,0.2c0.9,0.8,1.4,1.9,1.3,3.1c0,0.3,0,0.6,0,1l-1.9,0.1h-0.9
	l-0.1,0.4c-0.7-0.2-1.5-0.2-2.3,0l-0.1-1c-0.1-0.1-0.2-0.2-0.3-0.3c-1.1-0.9-1.9-2.2-1.8-3.6L220.7,238.6z"/>
<path class="st10" d="M239.1,191.5v51.2c0,0.2,0,0.4,0,0.8c-0.2,0-0.3,0-0.5,0.1H234c-0.2,0-0.3,0-0.5,0c0-0.3,0-0.6,0-1v-50.1
	c0-0.3,0-0.6,0-0.9c0.2,0,0.4-0.1,0.6-0.1c1.4,0,3,0,4.4,0C238.7,191.5,238.9,191.5,239.1,191.5z"/>
<path class="st10" d="M228.1,243.5c0-0.3,0-0.6,0-1c0-1.2-0.4-2.4-1.3-3.1l-0.2-0.2c0-0.4,0-0.9,0-1.3v-28.6c0-1.3,0-2.6,0-3.9
	c0.1-0.2,0.2-0.5,0.3-0.8c1.1-2.2,2.2-4.6,2.9-7c0.4-1.1,0.6-2.1,0.6-3.2c0.1-0.5,0.2-1.1,0.4-1.6c0.2-0.5,0.2-1,0.3-1.4
	c0.3,0,0.6,0,0.9,0c0.2,0,0.4,0,0.5,0.1c0,0.2,0,0.5,0,0.9v50.3c0,0.3,0,0.6,0,1c-0.2,0-0.4,0.1-0.6,0.1L228.1,243.5z"/>
<path class="st11" d="M232.5,243.5c0-0.3,0-0.6,0-1v-50.3c0-0.2,0-0.5,0-0.9c0.3-0.1,0.6-0.1,0.9,0c0,0.3,0,0.6,0,0.9v50.1
	c0,0.3,0,0.6,0,1L232.5,243.5z"/>
<path class="st25" d="M136,185.5h-11.9c-0.4,0-0.9,0-1.3-0.1c-1.4-0.4-2.6-1.7-2.8-3.3c-0.1-0.4-0.1-1-0.1-1.4c0-4.8,0-9.6,0-14.5
	c0-0.8,0.1-1.4,0.3-2c0.5-1.6,2-2.7,3.6-2.7c0.2,0,0.3,0,0.5,0H148c0.4,0,0.8,0.1,1.2,0.1c1.6,0.4,2.9,1.9,3,3.8c0,0.3,0,0.6,0,1
	v14.4c0,0.3,0,0.6,0,0.9c0,2.1-1.8,3.9-3.8,4c-0.2,0-0.5,0-0.8,0L136,185.5z M141.3,174.2c-0.4,0.2-0.4,0.5-0.6,0.8
	c-0.1,0.3-0.5,0.5-0.8,0.4c0,0,0,0-0.1,0c-0.3-0.1-0.6-0.2-0.9-0.4l-2.2-1c-0.3-0.1-0.7-0.1-1,0c-0.5,0.2-0.6,0.5-0.4,1.1
	c0.2,0.3,0.5,0.6,0.9,0.8c0.7,0.2,1.3,0.5,2.1,0.9c0.4,0.1,0.6,0.5,0.5,1c0,0.1-0.1,0.3-0.2,0.3c-0.3,0.2-0.4,0.5-0.5,0.9l0.9,0.8
	c0,0.4,0,0.8,0,1.2c0,0.2,0,0.4,0,0.6s0.1,0.4,0.4,0.3c0.1-0.2,0.2-0.3,0.3-0.5c0.3-0.8,0.6-1.6,1-2.4c0.1-0.2,0.1-0.6,0.5-0.8
	c1.3,0.4,2.7,0.8,3.9,1.3c0.3,0.4,0,1.1,0.5,1.4c0.1,0,0.1,0,0.1,0c0.5-0.4,0.6-1.3,1.4-1.4v-0.1c0.1-0.4,0.4-0.5,0.6-0.6
	s0.6-0.4,0.9-0.8c0.1-0.1,0.1-0.2,0.2-0.3c-0.1-0.1-0.2-0.1-0.3-0.1c-0.1,0-0.3,0-0.4,0.1c-0.6,0.1-1.1,0.3-1.8,0.5
	c-0.3,0.1-0.6,0.1-0.8,0c-0.8-0.3-1.8-0.6-2.6-1.1c-0.2-0.1-0.3-0.2-0.5-0.3c0.1-0.1,0.3-0.2,0.4-0.3l4.2-2.7
	c0.2-0.1,0.3-0.2,0.5-0.3c0.1-0.1,0.1-0.2,0.1-0.2c-0.1-0.1-0.2-0.2-0.3-0.2c-0.1,0-0.2,0-0.3,0.1l-3.1,1.2c-0.6,0.2-1.3,0.4-2,0.8
	L141.3,174.2z M124.2,171.1c0.4,0,0.7,0,1,0h9.9c0.2,0,0.4-0.1,0.6-0.1c0.1-0.3,0.1-0.8,0-1.1c-0.1-0.1-0.1-0.1-0.1-0.1
	c-0.2,0-0.3,0-0.5-0.1h-10.8h-0.1l-0.1,0.1L124.2,171.1z M135.6,167.1c-0.1,0-0.2-0.1-0.2-0.1c-0.2,0-0.5,0-0.8,0h-10.2h-0.1
	l-0.1,0.1c-0.2,0.3-0.2,0.8,0,1.1c0.7,0.1,8.9,0.2,10.9,0.1c0.1,0,0.3,0,0.5-0.1C135.7,167.9,135.7,167.5,135.6,167.1L135.6,167.1z
	 M131.1,172.7c-0.1,0-0.2-0.1-0.3-0.1h-6.2c-0.1,0-0.2,0-0.3,0.1c-0.1,0.4-0.1,0.9,0.1,1.2c1,0.1,6,0.1,6.7,0
	C131.2,173.6,131.2,173.1,131.1,172.7L131.1,172.7z"/>
<path class="st17" d="M172.5,118.6c-0.1,0-0.3-0.1-0.4-0.2c-0.2-0.1-0.3-0.4-0.2-0.8c0.1-0.1,0.2-0.2,0.3-0.2
	c0.4-0.2,0.9-0.3,1.3-0.4c0.8-0.2,1.8-0.4,2.7-0.8c-0.2-0.1-0.3-0.2-0.4-0.2c-2.7-0.4-5.4-1-8.1-1.4c-1.2-0.2-2.6-0.3-3.8-0.4
	c-0.2,0-0.5-0.1-0.7-0.1c1.4-0.4,3-0.9,4.4-1.3c0.4-0.1,0.9-0.3,1.3-0.4c0.5-0.2,1-0.5,1.3-1.1c1.2-1.6,2.6-3.3,3.8-4.9
	c1.6-2,3.3-4.1,5.1-6c0.5-0.5,1-1,1.6-1.4c-0.1,0.4-0.2,0.8-0.5,1.1c-1.3,2-2.7,4.2-3.8,6.3c-0.7,1.3-1.4,2.7-1.9,4.2
	c-0.3,1-0.2,1.9,0.3,2.8c0.6,1,1.3,1.7,2.2,2.4c0.3,0.3,0.7,0.3,1,0.2l0.4-0.1c0.2,0,0.4,0,0.6,0c1.4-0.2,3-0.3,4.5-0.2
	c0.5,0,0.9,0.1,1.5,0.2c-0.1,0.1-0.2,0.3-0.3,0.4c-0.8,0.5-1.8,1.2-2.6,1.7c-0.3,0.2-0.6,0.4-0.9,0.6c-0.1,0.1-0.3,0.1-0.4,0.2
	c-0.4,0.3-0.9,0.5-1.4,0.4c-0.1,0-0.2,0-0.4,0l-5.4-0.5C173.4,118.6,172.9,118.6,172.5,118.6z"/>
<path class="st9" d="M178.7,115.8l-0.4,0.1c-0.3,0.1-0.7,0.1-1-0.2c-0.8-0.6-1.5-1.5-2.2-2.4c-0.5-0.9-0.6-1.8-0.3-2.8
	c0.5-1.5,1.1-2.9,1.9-4.2c1.2-2.1,2.5-4.3,3.8-6.3c0.3-0.3,0.4-0.6,0.5-1.1c0.1-0.1,0.3-0.2,0.4-0.2c0.5,0,0.9,0,1.4,0
	c0.1,0,0.2,0.1,0.4,0.2c-0.1,0.3-0.1,0.8-0.2,1.1c-0.9,3.2-1.9,6.4-2.7,9.8C179.7,111.7,179.2,113.8,178.7,115.8z"/>
<path class="st10" d="M172.5,118.6c0.5,0,0.9,0,1.4,0l5.4,0.5c0.1,0,0.2,0,0.4,0c0.5,0.1,1,0,1.4-0.4c0.1-0.1,0.3-0.1,0.4-0.2
	c0.1,0.5,0,1.2-0.1,1.7c-0.2,0.9-0.8,1.5-1.5,1.7l-3.7,1.2c-0.2,0.1-0.4,0.1-0.6,0.1c-0.3-1.4-1-2.7-2.1-3.6
	C173,119.4,172.8,118.9,172.5,118.6z"/>
<path class="st15" d="M232.9,117.2c-3.3,0-5.9-2.8-5.9-6.1c0-3.4,2.7-6.1,5.9-6.1s5.9,2.7,5.9,6.1c0.1,3.3-2.4,6.1-5.6,6.2
	C233.1,117.2,233,117.2,232.9,117.2z"/>
<path class="st11" d="M226.6,205.4c0,1.3,0,2.6,0,3.9v28.6c0,0.4,0,0.9,0,1.3l-0.9-0.4v-30.5c0-0.3,0.1-0.6-0.1-0.9L226.6,205.4z"/>
<path class="st26" d="M182.9,185.4c0,6.2,0,12.3,0,18.4c0,1-0.2,1.9-0.6,2.8c-0.7,1.3-2.1,2.1-3.5,2.2c-0.3,0-0.7,0-1,0h-15.9
	c-0.5,0-0.9,0-1.4-0.1c-2.2-0.4-3.7-2.4-3.7-4.6v-37c0-0.8,0.1-1.5,0.3-2.1c0.7-1.8,2.3-3.1,4.2-3.2h17.1c0.8,0,1.6,0.2,2.3,0.6
	c1.5,0.8,2.5,2.4,2.5,4.2c0,1.9,0,3.8,0,5.6L182.9,185.4z M169.9,186.1c0.2-0.1,0.3-0.3,0.5-0.4c0.7-0.8,1.4-1.6,2.1-2.4
	c1-1.3,2.1-2.6,2.9-4c0.5-0.9,0.9-1.8,1.3-2.8c0.3-1.1,0.4-2.1,0.1-3.1c-0.4-2.4-1.8-4.5-3.8-5.6c-1-0.5-2.2-0.9-3.3-0.8
	c-1.3,0-2.6,0.4-3.6,1.2c-1.6,1.2-2.8,3-3.2,5c-0.1,0.6-0.2,1.3-0.2,1.9c0.1,0.6,0.2,1.2,0.4,1.7c0.3,1.1,0.8,2,1.4,3
	c1.4,2.1,3,4.2,4.8,6C169.5,185.9,169.6,186,169.9,186.1L169.9,186.1z M175.5,192.9c-0.1,0-0.3-0.1-0.4-0.1h-10.6
	c-0.2,0-0.3,0.1-0.4,0.1c-0.1,0.4-0.1,0.9,0.1,1.2c0.1,0,0.3,0,0.4,0h10.5c0.1,0,0.3,0,0.4-0.1C175.6,193.6,175.6,193.2,175.5,192.9
	z M164.1,196.9c0.2,0,0.4,0.1,0.5,0.1H175c0.2,0,0.3,0,0.5-0.1c0.1-0.3,0.1-0.8,0-1.1c-0.1,0-0.2-0.1-0.4-0.1c-0.2,0-0.4,0-0.6,0
	c-3.1,0-6.3,0-9.4,0c-0.3,0-0.7-0.1-1,0.2L164.1,196.9L164.1,196.9z M164.1,199.7c0.1,0,0.3,0.1,0.4,0.1h6c0.1,0,0.3-0.1,0.4-0.1
	v-1.1c-0.1,0-0.3-0.1-0.4-0.1h-6c-0.2,0-0.3,0-0.4,0.1V199.7z"/>
<path class="st26" d="M136.1,208.9h-11.9c-0.3,0-0.7,0-1,0c-1.3-0.1-2.4-1.1-2.7-2.4c-0.1-0.4-0.2-1-0.2-1.4c0-3.9,0-7.7,0-11.6
	c0-0.8,0.2-1.5,0.5-2.2c0.4-0.8,1.1-1.3,2-1.5c0.5-0.1,1-0.2,1.7-0.2h23.6c0.5,0,1.1,0.1,1.6,0.2c1.4,0.3,2.4,1.6,2.4,3.1
	c0,2,0,4.1,0,6.1s0,4.3,0,6.4c0,1.3-0.7,2.5-1.9,3c-0.3,0.1-0.7,0.2-1,0.3c-0.3,0-0.7,0-1,0L136.1,208.9z M138.6,199.4
	c0,3,2.3,5.5,5.2,5.6c3,0,5.4-2.5,5.4-5.5s-2.4-5.6-5.2-5.6S138.6,196.4,138.6,199.4L138.6,199.4z M123.4,197.1H134
	c0.3,0,0.7,0.1,1-0.2c0.1-0.4,0-0.9-0.1-1.2h-10.5c-0.3,0-0.7-0.1-1,0.2C123.3,196.2,123.3,196.6,123.4,197.1L123.4,197.1z
	 M135,194.1c0.1-0.4,0.1-0.9,0-1.3c-0.1,0-0.3-0.1-0.4-0.1c-3.6,0-7.1,0-10.7,0c-0.1,0-0.3,0.1-0.4,0.1c-0.1,1.2-0.1,1.3,1,1.3
	c3.3,0,6.5,0,9.8,0C134.3,194.1,134.6,194.1,135,194.1L135,194.1z M123.4,198.6c0,0.4-0.2,0.8,0.1,1.1c0.1,0,0.1,0,0.2,0h6.3
	c0.1,0,0.2,0,0.4-0.1c0.1-0.4,0.1-0.8-0.1-1.1C129.3,198.6,124.3,198.6,123.4,198.6L123.4,198.6z"/>
<path class="st10" d="M146.1,232.5c2.7-0.1,4.9,2.1,5,4.9c0.1,2.8-2.1,5.1-4.7,5.2c-0.1,0-0.3,0-0.4,0c-2.7-0.1-4.8-2.4-4.8-5.1
	C141.1,234.8,143.4,232.5,146.1,232.5L146.1,232.5z M145.9,240.2c0.9-1.2,1.8-2.5,2.6-3.8c0.2-0.3,0.4-0.6,0.5-1
	c-0.2-0.3-0.5-0.5-0.9-0.6c-0.1,0.2-0.3,0.4-0.5,0.6l-1.6,2.5c-0.1,0.1-0.2,0.3-0.4,0.4c-0.5-0.5-1.1-1-1.8-1.4
	c-0.3,0.2-0.6,0.4-0.7,0.9C143.9,238.7,144.8,239.5,145.9,240.2z"/>
<path class="st25" d="M169.9,186.1c-0.1-0.1-0.3-0.2-0.4-0.3c-1.8-1.8-3.4-3.9-4.8-6c-0.6-1-1.1-1.9-1.4-3c-0.2-0.5-0.3-1.2-0.4-1.7
	c0-0.6,0-1.3,0.2-1.9c0.4-2,1.5-3.9,3.2-5c1-0.8,2.4-1.2,3.6-1.2c1.1,0,2.3,0.2,3.3,0.8c2.1,1.2,3.5,3.2,3.8,5.6
	c0.2,1.1,0.2,2.1-0.1,3.1s-0.7,1.9-1.3,2.8c-0.8,1.4-1.9,2.8-2.9,4c-0.7,0.8-1.4,1.6-2.1,2.4C170.2,185.8,170.1,186,169.9,186.1z
	 M174,174.3c0-2.4-1.8-4.3-4-4.3c0,0,0,0-0.1,0c-2.3,0-4.1,1.9-4.1,4.3c0.1,2.4,1.9,4.2,4.1,4.3C172.1,178.6,173.9,176.7,174,174.3
	L174,174.3z"/>
<path class="st26" d="M148.8,199.4c0.1,2.7-2,4.8-4.5,4.9h-0.1c-2.6,0.3-4.8-1.7-5.1-4.3c-0.3-2.7,1.6-5,4.1-5.4c0.3,0,0.6,0,0.8,0
	C146.6,194.6,148.6,196.7,148.8,199.4L148.8,199.4z M144.4,199.3c0-0.6,0-1.2,0-1.6c0-0.2,0-0.4-0.1-0.6c0-0.1-0.2-0.2-0.2-0.2
	c-0.1,0.1-0.2,0.2-0.2,0.2c0,1,0,1.9,0,2.9c0,0.1,0.1,0.2,0.2,0.3c0.1,0,0.2-0.1,0.3-0.1l1.3-1.5c0.4-0.4,0.8-0.9,1.2-1.4
	c0.1-0.1,0.1-0.2-0.1-0.3c-0.4,0.3-0.7,0.8-1.1,1.2C145.4,198.4,144.8,198.9,144.4,199.3z"/>
<path class="st17" d="M87.1,110.8c0.1,0.3,0.1,0.8,0.1,1.2s-0.4,0.9-0.8,0.9c-1.1,0.1-2.3,0-3.4-0.2l-1.5-0.3c0.8-0.9,1.8-1.5,2.7-2
	"/>
<text transform="matrix(0.9548 0 0 1 2.5726 30.6872)" class="st14 st27 st28">T</text>
<text transform="matrix(0.9548 0 0 1 2.5726 30.6872)" class="st29 st27 st28">T</text>
<text transform="matrix(0.9548 0 0 1 2.5726 30.6872)" class="st14 st27 st28">T</text>
<text transform="matrix(0.9548 0 0 1 2.5726 30.6872)" class="st29 st27 st28">T</text>
<text transform="matrix(0.9548 0 0 1 17.2005 30.6872)" class="st14 st27 st28">r</text>
<text transform="matrix(0.9548 0 0 1 17.2005 30.6872)" class="st29 st27 st28">r</text>
<text transform="matrix(0.9548 0 0 1 17.2005 30.6872)" class="st14 st27 st28">r</text>
<text transform="matrix(0.9548 0 0 1 17.2005 30.6872)" class="st29 st27 st28">r</text>
<text transform="matrix(0.9548 0 0 1 27.9149 30.6872)" class="st14 st27 st28">i</text>
<text transform="matrix(0.9548 0 0 1 27.9149 30.6872)" class="st29 st27 st28">i</text>
<text transform="matrix(0.9548 0 0 1 27.9149 30.6872)" class="st14 st27 st28">i</text>
<text transform="matrix(0.9548 0 0 1 27.9149 30.6872)" class="st29 st27 st28">i</text>
<text transform="matrix(0.9548 0 0 1 35.4906 30.6872)" class="st14 st27 st28">p</text>
<text transform="matrix(0.9548 0 0 1 35.4906 30.6872)" class="st29 st27 st28">p</text>
<text transform="matrix(0.9548 0 0 1 35.4906 30.6872)" class="st14 st27 st28">p</text>
<text transform="matrix(0.9548 0 0 1 35.4906 30.6872)" class="st29 st27 st28">p</text>
<text transform="matrix(0.9548 0 0 1 52.6146 30.6872)" class="st14 st27 st28">T</text>
<text transform="matrix(0.9548 0 0 1 52.6146 30.6872)" class="st29 st27 st28">T</text>
<text transform="matrix(0.9548 0 0 1 52.6146 30.6872)" class="st14 st27 st28">T</text>
<text transform="matrix(0.9548 0 0 1 52.6146 30.6872)" class="st29 st27 st28">T</text>
<text transform="matrix(0.9548 0 0 1 66.4032 30.6872)" class="st14 st27 st28">oe</text>
<text transform="matrix(0.9548 0 0 1 66.4032 30.6872)" class="st29 st27 st28">oe</text>
<text transform="matrix(0.9548 0 0 1 66.4032 30.6872)" class="st14 st27 st28">oe</text>
<text transform="matrix(0.9548 0 0 1 66.4032 30.6872)" class="st29 st27 st28">oe</text>
<path class="st0" d="M282.2,58.7c3.3,0,3.3-5.4,0-5.4S278.9,58.7,282.2,58.7z"/>
<g>
	<path class="st30" d="M196.5,23.4c3.3,0,3.3-5.4,0-5.4S193.2,23.4,196.5,23.4z"/>
	<path class="st30" d="M210.8,30.7c5.4,0,10.5-4.9,10.3-10.7c-0.1-5.9-4.6-10.6-10.3-10.7c-5.4,0-10.5,4.9-10.3,10.7
		C200.6,25.9,205.1,30.6,210.8,30.7z"/>
	<path class="st30" d="M222.8,25.4c2.9,0,5.1-2.4,5.1-5.4s-2.3-5.4-5.1-5.4s-5.1,2.4-5.1,5.4C217.7,23,219.9,25.3,222.8,25.4z"/>
	<path class="st30" d="M202.4,27.4c2.9,0,5.1-2.4,5.1-5.4s-2.3-5.4-5.1-5.4s-5.1,2.4-5.1,5.4C197.3,24.9,199.6,27.3,202.4,27.4z"/>
	<path class="st30" d="M228.8,25.5c3.3,0,3.3-5.4,0-5.4S225.5,25.5,228.8,25.5z"/>
	<path class="st30" d="M226,28.7c3.3,0,3.3-5.4,0-5.4S222.7,28.7,226,28.7z"/>
	<path class="st30" d="M221.5,27.4c3.3,0,3.3-5.4,0-5.4S218.2,27.4,221.5,27.4z"/>
	<path class="st30" d="M197.8,26.6c4,0,7.9-3.8,7.7-8c-0.1-4.4-3.5-7.9-7.7-8c-4,0-7.9,3.8-7.7,8C190.1,23,193.5,26.5,197.8,26.6z"
		/>
	<path class="st30" d="M186.7,23.9c2.9,0,5.1-2.4,5.1-5.4s-2.3-5.4-5.1-5.4s-5.1,2.4-5.1,5.4C181.6,21.5,183.8,23.9,186.7,23.9z"/>
	<path class="st30" d="M180.9,22.3c3.3,0,3.3-5.4,0-5.4S177.6,22.3,180.9,22.3z"/>
	<path class="st30" d="M191,26.2c3.3,0,3.3-5.4,0-5.4S187.7,26.2,191,26.2z"/>
	<path class="st31" d="M249.5,56c0.9-1.8,2-3.5,2.9-5.2c0.9-1.7,1.8-3.2,2.7-4.9c0.8-1.5,1.5-3,2.3-4.5c0.6-1.3,1.2-2.7,1.9-4.1
		c0.4-0.9,0.7-1.7,1-2.6c0.6-1.9,1.2-3.9,1.8-5.8s1-4,1.3-6c0.4-2.4,0.8-4.8,1-7.2c0.2-1.6,0.3-3.3,0.3-5c0.1-1.5-0.1-3-0.6-4.4
		c-0.2-0.9-0.8-1.5-1.5-1.8c0.5,0.2,0.6,0.3,1.1,0.5c1.4,0.8,2.8,1.7,3.9,2.9c1.1,1.3,2.2,2.9,2.8,4.5c1.1,3.1,1.8,6.4,1.8,9.8
		c0.1,2.9-0.1,5.8-0.5,8.6c-0.4,3.1-1.4,6.1-3,8.8c-2,3.4-4.4,6.5-7.1,9.3c-1.6,1.7-3.4,3.3-5.1,5c-1.1,1-2.2,2.1-3,3.3
		c-0.1,0.2-0.1,0.3,0.2,0.4c0.7,0.3,1.4,0.8,2.2,1.1c0.2,0.1,0.4,0.2,0.6,0c1.3-1.4,2.9-2.7,4.6-3.6c1.6-1.1,3.3-2.1,4.9-3.3
		c2.7-1.7,5.1-3.8,7.4-6c1.9-1.7,3.4-3.8,4.6-6c0.8-1.7,1.4-3.4,1.6-5.4c0.4-3.5,0.3-7.1-0.4-10.6c-0.5-2.6-1.3-5.1-2.6-7.5
		c-1.3-2.9-3.3-5.5-5.9-7.3c-2.5-1.8-5.1-3.3-8-4.4c2.4,1,4.7,2,7,3.3c3.7,2.1,6.9,5.1,9.5,8.6c2.6,3.3,4.4,7.2,5.4,11.2
		c1.6,8-1.3,16.3-7.6,21.1c-1.8,1.4-3.7,2.5-5.7,3.4c-4.4,1.9-8.6,4.2-12.8,6.6c-2.5,1.6-4.8,3.4-7.1,5.5c-0.2,0.2-0.4,0.4-0.6,0.5
		c-0.9,0.8-1.5,1.8-1.6,3c0,0.1-0.1,0.3-0.1,0.5l-1.4-0.4c-0.9-0.3-0.9-0.3-1.3,0.3c-0.1,0.1-0.1,0.2-0.2,0.3c0.2,0,0.3,0.1,0.5,0.2
		c0.1,0.1,0.2,0.2,0.3,0.3c-0.1,0-0.2,0.1-0.4,0.1c-0.1,0-0.3,0-0.4-0.1c0,0.4,0,0.9,0,1.3c0,0.8,0.1,1.4,0.1,2.1
		c0,0.3,0.1,0.5,0.5,0.5h0.1l0,0c-0.4,1-0.7,1.9-1.1,2.9c-0.3,1-0.5,2-0.5,3.1l-8.8-2.8c1-1.7,1.8-3.8,2-5.9c0.6,0.2,0.6,0.2,1-0.3
		l1.6-2.4c0-0.1,0.1-0.1,0.1-0.2H241c-0.1-0.2-0.3-0.3-0.3-0.5c0.1-0.3,0.4,0,0.7-0.1c0-0.3,0-0.6-0.1-1.1c0-0.1-0.2-0.2-0.3-0.2
		l-2.2-0.8c0.1-0.3,0.1-0.6,0.3-0.9c0.4-1.1,0.5-2.1,0.2-3.2c-0.5-2.9-1.3-5.7-2.4-8.5c-0.5-1.3-1.2-2.6-1.9-3.8
		c-1.5-2.8-3-5.6-4.5-8.2c-0.6-1.1-1.3-2.1-2-3.3c-2.2-3.9-3.3-8.2-3.1-12.7c0.2-5.2,2.5-10.3,6.2-13.9c1.6-1.6,3.5-3,5.6-4.1
		c3.6-1.9,7.5-3,11.6-3.3c1.8-0.2,3.5-0.3,5.2-0.2c2.7,0.2,5.2,0.5,7.8,1.2c-2.4-0.5-4.7-0.8-7.1-0.6c-2.5,0.1-4.9,0.5-7.3,1.2
		c-3.5,1.3-6.7,3.2-9.5,5.8c-2.3,2-4.1,4.5-5.4,7.4c-0.9,2.1-1.3,4.5-1.4,6.9c-0.2,4,0.2,7.9,1.1,11.7c0.9,3.9,2.2,7.6,3.8,11.2
		c0.7,1.6,1.4,3.2,2.1,4.8c0.1,0.5,0.5,0.9,1,0.9c0.7,0,1.4,0.2,2.2,0.3c0-0.2,0-0.3,0-0.4l-1.1-4.8c-0.8-3.6-1.3-7.3-1.5-10.9
		c-0.2-3.4-0.1-7,0.3-10.4c0.6-4.4,2.2-8.7,4.7-12.3c1.3-2,2.9-3.8,4.6-5.5c1.3-1.3,2.9-2.5,4.5-3.3c1.4-0.9,3.1-1.4,4.7-1.6
		c0.6-0.1,1.1-0.1,1.8-0.1c0.8,0,1.6,0.1,2.5,0.2l1,0.3c-0.5-0.2-1.1-0.2-1.8,0c-1.1,0.5-2.2,1.3-2.9,2.4c-1.4,1.8-2.7,3.9-3.8,6
		c-1,2-1.9,4.1-2.8,6.1c-0.9,2.2-1.8,4.5-2.5,6.9c-0.4,1.7-0.9,3.4-1.2,5.2c-0.3,1.8-0.7,3.2-0.9,4.8c-0.3,1.8-0.6,3.6-0.8,5.6
		s-0.4,3.6-0.6,5.4c-0.2,1.7-0.2,3.6-0.4,5.6c0,0.5-0.1,1-0.1,1.5c0,0.2,0.1,0.3,0.3,0.4l3.9,1.3C249.1,55.9,249.3,55.9,249.5,56z
		 M245.4,73.3c0,0,0-0.1,0.1-0.1c-0.1-1.2-0.1-2.4-0.2-3.5c0-0.2-0.1-0.3-0.3-0.3c-1.2-0.4-2.6-0.9-3.9-1.3c-0.2-0.1-0.4,0-0.5,0.1
		c-0.6,0.9-1.2,1.7-1.9,2.7c-0.2,0.3-0.2,0.3,0.2,0.5c1.6,0.9,3.4,1.5,5.2,1.8L245.4,73.3z M241.1,67.5l0.1,0.1l3.7,1.2
		c0.2,0.1,0.3,0,0.3-0.2c0-0.3,0-0.5,0-0.9c0-0.1-0.1-0.2-0.2-0.2l-2.9-1c-0.1,0-0.2,0-0.3,0C241.5,66.9,241.3,67.2,241.1,67.5
		L241.1,67.5z M240.9,66.2c0.1,0.3,0.1,0.6,0.2,0.6c0.3,0,0.4-0.2,0.4-0.4L240.9,66.2z M245.8,67.8l-0.6-0.2l0.2,0.8
		c0.1-0.1,0.3-0.2,0.4-0.3C245.9,67.9,245.9,67.9,245.8,67.8L245.8,67.8z"/>
	<path class="st0" d="M264.4,69.2c3.3,0,3.3-5.4,0-5.4S261,69.2,264.4,69.2z"/>
	<path class="st0" d="M278.5,75.3c5.4,0,10.5-4.9,10.3-10.7c-0.1-5.9-4.6-10.6-10.3-10.7c-5.4,0-10.5,4.9-10.3,10.7
		C268.3,70.5,272.8,75.2,278.5,75.3z"/>
	<path class="st0" d="M290.5,69c2.9,0,5.1-2.4,5.1-5.4s-2.3-5.4-5.1-5.4c-2.9,0-5.1,2.4-5.1,5.4C285.4,66.6,287.6,69,290.5,69z"/>
	<path class="st0" d="M270.3,72.6c2.9,0,5.1-2.4,5.1-5.4s-2.3-5.4-5.1-5.4c-2.9,0-5.1,2.4-5.1,5.4C265.2,70.1,267.5,72.5,270.3,72.6
		z"/>
	<path class="st0" d="M296.7,68.5c3.3,0,3.3-5.4,0-5.4C293.4,63.2,293.3,68.5,296.7,68.5z"/>
	<path class="st0" d="M289.6,71c3.3,0,3.3-5.4,0-5.4C286.3,65.6,286.3,71,289.6,71z"/>
	<path class="st0" d="M265.4,72.3c4,0,7.9-3.6,7.7-8c-0.1-4.4-3.5-7.9-7.7-8c-4,0-7.9,3.6-7.7,8C257.8,68.6,261.2,72.2,265.4,72.3z"
		/>
	<path class="st0" d="M254.3,70.5c2.9,0,5.2-2.4,5.2-5.4s-2.3-5.4-5.1-5.4s-5.1,2.4-5.1,5.4C249.2,68.1,251.5,70.5,254.3,70.5z"/>
	<path class="st0" d="M248.7,69.4c3.3,0,3.3-5.4,0-5.4S245.4,69.4,248.7,69.4z"/>
</g>
<path class="st32" d="M60.1,172.7v2.5c0,0,2.3,0.6,2.6-1.3C62.6,174,63,172.3,60.1,172.7z"/>
<path class="st33" d="M0.9,213.3"/>
<path class="st33" d="M0.8-51.1"/>
<path class="st33" d="M300.2,213.4"/>
<path class="st33" d="M300-18.2"/>
<path class="st32" d="M65.4,176.1h2.4c0,0-0.5-1.4-0.9-2.6c-0.1-0.3-0.4-0.3-0.5,0C66.1,174,65.8,174.9,65.4,176.1z"/>
<path class="st32" d="M82.7,172.7v2.5c0,0,2.3,0.6,2.6-1.3C85.1,174,85.6,172.3,82.7,172.7z"/>
<path class="st32" d="M90,176.9L90,176.9c0.8,0,1.4-1.1,1.2-2.1c-0.1-0.6-0.5-1.2-1.2-1.3c0,0-1-0.3-1.2,1.5
	C88.6,176,89.3,176.9,90,176.9z"/>
<path class="st32" d="M94.8,172.7v2.5c0,0,2.3,0.6,2.6-1.3C97.3,174,97.7,172.3,94.8,172.7z"/>
<path class="st34" d="M299.9,212.7"/>
<path class="st35" d="M0.9,212.4"/>
<path class="st35" d="M0.8-52"/>
<path class="st35" d="M300.1,213.6"/>
<path class="st35" d="M300-18"/>
</svg>
